<svg width="120" height="120" viewBox="0 0 120 120" fill="none" xmlns="http://www.w3.org/2000/svg">
<circle cx="60" cy="60" r="58" stroke="url(#paint0_radial)" stroke-width="4"/>
<mask id="path-2-inside-1" fill="white">
<path d="M63.9998 51.9999V44C63.9998 42.4087 63.3677 40.8826 62.2425 39.7573C61.1173 38.6321 59.5912 38 57.9999 38L49.9999 55.9999V77.9997H72.5598C73.5244 78.0106 74.4605 77.6726 75.1956 77.0478C75.9306 76.423 76.4151 75.5536 76.5598 74.5998L79.3197 56.5999C79.4068 56.0266 79.3681 55.4413 79.2064 54.8844C79.0448 54.3275 78.764 53.8125 78.3835 53.3749C78.003 52.9374 77.5319 52.5878 77.0029 52.3503C76.4739 52.1129 75.8996 51.9933 75.3198 51.9999H63.9998ZM49.9999 77.9997H44C42.9391 77.9997 41.9217 77.5783 41.1716 76.8282C40.4214 76.078 40 75.0606 40 73.9998V59.9999C40 58.939 40.4214 57.9216 41.1716 57.1715C41.9217 56.4213 42.9391 55.9999 44 55.9999H49.9999"/>
</mask>
<path d="M63.9998 51.9999H59.9998V55.9999H63.9998V51.9999ZM63.9998 44L67.9998 44L63.9998 44ZM57.9999 38L57.9999 34H55.4004L54.3446 36.3754L57.9999 38ZM72.5598 77.9997L72.605 74L72.5824 73.9997H72.5598V77.9997ZM76.5598 74.5998L72.606 73.9935L72.605 74L76.5598 74.5998ZM79.3197 56.5999L83.2735 57.2061L83.2745 57.2001L79.3197 56.5999ZM75.3198 51.9999V55.9999H75.3424L75.3651 55.9997L75.3198 51.9999ZM40 73.9998H36H40ZM44 55.9999V59.9999V55.9999ZM67.9998 51.9999V44H59.9998V51.9999H67.9998ZM67.9998 44C67.9998 41.3478 66.9463 38.8043 65.0709 36.9289L59.4141 42.5858C59.7891 42.9608 59.9998 43.4695 59.9998 44L67.9998 44ZM65.0709 36.9289C63.1956 35.0536 60.652 34 57.9999 34L57.9999 42C58.5303 42 59.039 42.2107 59.4141 42.5858L65.0709 36.9289ZM54.3446 36.3754L46.3447 54.3753L53.6552 57.6244L61.6551 39.6246L54.3446 36.3754ZM45.9999 55.9999V77.9997H53.9999V55.9999H45.9999ZM49.9999 81.9997H72.5598V73.9997H49.9999V81.9997ZM72.5146 81.9995C74.4439 82.0213 76.3161 81.3451 77.7862 80.0955L72.605 74L72.605 74L72.5146 81.9995ZM77.7862 80.0955C79.2563 78.8459 80.2253 77.1071 80.5146 75.1995L72.605 74L72.605 74L77.7862 80.0955ZM80.5136 75.206L83.2735 57.2061L75.366 55.9936L72.606 73.9935L80.5136 75.206ZM83.2745 57.2001C83.4485 56.0536 83.3712 54.8829 83.0478 53.7692L75.365 55.9996L75.365 55.9996L83.2745 57.2001ZM83.0478 53.7692C82.7245 52.6554 82.1629 51.6253 81.4019 50.7502L75.3651 55.9996L75.365 55.9996L83.0478 53.7692ZM81.4019 50.7502C80.6409 49.8751 79.6988 49.1759 78.6408 48.701L75.3651 55.9997L75.3651 55.9996L81.4019 50.7502ZM78.6408 48.701C77.5827 48.2262 76.4341 47.987 75.2745 48.0002L75.3651 55.9997L75.3651 55.9997L78.6408 48.701ZM75.3198 47.9999H63.9998V55.9999H75.3198V47.9999ZM49.9999 73.9997H44V81.9997H49.9999V73.9997ZM44 73.9997L44 73.9998L38.3431 79.6566C39.8434 81.1569 41.8782 81.9997 44 81.9997V73.9997ZM44 73.9998L44 73.9998H36C36 76.1215 36.8429 78.1563 38.3431 79.6566L44 73.9998ZM44 73.9998V59.9999H36V73.9998H44ZM44 59.9999L44 59.9999L38.3431 54.343C36.8429 55.8433 36 57.8781 36 59.9999H44ZM44 59.9999L44 59.9999L44 51.9999C41.8782 51.9999 39.8434 52.8427 38.3431 54.343L44 59.9999ZM44 59.9999H49.9999V51.9999H44V59.9999Z" fill="url(#paint1_radial)" mask="url(#path-2-inside-1)"/>
<defs>
<radialGradient id="paint0_radial" cx="0" cy="0" r="1" gradientUnits="userSpaceOnUse" gradientTransform="translate(60 6.5) rotate(90) scale(113.5)">
<stop stop-color="#FF3697"/>
<stop offset="1" stop-color="#4000C9"/>
</radialGradient>
<radialGradient id="paint1_radial" cx="0" cy="0" r="1" gradientUnits="userSpaceOnUse" gradientTransform="translate(59.6825 40.1667) rotate(90) scale(37.8333 37.2328)">
<stop stop-color="#FF3697"/>
<stop offset="1" stop-color="#4000C9"/>
</radialGradient>
</defs>
</svg>
