<svg width="120" height="120" viewBox="0 0 120 120" fill="none" xmlns="http://www.w3.org/2000/svg">
<circle cx="60" cy="60" r="58" stroke="url(#paint0_radial)" stroke-width="4"/>
<path d="M60 47L60 45L60 47H60.0004L60.002 47L60.009 47L60.0376 47L60.1513 47.0002C60.2515 47.0004 60.3995 47.0008 60.5894 47.0016C60.9692 47.0032 61.5164 47.0065 62.1841 47.013C63.5203 47.0261 65.3355 47.0522 67.2554 47.1043C69.1782 47.1564 71.1913 47.2343 72.9277 47.3499C74.6845 47.4669 76.009 47.6144 76.6889 47.7743C77.2782 47.9474 77.8128 48.2701 78.2407 48.7112C78.6629 49.1465 78.9667 49.6822 79.1237 50.2673C79.7274 53.6397 80.0204 57.0605 79.9989 60.4866L79.9988 60.4965L79.9989 60.5064C80.011 63.8809 79.7181 67.2495 79.1237 70.5712C78.9667 71.1562 78.6629 71.6919 78.2407 72.1272C77.8079 72.5734 77.2658 72.8984 76.6684 73.07C76.011 73.2432 74.6912 73.406 72.9151 73.5356C71.1822 73.662 69.1719 73.7472 67.2502 73.8043C65.3318 73.8613 63.5177 73.8898 62.1822 73.9041C61.5149 73.9113 60.968 73.9148 60.5886 73.9166C60.3988 73.9175 60.251 73.918 60.1509 73.9182L60.0374 73.9184L60.0089 73.9184L60.002 73.9184H60.0004H60H59.9996H59.998L59.9911 73.9184L59.9626 73.9184L59.8491 73.9182C59.749 73.918 59.6012 73.9175 59.4114 73.9166C59.032 73.9148 58.4851 73.9113 57.8178 73.9041C56.4823 73.8898 54.6682 73.8613 52.7498 73.8043C50.8281 73.7472 48.8178 73.662 47.0849 73.5356C45.3012 73.4055 43.9778 73.2418 43.3232 73.0678C42.7348 72.9058 42.198 72.5953 41.7642 72.166C41.3501 71.7562 41.0433 71.2513 40.87 70.6961C40.2705 67.335 39.9797 63.926 40.0011 60.5118L40.0012 60.5005L40.0011 60.4893C39.9843 57.089 40.2773 53.6943 40.8763 50.3472C41.0333 49.7622 41.3371 49.2265 41.7593 48.7912C42.1921 48.345 42.7342 48.0199 43.3316 47.8483C43.9891 47.6752 45.3088 47.5124 47.0849 47.3828C48.8178 47.2564 50.8281 47.1712 52.7498 47.1141C54.6682 47.0571 56.4823 47.0285 57.8178 47.0143C58.4851 47.0071 59.032 47.0036 59.4114 47.0018C59.6012 47.0009 59.749 47.0004 59.8491 47.0002L59.9626 47L59.9911 47L59.998 47L59.9996 47H60Z" stroke="url(#paint1_radial)" stroke-width="4"/>
<path d="M57.499 57.3987L62.9527 60.5001L57.499 63.6016V57.3987Z" stroke="url(#paint2_radial)" stroke-width="4"/>
<defs>
<radialGradient id="paint0_radial" cx="0" cy="0" r="1" gradientUnits="userSpaceOnUse" gradientTransform="translate(60 6.5) rotate(90) scale(113.5)">
<stop stop-color="#FF3697"/>
<stop offset="1" stop-color="#4000C9"/>
</radialGradient>
<radialGradient id="paint1_radial" cx="0" cy="0" r="1" gradientUnits="userSpaceOnUse" gradientTransform="translate(60 46.6747) rotate(90) scale(29.2436 41.6167)">
<stop stop-color="#FF3697"/>
<stop offset="1" stop-color="#4000C9"/>
</radialGradient>
<radialGradient id="paint2_radial" cx="0" cy="0" r="1" gradientUnits="userSpaceOnUse" gradientTransform="translate(61.2487 54.6689) rotate(90) scale(12.3709 10.8765)">
<stop stop-color="#FF3697"/>
<stop offset="1" stop-color="#4000C9"/>
</radialGradient>
</defs>
</svg>
