<svg width="120" height="120" viewBox="0 0 120 120" fill="none" xmlns="http://www.w3.org/2000/svg">
<circle cx="60" cy="60" r="58" stroke="url(#paint0_radial)" stroke-width="4"/>
<path d="M75.2109 48.3926L76.0591 49.3678L77.2967 48.9952C77.7599 48.8557 78.2184 48.7022 78.6714 48.5351C78.2938 49.0284 77.8812 49.4967 77.4357 49.9361L76.675 50.6863L76.8756 51.7356C76.9567 52.1601 76.9984 52.5912 77 53.0234C76.9989 63.8218 71.873 71.3704 64.8103 75.1296C59.614 77.8954 53.2605 78.6668 46.9202 77.0515C49.4684 76.3178 51.9014 75.1831 54.1233 73.6749L57.1005 71.6539L53.8123 70.1925C49.6321 68.3346 47.0806 65.9554 45.5334 63.5125C43.9782 61.0569 43.3609 58.4143 43.2479 55.9293C43.1485 53.7426 43.4419 51.7101 43.8093 50.1073C45.5945 51.9251 47.6717 53.4443 49.9628 54.5975C53.398 56.3265 57.2074 57.1791 61.0518 57.0794L63 57.0289V55.0801V53.0801V53.0667L62.9998 53.0533C62.9807 51.6276 63.3999 50.2305 64.2007 49.0509C65.0015 47.8712 66.1453 46.966 67.4773 46.4575C68.8094 45.9491 70.2655 45.8621 71.6486 46.2082C73.0317 46.5542 74.2752 47.3168 75.2109 48.3926Z" stroke="url(#paint1_radial)" stroke-width="4"/>
<defs>
<radialGradient id="paint0_radial" cx="0" cy="0" r="1" gradientUnits="userSpaceOnUse" gradientTransform="translate(60 6.5) rotate(90) scale(113.5)">
<stop stop-color="#FF3697"/>
<stop offset="1" stop-color="#4000C9"/>
</radialGradient>
<radialGradient id="paint1_radial" cx="0" cy="0" r="1" gradientUnits="userSpaceOnUse" gradientTransform="translate(61 45.9439) rotate(90) scale(33.9435 41.6167)">
<stop stop-color="#FF3697"/>
<stop offset="1" stop-color="#4000C9"/>
</radialGradient>
</defs>
</svg>
