<svg width="5040" height="998" viewBox="0 0 5040 998" fill="none" xmlns="http://www.w3.org/2000/svg">
<g clip-path="url(#clip0_49_26)">
<path d="M5102 3.91382H0V987.564H5102V3.91382Z" fill="#1D242A"/>
<path d="M1723 690.089H1653H1583C1436 690.089 1373 676.632 1233 659.811C1093 642.989 953 598.133 813 553.276C673 508.418 541 464.843 393 441.134C253 418.705 113 418.705 43 418.705H-27V1186H43H393H813H1233H1583H1653H1723H2073H2493H2913H3263H3333H3403H3753H4173H4593H4943H5013L5035.5 -43L4772.5 37C4609 50.5 4695.5 37 4555.5 60.5C4392.5 133.5 4445.5 76.9999 4359 133.5C4183 177 4191 179.158 4015.5 223.5C4119.5 181 3892.89 254.478 4015.5 223.5L3779 280.5L3602.5 333.5C3522.5 368.679 3076 463.5 2939 493.5C2802 523.5 2633 565.644 2493 610.5C2353 655.357 2213 673.267 2073 690.089C1933 706.91 1870 690.089 1723 690.089Z" fill="url(#paint0_linear_49_26)"/>
<g filter="url(#filter0_f_49_26)">
<path d="M2131.11 685.5C2131.11 693.693 2124 700.77 2114.67 700.77C2105.34 700.77 2098.23 693.693 2098.23 685.5C2098.23 677.307 2105.34 670.23 2114.67 670.23C2124 670.23 2131.11 677.307 2131.11 685.5Z" stroke="#605DEC" stroke-width="9"/>
</g>
<path d="M2132.61 685.5C2132.61 694.602 2124.74 702.27 2114.67 702.27C2104.6 702.27 2096.73 694.602 2096.73 685.5C2096.73 676.398 2104.6 668.73 2114.67 668.73C2124.74 668.73 2132.61 676.398 2132.61 685.5Z" stroke="white" stroke-width="6"/>
<path d="M2028.22 746.915L2012.98 741.123V736.963L2028.22 731.171V735.171L2014.49 740.163V737.923L2028.22 742.915V746.915ZM2040.18 742.595V739.907H2057.43V742.595H2040.18ZM2040.18 738.179V735.491H2057.43V738.179H2040.18ZM2055.41 750.627C2053.66 750.627 2052.04 750.35 2050.55 749.795C2049.07 749.219 2047.79 748.408 2046.71 747.363C2045.62 746.318 2044.78 745.091 2044.18 743.683C2043.58 742.275 2043.28 740.728 2043.28 739.043C2043.28 737.358 2043.58 735.811 2044.18 734.403C2044.78 732.995 2045.62 731.768 2046.71 730.723C2047.79 729.678 2049.07 728.878 2050.55 728.323C2052.04 727.747 2053.66 727.459 2055.41 727.459C2057.35 727.459 2059.11 727.8 2060.69 728.483C2062.27 729.144 2063.58 730.126 2064.63 731.427L2061.33 734.499C2060.56 733.624 2059.71 732.974 2058.77 732.547C2057.83 732.099 2056.8 731.875 2055.67 731.875C2054.62 731.875 2053.66 732.046 2052.79 732.387C2051.91 732.728 2051.15 733.219 2050.51 733.859C2049.87 734.499 2049.37 735.256 2049.01 736.131C2048.67 737.006 2048.5 737.976 2048.5 739.043C2048.5 740.11 2048.67 741.08 2049.01 741.955C2049.37 742.83 2049.87 743.587 2050.51 744.227C2051.15 744.867 2051.91 745.358 2052.79 745.699C2053.66 746.04 2054.62 746.211 2055.67 746.211C2056.8 746.211 2057.83 745.998 2058.77 745.571C2059.71 745.123 2060.56 744.451 2061.33 743.555L2064.63 746.627C2063.58 747.928 2062.27 748.92 2060.69 749.603C2059.11 750.286 2057.35 750.627 2055.41 750.627ZM2074.02 750.627C2072.46 750.627 2070.92 750.424 2069.38 750.019C2067.87 749.592 2066.56 748.995 2065.48 748.227L2067.52 744.259C2068.38 744.878 2069.36 745.368 2070.47 745.731C2071.6 746.094 2072.74 746.275 2073.89 746.275C2075.19 746.275 2076.22 746.019 2076.96 745.507C2077.71 744.995 2078.08 744.28 2078.08 743.363C2078.08 742.787 2077.93 742.275 2077.64 741.827C2077.34 741.379 2076.8 741.038 2076.04 740.803C2075.29 740.568 2074.23 740.451 2072.87 740.451H2067.14L2068.29 727.843H2081.96V732.003H2070.15L2072.84 729.635L2072.04 738.627L2069.35 736.259H2074.08C2076.3 736.259 2078.08 736.568 2079.43 737.187C2080.79 737.784 2081.79 738.606 2082.4 739.651C2083.02 740.696 2083.33 741.88 2083.33 743.203C2083.33 744.526 2083 745.752 2082.34 746.883C2081.68 747.992 2080.65 748.899 2079.27 749.603C2077.9 750.286 2076.15 750.627 2074.02 750.627ZM2085.63 755.171L2087.74 747.491L2088.44 750.371C2087.53 750.371 2086.77 750.104 2086.17 749.571C2085.6 749.038 2085.31 748.302 2085.31 747.363C2085.31 746.424 2085.61 745.678 2086.2 745.123C2086.8 744.568 2087.54 744.291 2088.41 744.291C2089.31 744.291 2090.04 744.579 2090.62 745.155C2091.2 745.71 2091.48 746.446 2091.48 747.363C2091.48 747.64 2091.46 747.918 2091.42 748.195C2091.38 748.451 2091.29 748.771 2091.16 749.155C2091.06 749.518 2090.88 749.987 2090.62 750.563L2088.8 755.171H2085.63ZM2103 750.627C2101.17 750.627 2099.53 750.179 2098.08 749.283C2096.63 748.366 2095.48 747.043 2094.65 745.315C2093.82 743.587 2093.4 741.496 2093.4 739.043C2093.4 736.59 2093.82 734.499 2094.65 732.771C2095.48 731.043 2096.63 729.731 2098.08 728.835C2099.53 727.918 2101.17 727.459 2103 727.459C2104.86 727.459 2106.5 727.918 2107.93 728.835C2109.38 729.731 2110.52 731.043 2111.36 732.771C2112.19 734.499 2112.6 736.59 2112.6 739.043C2112.6 741.496 2112.19 743.587 2111.36 745.315C2110.52 747.043 2109.38 748.366 2107.93 749.283C2106.5 750.179 2104.86 750.627 2103 750.627ZM2103 746.243C2103.88 746.243 2104.64 745.998 2105.28 745.507C2105.94 745.016 2106.45 744.238 2106.81 743.171C2107.2 742.104 2107.39 740.728 2107.39 739.043C2107.39 737.358 2107.2 735.982 2106.81 734.915C2106.45 733.848 2105.94 733.07 2105.28 732.579C2104.64 732.088 2103.88 731.843 2103 731.843C2102.15 731.843 2101.39 732.088 2100.73 732.579C2100.09 733.07 2099.58 733.848 2099.2 734.915C2098.83 735.982 2098.65 737.358 2098.65 739.043C2098.65 740.728 2098.83 742.104 2099.2 743.171C2099.58 744.238 2100.09 745.016 2100.73 745.507C2101.39 745.998 2102.15 746.243 2103 746.243ZM2124.72 750.627C2122.89 750.627 2121.25 750.179 2119.8 749.283C2118.34 748.366 2117.2 747.043 2116.37 745.315C2115.54 743.587 2115.12 741.496 2115.12 739.043C2115.12 736.59 2115.54 734.499 2116.37 732.771C2117.2 731.043 2118.34 729.731 2119.8 728.835C2121.25 727.918 2122.89 727.459 2124.72 727.459C2126.58 727.459 2128.22 727.918 2129.65 728.835C2131.1 729.731 2132.24 731.043 2133.08 732.771C2133.91 734.499 2134.32 736.59 2134.32 739.043C2134.32 741.496 2133.91 743.587 2133.08 745.315C2132.24 747.043 2131.1 748.366 2129.65 749.283C2128.22 750.179 2126.58 750.627 2124.72 750.627ZM2124.72 746.243C2125.6 746.243 2126.36 745.998 2127 745.507C2127.66 745.016 2128.17 744.238 2128.53 743.171C2128.92 742.104 2129.11 740.728 2129.11 739.043C2129.11 737.358 2128.92 735.982 2128.53 734.915C2128.17 733.848 2127.66 733.07 2127 732.579C2126.36 732.088 2125.6 731.843 2124.72 731.843C2123.87 731.843 2123.11 732.088 2122.45 732.579C2121.81 733.07 2121.3 733.848 2120.92 734.915C2120.55 735.982 2120.37 737.358 2120.37 739.043C2120.37 740.728 2120.55 742.104 2120.92 743.171C2121.3 744.238 2121.81 745.016 2122.45 745.507C2123.11 745.998 2123.87 746.243 2124.72 746.243ZM2146.44 750.627C2144.61 750.627 2142.96 750.179 2141.51 749.283C2140.06 748.366 2138.92 747.043 2138.09 745.315C2137.26 743.587 2136.84 741.496 2136.84 739.043C2136.84 736.59 2137.26 734.499 2138.09 732.771C2138.92 731.043 2140.06 729.731 2141.51 728.835C2142.96 727.918 2144.61 727.459 2146.44 727.459C2148.3 727.459 2149.94 727.918 2151.37 728.835C2152.82 729.731 2153.96 731.043 2154.79 732.771C2155.63 734.499 2156.04 736.59 2156.04 739.043C2156.04 741.496 2155.63 743.587 2154.79 745.315C2153.96 747.043 2152.82 748.366 2151.37 749.283C2149.94 750.179 2148.3 750.627 2146.44 750.627ZM2146.44 746.243C2147.32 746.243 2148.07 745.998 2148.71 745.507C2149.38 745.016 2149.89 744.238 2150.25 743.171C2150.63 742.104 2150.83 740.728 2150.83 739.043C2150.83 737.358 2150.63 735.982 2150.25 734.915C2149.89 733.848 2149.38 733.07 2148.71 732.579C2148.07 732.088 2147.32 731.843 2146.44 731.843C2145.59 731.843 2144.83 732.088 2144.17 732.579C2143.53 733.07 2143.02 733.848 2142.63 734.915C2142.27 735.982 2142.09 737.358 2142.09 739.043C2142.09 740.728 2142.27 742.104 2142.63 743.171C2143.02 744.238 2143.53 745.016 2144.17 745.507C2144.83 745.998 2145.59 746.243 2146.44 746.243Z" fill="white"/>
<rect x="1995" y="581" width="146.595" height="57.8986" rx="10" fill="white"/>
<path d="M2039.06 622.703V619.343L2047.7 611.183C2048.38 610.564 2048.88 610.009 2049.2 609.519C2049.52 609.028 2049.73 608.58 2049.84 608.175C2049.97 607.769 2050.03 607.396 2050.03 607.055C2050.03 606.159 2049.72 605.476 2049.1 605.007C2048.51 604.516 2047.62 604.271 2046.45 604.271C2045.51 604.271 2044.63 604.452 2043.82 604.815C2043.03 605.177 2042.36 605.743 2041.81 606.511L2038.03 604.079C2038.89 602.799 2040.08 601.785 2041.62 601.039C2043.15 600.292 2044.92 599.919 2046.93 599.919C2048.59 599.919 2050.04 600.196 2051.28 600.751C2052.54 601.284 2053.51 602.041 2054.19 603.023C2054.9 604.004 2055.25 605.177 2055.25 606.543C2055.25 607.268 2055.15 607.993 2054.96 608.719C2054.79 609.423 2054.43 610.169 2053.87 610.959C2053.34 611.748 2052.55 612.633 2051.5 613.615L2044.34 620.367L2043.34 618.479H2055.98V622.703H2039.06ZM2065.74 623.087C2064.18 623.087 2062.64 622.884 2061.1 622.479C2059.58 622.052 2058.28 621.455 2057.2 620.687L2059.24 616.719C2060.1 617.337 2061.08 617.828 2062.19 618.191C2063.32 618.553 2064.46 618.735 2065.61 618.735C2066.91 618.735 2067.94 618.479 2068.68 617.967C2069.43 617.455 2069.8 616.74 2069.8 615.823C2069.8 615.247 2069.65 614.735 2069.36 614.287C2069.06 613.839 2068.52 613.497 2067.76 613.263C2067.01 613.028 2065.95 612.911 2064.59 612.911H2058.86L2060.01 600.303H2073.68V604.463H2061.87L2064.56 602.095L2063.76 611.087L2061.07 608.719H2065.8C2068.02 608.719 2069.8 609.028 2071.15 609.647C2072.51 610.244 2073.5 611.065 2074.12 612.111C2074.74 613.156 2075.05 614.34 2075.05 615.663C2075.05 616.985 2074.72 618.212 2074.06 619.343C2073.4 620.452 2072.37 621.359 2070.99 622.063C2069.62 622.745 2067.87 623.087 2065.74 623.087ZM2080.07 622.703L2095.37 600.303H2099.18L2083.88 622.703H2080.07ZM2082.03 612.399C2080.94 612.399 2079.98 612.153 2079.15 611.663C2078.31 611.151 2077.65 610.436 2077.16 609.519C2076.69 608.58 2076.46 607.481 2076.46 606.223C2076.46 604.964 2076.69 603.876 2077.16 602.959C2077.65 602.041 2078.31 601.327 2079.15 600.815C2079.98 600.303 2080.94 600.047 2082.03 600.047C2083.11 600.047 2084.07 600.303 2084.91 600.815C2085.74 601.327 2086.39 602.041 2086.86 602.959C2087.33 603.876 2087.56 604.964 2087.56 606.223C2087.56 607.481 2087.33 608.58 2086.86 609.519C2086.39 610.436 2085.74 611.151 2084.91 611.663C2084.07 612.153 2083.11 612.399 2082.03 612.399ZM2082.03 609.775C2082.73 609.775 2083.3 609.487 2083.72 608.911C2084.15 608.313 2084.36 607.417 2084.36 606.223C2084.36 605.028 2084.15 604.143 2083.72 603.567C2083.3 602.969 2082.73 602.671 2082.03 602.671C2081.34 602.671 2080.78 602.969 2080.33 603.567C2079.9 604.143 2079.69 605.028 2079.69 606.223C2079.69 607.396 2079.9 608.281 2080.33 608.879C2080.78 609.476 2081.34 609.775 2082.03 609.775ZM2097.23 622.959C2096.16 622.959 2095.2 622.713 2094.35 622.223C2093.51 621.711 2092.86 620.996 2092.39 620.079C2091.92 619.14 2091.69 618.041 2091.69 616.783C2091.69 615.524 2091.92 614.436 2092.39 613.519C2092.86 612.601 2093.51 611.887 2094.35 611.375C2095.2 610.863 2096.16 610.607 2097.23 610.607C2098.34 610.607 2099.31 610.863 2100.14 611.375C2100.97 611.887 2101.62 612.601 2102.09 613.519C2102.56 614.436 2102.79 615.524 2102.79 616.783C2102.79 618.041 2102.56 619.14 2102.09 620.079C2101.62 620.996 2100.97 621.711 2100.14 622.223C2099.31 622.713 2098.34 622.959 2097.23 622.959ZM2097.23 620.335C2097.93 620.335 2098.5 620.047 2098.92 619.471C2099.35 618.873 2099.56 617.977 2099.56 616.783C2099.56 615.609 2099.35 614.724 2098.92 614.127C2098.5 613.529 2097.93 613.231 2097.23 613.231C2096.54 613.231 2095.98 613.529 2095.53 614.127C2095.1 614.703 2094.89 615.588 2094.89 616.783C2094.89 617.977 2095.1 618.873 2095.53 619.471C2095.98 620.047 2096.54 620.335 2097.23 620.335Z" fill="url(#paint1_linear_49_26)"/>
<path d="M2113.92 651.608L2105.5 642.076H2122.34L2113.92 651.608Z" fill="white"/>
<g filter="url(#filter1_f_49_26)">
<path d="M3117.04 461.518C3117.04 471.433 3108.33 479.992 3096.92 479.992C3085.51 479.992 3076.8 471.433 3076.8 461.518C3076.8 451.602 3085.51 443.043 3096.92 443.043C3108.33 443.043 3117.04 451.602 3117.04 461.518Z" stroke="#605DEC" stroke-width="9"/>
</g>
<path d="M3118.54 461.518C3118.54 472.357 3109.06 481.492 3096.92 481.492C3084.78 481.492 3075.3 472.357 3075.3 461.518C3075.3 450.678 3084.78 441.543 3096.92 441.543C3109.06 441.543 3118.54 450.678 3118.54 461.518Z" stroke="white" stroke-width="6"/>
<path d="M2982.77 524.611V521.923H3000.02V524.611H2982.77ZM2982.77 520.195V517.507H3000.02V520.195H2982.77ZM2998.01 532.643C2996.26 532.643 2994.63 532.366 2993.14 531.811C2991.67 531.235 2990.39 530.425 2989.3 529.379C2988.21 528.334 2987.37 527.107 2986.77 525.699C2986.18 524.291 2985.88 522.745 2985.88 521.059C2985.88 519.374 2986.18 517.827 2986.77 516.419C2987.37 515.011 2988.21 513.785 2989.3 512.739C2990.39 511.694 2991.67 510.894 2993.14 510.339C2994.63 509.763 2996.26 509.475 2998.01 509.475C2999.95 509.475 3001.71 509.817 3003.29 510.499C3004.86 511.161 3006.18 512.142 3007.22 513.443L3003.93 516.515C3003.16 515.641 3002.3 514.99 3001.37 514.563C3000.43 514.115 2999.39 513.891 2998.26 513.891C2997.22 513.891 2996.26 514.062 2995.38 514.403C2994.51 514.745 2993.75 515.235 2993.11 515.875C2992.47 516.515 2991.97 517.273 2991.61 518.147C2991.26 519.022 2991.09 519.993 2991.09 521.059C2991.09 522.126 2991.26 523.097 2991.61 523.971C2991.97 524.846 2992.47 525.603 2993.11 526.243C2993.75 526.883 2994.51 527.374 2995.38 527.715C2996.26 528.057 2997.22 528.227 2998.26 528.227C2999.39 528.227 3000.43 528.014 3001.37 527.587C3002.3 527.139 3003.16 526.467 3003.93 525.571L3007.22 528.643C3006.18 529.945 3004.86 530.937 3003.29 531.619C3001.71 532.302 2999.95 532.643 2998.01 532.643ZM3009.03 532.259V528.899L3017.67 520.739C3018.35 520.121 3018.85 519.566 3019.17 519.075C3019.49 518.585 3019.7 518.137 3019.81 517.731C3019.94 517.326 3020 516.953 3020 516.611C3020 515.715 3019.69 515.033 3019.07 514.563C3018.48 514.073 3017.59 513.827 3016.42 513.827C3015.48 513.827 3014.6 514.009 3013.79 514.371C3013 514.734 3012.33 515.299 3011.78 516.067L3008 513.635C3008.85 512.355 3010.05 511.342 3011.59 510.595C3013.12 509.849 3014.89 509.475 3016.9 509.475C3018.56 509.475 3020.01 509.753 3021.25 510.307C3022.51 510.841 3023.48 511.598 3024.16 512.579C3024.87 513.561 3025.22 514.734 3025.22 516.099C3025.22 516.825 3025.12 517.55 3024.93 518.275C3024.76 518.979 3024.4 519.726 3023.84 520.515C3023.31 521.305 3022.52 522.19 3021.47 523.171L3014.31 529.923L3013.31 528.035H3025.95V532.259H3009.03ZM3037.69 532.643C3035.86 532.643 3034.22 532.195 3032.76 531.299C3031.31 530.382 3030.17 529.059 3029.34 527.331C3028.51 525.603 3028.09 523.513 3028.09 521.059C3028.09 518.606 3028.51 516.515 3029.34 514.787C3030.17 513.059 3031.31 511.747 3032.76 510.851C3034.22 509.934 3035.86 509.475 3037.69 509.475C3039.55 509.475 3041.19 509.934 3042.62 510.851C3044.07 511.747 3045.21 513.059 3046.04 514.787C3046.88 516.515 3047.29 518.606 3047.29 521.059C3047.29 523.513 3046.88 525.603 3046.04 527.331C3045.21 529.059 3044.07 530.382 3042.62 531.299C3041.19 532.195 3039.55 532.643 3037.69 532.643ZM3037.69 528.259C3038.57 528.259 3039.32 528.014 3039.96 527.523C3040.63 527.033 3041.14 526.254 3041.5 525.187C3041.88 524.121 3042.08 522.745 3042.08 521.059C3042.08 519.374 3041.88 517.998 3041.5 516.931C3041.14 515.865 3040.63 515.086 3039.96 514.595C3039.32 514.105 3038.57 513.859 3037.69 513.859C3036.84 513.859 3036.08 514.105 3035.42 514.595C3034.78 515.086 3034.27 515.865 3033.88 516.931C3033.52 517.998 3033.34 519.374 3033.34 521.059C3033.34 522.745 3033.52 524.121 3033.88 525.187C3034.27 526.254 3034.78 527.033 3035.42 527.523C3036.08 528.014 3036.84 528.259 3037.69 528.259ZM3049.6 537.187L3051.71 529.507L3052.41 532.387C3051.5 532.387 3050.74 532.121 3050.14 531.587C3049.56 531.054 3049.28 530.318 3049.28 529.379C3049.28 528.441 3049.58 527.694 3050.17 527.139C3050.77 526.585 3051.51 526.307 3052.38 526.307C3053.28 526.307 3054.01 526.595 3054.59 527.171C3055.16 527.726 3055.45 528.462 3055.45 529.379C3055.45 529.657 3055.43 529.934 3055.39 530.211C3055.35 530.467 3055.26 530.787 3055.13 531.171C3055.03 531.534 3054.84 532.003 3054.59 532.579L3052.76 537.187H3049.6ZM3066.97 532.643C3065.14 532.643 3063.5 532.195 3062.05 531.299C3060.6 530.382 3059.45 529.059 3058.62 527.331C3057.79 525.603 3057.37 523.513 3057.37 521.059C3057.37 518.606 3057.79 516.515 3058.62 514.787C3059.45 513.059 3060.6 511.747 3062.05 510.851C3063.5 509.934 3065.14 509.475 3066.97 509.475C3068.83 509.475 3070.47 509.934 3071.9 510.851C3073.35 511.747 3074.49 513.059 3075.33 514.787C3076.16 516.515 3076.57 518.606 3076.57 521.059C3076.57 523.513 3076.16 525.603 3075.33 527.331C3074.49 529.059 3073.35 530.382 3071.9 531.299C3070.47 532.195 3068.83 532.643 3066.97 532.643ZM3066.97 528.259C3067.85 528.259 3068.61 528.014 3069.25 527.523C3069.91 527.033 3070.42 526.254 3070.78 525.187C3071.17 524.121 3071.36 522.745 3071.36 521.059C3071.36 519.374 3071.17 517.998 3070.78 516.931C3070.42 515.865 3069.91 515.086 3069.25 514.595C3068.61 514.105 3067.85 513.859 3066.97 513.859C3066.12 513.859 3065.36 514.105 3064.7 514.595C3064.06 515.086 3063.55 515.865 3063.17 516.931C3062.8 517.998 3062.62 519.374 3062.62 521.059C3062.62 522.745 3062.8 524.121 3063.17 525.187C3063.55 526.254 3064.06 527.033 3064.7 527.523C3065.36 528.014 3066.12 528.259 3066.97 528.259ZM3088.69 532.643C3086.86 532.643 3085.22 532.195 3083.76 531.299C3082.31 530.382 3081.17 529.059 3080.34 527.331C3079.51 525.603 3079.09 523.513 3079.09 521.059C3079.09 518.606 3079.51 516.515 3080.34 514.787C3081.17 513.059 3082.31 511.747 3083.76 510.851C3085.22 509.934 3086.86 509.475 3088.69 509.475C3090.55 509.475 3092.19 509.934 3093.62 510.851C3095.07 511.747 3096.21 513.059 3097.04 514.787C3097.88 516.515 3098.29 518.606 3098.29 521.059C3098.29 523.513 3097.88 525.603 3097.04 527.331C3096.21 529.059 3095.07 530.382 3093.62 531.299C3092.19 532.195 3090.55 532.643 3088.69 532.643ZM3088.69 528.259C3089.57 528.259 3090.32 528.014 3090.96 527.523C3091.63 527.033 3092.14 526.254 3092.5 525.187C3092.88 524.121 3093.08 522.745 3093.08 521.059C3093.08 519.374 3092.88 517.998 3092.5 516.931C3092.14 515.865 3091.63 515.086 3090.96 514.595C3090.32 514.105 3089.57 513.859 3088.69 513.859C3087.84 513.859 3087.08 514.105 3086.42 514.595C3085.78 515.086 3085.27 515.865 3084.88 516.931C3084.52 517.998 3084.34 519.374 3084.34 521.059C3084.34 522.745 3084.52 524.121 3084.88 525.187C3085.27 526.254 3085.78 527.033 3086.42 527.523C3087.08 528.014 3087.84 528.259 3088.69 528.259ZM3110.41 532.643C3108.58 532.643 3106.93 532.195 3105.48 531.299C3104.03 530.382 3102.89 529.059 3102.06 527.331C3101.23 525.603 3100.81 523.513 3100.81 521.059C3100.81 518.606 3101.23 516.515 3102.06 514.787C3102.89 513.059 3104.03 511.747 3105.48 510.851C3106.93 509.934 3108.58 509.475 3110.41 509.475C3112.27 509.475 3113.91 509.934 3115.34 510.851C3116.79 511.747 3117.93 513.059 3118.76 514.787C3119.6 516.515 3120.01 518.606 3120.01 521.059C3120.01 523.513 3119.6 525.603 3118.76 527.331C3117.93 529.059 3116.79 530.382 3115.34 531.299C3113.91 532.195 3112.27 532.643 3110.41 532.643ZM3110.41 528.259C3111.29 528.259 3112.04 528.014 3112.68 527.523C3113.34 527.033 3113.86 526.254 3114.22 525.187C3114.6 524.121 3114.8 522.745 3114.8 521.059C3114.8 519.374 3114.6 517.998 3114.22 516.931C3113.86 515.865 3113.34 515.086 3112.68 514.595C3112.04 514.105 3111.29 513.859 3110.41 513.859C3109.56 513.859 3108.8 514.105 3108.14 514.595C3107.5 515.086 3106.99 515.865 3106.6 516.931C3106.24 517.998 3106.06 519.374 3106.06 521.059C3106.06 522.745 3106.24 524.121 3106.6 525.187C3106.99 526.254 3107.5 527.033 3108.14 527.523C3108.8 528.014 3109.56 528.259 3110.41 528.259ZM3137.86 528.451V513.667H3141.99V528.451H3137.86ZM3132.33 523.011V519.107H3147.56V523.011H3132.33Z" fill="white"/>
<path d="M2958 349C2958 343.477 2962.48 339 2968 339H3045.25H3119.87C3125.39 339 3129.87 343.477 3129.87 349V396.972C3129.87 402.495 3125.39 406.972 3119.87 406.972H2968C2962.48 406.972 2958 402.495 2958 396.972V349Z" fill="white"/>
<path d="M3007.65 376.085V372.597L3018.21 358.389H3023.65L3013.32 372.597L3010.79 371.861H3028.42V376.085H3007.65ZM3019.72 380.789V376.085L3019.88 371.861V367.669H3024.77V380.789H3019.72ZM3039.57 381.173C3037.74 381.173 3036.09 380.725 3034.64 379.829C3033.19 378.912 3032.05 377.589 3031.22 375.861C3030.39 374.133 3029.97 372.042 3029.97 369.589C3029.97 367.136 3030.39 365.045 3031.22 363.317C3032.05 361.589 3033.19 360.277 3034.64 359.381C3036.09 358.464 3037.74 358.005 3039.57 358.005C3041.43 358.005 3043.07 358.464 3044.5 359.381C3045.95 360.277 3047.09 361.589 3047.92 363.317C3048.76 365.045 3049.17 367.136 3049.17 369.589C3049.17 372.042 3048.76 374.133 3047.92 375.861C3047.09 377.589 3045.95 378.912 3044.5 379.829C3043.07 380.725 3041.43 381.173 3039.57 381.173ZM3039.57 376.789C3040.45 376.789 3041.2 376.544 3041.84 376.053C3042.51 375.562 3043.02 374.784 3043.38 373.717C3043.76 372.65 3043.96 371.274 3043.96 369.589C3043.96 367.904 3043.76 366.528 3043.38 365.461C3043.02 364.394 3042.51 363.616 3041.84 363.125C3041.2 362.634 3040.45 362.389 3039.57 362.389C3038.72 362.389 3037.96 362.634 3037.3 363.125C3036.66 363.616 3036.15 364.394 3035.76 365.461C3035.4 366.528 3035.22 367.904 3035.22 369.589C3035.22 371.274 3035.4 372.65 3035.76 373.717C3036.15 374.784 3036.66 375.562 3037.3 376.053C3037.96 376.544 3038.72 376.789 3039.57 376.789ZM3054.92 380.789L3070.22 358.389H3074.03L3058.73 380.789H3054.92ZM3056.87 370.485C3055.79 370.485 3054.83 370.24 3053.99 369.749C3053.16 369.237 3052.5 368.522 3052.01 367.605C3051.54 366.666 3051.31 365.568 3051.31 364.309C3051.31 363.05 3051.54 361.962 3052.01 361.045C3052.5 360.128 3053.16 359.413 3053.99 358.901C3054.83 358.389 3055.79 358.133 3056.87 358.133C3057.96 358.133 3058.92 358.389 3059.75 358.901C3060.59 359.413 3061.24 360.128 3061.71 361.045C3062.18 361.962 3062.41 363.05 3062.41 364.309C3062.41 365.568 3062.18 366.666 3061.71 367.605C3061.24 368.522 3060.59 369.237 3059.75 369.749C3058.92 370.24 3057.96 370.485 3056.87 370.485ZM3056.87 367.861C3057.58 367.861 3058.14 367.573 3058.57 366.997C3059 366.4 3059.21 365.504 3059.21 364.309C3059.21 363.114 3059 362.229 3058.57 361.653C3058.14 361.056 3057.58 360.757 3056.87 360.757C3056.19 360.757 3055.63 361.056 3055.18 361.653C3054.75 362.229 3054.54 363.114 3054.54 364.309C3054.54 365.482 3054.75 366.368 3055.18 366.965C3055.63 367.562 3056.19 367.861 3056.87 367.861ZM3072.07 381.045C3071.01 381.045 3070.05 380.8 3069.19 380.309C3068.36 379.797 3067.71 379.082 3067.24 378.165C3066.77 377.226 3066.54 376.128 3066.54 374.869C3066.54 373.61 3066.77 372.522 3067.24 371.605C3067.71 370.688 3068.36 369.973 3069.19 369.461C3070.05 368.949 3071.01 368.693 3072.07 368.693C3073.18 368.693 3074.15 368.949 3074.99 369.461C3075.82 369.973 3076.47 370.688 3076.94 371.605C3077.41 372.522 3077.64 373.61 3077.64 374.869C3077.64 376.128 3077.41 377.226 3076.94 378.165C3076.47 379.082 3075.82 379.797 3074.99 380.309C3074.15 380.8 3073.18 381.045 3072.07 381.045ZM3072.07 378.421C3072.78 378.421 3073.34 378.133 3073.77 377.557C3074.2 376.96 3074.41 376.064 3074.41 374.869C3074.41 373.696 3074.2 372.81 3073.77 372.213C3073.34 371.616 3072.78 371.317 3072.07 371.317C3071.39 371.317 3070.83 371.616 3070.38 372.213C3069.95 372.789 3069.74 373.674 3069.74 374.869C3069.74 376.064 3069.95 376.96 3070.38 377.557C3070.83 378.133 3071.39 378.421 3072.07 378.421Z" fill="url(#paint2_linear_49_26)"/>
<path d="M3097.8 422.132L3087.9 411.055H3107.7L3097.8 422.132Z" fill="white"/>
<g filter="url(#filter2_f_49_26)">
<path d="M2800.34 529.951C2800.34 539.582 2791.83 547.944 2780.62 547.944C2769.42 547.944 2760.91 539.582 2760.91 529.951C2760.91 520.32 2769.42 511.957 2780.62 511.957C2791.83 511.957 2800.34 520.32 2800.34 529.951Z" stroke="#605DEC" stroke-width="9"/>
</g>
<path d="M2801.84 529.951C2801.84 540.512 2792.55 549.444 2780.62 549.444C2768.7 549.444 2759.41 540.512 2759.41 529.951C2759.41 519.389 2768.7 510.457 2780.62 510.457C2792.55 510.457 2801.84 519.389 2801.84 529.951Z" stroke="white" stroke-width="6"/>
<path d="M2621.96 592.293V589.605H2639.21V592.293H2621.96ZM2621.96 587.877V585.189H2639.21V587.877H2621.96ZM2637.19 600.325C2635.44 600.325 2633.82 600.048 2632.33 599.493C2630.86 598.917 2629.58 598.107 2628.49 597.061C2627.4 596.016 2626.56 594.789 2625.96 593.381C2625.36 591.973 2625.06 590.427 2625.06 588.741C2625.06 587.056 2625.36 585.509 2625.96 584.101C2626.56 582.693 2627.4 581.467 2628.49 580.421C2629.58 579.376 2630.86 578.576 2632.33 578.021C2633.82 577.445 2635.44 577.157 2637.19 577.157C2639.13 577.157 2640.89 577.499 2642.47 578.181C2644.05 578.843 2645.36 579.824 2646.41 581.125L2643.11 584.197C2642.34 583.323 2641.49 582.672 2640.55 582.245C2639.61 581.797 2638.58 581.573 2637.45 581.573C2636.4 581.573 2635.44 581.744 2634.57 582.085C2633.69 582.427 2632.94 582.917 2632.3 583.557C2631.66 584.197 2631.15 584.955 2630.79 585.829C2630.45 586.704 2630.28 587.675 2630.28 588.741C2630.28 589.808 2630.45 590.779 2630.79 591.653C2631.15 592.528 2631.66 593.285 2632.3 593.925C2632.94 594.565 2633.69 595.056 2634.57 595.397C2635.44 595.739 2636.4 595.909 2637.45 595.909C2638.58 595.909 2639.61 595.696 2640.55 595.269C2641.49 594.821 2642.34 594.149 2643.11 593.253L2646.41 596.325C2645.36 597.627 2644.05 598.619 2642.47 599.301C2640.89 599.984 2639.13 600.325 2637.19 600.325ZM2652.27 599.941V579.461L2654.51 581.701H2647.79V577.541H2657.45V599.941H2652.27ZM2670.94 600.325C2669.11 600.325 2667.46 599.877 2666.01 598.981C2664.56 598.064 2663.42 596.741 2662.59 595.013C2661.76 593.285 2661.34 591.195 2661.34 588.741C2661.34 586.288 2661.76 584.197 2662.59 582.469C2663.42 580.741 2664.56 579.429 2666.01 578.533C2667.46 577.616 2669.11 577.157 2670.94 577.157C2672.8 577.157 2674.44 577.616 2675.87 578.533C2677.32 579.429 2678.46 580.741 2679.29 582.469C2680.13 584.197 2680.54 586.288 2680.54 588.741C2680.54 591.195 2680.13 593.285 2679.29 595.013C2678.46 596.741 2677.32 598.064 2675.87 598.981C2674.44 599.877 2672.8 600.325 2670.94 600.325ZM2670.94 595.941C2671.82 595.941 2672.57 595.696 2673.21 595.205C2673.88 594.715 2674.39 593.936 2674.75 592.869C2675.13 591.803 2675.33 590.427 2675.33 588.741C2675.33 587.056 2675.13 585.68 2674.75 584.613C2674.39 583.547 2673.88 582.768 2673.21 582.277C2672.57 581.787 2671.82 581.541 2670.94 581.541C2670.09 581.541 2669.33 581.787 2668.67 582.277C2668.03 582.768 2667.52 583.547 2667.13 584.613C2666.77 585.68 2666.59 587.056 2666.59 588.741C2666.59 590.427 2666.77 591.803 2667.13 592.869C2667.52 593.936 2668.03 594.715 2668.67 595.205C2669.33 595.696 2670.09 595.941 2670.94 595.941ZM2682.85 604.869L2684.96 597.189L2685.66 600.069C2684.74 600.069 2683.99 599.803 2683.39 599.269C2682.81 598.736 2682.53 598 2682.53 597.061C2682.53 596.123 2682.82 595.376 2683.42 594.821C2684.02 594.267 2684.76 593.989 2685.63 593.989C2686.53 593.989 2687.26 594.277 2687.84 594.853C2688.41 595.408 2688.7 596.144 2688.7 597.061C2688.7 597.339 2688.68 597.616 2688.64 597.893C2688.6 598.149 2688.51 598.469 2688.38 598.853C2688.28 599.216 2688.09 599.685 2687.84 600.261L2686.01 604.869H2682.85ZM2700.22 600.325C2698.39 600.325 2696.75 599.877 2695.3 598.981C2693.84 598.064 2692.7 596.741 2691.87 595.013C2691.04 593.285 2690.62 591.195 2690.62 588.741C2690.62 586.288 2691.04 584.197 2691.87 582.469C2692.7 580.741 2693.84 579.429 2695.3 578.533C2696.75 577.616 2698.39 577.157 2700.22 577.157C2702.08 577.157 2703.72 577.616 2705.15 578.533C2706.6 579.429 2707.74 580.741 2708.58 582.469C2709.41 584.197 2709.82 586.288 2709.82 588.741C2709.82 591.195 2709.41 593.285 2708.58 595.013C2707.74 596.741 2706.6 598.064 2705.15 598.981C2703.72 599.877 2702.08 600.325 2700.22 600.325ZM2700.22 595.941C2701.1 595.941 2701.86 595.696 2702.5 595.205C2703.16 594.715 2703.67 593.936 2704.03 592.869C2704.42 591.803 2704.61 590.427 2704.61 588.741C2704.61 587.056 2704.42 585.68 2704.03 584.613C2703.67 583.547 2703.16 582.768 2702.5 582.277C2701.86 581.787 2701.1 581.541 2700.22 581.541C2699.37 581.541 2698.61 581.787 2697.95 582.277C2697.31 582.768 2696.8 583.547 2696.42 584.613C2696.05 585.68 2695.87 587.056 2695.87 588.741C2695.87 590.427 2696.05 591.803 2696.42 592.869C2696.8 593.936 2697.31 594.715 2697.95 595.205C2698.61 595.696 2699.37 595.941 2700.22 595.941ZM2721.94 600.325C2720.11 600.325 2718.46 599.877 2717.01 598.981C2715.56 598.064 2714.42 596.741 2713.59 595.013C2712.76 593.285 2712.34 591.195 2712.34 588.741C2712.34 586.288 2712.76 584.197 2713.59 582.469C2714.42 580.741 2715.56 579.429 2717.01 578.533C2718.46 577.616 2720.11 577.157 2721.94 577.157C2723.8 577.157 2725.44 577.616 2726.87 578.533C2728.32 579.429 2729.46 580.741 2730.29 582.469C2731.13 584.197 2731.54 586.288 2731.54 588.741C2731.54 591.195 2731.13 593.285 2730.29 595.013C2729.46 596.741 2728.32 598.064 2726.87 598.981C2725.44 599.877 2723.8 600.325 2721.94 600.325ZM2721.94 595.941C2722.82 595.941 2723.57 595.696 2724.21 595.205C2724.88 594.715 2725.39 593.936 2725.75 592.869C2726.13 591.803 2726.33 590.427 2726.33 588.741C2726.33 587.056 2726.13 585.68 2725.75 584.613C2725.39 583.547 2724.88 582.768 2724.21 582.277C2723.57 581.787 2722.82 581.541 2721.94 581.541C2721.09 581.541 2720.33 581.787 2719.67 582.277C2719.03 582.768 2718.52 583.547 2718.13 584.613C2717.77 585.68 2717.59 587.056 2717.59 588.741C2717.59 590.427 2717.77 591.803 2718.13 592.869C2718.52 593.936 2719.03 594.715 2719.67 595.205C2720.33 595.696 2721.09 595.941 2721.94 595.941ZM2743.66 600.325C2741.83 600.325 2740.18 599.877 2738.73 598.981C2737.28 598.064 2736.14 596.741 2735.31 595.013C2734.48 593.285 2734.06 591.195 2734.06 588.741C2734.06 586.288 2734.48 584.197 2735.31 582.469C2736.14 580.741 2737.28 579.429 2738.73 578.533C2740.18 577.616 2741.83 577.157 2743.66 577.157C2745.52 577.157 2747.16 577.616 2748.59 578.533C2750.04 579.429 2751.18 580.741 2752.01 582.469C2752.84 584.197 2753.26 586.288 2753.26 588.741C2753.26 591.195 2752.84 593.285 2752.01 595.013C2751.18 596.741 2750.04 598.064 2748.59 598.981C2747.16 599.877 2745.52 600.325 2743.66 600.325ZM2743.66 595.941C2744.54 595.941 2745.29 595.696 2745.93 595.205C2746.59 594.715 2747.11 593.936 2747.47 592.869C2747.85 591.803 2748.04 590.427 2748.04 588.741C2748.04 587.056 2747.85 585.68 2747.47 584.613C2747.11 583.547 2746.59 582.768 2745.93 582.277C2745.29 581.787 2744.54 581.541 2743.66 581.541C2742.81 581.541 2742.05 581.787 2741.39 582.277C2740.75 582.768 2740.24 583.547 2739.85 584.613C2739.49 585.68 2739.31 587.056 2739.31 588.741C2739.31 590.427 2739.49 591.803 2739.85 592.869C2740.24 593.936 2740.75 594.715 2741.39 595.205C2742.05 595.696 2742.81 595.941 2743.66 595.941ZM2772.94 600.197C2770.91 600.197 2769.33 599.685 2768.2 598.661C2767.07 597.616 2766.51 596.069 2766.51 594.021V578.917H2771.5V593.957C2771.5 594.683 2771.69 595.248 2772.07 595.653C2772.46 596.037 2772.98 596.229 2773.64 596.229C2774.43 596.229 2775.1 596.016 2775.66 595.589L2777 599.109C2776.49 599.472 2775.87 599.749 2775.15 599.941C2774.44 600.112 2773.71 600.197 2772.94 600.197ZM2763.85 586.949V583.109H2775.79V586.949H2763.85ZM2787.46 600.197C2785.63 600.197 2784 599.813 2782.57 599.045C2781.16 598.277 2780.04 597.232 2779.21 595.909C2778.4 594.565 2777.99 593.04 2777.99 591.333C2777.99 589.605 2778.4 588.08 2779.21 586.757C2780.04 585.413 2781.16 584.368 2782.57 583.621C2784 582.853 2785.63 582.469 2787.46 582.469C2789.28 582.469 2790.9 582.853 2792.33 583.621C2793.76 584.368 2794.88 585.403 2795.69 586.725C2796.5 588.048 2796.9 589.584 2796.9 591.333C2796.9 593.04 2796.5 594.565 2795.69 595.909C2794.88 597.232 2793.76 598.277 2792.33 599.045C2790.9 599.813 2789.28 600.197 2787.46 600.197ZM2787.46 596.101C2788.3 596.101 2789.04 595.909 2789.7 595.525C2790.37 595.141 2790.89 594.597 2791.27 593.893C2791.66 593.168 2791.85 592.315 2791.85 591.333C2791.85 590.331 2791.66 589.477 2791.27 588.773C2790.89 588.069 2790.37 587.525 2789.7 587.141C2789.04 586.757 2788.3 586.565 2787.46 586.565C2786.63 586.565 2785.89 586.757 2785.22 587.141C2784.56 587.525 2784.03 588.069 2783.62 588.773C2783.24 589.477 2783.05 590.331 2783.05 591.333C2783.05 592.315 2783.24 593.168 2783.62 593.893C2784.03 594.597 2784.56 595.141 2785.22 595.525C2785.89 595.909 2786.63 596.101 2787.46 596.101ZM2807.96 592.293V589.605H2825.21V592.293H2807.96ZM2807.96 587.877V585.189H2825.21V587.877H2807.96ZM2823.19 600.325C2821.44 600.325 2819.82 600.048 2818.33 599.493C2816.86 598.917 2815.58 598.107 2814.49 597.061C2813.4 596.016 2812.56 594.789 2811.96 593.381C2811.36 591.973 2811.06 590.427 2811.06 588.741C2811.06 587.056 2811.36 585.509 2811.96 584.101C2812.56 582.693 2813.4 581.467 2814.49 580.421C2815.58 579.376 2816.86 578.576 2818.33 578.021C2819.82 577.445 2821.44 577.157 2823.19 577.157C2825.13 577.157 2826.89 577.499 2828.47 578.181C2830.05 578.843 2831.36 579.824 2832.41 581.125L2829.11 584.197C2828.34 583.323 2827.49 582.672 2826.55 582.245C2825.61 581.797 2824.58 581.573 2823.45 581.573C2822.4 581.573 2821.44 581.744 2820.57 582.085C2819.69 582.427 2818.94 582.917 2818.3 583.557C2817.66 584.197 2817.15 584.955 2816.79 585.829C2816.45 586.704 2816.28 587.675 2816.28 588.741C2816.28 589.808 2816.45 590.779 2816.79 591.653C2817.15 592.528 2817.66 593.285 2818.3 593.925C2818.94 594.565 2819.69 595.056 2820.57 595.397C2821.44 595.739 2822.4 595.909 2823.45 595.909C2824.58 595.909 2825.61 595.696 2826.55 595.269C2827.49 594.821 2828.34 594.149 2829.11 593.253L2832.41 596.325C2831.36 597.627 2830.05 598.619 2828.47 599.301C2826.89 599.984 2825.13 600.325 2823.19 600.325ZM2834.21 599.941V596.581L2842.85 588.421C2843.53 587.803 2844.04 587.248 2844.36 586.757C2844.68 586.267 2844.89 585.819 2845 585.413C2845.12 585.008 2845.19 584.635 2845.19 584.293C2845.19 583.397 2844.88 582.715 2844.26 582.245C2843.66 581.755 2842.78 581.509 2841.6 581.509C2840.67 581.509 2839.79 581.691 2838.98 582.053C2838.19 582.416 2837.52 582.981 2836.96 583.749L2833.19 581.317C2834.04 580.037 2835.24 579.024 2836.77 578.277C2838.31 577.531 2840.08 577.157 2842.08 577.157C2843.75 577.157 2845.2 577.435 2846.44 577.989C2847.69 578.523 2848.67 579.28 2849.35 580.261C2850.05 581.243 2850.4 582.416 2850.4 583.781C2850.4 584.507 2850.31 585.232 2850.12 585.957C2849.95 586.661 2849.58 587.408 2849.03 588.197C2848.49 588.987 2847.71 589.872 2846.66 590.853L2839.49 597.605L2838.5 595.717H2851.14V599.941H2834.21ZM2862.88 600.325C2861.04 600.325 2859.4 599.877 2857.95 598.981C2856.5 598.064 2855.36 596.741 2854.53 595.013C2853.7 593.285 2853.28 591.195 2853.28 588.741C2853.28 586.288 2853.7 584.197 2854.53 582.469C2855.36 580.741 2856.5 579.429 2857.95 578.533C2859.4 577.616 2861.04 577.157 2862.88 577.157C2864.74 577.157 2866.38 577.616 2867.81 578.533C2869.26 579.429 2870.4 580.741 2871.23 582.469C2872.06 584.197 2872.48 586.288 2872.48 588.741C2872.48 591.195 2872.06 593.285 2871.23 595.013C2870.4 596.741 2869.26 598.064 2867.81 598.981C2866.38 599.877 2864.74 600.325 2862.88 600.325ZM2862.88 595.941C2863.75 595.941 2864.51 595.696 2865.15 595.205C2865.81 594.715 2866.32 593.936 2866.69 592.869C2867.07 591.803 2867.26 590.427 2867.26 588.741C2867.26 587.056 2867.07 585.68 2866.69 584.613C2866.32 583.547 2865.81 582.768 2865.15 582.277C2864.51 581.787 2863.75 581.541 2862.88 581.541C2862.03 581.541 2861.27 581.787 2860.61 582.277C2859.97 582.768 2859.46 583.547 2859.07 584.613C2858.71 585.68 2858.53 587.056 2858.53 588.741C2858.53 590.427 2858.71 591.803 2859.07 592.869C2859.46 593.936 2859.97 594.715 2860.61 595.205C2861.27 595.696 2862.03 595.941 2862.88 595.941ZM2874.78 604.869L2876.9 597.189L2877.6 600.069C2876.68 600.069 2875.93 599.803 2875.33 599.269C2874.75 598.736 2874.46 598 2874.46 597.061C2874.46 596.123 2874.76 595.376 2875.36 594.821C2875.96 594.267 2876.69 593.989 2877.57 593.989C2878.46 593.989 2879.2 594.277 2879.78 594.853C2880.35 595.408 2880.64 596.144 2880.64 597.061C2880.64 597.339 2880.62 597.616 2880.58 597.893C2880.53 598.149 2880.45 598.469 2880.32 598.853C2880.21 599.216 2880.03 599.685 2879.78 600.261L2877.95 604.869H2874.78ZM2892.16 600.325C2890.33 600.325 2888.68 599.877 2887.23 598.981C2885.78 598.064 2884.64 596.741 2883.81 595.013C2882.98 593.285 2882.56 591.195 2882.56 588.741C2882.56 586.288 2882.98 584.197 2883.81 582.469C2884.64 580.741 2885.78 579.429 2887.23 578.533C2888.68 577.616 2890.33 577.157 2892.16 577.157C2894.02 577.157 2895.66 577.616 2897.09 578.533C2898.54 579.429 2899.68 580.741 2900.51 582.469C2901.34 584.197 2901.76 586.288 2901.76 588.741C2901.76 591.195 2901.34 593.285 2900.51 595.013C2899.68 596.741 2898.54 598.064 2897.09 598.981C2895.66 599.877 2894.02 600.325 2892.16 600.325ZM2892.16 595.941C2893.04 595.941 2893.79 595.696 2894.43 595.205C2895.09 594.715 2895.61 593.936 2895.97 592.869C2896.35 591.803 2896.54 590.427 2896.54 588.741C2896.54 587.056 2896.35 585.68 2895.97 584.613C2895.61 583.547 2895.09 582.768 2894.43 582.277C2893.79 581.787 2893.04 581.541 2892.16 581.541C2891.31 581.541 2890.55 581.787 2889.89 582.277C2889.25 582.768 2888.74 583.547 2888.35 584.613C2887.99 585.68 2887.81 587.056 2887.81 588.741C2887.81 590.427 2887.99 591.803 2888.35 592.869C2888.74 593.936 2889.25 594.715 2889.89 595.205C2890.55 595.696 2891.31 595.941 2892.16 595.941ZM2913.88 600.325C2912.04 600.325 2910.4 599.877 2908.95 598.981C2907.5 598.064 2906.36 596.741 2905.53 595.013C2904.7 593.285 2904.28 591.195 2904.28 588.741C2904.28 586.288 2904.7 584.197 2905.53 582.469C2906.36 580.741 2907.5 579.429 2908.95 578.533C2910.4 577.616 2912.04 577.157 2913.88 577.157C2915.74 577.157 2917.38 577.616 2918.81 578.533C2920.26 579.429 2921.4 580.741 2922.23 582.469C2923.06 584.197 2923.48 586.288 2923.48 588.741C2923.48 591.195 2923.06 593.285 2922.23 595.013C2921.4 596.741 2920.26 598.064 2918.81 598.981C2917.38 599.877 2915.74 600.325 2913.88 600.325ZM2913.88 595.941C2914.75 595.941 2915.51 595.696 2916.15 595.205C2916.81 594.715 2917.32 593.936 2917.69 592.869C2918.07 591.803 2918.26 590.427 2918.26 588.741C2918.26 587.056 2918.07 585.68 2917.69 584.613C2917.32 583.547 2916.81 582.768 2916.15 582.277C2915.51 581.787 2914.75 581.541 2913.88 581.541C2913.03 581.541 2912.27 581.787 2911.61 582.277C2910.97 582.768 2910.46 583.547 2910.07 584.613C2909.71 585.68 2909.53 587.056 2909.53 588.741C2909.53 590.427 2909.71 591.803 2910.07 592.869C2910.46 593.936 2910.97 594.715 2911.61 595.205C2912.27 595.696 2913.03 595.941 2913.88 595.941ZM2935.6 600.325C2933.76 600.325 2932.12 599.877 2930.67 598.981C2929.22 598.064 2928.08 596.741 2927.25 595.013C2926.41 593.285 2926 591.195 2926 588.741C2926 586.288 2926.41 584.197 2927.25 582.469C2928.08 580.741 2929.22 579.429 2930.67 578.533C2932.12 577.616 2933.76 577.157 2935.6 577.157C2937.45 577.157 2939.1 577.616 2940.53 578.533C2941.98 579.429 2943.12 580.741 2943.95 582.469C2944.78 584.197 2945.2 586.288 2945.2 588.741C2945.2 591.195 2944.78 593.285 2943.95 595.013C2943.12 596.741 2941.98 598.064 2940.53 598.981C2939.1 599.877 2937.45 600.325 2935.6 600.325ZM2935.6 595.941C2936.47 595.941 2937.23 595.696 2937.87 595.205C2938.53 594.715 2939.04 593.936 2939.41 592.869C2939.79 591.803 2939.98 590.427 2939.98 588.741C2939.98 587.056 2939.79 585.68 2939.41 584.613C2939.04 583.547 2938.53 582.768 2937.87 582.277C2937.23 581.787 2936.47 581.541 2935.6 581.541C2934.74 581.541 2933.99 581.787 2933.33 582.277C2932.69 582.768 2932.17 583.547 2931.79 584.613C2931.43 585.68 2931.25 587.056 2931.25 588.741C2931.25 590.427 2931.43 591.803 2931.79 592.869C2932.17 593.936 2932.69 594.715 2933.33 595.205C2933.99 595.696 2934.74 595.941 2935.6 595.941Z" fill="white"/>
<path d="M2643.99 420C2643.99 414.477 2648.47 410 2653.99 410H2729.81H2803.03C2808.56 410 2813.03 414.477 2813.03 420V466.548C2813.03 472.071 2808.56 476.548 2803.03 476.548H2653.99C2648.47 476.548 2643.99 472.071 2643.99 466.548V420Z" fill="white"/>
<path d="M2700.37 451.947C2698.81 451.947 2697.26 451.745 2695.73 451.339C2694.19 450.913 2692.89 450.315 2691.82 449.547L2693.84 445.579C2694.69 446.198 2695.68 446.689 2696.81 447.051C2697.95 447.414 2699.09 447.595 2700.24 447.595C2701.54 447.595 2702.56 447.339 2703.31 446.827C2704.06 446.315 2704.43 445.611 2704.43 444.715C2704.43 443.862 2704.1 443.19 2703.44 442.699C2702.78 442.209 2701.71 441.963 2700.24 441.963H2697.87V438.539L2704.11 431.467L2704.69 433.323H2692.94V429.163H2708.62V432.523L2702.41 439.595L2699.79 438.091H2701.29C2704.05 438.091 2706.13 438.71 2707.53 439.947C2708.94 441.185 2709.65 442.774 2709.65 444.715C2709.65 445.974 2709.32 447.158 2708.65 448.267C2707.99 449.355 2706.98 450.241 2705.61 450.923C2704.25 451.606 2702.5 451.947 2700.37 451.947ZM2719.34 451.947C2717.79 451.947 2716.24 451.745 2714.7 451.339C2713.19 450.913 2711.89 450.315 2710.8 449.547L2712.85 445.579C2713.7 446.198 2714.68 446.689 2715.79 447.051C2716.92 447.414 2718.06 447.595 2719.22 447.595C2720.52 447.595 2721.54 447.339 2722.29 446.827C2723.03 446.315 2723.41 445.601 2723.41 444.683C2723.41 444.107 2723.26 443.595 2722.96 443.147C2722.66 442.699 2722.13 442.358 2721.36 442.123C2720.61 441.889 2719.56 441.771 2718.19 441.771H2712.46L2713.62 429.163H2727.28V433.323H2715.47L2718.16 430.955L2717.36 439.947L2714.67 437.579H2719.41C2721.63 437.579 2723.41 437.889 2724.75 438.507C2726.12 439.105 2727.11 439.926 2727.73 440.971C2728.35 442.017 2728.66 443.201 2728.66 444.523C2728.66 445.846 2728.33 447.073 2727.66 448.203C2727 449.313 2725.98 450.219 2724.59 450.923C2723.23 451.606 2721.48 451.947 2719.34 451.947ZM2733.68 451.563L2748.97 429.163H2752.78L2737.49 451.563H2733.68ZM2735.63 441.259C2734.54 441.259 2733.58 441.014 2732.75 440.523C2731.92 440.011 2731.26 439.297 2730.77 438.379C2730.3 437.441 2730.06 436.342 2730.06 435.083C2730.06 433.825 2730.3 432.737 2730.77 431.819C2731.26 430.902 2731.92 430.187 2732.75 429.675C2733.58 429.163 2734.54 428.907 2735.63 428.907C2736.72 428.907 2737.68 429.163 2738.51 429.675C2739.34 430.187 2739.99 430.902 2740.46 431.819C2740.93 432.737 2741.17 433.825 2741.17 435.083C2741.17 436.342 2740.93 437.441 2740.46 438.379C2739.99 439.297 2739.34 440.011 2738.51 440.523C2737.68 441.014 2736.72 441.259 2735.63 441.259ZM2735.63 438.635C2736.33 438.635 2736.9 438.347 2737.33 437.771C2737.75 437.174 2737.97 436.278 2737.97 435.083C2737.97 433.889 2737.75 433.003 2737.33 432.427C2736.9 431.83 2736.33 431.531 2735.63 431.531C2734.95 431.531 2734.38 431.83 2733.93 432.427C2733.51 433.003 2733.29 433.889 2733.29 435.083C2733.29 436.257 2733.51 437.142 2733.93 437.739C2734.38 438.337 2734.95 438.635 2735.63 438.635ZM2750.83 451.819C2749.76 451.819 2748.8 451.574 2747.95 451.083C2747.12 450.571 2746.47 449.857 2746 448.939C2745.53 448.001 2745.29 446.902 2745.29 445.643C2745.29 444.385 2745.53 443.297 2746 442.379C2746.47 441.462 2747.12 440.747 2747.95 440.235C2748.8 439.723 2749.76 439.467 2750.83 439.467C2751.94 439.467 2752.91 439.723 2753.74 440.235C2754.57 440.747 2755.23 441.462 2755.69 442.379C2756.16 443.297 2756.4 444.385 2756.4 445.643C2756.4 446.902 2756.16 448.001 2755.69 448.939C2755.23 449.857 2754.57 450.571 2753.74 451.083C2752.91 451.574 2751.94 451.819 2750.83 451.819ZM2750.83 449.195C2751.53 449.195 2752.1 448.907 2752.53 448.331C2752.95 447.734 2753.17 446.838 2753.17 445.643C2753.17 444.47 2752.95 443.585 2752.53 442.987C2752.1 442.39 2751.53 442.091 2750.83 442.091C2750.15 442.091 2749.58 442.39 2749.13 442.987C2748.71 443.563 2748.49 444.449 2748.49 445.643C2748.49 446.838 2748.71 447.734 2749.13 448.331C2749.58 448.907 2750.15 449.195 2750.83 449.195Z" fill="url(#paint3_linear_49_26)"/>
<path d="M2781.49 491.39L2771.75 480.545H2791.23L2781.49 491.39Z" fill="white"/>
<path d="M2013.96 0.620438L2013.96 765M2036.84 0.620438L2036.84 765M2059.72 0.620438L2059.72 765M2082.6 0.620438L2082.6 765M2105.48 0.620438L2105.48 765M2128.36 0.620438L2128.36 765M2151.24 0.620438L2151.24 765M2174.13 0.620438L2174.13 765M2197.01 0.620438L2197.01 765M2219.89 0.620438L2219.89 765M2242.77 0.620438V765M2265.65 0.620438V765M2288.53 0.620438V765M2311.41 0.620438V765M2334.29 0.620438V765M2357.18 0.620438V765M2380.06 0.620438V765M2402.94 0.620438V765M2425.82 0.620438V765M2448.7 0.620438L2448.7 765M2471.58 0.620438L2471.58 765M2494.46 0.620438L2494.46 765M2517.34 0.620438L2517.34 765M2013.55 764.38L2516.94 764.38M2013.55 729.635L2516.94 729.635M2013.55 694.891L2516.94 694.891M2013.55 660.146L2516.94 660.146M2013.55 625.401L2516.94 625.402M2013.55 590.657L2516.94 590.657M2013.55 555.912L2516.94 555.912M2013.55 521.168L2516.94 521.168M2013.55 486.423L2516.94 486.423M2013.55 451.679L2516.94 451.679M2013.55 416.934L2516.94 416.934M2013.55 382.19L2516.94 382.19M2013.55 347.445H2516.94M2013.55 312.701L2516.94 312.701M2013.55 277.956L2516.94 277.956M2013.55 243.212L2516.94 243.212M2013.55 208.467L2516.94 208.467M2013.55 173.723L2516.94 173.723M2013.55 138.978L2516.94 138.978M2013.55 104.234L2516.94 104.234M2013.55 69.4891L2516.94 69.4891M2013.55 34.7445L2516.94 34.7446M2013.55 0L2516.94 5.14551e-05" stroke="url(#paint4_linear_49_26)" stroke-opacity="0.1"/>
<path d="M503.796 0.620438L503.796 765M526.677 0.620438L526.677 765M549.558 0.620438L549.558 765M572.44 0.620438L572.439 765M595.321 0.620438L595.321 765M618.202 0.620438L618.202 765M641.083 0.620438L641.083 765M663.964 0.620438L663.964 765M686.846 0.620438L686.846 765M709.727 0.620438L709.727 765M732.608 0.620438V765M755.489 0.620438V765M778.371 0.620438V765M801.252 0.620438V765M824.133 0.620438V765M847.014 0.620438V765M869.896 0.620438V765M892.777 0.620438V765M915.658 0.620438V765M938.539 0.620438L938.539 765M961.42 0.620438L961.42 765M984.302 0.620438L984.302 765M1007.18 0.620438L1007.18 765M503.387 764.38L1006.77 764.38M503.387 729.635L1006.77 729.635M503.387 694.891L1006.77 694.891M503.387 660.146L1006.77 660.146M503.387 625.401L1006.77 625.402M503.387 590.657L1006.77 590.657M503.387 555.912L1006.77 555.913M503.387 521.168L1006.77 521.168M503.387 486.423L1006.77 486.423M503.387 451.679L1006.77 451.679M503.387 416.934L1006.77 416.934M503.387 382.19L1006.77 382.19M503.387 347.445L1006.77 347.445M503.387 312.701L1006.77 312.701M503.387 277.956L1006.77 277.956M503.387 243.212L1006.77 243.212M503.387 208.467L1006.77 208.467M503.387 173.723L1006.77 173.723M503.387 138.978L1006.77 138.978M503.387 104.234L1006.77 104.234M503.387 69.4891L1006.77 69.4891M503.387 34.7445L1006.77 34.7446M503.387 0L1006.77 5.14551e-05" stroke="url(#paint5_linear_49_26)" stroke-opacity="0.1"/>
<path d="M0.408615 0.620438L0.408593 765M23.2898 0.620438L23.2898 765M46.1711 0.620438L46.1711 765M69.0523 0.620438L69.0523 765M91.9335 0.620438L91.9335 765M114.815 0.620438L114.815 765M137.696 0.620438L137.696 765M160.577 0.620438L160.577 765M183.458 0.620438L183.458 765M206.34 0.620438L206.34 765M229.221 0.620438V765M252.102 0.620438V765M274.983 0.620438V765M297.865 0.620438V765M320.746 0.620438V765M343.627 0.620438V765M366.508 0.620438V765M389.39 0.620438V765M412.271 0.620438V765M435.152 0.620438L435.152 765M458.033 0.620438L458.033 765M480.915 0.620438L480.914 765M503.796 0.620438L503.796 765M0 764.38L503.387 764.38M0 729.635L503.387 729.635M0 694.891L503.387 694.891M0 660.146L503.387 660.146M0 625.401L503.387 625.402M0 590.657L503.387 590.657M0 555.912L503.387 555.913M0 521.168L503.387 521.168M0 486.423L503.387 486.423M0 451.679L503.387 451.679M0 416.934L503.387 416.934M0 382.19L503.387 382.19M0 347.445L503.387 347.445M0 312.701L503.387 312.701M0 277.956L503.387 277.956M0 243.212L503.387 243.212M0 208.467L503.387 208.467M0 173.723L503.387 173.723M0 138.978L503.387 138.978M0 104.234L503.387 104.234M0 69.4891L503.387 69.4891M0 34.7445L503.387 34.7446M0 0L503.387 5.14551e-05" stroke="url(#paint6_linear_49_26)" stroke-opacity="0.1"/>
<path d="M1007.18 0.620438L1007.18 765M1030.06 0.620438L1030.06 765M1052.95 0.620438L1052.95 765M1075.83 0.620438L1075.83 765M1098.71 0.620438L1098.71 765M1121.59 0.620438L1121.59 765M1144.47 0.620438L1144.47 765M1167.35 0.620438L1167.35 765M1190.23 0.620438L1190.23 765M1213.11 0.620438L1213.11 765M1236 0.620438V765M1258.88 0.620438V765M1281.76 0.620438V765M1304.64 0.620438V765M1327.52 0.620438V765M1350.4 0.620438V765M1373.28 0.620438V765M1396.16 0.620438V765M1419.05 0.620438V765M1441.93 0.620438L1441.93 765M1464.81 0.620438L1464.81 765M1487.69 0.620438L1487.69 765M1510.57 0.620438L1510.57 765M1006.77 764.38L1510.16 764.38M1006.77 729.635L1510.16 729.635M1006.77 694.891L1510.16 694.891M1006.77 660.146L1510.16 660.146M1006.77 625.401L1510.16 625.402M1006.77 590.657L1510.16 590.657M1006.77 555.912L1510.16 555.913M1006.77 521.168L1510.16 521.168M1006.77 486.423L1510.16 486.423M1006.77 451.679L1510.16 451.679M1006.77 416.934L1510.16 416.934M1006.77 382.19L1510.16 382.19M1006.77 347.445L1510.16 347.445M1006.77 312.701L1510.16 312.701M1006.77 277.956L1510.16 277.956M1006.77 243.212L1510.16 243.212M1006.77 208.467L1510.16 208.467M1006.77 173.723L1510.16 173.723M1006.77 138.978L1510.16 138.978M1006.77 104.234L1510.16 104.234M1006.77 69.4891L1510.16 69.4891M1006.77 34.7445L1510.16 34.7446M1006.77 0L1510.16 5.14551e-05" stroke="url(#paint7_linear_49_26)" stroke-opacity="0.1"/>
<path d="M1510.57 0.620438L1510.57 765M1533.45 0.620438L1533.45 765M1556.33 0.620438L1556.33 765M1579.21 0.620438L1579.21 765M1602.09 0.620438L1602.09 765M1624.98 0.620438L1624.98 765M1647.86 0.620438L1647.86 765M1670.74 0.620438L1670.74 765M1693.62 0.620438L1693.62 765M1716.5 0.620438L1716.5 765M1739.38 0.620438V765M1762.26 0.620438V765M1785.14 0.620438V765M1808.03 0.620438V765M1830.91 0.620438V765M1853.79 0.620438V765M1876.67 0.620438V765M1899.55 0.620438V765M1922.43 0.620438V765M1945.31 0.620438L1945.31 765M1968.19 0.620438L1968.19 765M1991.08 0.620438L1991.08 765M2013.96 0.620438L2013.96 765M1510.16 764.38L2013.55 764.38M1510.16 729.635L2013.55 729.635M1510.16 694.891L2013.55 694.891M1510.16 660.146L2013.55 660.146M1510.16 625.401L2013.55 625.402M1510.16 590.657L2013.55 590.657M1510.16 555.912L2013.55 555.913M1510.16 521.168L2013.55 521.168M1510.16 486.423L2013.55 486.423M1510.16 451.679L2013.55 451.679M1510.16 416.934L2013.55 416.934M1510.16 382.19L2013.55 382.19M1510.16 347.445L2013.55 347.445M1510.16 312.701L2013.55 312.701M1510.16 277.956L2013.55 277.956M1510.16 243.212L2013.55 243.212M1510.16 208.467L2013.55 208.467M1510.16 173.723L2013.55 173.723M1510.16 138.978L2013.55 138.978M1510.16 104.234L2013.55 104.234M1510.16 69.4891L2013.55 69.4891M1510.16 34.7445L2013.55 34.7446M1510.16 0L2013.55 5.14551e-05" stroke="url(#paint8_linear_49_26)" stroke-opacity="0.1"/>
<path d="M4531.3 0.620438L4531.3 765M4554.18 0.620438L4554.18 765M4577.06 0.620438L4577.06 765M4599.95 0.620438L4599.95 765M4622.83 0.620438L4622.83 765M4645.71 0.620438L4645.71 765M4668.59 0.620438L4668.59 765M4691.47 0.620438L4691.47 765M4714.35 0.620438L4714.35 765M4737.23 0.620438L4737.23 765M4760.11 0.620438V765M4782.99 0.620438V765M4805.88 0.620438V765M4828.76 0.620438V765M4851.64 0.620438V765M4874.52 0.620438V765M4897.4 0.620438V765M4920.28 0.620438V765M4943.16 0.620438V765M4966.04 0.620438L4966.04 765M4988.93 0.620438L4988.93 765M5011.81 0.620438L5011.81 765M5034.69 0.620438L5034.69 765M4530.89 764.38L5034.28 764.38M4530.89 729.635L5034.28 729.635M4530.89 694.891L5034.28 694.891M4530.89 660.146L5034.28 660.146M4530.89 625.401L5034.28 625.402M4530.89 590.657L5034.28 590.657M4530.89 555.912L5034.28 555.913M4530.89 521.168L5034.28 521.168M4530.89 486.423L5034.28 486.423M4530.89 451.679L5034.28 451.679M4530.89 416.934L5034.28 416.934M4530.89 382.19L5034.28 382.19M4530.89 347.445L5034.28 347.445M4530.89 312.701L5034.28 312.701M4530.89 277.956L5034.28 277.956M4530.89 243.212L5034.28 243.212M4530.89 208.467L5034.28 208.467M4530.89 173.723L5034.28 173.723M4530.89 138.978L5034.28 138.978M4530.89 104.234L5034.28 104.234M4530.89 69.4891L5034.28 69.4891M4530.89 34.7445L5034.28 34.7446M4530.89 0L5034.28 5.14551e-05" stroke="url(#paint9_linear_49_26)" stroke-opacity="0.1"/>
<path d="M3021.14 0.620438L3021.14 765M3044.02 0.620438L3044.02 765M3066.9 0.620438L3066.9 765M3089.78 0.620438L3089.78 765M3112.66 0.620438L3112.66 765M3135.55 0.620438L3135.55 765M3158.43 0.620438L3158.43 765M3181.31 0.620438L3181.31 765M3204.19 0.620438L3204.19 765M3227.07 0.620438L3227.07 765M3249.95 0.620438V765M3272.83 0.620438V765M3295.71 0.620438V765M3318.6 0.620438V765M3341.48 0.620438V765M3364.36 0.620438V765M3387.24 0.620438V765M3410.12 0.620438V765M3433 0.620438V765M3455.88 0.620438L3455.88 765M3478.76 0.620438L3478.76 765M3501.65 0.620438L3501.65 765M3524.53 0.620438L3524.53 765M3020.73 764.38L3524.12 764.38M3020.73 729.635L3524.12 729.635M3020.73 694.891L3524.12 694.891M3020.73 660.146L3524.12 660.146M3020.73 625.401L3524.12 625.402M3020.73 590.657L3524.12 590.657M3020.73 555.912L3524.12 555.913M3020.73 521.168L3524.12 521.168M3020.73 486.423L3524.12 486.423M3020.73 451.679L3524.12 451.679M3020.73 416.934L3524.12 416.934M3020.73 382.19L3524.12 382.19M3020.73 347.445L3524.12 347.445M3020.73 312.701L3524.12 312.701M3020.73 277.956L3524.12 277.956M3020.73 243.212L3524.12 243.212M3020.73 208.467L3524.12 208.467M3020.73 173.723L3524.12 173.723M3020.73 138.978L3524.12 138.978M3020.73 104.234L3524.12 104.234M3020.73 69.4891L3524.12 69.4891M3020.73 34.7445L3524.12 34.7446M3020.73 0L3524.12 5.14551e-05" stroke="url(#paint10_linear_49_26)" stroke-opacity="0.1"/>
<path d="M2517.75 0.620438L2517.75 765M2540.63 0.620438L2540.63 765M2563.52 0.620438L2563.52 765M2586.4 0.620438L2586.4 765M2609.28 0.620438L2609.28 765M2632.16 0.620438L2632.16 765M2655.04 0.620438L2655.04 765M2677.92 0.620438L2677.92 765M2700.8 0.620438L2700.8 765M2723.68 0.620438L2723.68 765M2746.57 0.620438V765M2769.45 0.620438V765M2792.33 0.620438V765M2815.21 0.620438V765M2838.09 0.620438V765M2860.97 0.620438V765M2883.85 0.620438V765M2906.73 0.620438V765M2929.61 0.620438V765M2952.5 0.620438L2952.5 765M2975.38 0.620438L2975.38 765M2998.26 0.620438L2998.26 765M3021.14 0.620438L3021.14 765M2517.34 764.38L3020.73 764.38M2517.34 729.635L3020.73 729.635M2517.34 694.891L3020.73 694.891M2517.34 660.146L3020.73 660.146M2517.34 625.401L3020.73 625.402M2517.34 590.657L3020.73 590.657M2517.34 555.912L3020.73 555.912M2517.34 521.168L3020.73 521.168M2517.34 486.423L3020.73 486.423M2517.34 451.679L3020.73 451.679M2517.34 416.934L3020.73 416.934M2517.34 382.19L3020.73 382.19M2517.34 347.445L3020.73 347.445M2517.34 312.701L3020.73 312.701M2517.34 277.956L3020.73 277.956M2517.34 243.212L3020.73 243.212M2517.34 208.467L3020.73 208.467M2517.34 173.723L3020.73 173.723M2517.34 138.978L3020.73 138.978M2517.34 104.234L3020.73 104.234M2517.34 69.4891L3020.73 69.4891M2517.34 34.7445L3020.73 34.7446M2517.34 0L3020.73 5.14551e-05" stroke="url(#paint11_linear_49_26)" stroke-opacity="0.1"/>
<path d="M3524.53 0.620438L3524.53 765M3547.41 0.620438L3547.41 765M3570.29 0.620438L3570.29 765M3593.17 0.620438L3593.17 765M3616.05 0.620438L3616.05 765M3638.93 0.620438L3638.93 765M3661.81 0.620438L3661.81 765M3684.7 0.620438L3684.7 765M3707.58 0.620438L3707.58 765M3730.46 0.620438L3730.46 765M3753.34 0.620438V765M3776.22 0.620438V765M3799.1 0.620438V765M3821.98 0.620438V765M3844.86 0.620438V765M3867.75 0.620438V765M3890.63 0.620438V765M3913.51 0.620438V765M3936.39 0.620438V765M3959.27 0.620438L3959.27 765M3982.15 0.620438L3982.15 765M4005.03 0.620438L4005.03 765M4027.91 0.620438L4027.91 765M3524.12 764.38L4027.51 764.38M3524.12 729.635L4027.51 729.635M3524.12 694.891L4027.51 694.891M3524.12 660.146L4027.51 660.146M3524.12 625.401L4027.51 625.402M3524.12 590.657L4027.51 590.657M3524.12 555.912L4027.51 555.913M3524.12 521.168L4027.51 521.168M3524.12 486.423L4027.51 486.423M3524.12 451.679L4027.51 451.679M3524.12 416.934L4027.51 416.934M3524.12 382.19L4027.51 382.19M3524.12 347.445L4027.51 347.445M3524.12 312.701L4027.51 312.701M3524.12 277.956L4027.51 277.956M3524.12 243.212L4027.51 243.212M3524.12 208.467L4027.51 208.467M3524.12 173.723L4027.51 173.723M3524.12 138.978L4027.51 138.978M3524.12 104.234L4027.51 104.234M3524.12 69.4891L4027.51 69.4891M3524.12 34.7445L4027.51 34.7446M3524.12 0L4027.51 5.14551e-05" stroke="url(#paint12_linear_49_26)" stroke-opacity="0.1"/>
<path d="M4027.91 0.620438L4027.91 765M4050.8 0.620438L4050.8 765M4073.68 0.620438L4073.68 765M4096.56 0.620438L4096.56 765M4119.44 0.620438L4119.44 765M4142.32 0.620438L4142.32 765M4165.2 0.620438L4165.2 765M4188.08 0.620438L4188.08 765M4210.96 0.620438L4210.96 765M4233.85 0.620438L4233.85 765M4256.73 0.620438V765M4279.61 0.620438V765M4302.49 0.620438V765M4325.37 0.620438V765M4348.25 0.620438V765M4371.13 0.620438V765M4394.01 0.620438V765M4416.9 0.620438V765M4439.78 0.620438V765M4462.66 0.620438L4462.66 765M4485.54 0.620438L4485.54 765M4508.42 0.620438L4508.42 765M4531.3 0.620438L4531.3 765M4027.51 764.38L4530.89 764.38M4027.51 729.635L4530.89 729.635M4027.51 694.891L4530.89 694.891M4027.51 660.146L4530.89 660.146M4027.51 625.401L4530.89 625.402M4027.51 590.657L4530.89 590.657M4027.51 555.912L4530.89 555.913M4027.51 521.168L4530.89 521.168M4027.51 486.423L4530.89 486.423M4027.51 451.679L4530.89 451.679M4027.51 416.934L4530.89 416.934M4027.51 382.19L4530.89 382.19M4027.51 347.445L4530.89 347.445M4027.51 312.701L4530.89 312.701M4027.51 277.956L4530.89 277.956M4027.51 243.212L4530.89 243.212M4027.51 208.467L4530.89 208.467M4027.51 173.723L4530.89 173.723M4027.51 138.978L4530.89 138.978M4027.51 104.234L4530.89 104.234M4027.51 69.4891L4530.89 69.4891M4027.51 34.7445L4530.89 34.7446M4027.51 0L4530.89 5.14551e-05" stroke="url(#paint13_linear_49_26)" stroke-opacity="0.1"/>
<g filter="url(#filter3_f_49_26)">
<path d="M2463.46 624C2463.46 632.671 2455.48 640.5 2444.59 640.5C2433.7 640.5 2425.71 632.671 2425.71 624C2425.71 615.329 2433.7 607.5 2444.59 607.5C2455.48 607.5 2463.46 615.329 2463.46 624Z" stroke="#605DEC" stroke-width="9"/>
</g>
<path d="M2464.96 624C2464.96 633.647 2456.15 642 2444.59 642C2433.03 642 2424.21 633.647 2424.21 624C2424.21 614.353 2433.03 606 2444.59 606C2456.15 606 2464.96 614.353 2464.96 624Z" stroke="white" stroke-width="6"/>
<path d="M2301.96 683.368V680.68H2319.21V683.368H2301.96ZM2301.96 678.952V676.264H2319.21V678.952H2301.96ZM2317.19 691.4C2315.44 691.4 2313.82 691.122 2312.33 690.568C2310.86 689.992 2309.58 689.181 2308.49 688.136C2307.4 687.09 2306.56 685.864 2305.96 684.456C2305.36 683.048 2305.06 681.501 2305.06 679.816C2305.06 678.13 2305.36 676.584 2305.96 675.176C2306.56 673.768 2307.4 672.541 2308.49 671.496C2309.58 670.45 2310.86 669.65 2312.33 669.096C2313.82 668.52 2315.44 668.232 2317.19 668.232C2319.13 668.232 2320.89 668.573 2322.47 669.256C2324.05 669.917 2325.36 670.898 2326.41 672.2L2323.11 675.272C2322.34 674.397 2321.49 673.746 2320.55 673.32C2319.61 672.872 2318.58 672.648 2317.45 672.648C2316.4 672.648 2315.44 672.818 2314.57 673.16C2313.69 673.501 2312.94 673.992 2312.3 674.632C2311.66 675.272 2311.15 676.029 2310.79 676.904C2310.45 677.778 2310.28 678.749 2310.28 679.816C2310.28 680.882 2310.45 681.853 2310.79 682.728C2311.15 683.602 2311.66 684.36 2312.3 685C2312.94 685.64 2313.69 686.13 2314.57 686.472C2315.44 686.813 2316.4 686.984 2317.45 686.984C2318.58 686.984 2319.61 686.77 2320.55 686.344C2321.49 685.896 2322.34 685.224 2323.11 684.328L2326.41 687.4C2325.36 688.701 2324.05 689.693 2322.47 690.376C2320.89 691.058 2319.13 691.4 2317.19 691.4ZM2335.8 691.4C2334.24 691.4 2332.7 691.197 2331.16 690.792C2329.65 690.365 2328.35 689.768 2327.26 689L2329.31 685.032C2330.16 685.65 2331.14 686.141 2332.25 686.504C2333.38 686.866 2334.52 687.048 2335.67 687.048C2336.97 687.048 2338 686.792 2338.75 686.28C2339.49 685.768 2339.87 685.053 2339.87 684.136C2339.87 683.56 2339.72 683.048 2339.42 682.6C2339.12 682.152 2338.59 681.81 2337.82 681.576C2337.07 681.341 2336.01 681.224 2334.65 681.224H2328.92L2330.07 668.616H2343.74V672.776H2331.93L2334.62 670.408L2333.82 679.4L2331.13 677.032H2335.87C2338.08 677.032 2339.87 677.341 2341.21 677.96C2342.57 678.557 2343.57 679.378 2344.19 680.424C2344.8 681.469 2345.11 682.653 2345.11 683.976C2345.11 685.298 2344.78 686.525 2344.12 687.656C2343.46 688.765 2342.44 689.672 2341.05 690.376C2339.68 691.058 2337.93 691.4 2335.8 691.4ZM2347.41 695.944L2349.52 688.264L2350.22 691.144C2349.31 691.144 2348.55 690.877 2347.95 690.344C2347.38 689.81 2347.09 689.074 2347.09 688.136C2347.09 687.197 2347.39 686.45 2347.98 685.896C2348.58 685.341 2349.32 685.064 2350.19 685.064C2351.09 685.064 2351.82 685.352 2352.4 685.928C2352.98 686.482 2353.26 687.218 2353.26 688.136C2353.26 688.413 2353.24 688.69 2353.2 688.968C2353.16 689.224 2353.07 689.544 2352.94 689.928C2352.84 690.29 2352.66 690.76 2352.4 691.336L2350.58 695.944H2347.41ZM2364.79 691.4C2362.95 691.4 2361.31 690.952 2359.86 690.056C2358.41 689.138 2357.27 687.816 2356.43 686.088C2355.6 684.36 2355.19 682.269 2355.19 679.816C2355.19 677.362 2355.6 675.272 2356.43 673.544C2357.27 671.816 2358.41 670.504 2359.86 669.608C2361.31 668.69 2362.95 668.232 2364.79 668.232C2366.64 668.232 2368.28 668.69 2369.71 669.608C2371.16 670.504 2372.31 671.816 2373.14 673.544C2373.97 675.272 2374.39 677.362 2374.39 679.816C2374.39 682.269 2373.97 684.36 2373.14 686.088C2372.31 687.816 2371.16 689.138 2369.71 690.056C2368.28 690.952 2366.64 691.4 2364.79 691.4ZM2364.79 687.016C2365.66 687.016 2366.42 686.77 2367.06 686.28C2367.72 685.789 2368.23 685.01 2368.59 683.944C2368.98 682.877 2369.17 681.501 2369.17 679.816C2369.17 678.13 2368.98 676.754 2368.59 675.688C2368.23 674.621 2367.72 673.842 2367.06 673.352C2366.42 672.861 2365.66 672.616 2364.79 672.616C2363.93 672.616 2363.17 672.861 2362.51 673.352C2361.87 673.842 2361.36 674.621 2360.98 675.688C2360.61 676.754 2360.43 678.13 2360.43 679.816C2360.43 681.501 2360.61 682.877 2360.98 683.944C2361.36 685.01 2361.87 685.789 2362.51 686.28C2363.17 686.77 2363.93 687.016 2364.79 687.016ZM2386.5 691.4C2384.67 691.4 2383.03 690.952 2381.58 690.056C2380.13 689.138 2378.98 687.816 2378.15 686.088C2377.32 684.36 2376.9 682.269 2376.9 679.816C2376.9 677.362 2377.32 675.272 2378.15 673.544C2378.98 671.816 2380.13 670.504 2381.58 669.608C2383.03 668.69 2384.67 668.232 2386.5 668.232C2388.36 668.232 2390 668.69 2391.43 669.608C2392.88 670.504 2394.02 671.816 2394.86 673.544C2395.69 675.272 2396.1 677.362 2396.1 679.816C2396.1 682.269 2395.69 684.36 2394.86 686.088C2394.02 687.816 2392.88 689.138 2391.43 690.056C2390 690.952 2388.36 691.4 2386.5 691.4ZM2386.5 687.016C2387.38 687.016 2388.14 686.77 2388.78 686.28C2389.44 685.789 2389.95 685.01 2390.31 683.944C2390.7 682.877 2390.89 681.501 2390.89 679.816C2390.89 678.13 2390.7 676.754 2390.31 675.688C2389.95 674.621 2389.44 673.842 2388.78 673.352C2388.14 672.861 2387.38 672.616 2386.5 672.616C2385.65 672.616 2384.89 672.861 2384.23 673.352C2383.59 673.842 2383.08 674.621 2382.7 675.688C2382.33 676.754 2382.15 678.13 2382.15 679.816C2382.15 681.501 2382.33 682.877 2382.7 683.944C2383.08 685.01 2383.59 685.789 2384.23 686.28C2384.89 686.77 2385.65 687.016 2386.5 687.016ZM2408.22 691.4C2406.39 691.4 2404.75 690.952 2403.3 690.056C2401.84 689.138 2400.7 687.816 2399.87 686.088C2399.04 684.36 2398.62 682.269 2398.62 679.816C2398.62 677.362 2399.04 675.272 2399.87 673.544C2400.7 671.816 2401.84 670.504 2403.3 669.608C2404.75 668.69 2406.39 668.232 2408.22 668.232C2410.08 668.232 2411.72 668.69 2413.15 669.608C2414.6 670.504 2415.74 671.816 2416.58 673.544C2417.41 675.272 2417.82 677.362 2417.82 679.816C2417.82 682.269 2417.41 684.36 2416.58 686.088C2415.74 687.816 2414.6 689.138 2413.15 690.056C2411.72 690.952 2410.08 691.4 2408.22 691.4ZM2408.22 687.016C2409.1 687.016 2409.86 686.77 2410.5 686.28C2411.16 685.789 2411.67 685.01 2412.03 683.944C2412.42 682.877 2412.61 681.501 2412.61 679.816C2412.61 678.13 2412.42 676.754 2412.03 675.688C2411.67 674.621 2411.16 673.842 2410.5 673.352C2409.86 672.861 2409.1 672.616 2408.22 672.616C2407.37 672.616 2406.61 672.861 2405.95 673.352C2405.31 673.842 2404.8 674.621 2404.42 675.688C2404.05 676.754 2403.87 678.13 2403.87 679.816C2403.87 681.501 2404.05 682.877 2404.42 683.944C2404.8 685.01 2405.31 685.789 2405.95 686.28C2406.61 686.77 2407.37 687.016 2408.22 687.016ZM2437.5 691.272C2435.47 691.272 2433.89 690.76 2432.76 689.736C2431.63 688.69 2431.07 687.144 2431.07 685.096V669.992H2436.06V685.032C2436.06 685.757 2436.25 686.322 2436.64 686.728C2437.02 687.112 2437.54 687.304 2438.2 687.304C2438.99 687.304 2439.67 687.09 2440.22 686.664L2441.56 690.184C2441.05 690.546 2440.43 690.824 2439.71 691.016C2439 691.186 2438.27 691.272 2437.5 691.272ZM2428.41 678.024V674.184H2440.35V678.024H2428.41ZM2452.03 691.272C2450.19 691.272 2448.56 690.888 2447.13 690.12C2445.72 689.352 2444.6 688.306 2443.77 686.984C2442.96 685.64 2442.56 684.114 2442.56 682.408C2442.56 680.68 2442.96 679.154 2443.77 677.832C2444.6 676.488 2445.72 675.442 2447.13 674.696C2448.56 673.928 2450.19 673.544 2452.03 673.544C2453.84 673.544 2455.46 673.928 2456.89 674.696C2458.32 675.442 2459.44 676.477 2460.25 677.8C2461.06 679.122 2461.47 680.658 2461.47 682.408C2461.47 684.114 2461.06 685.64 2460.25 686.984C2459.44 688.306 2458.32 689.352 2456.89 690.12C2455.46 690.888 2453.84 691.272 2452.03 691.272ZM2452.03 687.176C2452.86 687.176 2453.61 686.984 2454.27 686.6C2454.93 686.216 2455.45 685.672 2455.84 684.968C2456.22 684.242 2456.41 683.389 2456.41 682.408C2456.41 681.405 2456.22 680.552 2455.84 679.848C2455.45 679.144 2454.93 678.6 2454.27 678.216C2453.61 677.832 2452.86 677.64 2452.03 677.64C2451.2 677.64 2450.45 677.832 2449.79 678.216C2449.13 678.6 2448.59 679.144 2448.19 679.848C2447.8 680.552 2447.61 681.405 2447.61 682.408C2447.61 683.389 2447.8 684.242 2448.19 684.968C2448.59 685.672 2449.13 686.216 2449.79 686.6C2450.45 686.984 2451.2 687.176 2452.03 687.176ZM2472.52 683.368V680.68H2489.77V683.368H2472.52ZM2472.52 678.952V676.264H2489.77V678.952H2472.52ZM2487.75 691.4C2486.01 691.4 2484.38 691.122 2482.89 690.568C2481.42 689.992 2480.14 689.181 2479.05 688.136C2477.96 687.09 2477.12 685.864 2476.52 684.456C2475.93 683.048 2475.63 681.501 2475.63 679.816C2475.63 678.13 2475.93 676.584 2476.52 675.176C2477.12 673.768 2477.96 672.541 2479.05 671.496C2480.14 670.45 2481.42 669.65 2482.89 669.096C2484.38 668.52 2486.01 668.232 2487.75 668.232C2489.7 668.232 2491.46 668.573 2493.03 669.256C2494.61 669.917 2495.93 670.898 2496.97 672.2L2493.67 675.272C2492.91 674.397 2492.05 673.746 2491.11 673.32C2490.18 672.872 2489.14 672.648 2488.01 672.648C2486.97 672.648 2486.01 672.818 2485.13 673.16C2484.26 673.501 2483.5 673.992 2482.86 674.632C2482.22 675.272 2481.72 676.029 2481.35 676.904C2481.01 677.778 2480.84 678.749 2480.84 679.816C2480.84 680.882 2481.01 681.853 2481.35 682.728C2481.72 683.602 2482.22 684.36 2482.86 685C2483.5 685.64 2484.26 686.13 2485.13 686.472C2486.01 686.813 2486.97 686.984 2488.01 686.984C2489.14 686.984 2490.18 686.77 2491.11 686.344C2492.05 685.896 2492.91 685.224 2493.67 684.328L2496.97 687.4C2495.93 688.701 2494.61 689.693 2493.03 690.376C2491.46 691.058 2489.7 691.4 2487.75 691.4ZM2502.83 691.016V670.536L2505.07 672.776H2498.35V668.616H2508.01V691.016H2502.83ZM2521.5 691.4C2519.67 691.4 2518.03 690.952 2516.58 690.056C2515.13 689.138 2513.98 687.816 2513.15 686.088C2512.32 684.36 2511.9 682.269 2511.9 679.816C2511.9 677.362 2512.32 675.272 2513.15 673.544C2513.98 671.816 2515.13 670.504 2516.58 669.608C2518.03 668.69 2519.67 668.232 2521.5 668.232C2523.36 668.232 2525 668.69 2526.43 669.608C2527.88 670.504 2529.02 671.816 2529.86 673.544C2530.69 675.272 2531.1 677.362 2531.1 679.816C2531.1 682.269 2530.69 684.36 2529.86 686.088C2529.02 687.816 2527.88 689.138 2526.43 690.056C2525 690.952 2523.36 691.4 2521.5 691.4ZM2521.5 687.016C2522.38 687.016 2523.14 686.77 2523.78 686.28C2524.44 685.789 2524.95 685.01 2525.31 683.944C2525.7 682.877 2525.89 681.501 2525.89 679.816C2525.89 678.13 2525.7 676.754 2525.31 675.688C2524.95 674.621 2524.44 673.842 2523.78 673.352C2523.14 672.861 2522.38 672.616 2521.5 672.616C2520.65 672.616 2519.89 672.861 2519.23 673.352C2518.59 673.842 2518.08 674.621 2517.7 675.688C2517.33 676.754 2517.15 678.13 2517.15 679.816C2517.15 681.501 2517.33 682.877 2517.7 683.944C2518.08 685.01 2518.59 685.789 2519.23 686.28C2519.89 686.77 2520.65 687.016 2521.5 687.016ZM2533.41 695.944L2535.52 688.264L2536.22 691.144C2535.31 691.144 2534.55 690.877 2533.95 690.344C2533.38 689.81 2533.09 689.074 2533.09 688.136C2533.09 687.197 2533.39 686.45 2533.98 685.896C2534.58 685.341 2535.32 685.064 2536.19 685.064C2537.09 685.064 2537.82 685.352 2538.4 685.928C2538.98 686.482 2539.26 687.218 2539.26 688.136C2539.26 688.413 2539.24 688.69 2539.2 688.968C2539.16 689.224 2539.07 689.544 2538.94 689.928C2538.84 690.29 2538.66 690.76 2538.4 691.336L2536.58 695.944H2533.41ZM2550.79 691.4C2548.95 691.4 2547.31 690.952 2545.86 690.056C2544.41 689.138 2543.27 687.816 2542.43 686.088C2541.6 684.36 2541.19 682.269 2541.19 679.816C2541.19 677.362 2541.6 675.272 2542.43 673.544C2543.27 671.816 2544.41 670.504 2545.86 669.608C2547.31 668.69 2548.95 668.232 2550.79 668.232C2552.64 668.232 2554.28 668.69 2555.71 669.608C2557.16 670.504 2558.31 671.816 2559.14 673.544C2559.97 675.272 2560.39 677.362 2560.39 679.816C2560.39 682.269 2559.97 684.36 2559.14 686.088C2558.31 687.816 2557.16 689.138 2555.71 690.056C2554.28 690.952 2552.64 691.4 2550.79 691.4ZM2550.79 687.016C2551.66 687.016 2552.42 686.77 2553.06 686.28C2553.72 685.789 2554.23 685.01 2554.59 683.944C2554.98 682.877 2555.17 681.501 2555.17 679.816C2555.17 678.13 2554.98 676.754 2554.59 675.688C2554.23 674.621 2553.72 673.842 2553.06 673.352C2552.42 672.861 2551.66 672.616 2550.79 672.616C2549.93 672.616 2549.17 672.861 2548.51 673.352C2547.87 673.842 2547.36 674.621 2546.98 675.688C2546.61 676.754 2546.43 678.13 2546.43 679.816C2546.43 681.501 2546.61 682.877 2546.98 683.944C2547.36 685.01 2547.87 685.789 2548.51 686.28C2549.17 686.77 2549.93 687.016 2550.79 687.016ZM2572.5 691.4C2570.67 691.4 2569.03 690.952 2567.58 690.056C2566.13 689.138 2564.98 687.816 2564.15 686.088C2563.32 684.36 2562.9 682.269 2562.9 679.816C2562.9 677.362 2563.32 675.272 2564.15 673.544C2564.98 671.816 2566.13 670.504 2567.58 669.608C2569.03 668.69 2570.67 668.232 2572.5 668.232C2574.36 668.232 2576 668.69 2577.43 669.608C2578.88 670.504 2580.02 671.816 2580.86 673.544C2581.69 675.272 2582.1 677.362 2582.1 679.816C2582.1 682.269 2581.69 684.36 2580.86 686.088C2580.02 687.816 2578.88 689.138 2577.43 690.056C2576 690.952 2574.36 691.4 2572.5 691.4ZM2572.5 687.016C2573.38 687.016 2574.14 686.77 2574.78 686.28C2575.44 685.789 2575.95 685.01 2576.31 683.944C2576.7 682.877 2576.89 681.501 2576.89 679.816C2576.89 678.13 2576.7 676.754 2576.31 675.688C2575.95 674.621 2575.44 673.842 2574.78 673.352C2574.14 672.861 2573.38 672.616 2572.5 672.616C2571.65 672.616 2570.89 672.861 2570.23 673.352C2569.59 673.842 2569.08 674.621 2568.7 675.688C2568.33 676.754 2568.15 678.13 2568.15 679.816C2568.15 681.501 2568.33 682.877 2568.7 683.944C2569.08 685.01 2569.59 685.789 2570.23 686.28C2570.89 686.77 2571.65 687.016 2572.5 687.016ZM2594.22 691.4C2592.39 691.4 2590.75 690.952 2589.3 690.056C2587.84 689.138 2586.7 687.816 2585.87 686.088C2585.04 684.36 2584.62 682.269 2584.62 679.816C2584.62 677.362 2585.04 675.272 2585.87 673.544C2586.7 671.816 2587.84 670.504 2589.3 669.608C2590.75 668.69 2592.39 668.232 2594.22 668.232C2596.08 668.232 2597.72 668.69 2599.15 669.608C2600.6 670.504 2601.74 671.816 2602.58 673.544C2603.41 675.272 2603.82 677.362 2603.82 679.816C2603.82 682.269 2603.41 684.36 2602.58 686.088C2601.74 687.816 2600.6 689.138 2599.15 690.056C2597.72 690.952 2596.08 691.4 2594.22 691.4ZM2594.22 687.016C2595.1 687.016 2595.86 686.77 2596.5 686.28C2597.16 685.789 2597.67 685.01 2598.03 683.944C2598.42 682.877 2598.61 681.501 2598.61 679.816C2598.61 678.13 2598.42 676.754 2598.03 675.688C2597.67 674.621 2597.16 673.842 2596.5 673.352C2595.86 672.861 2595.1 672.616 2594.22 672.616C2593.37 672.616 2592.61 672.861 2591.95 673.352C2591.31 673.842 2590.8 674.621 2590.42 675.688C2590.05 676.754 2589.87 678.13 2589.87 679.816C2589.87 681.501 2590.05 682.877 2590.42 683.944C2590.8 685.01 2591.31 685.789 2591.95 686.28C2592.61 686.77 2593.37 687.016 2594.22 687.016Z" fill="white"/>
<rect x="2311.02" y="513" width="163.626" height="61.5" rx="10" fill="white"/>
<path d="M2370.03 559.463C2368.47 559.463 2366.92 559.26 2365.39 558.855C2363.85 558.428 2362.55 557.831 2361.48 557.063L2363.5 553.095C2364.35 553.713 2365.34 554.204 2366.47 554.567C2367.6 554.929 2368.75 555.111 2369.9 555.111C2371.2 555.111 2372.22 554.855 2372.97 554.343C2373.72 553.831 2374.09 553.127 2374.09 552.231C2374.09 551.377 2373.76 550.705 2373.1 550.215C2372.44 549.724 2371.37 549.479 2369.9 549.479H2367.53V546.055L2373.77 538.983L2374.35 540.839H2362.6V536.679H2378.28V540.039L2372.07 547.111L2369.45 545.607H2370.95C2373.71 545.607 2375.79 546.225 2377.19 547.463C2378.6 548.7 2379.31 550.289 2379.31 552.231C2379.31 553.489 2378.97 554.673 2378.31 555.783C2377.65 556.871 2376.64 557.756 2375.27 558.439C2373.91 559.121 2372.16 559.463 2370.03 559.463ZM2391.3 559.463C2389.46 559.463 2387.82 559.015 2386.37 558.119C2384.92 557.201 2383.78 555.879 2382.95 554.151C2382.11 552.423 2381.7 550.332 2381.7 547.879C2381.7 545.425 2382.11 543.335 2382.95 541.607C2383.78 539.879 2384.92 538.567 2386.37 537.671C2387.82 536.753 2389.46 536.295 2391.3 536.295C2393.15 536.295 2394.8 536.753 2396.23 537.671C2397.68 538.567 2398.82 539.879 2399.65 541.607C2400.48 543.335 2400.9 545.425 2400.9 547.879C2400.9 550.332 2400.48 552.423 2399.65 554.151C2398.82 555.879 2397.68 557.201 2396.23 558.119C2394.8 559.015 2393.15 559.463 2391.3 559.463ZM2391.3 555.079C2392.17 555.079 2392.93 554.833 2393.57 554.343C2394.23 553.852 2394.74 553.073 2395.11 552.007C2395.49 550.94 2395.68 549.564 2395.68 547.879C2395.68 546.193 2395.49 544.817 2395.11 543.751C2394.74 542.684 2394.23 541.905 2393.57 541.415C2392.93 540.924 2392.17 540.679 2391.3 540.679C2390.45 540.679 2389.69 540.924 2389.03 541.415C2388.39 541.905 2387.87 542.684 2387.49 543.751C2387.13 544.817 2386.95 546.193 2386.95 547.879C2386.95 549.564 2387.13 550.94 2387.49 552.007C2387.87 553.073 2388.39 553.852 2389.03 554.343C2389.69 554.833 2390.45 555.079 2391.3 555.079ZM2406.65 559.079L2421.95 536.679H2425.75L2410.46 559.079H2406.65ZM2408.6 548.775C2407.51 548.775 2406.55 548.529 2405.72 548.039C2404.89 547.527 2404.23 546.812 2403.74 545.895C2403.27 544.956 2403.03 543.857 2403.03 542.599C2403.03 541.34 2403.27 540.252 2403.74 539.335C2404.23 538.417 2404.89 537.703 2405.72 537.191C2406.55 536.679 2407.51 536.423 2408.6 536.423C2409.69 536.423 2410.65 536.679 2411.48 537.191C2412.31 537.703 2412.96 538.417 2413.43 539.335C2413.9 540.252 2414.14 541.34 2414.14 542.599C2414.14 543.857 2413.9 544.956 2413.43 545.895C2412.96 546.812 2412.31 547.527 2411.48 548.039C2410.65 548.529 2409.69 548.775 2408.6 548.775ZM2408.6 546.151C2409.31 546.151 2409.87 545.863 2410.3 545.287C2410.72 544.689 2410.94 543.793 2410.94 542.599C2410.94 541.404 2410.72 540.519 2410.3 539.943C2409.87 539.345 2409.31 539.047 2408.6 539.047C2407.92 539.047 2407.35 539.345 2406.91 539.943C2406.48 540.519 2406.27 541.404 2406.27 542.599C2406.27 543.772 2406.48 544.657 2406.91 545.255C2407.35 545.852 2407.92 546.151 2408.6 546.151ZM2423.8 559.335C2422.73 559.335 2421.77 559.089 2420.92 558.599C2420.09 558.087 2419.44 557.372 2418.97 556.455C2418.5 555.516 2418.27 554.417 2418.27 553.159C2418.27 551.9 2418.5 550.812 2418.97 549.895C2419.44 548.977 2420.09 548.263 2420.92 547.751C2421.77 547.239 2422.73 546.983 2423.8 546.983C2424.91 546.983 2425.88 547.239 2426.71 547.751C2427.55 548.263 2428.2 548.977 2428.67 549.895C2429.13 550.812 2429.37 551.9 2429.37 553.159C2429.37 554.417 2429.13 555.516 2428.67 556.455C2428.2 557.372 2427.55 558.087 2426.71 558.599C2425.88 559.089 2424.91 559.335 2423.8 559.335ZM2423.8 556.711C2424.51 556.711 2425.07 556.423 2425.5 555.847C2425.92 555.249 2426.14 554.353 2426.14 553.159C2426.14 551.985 2425.92 551.1 2425.5 550.503C2425.07 549.905 2424.51 549.607 2423.8 549.607C2423.12 549.607 2422.55 549.905 2422.11 550.503C2421.68 551.079 2421.47 551.964 2421.47 553.159C2421.47 554.353 2421.68 555.249 2422.11 555.847C2422.55 556.423 2423.12 556.711 2423.8 556.711Z" fill="url(#paint14_linear_49_26)"/>
<path d="M2443.76 588L2434.36 577.875H2453.15L2443.76 588Z" fill="white"/>
</g>
<defs>
<filter id="filter0_f_49_26" x="2089.73" y="661.73" width="49.8843" height="47.5405" filterUnits="userSpaceOnUse" color-interpolation-filters="sRGB">
<feFlood flood-opacity="0" result="BackgroundImageFix"/>
<feBlend mode="normal" in="SourceGraphic" in2="BackgroundImageFix" result="shape"/>
<feGaussianBlur stdDeviation="2" result="effect1_foregroundBlur_49_26"/>
</filter>
<filter id="filter1_f_49_26" x="3068.3" y="434.543" width="57.2368" height="53.9495" filterUnits="userSpaceOnUse" color-interpolation-filters="sRGB">
<feFlood flood-opacity="0" result="BackgroundImageFix"/>
<feBlend mode="normal" in="SourceGraphic" in2="BackgroundImageFix" result="shape"/>
<feGaussianBlur stdDeviation="2" result="effect1_foregroundBlur_49_26"/>
</filter>
<filter id="filter2_f_49_26" x="2752.41" y="503.457" width="56.426" height="52.9871" filterUnits="userSpaceOnUse" color-interpolation-filters="sRGB">
<feFlood flood-opacity="0" result="BackgroundImageFix"/>
<feBlend mode="normal" in="SourceGraphic" in2="BackgroundImageFix" result="shape"/>
<feGaussianBlur stdDeviation="2" result="effect1_foregroundBlur_49_26"/>
</filter>
<filter id="filter3_f_49_26" x="2417.21" y="599" width="54.75" height="50" filterUnits="userSpaceOnUse" color-interpolation-filters="sRGB">
<feFlood flood-opacity="0" result="BackgroundImageFix"/>
<feBlend mode="normal" in="SourceGraphic" in2="BackgroundImageFix" result="shape"/>
<feGaussianBlur stdDeviation="2" result="effect1_foregroundBlur_49_26"/>
</filter>
<linearGradient id="paint0_linear_49_26" x1="2475" y1="413.92" x2="2475" y2="1297.08" gradientUnits="userSpaceOnUse">
<stop stop-color="#310C79" stop-opacity="0.78"/>
<stop offset="1" stop-color="#602C72"/>
</linearGradient>
<linearGradient id="paint1_linear_49_26" x1="2042.44" y1="607.311" x2="2113" y2="607.311" gradientUnits="userSpaceOnUse">
<stop stop-color="#4075FF"/>
<stop offset="1" stop-color="#EC77FF"/>
</linearGradient>
<linearGradient id="paint2_linear_49_26" x1="3011.14" y1="367.591" x2="3082.24" y2="367.591" gradientUnits="userSpaceOnUse">
<stop stop-color="#4075FF"/>
<stop offset="1" stop-color="#EC77FF"/>
</linearGradient>
<linearGradient id="paint3_linear_49_26" x1="2696.26" y1="437.993" x2="2766.19" y2="437.993" gradientUnits="userSpaceOnUse">
<stop stop-color="#4075FF"/>
<stop offset="1" stop-color="#EC77FF"/>
</linearGradient>
<linearGradient id="paint4_linear_49_26" x1="2265.45" y1="0" x2="2265.45" y2="765" gradientUnits="userSpaceOnUse">
<stop stop-color="white" stop-opacity="0"/>
<stop offset="0.34375" stop-color="white"/>
<stop offset="0.619792" stop-color="white" stop-opacity="0"/>
</linearGradient>
<linearGradient id="paint5_linear_49_26" x1="755.285" y1="0" x2="755.285" y2="765" gradientUnits="userSpaceOnUse">
<stop stop-color="white" stop-opacity="0"/>
<stop offset="0.34375" stop-color="white"/>
<stop offset="0.619792" stop-color="white" stop-opacity="0"/>
</linearGradient>
<linearGradient id="paint6_linear_49_26" x1="251.898" y1="0" x2="251.898" y2="765" gradientUnits="userSpaceOnUse">
<stop stop-color="white" stop-opacity="0"/>
<stop offset="0.34375" stop-color="white"/>
<stop offset="0.619792" stop-color="white" stop-opacity="0"/>
</linearGradient>
<linearGradient id="paint7_linear_49_26" x1="1258.67" y1="0" x2="1258.67" y2="765" gradientUnits="userSpaceOnUse">
<stop stop-color="white" stop-opacity="0"/>
<stop offset="0.34375" stop-color="white"/>
<stop offset="0.619792" stop-color="white" stop-opacity="0"/>
</linearGradient>
<linearGradient id="paint8_linear_49_26" x1="1762.06" y1="0" x2="1762.06" y2="765" gradientUnits="userSpaceOnUse">
<stop stop-color="white" stop-opacity="0"/>
<stop offset="0.34375" stop-color="white"/>
<stop offset="0.619792" stop-color="white" stop-opacity="0"/>
</linearGradient>
<linearGradient id="paint9_linear_49_26" x1="4782.79" y1="0" x2="4782.79" y2="765" gradientUnits="userSpaceOnUse">
<stop stop-color="white" stop-opacity="0"/>
<stop offset="0.34375" stop-color="white"/>
<stop offset="0.619792" stop-color="white" stop-opacity="0"/>
</linearGradient>
<linearGradient id="paint10_linear_49_26" x1="3272.63" y1="0" x2="3272.63" y2="765" gradientUnits="userSpaceOnUse">
<stop stop-color="white" stop-opacity="0"/>
<stop offset="0.34375" stop-color="white"/>
<stop offset="0.619792" stop-color="white" stop-opacity="0"/>
</linearGradient>
<linearGradient id="paint11_linear_49_26" x1="2769.24" y1="0" x2="2769.24" y2="765" gradientUnits="userSpaceOnUse">
<stop stop-color="white" stop-opacity="0"/>
<stop offset="0.34375" stop-color="white"/>
<stop offset="0.619792" stop-color="white" stop-opacity="0"/>
</linearGradient>
<linearGradient id="paint12_linear_49_26" x1="3776.02" y1="0" x2="3776.02" y2="765" gradientUnits="userSpaceOnUse">
<stop stop-color="white" stop-opacity="0"/>
<stop offset="0.34375" stop-color="white"/>
<stop offset="0.619792" stop-color="white" stop-opacity="0"/>
</linearGradient>
<linearGradient id="paint13_linear_49_26" x1="4279.4" y1="0" x2="4279.4" y2="765" gradientUnits="userSpaceOnUse">
<stop stop-color="white" stop-opacity="0"/>
<stop offset="0.34375" stop-color="white"/>
<stop offset="0.619792" stop-color="white" stop-opacity="0"/>
</linearGradient>
<linearGradient id="paint14_linear_49_26" x1="2365.76" y1="544.571" x2="2433.31" y2="544.571" gradientUnits="userSpaceOnUse">
<stop stop-color="#4075FF"/>
<stop offset="1" stop-color="#EC77FF"/>
</linearGradient>
<clipPath id="clip0_49_26">
<rect width="5040" height="998" fill="white"/>
</clipPath>
</defs>
</svg>
