<svg width="5040" height="765" viewBox="0 0 5040 765" fill="none" xmlns="http://www.w3.org/2000/svg">
<g clip-path="url(#clip0_49_26)">
<path d="M5102 3H0V757H5102V3Z" fill="#1D242A"/>
<path d="M1750 549.324H1680H1610C1463 549.324 1400 535.657 1260 518.572C1120 501.487 980 455.928 840 410.369C700 364.809 568 320.551 420 296.47C280 273.691 140 273.691 70 273.691H0V1053H70H420H840H1260H1610H1680H1750H2100H2520H2940H3290H3360H3430H3780H4200H4620H4970H5040V545.248L4970 549.324C4823 549.324 4760 535.657 4620 518.572C4480 501.487 4340 455.928 4200 410.369C4060 364.809 3942.5 285.446 3794.5 208.273C3682 149.612 3615 115.5 3466.5 80H3360L3261 104.77C3181 140.5 3047.5 205 2917 264C2786.5 323 2660 364.809 2520 410.369C2380 455.928 2240 501.487 2100 518.572C1960 535.657 1897 549.324 1750 549.324Z" fill="url(#paint0_linear_49_26)"/>
<g filter="url(#filter0_f_49_26)">
<path d="M2010.11 532.5C2010.11 540.693 2003 547.77 1993.67 547.77C1984.34 547.77 1977.23 540.693 1977.23 532.5C1977.23 524.307 1984.34 517.23 1993.67 517.23C2003 517.23 2010.11 524.307 2010.11 532.5Z" stroke="#605DEC" stroke-width="9"/>
</g>
<path d="M2011.61 532.5C2011.61 541.602 2003.74 549.27 1993.67 549.27C1983.6 549.27 1975.73 541.602 1975.73 532.5C1975.73 523.398 1983.6 515.73 1993.67 515.73C2003.74 515.73 2011.61 523.398 2011.61 532.5Z" stroke="white" stroke-width="6"/>
<path d="M1907.22 593.915L1891.98 588.123V583.963L1907.22 578.171V582.171L1893.49 587.163V584.923L1907.22 589.915V593.915ZM1919.18 589.595V586.907H1936.43V589.595H1919.18ZM1919.18 585.179V582.491H1936.43V585.179H1919.18ZM1934.41 597.627C1932.66 597.627 1931.04 597.35 1929.55 596.795C1928.07 596.219 1926.79 595.409 1925.71 594.363C1924.62 593.318 1923.78 592.091 1923.18 590.683C1922.58 589.275 1922.28 587.729 1922.28 586.043C1922.28 584.358 1922.58 582.811 1923.18 581.403C1923.78 579.995 1924.62 578.769 1925.71 577.723C1926.79 576.678 1928.07 575.878 1929.55 575.323C1931.04 574.747 1932.66 574.459 1934.41 574.459C1936.35 574.459 1938.11 574.801 1939.69 575.483C1941.27 576.145 1942.58 577.126 1943.63 578.427L1940.33 581.499C1939.56 580.625 1938.71 579.974 1937.77 579.547C1936.83 579.099 1935.8 578.875 1934.67 578.875C1933.62 578.875 1932.66 579.046 1931.79 579.387C1930.91 579.729 1930.15 580.219 1929.51 580.859C1928.87 581.499 1928.37 582.257 1928.01 583.131C1927.67 584.006 1927.5 584.977 1927.5 586.043C1927.5 587.11 1927.67 588.081 1928.01 588.955C1928.37 589.83 1928.87 590.587 1929.51 591.227C1930.15 591.867 1930.91 592.358 1931.79 592.699C1932.66 593.041 1933.62 593.211 1934.67 593.211C1935.8 593.211 1936.83 592.998 1937.77 592.571C1938.71 592.123 1939.56 591.451 1940.33 590.555L1943.63 593.627C1942.58 594.929 1941.27 595.921 1939.69 596.603C1938.11 597.286 1936.35 597.627 1934.41 597.627ZM1953.02 597.627C1951.46 597.627 1949.92 597.425 1948.38 597.019C1946.87 596.593 1945.56 595.995 1944.48 595.227L1946.52 591.259C1947.38 591.878 1948.36 592.369 1949.47 592.731C1950.6 593.094 1951.74 593.275 1952.89 593.275C1954.19 593.275 1955.22 593.019 1955.96 592.507C1956.71 591.995 1957.08 591.281 1957.08 590.363C1957.08 589.787 1956.93 589.275 1956.64 588.827C1956.34 588.379 1955.8 588.038 1955.04 587.803C1954.29 587.569 1953.23 587.451 1951.87 587.451H1946.14L1947.29 574.843H1960.96V579.003H1949.15L1951.84 576.635L1951.04 585.627L1948.35 583.259H1953.08C1955.3 583.259 1957.08 583.569 1958.43 584.187C1959.79 584.785 1960.79 585.606 1961.4 586.651C1962.02 587.697 1962.33 588.881 1962.33 590.203C1962.33 591.526 1962 592.753 1961.34 593.883C1960.68 594.993 1959.65 595.899 1958.27 596.603C1956.9 597.286 1955.15 597.627 1953.02 597.627ZM1964.63 602.171L1966.74 594.491L1967.44 597.371C1966.53 597.371 1965.77 597.105 1965.17 596.571C1964.6 596.038 1964.31 595.302 1964.31 594.363C1964.31 593.425 1964.61 592.678 1965.2 592.123C1965.8 591.569 1966.54 591.291 1967.41 591.291C1968.31 591.291 1969.04 591.579 1969.62 592.155C1970.2 592.71 1970.48 593.446 1970.48 594.363C1970.48 594.641 1970.46 594.918 1970.42 595.195C1970.38 595.451 1970.29 595.771 1970.16 596.155C1970.06 596.518 1969.88 596.987 1969.62 597.563L1967.8 602.171H1964.63ZM1982 597.627C1980.17 597.627 1978.53 597.179 1977.08 596.283C1975.63 595.366 1974.48 594.043 1973.65 592.315C1972.82 590.587 1972.4 588.497 1972.4 586.043C1972.4 583.59 1972.82 581.499 1973.65 579.771C1974.48 578.043 1975.63 576.731 1977.08 575.835C1978.53 574.918 1980.17 574.459 1982 574.459C1983.86 574.459 1985.5 574.918 1986.93 575.835C1988.38 576.731 1989.52 578.043 1990.36 579.771C1991.19 581.499 1991.6 583.59 1991.6 586.043C1991.6 588.497 1991.19 590.587 1990.36 592.315C1989.52 594.043 1988.38 595.366 1986.93 596.283C1985.5 597.179 1983.86 597.627 1982 597.627ZM1982 593.243C1982.88 593.243 1983.64 592.998 1984.28 592.507C1984.94 592.017 1985.45 591.238 1985.81 590.171C1986.2 589.105 1986.39 587.729 1986.39 586.043C1986.39 584.358 1986.2 582.982 1985.81 581.915C1985.45 580.849 1984.94 580.07 1984.28 579.579C1983.64 579.089 1982.88 578.843 1982 578.843C1981.15 578.843 1980.39 579.089 1979.73 579.579C1979.09 580.07 1978.58 580.849 1978.2 581.915C1977.83 582.982 1977.65 584.358 1977.65 586.043C1977.65 587.729 1977.83 589.105 1978.2 590.171C1978.58 591.238 1979.09 592.017 1979.73 592.507C1980.39 592.998 1981.15 593.243 1982 593.243ZM2003.72 597.627C2001.89 597.627 2000.25 597.179 1998.8 596.283C1997.34 595.366 1996.2 594.043 1995.37 592.315C1994.54 590.587 1994.12 588.497 1994.12 586.043C1994.12 583.59 1994.54 581.499 1995.37 579.771C1996.2 578.043 1997.34 576.731 1998.8 575.835C2000.25 574.918 2001.89 574.459 2003.72 574.459C2005.58 574.459 2007.22 574.918 2008.65 575.835C2010.1 576.731 2011.24 578.043 2012.08 579.771C2012.91 581.499 2013.32 583.59 2013.32 586.043C2013.32 588.497 2012.91 590.587 2012.08 592.315C2011.24 594.043 2010.1 595.366 2008.65 596.283C2007.22 597.179 2005.58 597.627 2003.72 597.627ZM2003.72 593.243C2004.6 593.243 2005.36 592.998 2006 592.507C2006.66 592.017 2007.17 591.238 2007.53 590.171C2007.92 589.105 2008.11 587.729 2008.11 586.043C2008.11 584.358 2007.92 582.982 2007.53 581.915C2007.17 580.849 2006.66 580.07 2006 579.579C2005.36 579.089 2004.6 578.843 2003.72 578.843C2002.87 578.843 2002.11 579.089 2001.45 579.579C2000.81 580.07 2000.3 580.849 1999.92 581.915C1999.55 582.982 1999.37 584.358 1999.37 586.043C1999.37 587.729 1999.55 589.105 1999.92 590.171C2000.3 591.238 2000.81 592.017 2001.45 592.507C2002.11 592.998 2002.87 593.243 2003.72 593.243ZM2025.44 597.627C2023.61 597.627 2021.96 597.179 2020.51 596.283C2019.06 595.366 2017.92 594.043 2017.09 592.315C2016.26 590.587 2015.84 588.497 2015.84 586.043C2015.84 583.59 2016.26 581.499 2017.09 579.771C2017.92 578.043 2019.06 576.731 2020.51 575.835C2021.96 574.918 2023.61 574.459 2025.44 574.459C2027.3 574.459 2028.94 574.918 2030.37 575.835C2031.82 576.731 2032.96 578.043 2033.79 579.771C2034.63 581.499 2035.04 583.59 2035.04 586.043C2035.04 588.497 2034.63 590.587 2033.79 592.315C2032.96 594.043 2031.82 595.366 2030.37 596.283C2028.94 597.179 2027.3 597.627 2025.44 597.627ZM2025.44 593.243C2026.32 593.243 2027.07 592.998 2027.71 592.507C2028.38 592.017 2028.89 591.238 2029.25 590.171C2029.63 589.105 2029.83 587.729 2029.83 586.043C2029.83 584.358 2029.63 582.982 2029.25 581.915C2028.89 580.849 2028.38 580.07 2027.71 579.579C2027.07 579.089 2026.32 578.843 2025.44 578.843C2024.59 578.843 2023.83 579.089 2023.17 579.579C2022.53 580.07 2022.02 580.849 2021.63 581.915C2021.27 582.982 2021.09 584.358 2021.09 586.043C2021.09 587.729 2021.27 589.105 2021.63 590.171C2022.02 591.238 2022.53 592.017 2023.17 592.507C2023.83 592.998 2024.59 593.243 2025.44 593.243Z" fill="white"/>
<rect x="1874" y="428" width="146.595" height="57.8986" rx="10" fill="white"/>
<path d="M1918.06 469.703V466.343L1926.7 458.183C1927.38 457.564 1927.88 457.009 1928.2 456.519C1928.52 456.028 1928.73 455.58 1928.84 455.175C1928.97 454.769 1929.03 454.396 1929.03 454.055C1929.03 453.159 1928.72 452.476 1928.1 452.007C1927.51 451.516 1926.62 451.271 1925.45 451.271C1924.51 451.271 1923.63 451.452 1922.82 451.815C1922.03 452.177 1921.36 452.743 1920.81 453.511L1917.03 451.079C1917.89 449.799 1919.08 448.785 1920.62 448.039C1922.15 447.292 1923.92 446.919 1925.93 446.919C1927.59 446.919 1929.04 447.196 1930.28 447.751C1931.54 448.284 1932.51 449.041 1933.19 450.023C1933.9 451.004 1934.25 452.177 1934.25 453.543C1934.25 454.268 1934.15 454.993 1933.96 455.719C1933.79 456.423 1933.43 457.169 1932.87 457.959C1932.34 458.748 1931.55 459.633 1930.5 460.615L1923.34 467.367L1922.34 465.479H1934.98V469.703H1918.06ZM1944.74 470.087C1943.18 470.087 1941.64 469.884 1940.1 469.479C1938.58 469.052 1937.28 468.455 1936.2 467.687L1938.24 463.719C1939.1 464.337 1940.08 464.828 1941.19 465.191C1942.32 465.553 1943.46 465.735 1944.61 465.735C1945.91 465.735 1946.94 465.479 1947.68 464.967C1948.43 464.455 1948.8 463.74 1948.8 462.823C1948.8 462.247 1948.65 461.735 1948.36 461.287C1948.06 460.839 1947.52 460.497 1946.76 460.263C1946.01 460.028 1944.95 459.911 1943.59 459.911H1937.86L1939.01 447.303H1952.68V451.463H1940.87L1943.56 449.095L1942.76 458.087L1940.07 455.719H1944.8C1947.02 455.719 1948.8 456.028 1950.15 456.647C1951.51 457.244 1952.5 458.065 1953.12 459.111C1953.74 460.156 1954.05 461.34 1954.05 462.663C1954.05 463.985 1953.72 465.212 1953.06 466.343C1952.4 467.452 1951.37 468.359 1949.99 469.063C1948.62 469.745 1946.87 470.087 1944.74 470.087ZM1959.07 469.703L1974.37 447.303H1978.18L1962.88 469.703H1959.07ZM1961.03 459.399C1959.94 459.399 1958.98 459.153 1958.15 458.663C1957.31 458.151 1956.65 457.436 1956.16 456.519C1955.69 455.58 1955.46 454.481 1955.46 453.223C1955.46 451.964 1955.69 450.876 1956.16 449.959C1956.65 449.041 1957.31 448.327 1958.15 447.815C1958.98 447.303 1959.94 447.047 1961.03 447.047C1962.11 447.047 1963.07 447.303 1963.91 447.815C1964.74 448.327 1965.39 449.041 1965.86 449.959C1966.33 450.876 1966.56 451.964 1966.56 453.223C1966.56 454.481 1966.33 455.58 1965.86 456.519C1965.39 457.436 1964.74 458.151 1963.91 458.663C1963.07 459.153 1962.11 459.399 1961.03 459.399ZM1961.03 456.775C1961.73 456.775 1962.3 456.487 1962.72 455.911C1963.15 455.313 1963.36 454.417 1963.36 453.223C1963.36 452.028 1963.15 451.143 1962.72 450.567C1962.3 449.969 1961.73 449.671 1961.03 449.671C1960.34 449.671 1959.78 449.969 1959.33 450.567C1958.9 451.143 1958.69 452.028 1958.69 453.223C1958.69 454.396 1958.9 455.281 1959.33 455.879C1959.78 456.476 1960.34 456.775 1961.03 456.775ZM1976.23 469.959C1975.16 469.959 1974.2 469.713 1973.35 469.223C1972.51 468.711 1971.86 467.996 1971.39 467.079C1970.92 466.14 1970.69 465.041 1970.69 463.783C1970.69 462.524 1970.92 461.436 1971.39 460.519C1971.86 459.601 1972.51 458.887 1973.35 458.375C1974.2 457.863 1975.16 457.607 1976.23 457.607C1977.34 457.607 1978.31 457.863 1979.14 458.375C1979.97 458.887 1980.62 459.601 1981.09 460.519C1981.56 461.436 1981.79 462.524 1981.79 463.783C1981.79 465.041 1981.56 466.14 1981.09 467.079C1980.62 467.996 1979.97 468.711 1979.14 469.223C1978.31 469.713 1977.34 469.959 1976.23 469.959ZM1976.23 467.335C1976.93 467.335 1977.5 467.047 1977.92 466.471C1978.35 465.873 1978.56 464.977 1978.56 463.783C1978.56 462.609 1978.35 461.724 1977.92 461.127C1977.5 460.529 1976.93 460.231 1976.23 460.231C1975.54 460.231 1974.98 460.529 1974.53 461.127C1974.1 461.703 1973.89 462.588 1973.89 463.783C1973.89 464.977 1974.1 465.873 1974.53 466.471C1974.98 467.047 1975.54 467.335 1976.23 467.335Z" fill="url(#paint1_linear_49_26)"/>
<path d="M1992.92 498.608L1984.5 489.076H2001.34L1992.92 498.608Z" fill="white"/>
<g filter="url(#filter1_f_49_26)">
<path d="M3130.45 168.546C3130.45 178.058 3122.11 186.276 3111.17 186.276C3100.24 186.276 3091.9 178.058 3091.9 168.546C3091.9 159.035 3100.24 150.816 3111.17 150.816C3122.11 150.816 3130.45 159.035 3130.45 168.546Z" stroke="#605DEC" stroke-width="9"/>
</g>
<path d="M3131.95 168.546C3131.95 178.98 3122.84 187.776 3111.17 187.776C3099.51 187.776 3090.4 178.98 3090.4 168.546C3090.4 158.113 3099.51 149.316 3111.17 149.316C3122.84 149.316 3131.95 158.113 3131.95 168.546Z" stroke="white" stroke-width="6"/>
<path d="M3000.96 230.352V227.664H3018.21V230.352H3000.96ZM3000.96 225.936V223.248H3018.21V225.936H3000.96ZM3016.19 238.384C3014.44 238.384 3012.82 238.107 3011.33 237.552C3009.86 236.976 3008.58 236.165 3007.49 235.12C3006.4 234.075 3005.56 232.848 3004.96 231.44C3004.36 230.032 3004.06 228.485 3004.06 226.8C3004.06 225.115 3004.36 223.568 3004.96 222.16C3005.56 220.752 3006.4 219.525 3007.49 218.48C3008.58 217.435 3009.86 216.635 3011.33 216.08C3012.82 215.504 3014.44 215.216 3016.19 215.216C3018.13 215.216 3019.89 215.557 3021.47 216.24C3023.05 216.901 3024.36 217.883 3025.41 219.184L3022.11 222.256C3021.34 221.381 3020.49 220.731 3019.55 220.304C3018.61 219.856 3017.58 219.632 3016.45 219.632C3015.4 219.632 3014.44 219.803 3013.57 220.144C3012.69 220.485 3011.94 220.976 3011.3 221.616C3010.66 222.256 3010.15 223.013 3009.79 223.888C3009.45 224.763 3009.28 225.733 3009.28 226.8C3009.28 227.867 3009.45 228.837 3009.79 229.712C3010.15 230.587 3010.66 231.344 3011.3 231.984C3011.94 232.624 3012.69 233.115 3013.57 233.456C3014.44 233.797 3015.4 233.968 3016.45 233.968C3017.58 233.968 3018.61 233.755 3019.55 233.328C3020.49 232.88 3021.34 232.208 3022.11 231.312L3025.41 234.384C3024.36 235.685 3023.05 236.677 3021.47 237.36C3019.89 238.043 3018.13 238.384 3016.19 238.384ZM3027.21 238V234.64L3035.85 226.48C3036.53 225.861 3037.04 225.307 3037.36 224.816C3037.68 224.325 3037.89 223.877 3038 223.472C3038.12 223.067 3038.19 222.693 3038.19 222.352C3038.19 221.456 3037.88 220.773 3037.26 220.304C3036.66 219.813 3035.78 219.568 3034.6 219.568C3033.67 219.568 3032.79 219.749 3031.98 220.112C3031.19 220.475 3030.52 221.04 3029.96 221.808L3026.19 219.376C3027.04 218.096 3028.24 217.083 3029.77 216.336C3031.31 215.589 3033.08 215.216 3035.08 215.216C3036.75 215.216 3038.2 215.493 3039.44 216.048C3040.69 216.581 3041.67 217.339 3042.35 218.32C3043.05 219.301 3043.4 220.475 3043.4 221.84C3043.4 222.565 3043.31 223.291 3043.12 224.016C3042.95 224.72 3042.58 225.467 3042.03 226.256C3041.49 227.045 3040.71 227.931 3039.66 228.912L3032.49 235.664L3031.5 233.776H3044.14V238H3027.21ZM3055.88 238.384C3054.04 238.384 3052.4 237.936 3050.95 237.04C3049.5 236.123 3048.36 234.8 3047.53 233.072C3046.7 231.344 3046.28 229.253 3046.28 226.8C3046.28 224.347 3046.7 222.256 3047.53 220.528C3048.36 218.8 3049.5 217.488 3050.95 216.592C3052.4 215.675 3054.04 215.216 3055.88 215.216C3057.74 215.216 3059.38 215.675 3060.81 216.592C3062.26 217.488 3063.4 218.8 3064.23 220.528C3065.06 222.256 3065.48 224.347 3065.48 226.8C3065.48 229.253 3065.06 231.344 3064.23 233.072C3063.4 234.8 3062.26 236.123 3060.81 237.04C3059.38 237.936 3057.74 238.384 3055.88 238.384ZM3055.88 234C3056.75 234 3057.51 233.755 3058.15 233.264C3058.81 232.773 3059.32 231.995 3059.69 230.928C3060.07 229.861 3060.26 228.485 3060.26 226.8C3060.26 225.115 3060.07 223.739 3059.69 222.672C3059.32 221.605 3058.81 220.827 3058.15 220.336C3057.51 219.845 3056.75 219.6 3055.88 219.6C3055.03 219.6 3054.27 219.845 3053.61 220.336C3052.97 220.827 3052.46 221.605 3052.07 222.672C3051.71 223.739 3051.53 225.115 3051.53 226.8C3051.53 228.485 3051.71 229.861 3052.07 230.928C3052.46 231.995 3052.97 232.773 3053.61 233.264C3054.27 233.755 3055.03 234 3055.88 234ZM3067.78 242.928L3069.9 235.248L3070.6 238.128C3069.68 238.128 3068.93 237.861 3068.33 237.328C3067.75 236.795 3067.46 236.059 3067.46 235.12C3067.46 234.181 3067.76 233.435 3068.36 232.88C3068.96 232.325 3069.69 232.048 3070.57 232.048C3071.46 232.048 3072.2 232.336 3072.78 232.912C3073.35 233.467 3073.64 234.203 3073.64 235.12C3073.64 235.397 3073.62 235.675 3073.58 235.952C3073.53 236.208 3073.45 236.528 3073.32 236.912C3073.21 237.275 3073.03 237.744 3072.78 238.32L3070.95 242.928H3067.78ZM3085.16 238.384C3083.33 238.384 3081.68 237.936 3080.23 237.04C3078.78 236.123 3077.64 234.8 3076.81 233.072C3075.98 231.344 3075.56 229.253 3075.56 226.8C3075.56 224.347 3075.98 222.256 3076.81 220.528C3077.64 218.8 3078.78 217.488 3080.23 216.592C3081.68 215.675 3083.33 215.216 3085.16 215.216C3087.02 215.216 3088.66 215.675 3090.09 216.592C3091.54 217.488 3092.68 218.8 3093.51 220.528C3094.34 222.256 3094.76 224.347 3094.76 226.8C3094.76 229.253 3094.34 231.344 3093.51 233.072C3092.68 234.8 3091.54 236.123 3090.09 237.04C3088.66 237.936 3087.02 238.384 3085.16 238.384ZM3085.16 234C3086.04 234 3086.79 233.755 3087.43 233.264C3088.09 232.773 3088.61 231.995 3088.97 230.928C3089.35 229.861 3089.54 228.485 3089.54 226.8C3089.54 225.115 3089.35 223.739 3088.97 222.672C3088.61 221.605 3088.09 220.827 3087.43 220.336C3086.79 219.845 3086.04 219.6 3085.16 219.6C3084.31 219.6 3083.55 219.845 3082.89 220.336C3082.25 220.827 3081.74 221.605 3081.35 222.672C3080.99 223.739 3080.81 225.115 3080.81 226.8C3080.81 228.485 3080.99 229.861 3081.35 230.928C3081.74 231.995 3082.25 232.773 3082.89 233.264C3083.55 233.755 3084.31 234 3085.16 234ZM3106.88 238.384C3105.04 238.384 3103.4 237.936 3101.95 237.04C3100.5 236.123 3099.36 234.8 3098.53 233.072C3097.7 231.344 3097.28 229.253 3097.28 226.8C3097.28 224.347 3097.7 222.256 3098.53 220.528C3099.36 218.8 3100.5 217.488 3101.95 216.592C3103.4 215.675 3105.04 215.216 3106.88 215.216C3108.74 215.216 3110.38 215.675 3111.81 216.592C3113.26 217.488 3114.4 218.8 3115.23 220.528C3116.06 222.256 3116.48 224.347 3116.48 226.8C3116.48 229.253 3116.06 231.344 3115.23 233.072C3114.4 234.8 3113.26 236.123 3111.81 237.04C3110.38 237.936 3108.74 238.384 3106.88 238.384ZM3106.88 234C3107.75 234 3108.51 233.755 3109.15 233.264C3109.81 232.773 3110.32 231.995 3110.69 230.928C3111.07 229.861 3111.26 228.485 3111.26 226.8C3111.26 225.115 3111.07 223.739 3110.69 222.672C3110.32 221.605 3109.81 220.827 3109.15 220.336C3108.51 219.845 3107.75 219.6 3106.88 219.6C3106.03 219.6 3105.27 219.845 3104.61 220.336C3103.97 220.827 3103.46 221.605 3103.07 222.672C3102.71 223.739 3102.53 225.115 3102.53 226.8C3102.53 228.485 3102.71 229.861 3103.07 230.928C3103.46 231.995 3103.97 232.773 3104.61 233.264C3105.27 233.755 3106.03 234 3106.88 234ZM3128.6 238.384C3126.76 238.384 3125.12 237.936 3123.67 237.04C3122.22 236.123 3121.08 234.8 3120.25 233.072C3119.41 231.344 3119 229.253 3119 226.8C3119 224.347 3119.41 222.256 3120.25 220.528C3121.08 218.8 3122.22 217.488 3123.67 216.592C3125.12 215.675 3126.76 215.216 3128.6 215.216C3130.45 215.216 3132.1 215.675 3133.53 216.592C3134.98 217.488 3136.12 218.8 3136.95 220.528C3137.78 222.256 3138.2 224.347 3138.2 226.8C3138.2 229.253 3137.78 231.344 3136.95 233.072C3136.12 234.8 3134.98 236.123 3133.53 237.04C3132.1 237.936 3130.45 238.384 3128.6 238.384ZM3128.6 234C3129.47 234 3130.23 233.755 3130.87 233.264C3131.53 232.773 3132.04 231.995 3132.41 230.928C3132.79 229.861 3132.98 228.485 3132.98 226.8C3132.98 225.115 3132.79 223.739 3132.41 222.672C3132.04 221.605 3131.53 220.827 3130.87 220.336C3130.23 219.845 3129.47 219.6 3128.6 219.6C3127.74 219.6 3126.99 219.845 3126.33 220.336C3125.69 220.827 3125.17 221.605 3124.79 222.672C3124.43 223.739 3124.25 225.115 3124.25 226.8C3124.25 228.485 3124.43 229.861 3124.79 230.928C3125.17 231.995 3125.69 232.773 3126.33 233.264C3126.99 233.755 3127.74 234 3128.6 234ZM3156.05 234.192V219.408H3160.18V234.192H3156.05ZM3150.52 228.752V224.848H3165.75V228.752H3150.52Z" fill="white"/>
<path d="M2977 60C2977 54.4772 2981.48 50 2987 50H3061.27H3133C3138.52 50 3143 54.4772 3143 60V105.769C3143 111.292 3138.52 115.769 3133 115.769H2987C2981.48 115.769 2977 111.292 2977 105.769V60Z" fill="white"/>
<path d="M3024.99 86.7355V83.2475L3035.55 69.0395H3040.99L3030.66 83.2475L3028.13 82.5115H3045.76V86.7355H3024.99ZM3037.06 91.4395V86.7355L3037.22 82.5115V78.3195H3042.11V91.4395H3037.06ZM3056.91 91.8235C3055.08 91.8235 3053.43 91.3755 3051.98 90.4795C3050.53 89.5621 3049.39 88.2395 3048.56 86.5115C3047.73 84.7835 3047.31 82.6928 3047.31 80.2395C3047.31 77.7861 3047.73 75.6955 3048.56 73.9675C3049.39 72.2395 3050.53 70.9275 3051.98 70.0315C3053.43 69.1141 3055.08 68.6555 3056.91 68.6555C3058.77 68.6555 3060.41 69.1141 3061.84 70.0315C3063.29 70.9275 3064.43 72.2395 3065.26 73.9675C3066.09 75.6955 3066.51 77.7861 3066.51 80.2395C3066.51 82.6928 3066.09 84.7835 3065.26 86.5115C3064.43 88.2395 3063.29 89.5621 3061.84 90.4795C3060.41 91.3755 3058.77 91.8235 3056.91 91.8235ZM3056.91 87.4395C3057.79 87.4395 3058.54 87.1941 3059.18 86.7035C3059.84 86.2128 3060.36 85.4341 3060.72 84.3675C3061.1 83.3008 3061.29 81.9248 3061.29 80.2395C3061.29 78.5541 3061.1 77.1781 3060.72 76.1115C3060.36 75.0448 3059.84 74.2661 3059.18 73.7755C3058.54 73.2848 3057.79 73.0395 3056.91 73.0395C3056.06 73.0395 3055.3 73.2848 3054.64 73.7755C3054 74.2661 3053.49 75.0448 3053.1 76.1115C3052.74 77.1781 3052.56 78.5541 3052.56 80.2395C3052.56 81.9248 3052.74 83.3008 3053.1 84.3675C3053.49 85.4341 3054 86.2128 3054.64 86.7035C3055.3 87.1941 3056.06 87.4395 3056.91 87.4395ZM3072.26 91.4395L3087.56 69.0395H3091.37L3076.07 91.4395H3072.26ZM3074.21 81.1355C3073.13 81.1355 3072.17 80.8901 3071.33 80.3995C3070.5 79.8875 3069.84 79.1728 3069.35 78.2555C3068.88 77.3168 3068.65 76.2181 3068.65 74.9595C3068.65 73.7008 3068.88 72.6128 3069.35 71.6955C3069.84 70.7781 3070.5 70.0635 3071.33 69.5515C3072.17 69.0395 3073.13 68.7835 3074.21 68.7835C3075.3 68.7835 3076.26 69.0395 3077.09 69.5515C3077.93 70.0635 3078.58 70.7781 3079.05 71.6955C3079.51 72.6128 3079.75 73.7008 3079.75 74.9595C3079.75 76.2181 3079.51 77.3168 3079.05 78.2555C3078.58 79.1728 3077.93 79.8875 3077.09 80.3995C3076.26 80.8901 3075.3 81.1355 3074.21 81.1355ZM3074.21 78.5115C3074.92 78.5115 3075.48 78.2235 3075.91 77.6475C3076.34 77.0501 3076.55 76.1541 3076.55 74.9595C3076.55 73.7648 3076.34 72.8795 3075.91 72.3035C3075.48 71.7061 3074.92 71.4075 3074.21 71.4075C3073.53 71.4075 3072.97 71.7061 3072.52 72.3035C3072.09 72.8795 3071.88 73.7648 3071.88 74.9595C3071.88 76.1328 3072.09 77.0181 3072.52 77.6155C3072.97 78.2128 3073.53 78.5115 3074.21 78.5115ZM3089.41 91.6955C3088.35 91.6955 3087.39 91.4501 3086.53 90.9595C3085.7 90.4475 3085.05 89.7328 3084.58 88.8155C3084.11 87.8768 3083.88 86.7781 3083.88 85.5195C3083.88 84.2608 3084.11 83.1728 3084.58 82.2555C3085.05 81.3381 3085.7 80.6235 3086.53 80.1115C3087.39 79.5995 3088.35 79.3435 3089.41 79.3435C3090.52 79.3435 3091.49 79.5995 3092.33 80.1115C3093.16 80.6235 3093.81 81.3381 3094.28 82.2555C3094.75 83.1728 3094.98 84.2608 3094.98 85.5195C3094.98 86.7781 3094.75 87.8768 3094.28 88.8155C3093.81 89.7328 3093.16 90.4475 3092.33 90.9595C3091.49 91.4501 3090.52 91.6955 3089.41 91.6955ZM3089.41 89.0715C3090.12 89.0715 3090.68 88.7835 3091.11 88.2075C3091.54 87.6101 3091.75 86.7141 3091.75 85.5195C3091.75 84.3461 3091.54 83.4608 3091.11 82.8635C3090.68 82.2661 3090.12 81.9675 3089.41 81.9675C3088.73 81.9675 3088.17 82.2661 3087.72 82.8635C3087.29 83.4395 3087.08 84.3248 3087.08 85.5195C3087.08 86.7141 3087.29 87.6101 3087.72 88.2075C3088.17 88.7835 3088.73 89.0715 3089.41 89.0715Z" fill="url(#paint2_linear_49_26)"/>
<path d="M3112.02 130.437L3102.46 119.719H3121.58L3112.02 130.437Z" fill="white"/>
<g filter="url(#filter2_f_49_26)">
<path d="M2775.34 320.693C2775.34 329.185 2767.15 337.138 2755.62 337.138C2744.1 337.138 2735.91 329.185 2735.91 320.693C2735.91 312.201 2744.1 304.248 2755.62 304.248C2767.15 304.248 2775.34 312.201 2775.34 320.693Z" stroke="#605DEC" stroke-width="9"/>
</g>
<path d="M2776.84 320.693C2776.84 330.211 2767.76 338.638 2755.62 338.638C2743.49 338.638 2734.41 330.211 2734.41 320.693C2734.41 311.176 2743.49 302.748 2755.62 302.748C2767.76 302.748 2776.84 311.176 2776.84 320.693Z" stroke="white" stroke-width="6"/>
<path d="M2596.96 380.352V377.664H2614.21V380.352H2596.96ZM2596.96 375.936V373.248H2614.21V375.936H2596.96ZM2612.19 388.384C2610.44 388.384 2608.82 388.107 2607.33 387.552C2605.86 386.976 2604.58 386.165 2603.49 385.12C2602.4 384.075 2601.56 382.848 2600.96 381.44C2600.36 380.032 2600.06 378.485 2600.06 376.8C2600.06 375.115 2600.36 373.568 2600.96 372.16C2601.56 370.752 2602.4 369.525 2603.49 368.48C2604.58 367.435 2605.86 366.635 2607.33 366.08C2608.82 365.504 2610.44 365.216 2612.19 365.216C2614.13 365.216 2615.89 365.557 2617.47 366.24C2619.05 366.901 2620.36 367.883 2621.41 369.184L2618.11 372.256C2617.34 371.381 2616.49 370.731 2615.55 370.304C2614.61 369.856 2613.58 369.632 2612.45 369.632C2611.4 369.632 2610.44 369.803 2609.57 370.144C2608.69 370.485 2607.94 370.976 2607.3 371.616C2606.66 372.256 2606.15 373.013 2605.79 373.888C2605.45 374.763 2605.28 375.733 2605.28 376.8C2605.28 377.867 2605.45 378.837 2605.79 379.712C2606.15 380.587 2606.66 381.344 2607.3 381.984C2607.94 382.624 2608.69 383.115 2609.57 383.456C2610.44 383.797 2611.4 383.968 2612.45 383.968C2613.58 383.968 2614.61 383.755 2615.55 383.328C2616.49 382.88 2617.34 382.208 2618.11 381.312L2621.41 384.384C2620.36 385.685 2619.05 386.677 2617.47 387.36C2615.89 388.043 2614.13 388.384 2612.19 388.384ZM2627.27 388V367.52L2629.51 369.76H2622.79V365.6H2632.45V388H2627.27ZM2645.94 388.384C2644.11 388.384 2642.46 387.936 2641.01 387.04C2639.56 386.123 2638.42 384.8 2637.59 383.072C2636.76 381.344 2636.34 379.253 2636.34 376.8C2636.34 374.347 2636.76 372.256 2637.59 370.528C2638.42 368.8 2639.56 367.488 2641.01 366.592C2642.46 365.675 2644.11 365.216 2645.94 365.216C2647.8 365.216 2649.44 365.675 2650.87 366.592C2652.32 367.488 2653.46 368.8 2654.29 370.528C2655.13 372.256 2655.54 374.347 2655.54 376.8C2655.54 379.253 2655.13 381.344 2654.29 383.072C2653.46 384.8 2652.32 386.123 2650.87 387.04C2649.44 387.936 2647.8 388.384 2645.94 388.384ZM2645.94 384C2646.82 384 2647.57 383.755 2648.21 383.264C2648.88 382.773 2649.39 381.995 2649.75 380.928C2650.13 379.861 2650.33 378.485 2650.33 376.8C2650.33 375.115 2650.13 373.739 2649.75 372.672C2649.39 371.605 2648.88 370.827 2648.21 370.336C2647.57 369.845 2646.82 369.6 2645.94 369.6C2645.09 369.6 2644.33 369.845 2643.67 370.336C2643.03 370.827 2642.52 371.605 2642.13 372.672C2641.77 373.739 2641.59 375.115 2641.59 376.8C2641.59 378.485 2641.77 379.861 2642.13 380.928C2642.52 381.995 2643.03 382.773 2643.67 383.264C2644.33 383.755 2645.09 384 2645.94 384ZM2657.85 392.928L2659.96 385.248L2660.66 388.128C2659.74 388.128 2658.99 387.861 2658.39 387.328C2657.81 386.795 2657.53 386.059 2657.53 385.12C2657.53 384.181 2657.82 383.435 2658.42 382.88C2659.02 382.325 2659.76 382.048 2660.63 382.048C2661.53 382.048 2662.26 382.336 2662.84 382.912C2663.41 383.467 2663.7 384.203 2663.7 385.12C2663.7 385.397 2663.68 385.675 2663.64 385.952C2663.6 386.208 2663.51 386.528 2663.38 386.912C2663.28 387.275 2663.09 387.744 2662.84 388.32L2661.01 392.928H2657.85ZM2675.22 388.384C2673.39 388.384 2671.75 387.936 2670.3 387.04C2668.84 386.123 2667.7 384.8 2666.87 383.072C2666.04 381.344 2665.62 379.253 2665.62 376.8C2665.62 374.347 2666.04 372.256 2666.87 370.528C2667.7 368.8 2668.84 367.488 2670.3 366.592C2671.75 365.675 2673.39 365.216 2675.22 365.216C2677.08 365.216 2678.72 365.675 2680.15 366.592C2681.6 367.488 2682.74 368.8 2683.58 370.528C2684.41 372.256 2684.82 374.347 2684.82 376.8C2684.82 379.253 2684.41 381.344 2683.58 383.072C2682.74 384.8 2681.6 386.123 2680.15 387.04C2678.72 387.936 2677.08 388.384 2675.22 388.384ZM2675.22 384C2676.1 384 2676.86 383.755 2677.5 383.264C2678.16 382.773 2678.67 381.995 2679.03 380.928C2679.42 379.861 2679.61 378.485 2679.61 376.8C2679.61 375.115 2679.42 373.739 2679.03 372.672C2678.67 371.605 2678.16 370.827 2677.5 370.336C2676.86 369.845 2676.1 369.6 2675.22 369.6C2674.37 369.6 2673.61 369.845 2672.95 370.336C2672.31 370.827 2671.8 371.605 2671.42 372.672C2671.05 373.739 2670.87 375.115 2670.87 376.8C2670.87 378.485 2671.05 379.861 2671.42 380.928C2671.8 381.995 2672.31 382.773 2672.95 383.264C2673.61 383.755 2674.37 384 2675.22 384ZM2696.94 388.384C2695.11 388.384 2693.46 387.936 2692.01 387.04C2690.56 386.123 2689.42 384.8 2688.59 383.072C2687.76 381.344 2687.34 379.253 2687.34 376.8C2687.34 374.347 2687.76 372.256 2688.59 370.528C2689.42 368.8 2690.56 367.488 2692.01 366.592C2693.46 365.675 2695.11 365.216 2696.94 365.216C2698.8 365.216 2700.44 365.675 2701.87 366.592C2703.32 367.488 2704.46 368.8 2705.29 370.528C2706.13 372.256 2706.54 374.347 2706.54 376.8C2706.54 379.253 2706.13 381.344 2705.29 383.072C2704.46 384.8 2703.32 386.123 2701.87 387.04C2700.44 387.936 2698.8 388.384 2696.94 388.384ZM2696.94 384C2697.82 384 2698.57 383.755 2699.21 383.264C2699.88 382.773 2700.39 381.995 2700.75 380.928C2701.13 379.861 2701.33 378.485 2701.33 376.8C2701.33 375.115 2701.13 373.739 2700.75 372.672C2700.39 371.605 2699.88 370.827 2699.21 370.336C2698.57 369.845 2697.82 369.6 2696.94 369.6C2696.09 369.6 2695.33 369.845 2694.67 370.336C2694.03 370.827 2693.52 371.605 2693.13 372.672C2692.77 373.739 2692.59 375.115 2692.59 376.8C2692.59 378.485 2692.77 379.861 2693.13 380.928C2693.52 381.995 2694.03 382.773 2694.67 383.264C2695.33 383.755 2696.09 384 2696.94 384ZM2718.66 388.384C2716.83 388.384 2715.18 387.936 2713.73 387.04C2712.28 386.123 2711.14 384.8 2710.31 383.072C2709.48 381.344 2709.06 379.253 2709.06 376.8C2709.06 374.347 2709.48 372.256 2710.31 370.528C2711.14 368.8 2712.28 367.488 2713.73 366.592C2715.18 365.675 2716.83 365.216 2718.66 365.216C2720.52 365.216 2722.16 365.675 2723.59 366.592C2725.04 367.488 2726.18 368.8 2727.01 370.528C2727.84 372.256 2728.26 374.347 2728.26 376.8C2728.26 379.253 2727.84 381.344 2727.01 383.072C2726.18 384.8 2725.04 386.123 2723.59 387.04C2722.16 387.936 2720.52 388.384 2718.66 388.384ZM2718.66 384C2719.54 384 2720.29 383.755 2720.93 383.264C2721.59 382.773 2722.11 381.995 2722.47 380.928C2722.85 379.861 2723.04 378.485 2723.04 376.8C2723.04 375.115 2722.85 373.739 2722.47 372.672C2722.11 371.605 2721.59 370.827 2720.93 370.336C2720.29 369.845 2719.54 369.6 2718.66 369.6C2717.81 369.6 2717.05 369.845 2716.39 370.336C2715.75 370.827 2715.24 371.605 2714.85 372.672C2714.49 373.739 2714.31 375.115 2714.31 376.8C2714.31 378.485 2714.49 379.861 2714.85 380.928C2715.24 381.995 2715.75 382.773 2716.39 383.264C2717.05 383.755 2717.81 384 2718.66 384ZM2747.94 388.256C2745.91 388.256 2744.33 387.744 2743.2 386.72C2742.07 385.675 2741.51 384.128 2741.51 382.08V366.976H2746.5V382.016C2746.5 382.741 2746.69 383.307 2747.07 383.712C2747.46 384.096 2747.98 384.288 2748.64 384.288C2749.43 384.288 2750.1 384.075 2750.66 383.648L2752 387.168C2751.49 387.531 2750.87 387.808 2750.15 388C2749.44 388.171 2748.71 388.256 2747.94 388.256ZM2738.85 375.008V371.168H2750.79V375.008H2738.85ZM2762.46 388.256C2760.63 388.256 2759 387.872 2757.57 387.104C2756.16 386.336 2755.04 385.291 2754.21 383.968C2753.4 382.624 2752.99 381.099 2752.99 379.392C2752.99 377.664 2753.4 376.139 2754.21 374.816C2755.04 373.472 2756.16 372.427 2757.57 371.68C2759 370.912 2760.63 370.528 2762.46 370.528C2764.28 370.528 2765.9 370.912 2767.33 371.68C2768.76 372.427 2769.88 373.461 2770.69 374.784C2771.5 376.107 2771.9 377.643 2771.9 379.392C2771.9 381.099 2771.5 382.624 2770.69 383.968C2769.88 385.291 2768.76 386.336 2767.33 387.104C2765.9 387.872 2764.28 388.256 2762.46 388.256ZM2762.46 384.16C2763.3 384.16 2764.04 383.968 2764.7 383.584C2765.37 383.2 2765.89 382.656 2766.27 381.952C2766.66 381.227 2766.85 380.373 2766.85 379.392C2766.85 378.389 2766.66 377.536 2766.27 376.832C2765.89 376.128 2765.37 375.584 2764.7 375.2C2764.04 374.816 2763.3 374.624 2762.46 374.624C2761.63 374.624 2760.89 374.816 2760.22 375.2C2759.56 375.584 2759.03 376.128 2758.62 376.832C2758.24 377.536 2758.05 378.389 2758.05 379.392C2758.05 380.373 2758.24 381.227 2758.62 381.952C2759.03 382.656 2759.56 383.2 2760.22 383.584C2760.89 383.968 2761.63 384.16 2762.46 384.16ZM2782.96 380.352V377.664H2800.21V380.352H2782.96ZM2782.96 375.936V373.248H2800.21V375.936H2782.96ZM2798.19 388.384C2796.44 388.384 2794.82 388.107 2793.33 387.552C2791.86 386.976 2790.58 386.165 2789.49 385.12C2788.4 384.075 2787.56 382.848 2786.96 381.44C2786.36 380.032 2786.06 378.485 2786.06 376.8C2786.06 375.115 2786.36 373.568 2786.96 372.16C2787.56 370.752 2788.4 369.525 2789.49 368.48C2790.58 367.435 2791.86 366.635 2793.33 366.08C2794.82 365.504 2796.44 365.216 2798.19 365.216C2800.13 365.216 2801.89 365.557 2803.47 366.24C2805.05 366.901 2806.36 367.883 2807.41 369.184L2804.11 372.256C2803.34 371.381 2802.49 370.731 2801.55 370.304C2800.61 369.856 2799.58 369.632 2798.45 369.632C2797.4 369.632 2796.44 369.803 2795.57 370.144C2794.69 370.485 2793.94 370.976 2793.3 371.616C2792.66 372.256 2792.15 373.013 2791.79 373.888C2791.45 374.763 2791.28 375.733 2791.28 376.8C2791.28 377.867 2791.45 378.837 2791.79 379.712C2792.15 380.587 2792.66 381.344 2793.3 381.984C2793.94 382.624 2794.69 383.115 2795.57 383.456C2796.44 383.797 2797.4 383.968 2798.45 383.968C2799.58 383.968 2800.61 383.755 2801.55 383.328C2802.49 382.88 2803.34 382.208 2804.11 381.312L2807.41 384.384C2806.36 385.685 2805.05 386.677 2803.47 387.36C2801.89 388.043 2800.13 388.384 2798.19 388.384ZM2809.21 388V384.64L2817.85 376.48C2818.53 375.861 2819.04 375.307 2819.36 374.816C2819.68 374.325 2819.89 373.877 2820 373.472C2820.12 373.067 2820.19 372.693 2820.19 372.352C2820.19 371.456 2819.88 370.773 2819.26 370.304C2818.66 369.813 2817.78 369.568 2816.6 369.568C2815.67 369.568 2814.79 369.749 2813.98 370.112C2813.19 370.475 2812.52 371.04 2811.96 371.808L2808.19 369.376C2809.04 368.096 2810.24 367.083 2811.77 366.336C2813.31 365.589 2815.08 365.216 2817.08 365.216C2818.75 365.216 2820.2 365.493 2821.44 366.048C2822.69 366.581 2823.67 367.339 2824.35 368.32C2825.05 369.301 2825.4 370.475 2825.4 371.84C2825.4 372.565 2825.31 373.291 2825.12 374.016C2824.95 374.72 2824.58 375.467 2824.03 376.256C2823.49 377.045 2822.71 377.931 2821.66 378.912L2814.49 385.664L2813.5 383.776H2826.14V388H2809.21ZM2837.88 388.384C2836.04 388.384 2834.4 387.936 2832.95 387.04C2831.5 386.123 2830.36 384.8 2829.53 383.072C2828.7 381.344 2828.28 379.253 2828.28 376.8C2828.28 374.347 2828.7 372.256 2829.53 370.528C2830.36 368.8 2831.5 367.488 2832.95 366.592C2834.4 365.675 2836.04 365.216 2837.88 365.216C2839.74 365.216 2841.38 365.675 2842.81 366.592C2844.26 367.488 2845.4 368.8 2846.23 370.528C2847.06 372.256 2847.48 374.347 2847.48 376.8C2847.48 379.253 2847.06 381.344 2846.23 383.072C2845.4 384.8 2844.26 386.123 2842.81 387.04C2841.38 387.936 2839.74 388.384 2837.88 388.384ZM2837.88 384C2838.75 384 2839.51 383.755 2840.15 383.264C2840.81 382.773 2841.32 381.995 2841.69 380.928C2842.07 379.861 2842.26 378.485 2842.26 376.8C2842.26 375.115 2842.07 373.739 2841.69 372.672C2841.32 371.605 2840.81 370.827 2840.15 370.336C2839.51 369.845 2838.75 369.6 2837.88 369.6C2837.03 369.6 2836.27 369.845 2835.61 370.336C2834.97 370.827 2834.46 371.605 2834.07 372.672C2833.71 373.739 2833.53 375.115 2833.53 376.8C2833.53 378.485 2833.71 379.861 2834.07 380.928C2834.46 381.995 2834.97 382.773 2835.61 383.264C2836.27 383.755 2837.03 384 2837.88 384ZM2849.78 392.928L2851.9 385.248L2852.6 388.128C2851.68 388.128 2850.93 387.861 2850.33 387.328C2849.75 386.795 2849.46 386.059 2849.46 385.12C2849.46 384.181 2849.76 383.435 2850.36 382.88C2850.96 382.325 2851.69 382.048 2852.57 382.048C2853.46 382.048 2854.2 382.336 2854.78 382.912C2855.35 383.467 2855.64 384.203 2855.64 385.12C2855.64 385.397 2855.62 385.675 2855.58 385.952C2855.53 386.208 2855.45 386.528 2855.32 386.912C2855.21 387.275 2855.03 387.744 2854.78 388.32L2852.95 392.928H2849.78ZM2867.16 388.384C2865.33 388.384 2863.68 387.936 2862.23 387.04C2860.78 386.123 2859.64 384.8 2858.81 383.072C2857.98 381.344 2857.56 379.253 2857.56 376.8C2857.56 374.347 2857.98 372.256 2858.81 370.528C2859.64 368.8 2860.78 367.488 2862.23 366.592C2863.68 365.675 2865.33 365.216 2867.16 365.216C2869.02 365.216 2870.66 365.675 2872.09 366.592C2873.54 367.488 2874.68 368.8 2875.51 370.528C2876.34 372.256 2876.76 374.347 2876.76 376.8C2876.76 379.253 2876.34 381.344 2875.51 383.072C2874.68 384.8 2873.54 386.123 2872.09 387.04C2870.66 387.936 2869.02 388.384 2867.16 388.384ZM2867.16 384C2868.04 384 2868.79 383.755 2869.43 383.264C2870.09 382.773 2870.61 381.995 2870.97 380.928C2871.35 379.861 2871.54 378.485 2871.54 376.8C2871.54 375.115 2871.35 373.739 2870.97 372.672C2870.61 371.605 2870.09 370.827 2869.43 370.336C2868.79 369.845 2868.04 369.6 2867.16 369.6C2866.31 369.6 2865.55 369.845 2864.89 370.336C2864.25 370.827 2863.74 371.605 2863.35 372.672C2862.99 373.739 2862.81 375.115 2862.81 376.8C2862.81 378.485 2862.99 379.861 2863.35 380.928C2863.74 381.995 2864.25 382.773 2864.89 383.264C2865.55 383.755 2866.31 384 2867.16 384ZM2888.88 388.384C2887.04 388.384 2885.4 387.936 2883.95 387.04C2882.5 386.123 2881.36 384.8 2880.53 383.072C2879.7 381.344 2879.28 379.253 2879.28 376.8C2879.28 374.347 2879.7 372.256 2880.53 370.528C2881.36 368.8 2882.5 367.488 2883.95 366.592C2885.4 365.675 2887.04 365.216 2888.88 365.216C2890.74 365.216 2892.38 365.675 2893.81 366.592C2895.26 367.488 2896.4 368.8 2897.23 370.528C2898.06 372.256 2898.48 374.347 2898.48 376.8C2898.48 379.253 2898.06 381.344 2897.23 383.072C2896.4 384.8 2895.26 386.123 2893.81 387.04C2892.38 387.936 2890.74 388.384 2888.88 388.384ZM2888.88 384C2889.75 384 2890.51 383.755 2891.15 383.264C2891.81 382.773 2892.32 381.995 2892.69 380.928C2893.07 379.861 2893.26 378.485 2893.26 376.8C2893.26 375.115 2893.07 373.739 2892.69 372.672C2892.32 371.605 2891.81 370.827 2891.15 370.336C2890.51 369.845 2889.75 369.6 2888.88 369.6C2888.03 369.6 2887.27 369.845 2886.61 370.336C2885.97 370.827 2885.46 371.605 2885.07 372.672C2884.71 373.739 2884.53 375.115 2884.53 376.8C2884.53 378.485 2884.71 379.861 2885.07 380.928C2885.46 381.995 2885.97 382.773 2886.61 383.264C2887.27 383.755 2888.03 384 2888.88 384ZM2910.6 388.384C2908.76 388.384 2907.12 387.936 2905.67 387.04C2904.22 386.123 2903.08 384.8 2902.25 383.072C2901.41 381.344 2901 379.253 2901 376.8C2901 374.347 2901.41 372.256 2902.25 370.528C2903.08 368.8 2904.22 367.488 2905.67 366.592C2907.12 365.675 2908.76 365.216 2910.6 365.216C2912.45 365.216 2914.1 365.675 2915.53 366.592C2916.98 367.488 2918.12 368.8 2918.95 370.528C2919.78 372.256 2920.2 374.347 2920.2 376.8C2920.2 379.253 2919.78 381.344 2918.95 383.072C2918.12 384.8 2916.98 386.123 2915.53 387.04C2914.1 387.936 2912.45 388.384 2910.6 388.384ZM2910.6 384C2911.47 384 2912.23 383.755 2912.87 383.264C2913.53 382.773 2914.04 381.995 2914.41 380.928C2914.79 379.861 2914.98 378.485 2914.98 376.8C2914.98 375.115 2914.79 373.739 2914.41 372.672C2914.04 371.605 2913.53 370.827 2912.87 370.336C2912.23 369.845 2911.47 369.6 2910.6 369.6C2909.74 369.6 2908.99 369.845 2908.33 370.336C2907.69 370.827 2907.17 371.605 2906.79 372.672C2906.43 373.739 2906.25 375.115 2906.25 376.8C2906.25 378.485 2906.43 379.861 2906.79 380.928C2907.17 381.995 2907.69 382.773 2908.33 383.264C2908.99 383.755 2909.74 384 2910.6 384Z" fill="white"/>
<path d="M2618.99 219C2618.99 213.477 2623.47 209 2628.99 209H2704.81H2778.03C2783.56 209 2788.03 213.477 2788.03 219V260.967C2788.03 266.49 2783.56 270.967 2778.03 270.967H2628.99C2623.47 270.967 2618.99 266.49 2618.99 260.967V219Z" fill="white"/>
<path d="M2675.37 250.22C2673.81 250.22 2672.26 250.017 2670.73 249.612C2669.19 249.185 2667.89 248.588 2666.82 247.82L2668.84 243.852C2669.69 244.471 2670.68 244.961 2671.81 245.324C2672.95 245.687 2674.09 245.868 2675.24 245.868C2676.54 245.868 2677.56 245.612 2678.31 245.1C2679.06 244.588 2679.43 243.884 2679.43 242.988C2679.43 242.135 2679.1 241.463 2678.44 240.972C2677.78 240.481 2676.71 240.236 2675.24 240.236H2672.87V236.812L2679.11 229.74L2679.69 231.596H2667.94V227.436H2683.62V230.796L2677.41 237.868L2674.79 236.364H2676.29C2679.05 236.364 2681.13 236.983 2682.53 238.22C2683.94 239.457 2684.65 241.047 2684.65 242.988C2684.65 244.247 2684.32 245.431 2683.65 246.54C2682.99 247.628 2681.98 248.513 2680.61 249.196C2679.25 249.879 2677.5 250.22 2675.37 250.22ZM2694.34 250.22C2692.79 250.22 2691.24 250.017 2689.7 249.612C2688.19 249.185 2686.89 248.588 2685.8 247.82L2687.85 243.852C2688.7 244.471 2689.68 244.961 2690.79 245.324C2691.92 245.687 2693.06 245.868 2694.22 245.868C2695.52 245.868 2696.54 245.612 2697.29 245.1C2698.03 244.588 2698.41 243.873 2698.41 242.956C2698.41 242.38 2698.26 241.868 2697.96 241.42C2697.66 240.972 2697.13 240.631 2696.36 240.396C2695.61 240.161 2694.56 240.044 2693.19 240.044H2687.46L2688.62 227.436H2702.28V231.596H2690.47L2693.16 229.228L2692.36 238.22L2689.67 235.852H2694.41C2696.63 235.852 2698.41 236.161 2699.75 236.78C2701.12 237.377 2702.11 238.199 2702.73 239.244C2703.35 240.289 2703.66 241.473 2703.66 242.796C2703.66 244.119 2703.32 245.345 2702.66 246.476C2702 247.585 2700.98 248.492 2699.59 249.196C2698.23 249.879 2696.48 250.22 2694.34 250.22ZM2708.68 249.836L2723.97 227.436H2727.78L2712.49 249.836H2708.68ZM2710.63 239.532C2709.54 239.532 2708.58 239.287 2707.75 238.796C2706.92 238.284 2706.26 237.569 2705.77 236.652C2705.3 235.713 2705.06 234.615 2705.06 233.356C2705.06 232.097 2705.3 231.009 2705.77 230.092C2706.26 229.175 2706.92 228.46 2707.75 227.948C2708.58 227.436 2709.54 227.18 2710.63 227.18C2711.72 227.18 2712.68 227.436 2713.51 227.948C2714.34 228.46 2714.99 229.175 2715.46 230.092C2715.93 231.009 2716.17 232.097 2716.17 233.356C2716.17 234.615 2715.93 235.713 2715.46 236.652C2714.99 237.569 2714.34 238.284 2713.51 238.796C2712.68 239.287 2711.72 239.532 2710.63 239.532ZM2710.63 236.908C2711.33 236.908 2711.9 236.62 2712.33 236.044C2712.75 235.447 2712.97 234.551 2712.97 233.356C2712.97 232.161 2712.75 231.276 2712.33 230.7C2711.9 230.103 2711.33 229.804 2710.63 229.804C2709.95 229.804 2709.38 230.103 2708.93 230.7C2708.51 231.276 2708.29 232.161 2708.29 233.356C2708.29 234.529 2708.51 235.415 2708.93 236.012C2709.38 236.609 2709.95 236.908 2710.63 236.908ZM2725.83 250.092C2724.76 250.092 2723.8 249.847 2722.95 249.356C2722.12 248.844 2721.47 248.129 2721 247.212C2720.53 246.273 2720.29 245.175 2720.29 243.916C2720.29 242.657 2720.53 241.569 2721 240.652C2721.47 239.735 2722.12 239.02 2722.95 238.508C2723.8 237.996 2724.76 237.74 2725.83 237.74C2726.94 237.74 2727.91 237.996 2728.74 238.508C2729.57 239.02 2730.22 239.735 2730.69 240.652C2731.16 241.569 2731.4 242.657 2731.4 243.916C2731.4 245.175 2731.16 246.273 2730.69 247.212C2730.22 248.129 2729.57 248.844 2728.74 249.356C2727.91 249.847 2726.94 250.092 2725.83 250.092ZM2725.83 247.468C2726.53 247.468 2727.1 247.18 2727.53 246.604C2727.95 246.007 2728.17 245.111 2728.17 243.916C2728.17 242.743 2727.95 241.857 2727.53 241.26C2727.1 240.663 2726.53 240.364 2725.83 240.364C2725.15 240.364 2724.58 240.663 2724.13 241.26C2723.71 241.836 2723.49 242.721 2723.49 243.916C2723.49 245.111 2723.71 246.007 2724.13 246.604C2724.58 247.18 2725.15 247.468 2725.83 247.468Z" fill="url(#paint3_linear_49_26)"/>
<path d="M2756.49 284.787L2746.75 274.689H2766.23L2756.49 284.787Z" fill="white"/>
<path d="M2464.5 0.690191L2464.5 851.006M2492.5 0.690191L2492.5 851.006M2520.5 0.690191L2520.5 851.006M2548.5 0.690191L2548.5 851.006M2576.5 0.690191L2576.5 851.006M2604.5 0.690191L2604.5 851.006M2632.5 0.690191L2632.5 851.006M2660.5 0.690191L2660.5 851.006M2688.5 0.690191L2688.5 851.006M2716.5 0.690191L2716.5 851.006M2744.5 0.690191V851.006M2772.5 0.690191V851.006M2800.5 0.690191V851.006M2828.5 0.690191V851.006M2856.5 0.690191V851.006M2884.5 0.690191V851.006M2912.5 0.690191V851.006M2940.5 0.690191V851.006M2968.5 0.690191V851.006M2996.5 0.690191L2996.5 851.006M3024.5 0.690191L3024.5 851.006M3052.5 0.690191L3052.5 851.006M3080.5 0.690191L3080.5 851.006M2464 850.316L3080 850.316M2464 811.665L3080 811.665M2464 773.014L3080 773.014M2464 734.364L3080 734.364M2464 695.713L3080 695.713M2464 657.062L3080 657.062M2464 618.411L3080 618.412M2464 579.761L3080 579.761M2464 541.11L3080 541.11M2464 502.459L3080 502.459M2464 463.809L3080 463.809M2464 425.158L3080 425.158M2464 386.507L3080 386.507M2464 347.857L3080 347.857M2464 309.206L3080 309.206M2464 270.555L3080 270.555M2464 231.904L3080 231.904M2464 193.254L3080 193.254M2464 154.603L3080 154.603M2464 115.952L3080 115.952M2464 77.3014L3080 77.3015M2464 38.6507L3080 38.6508M2464 0L3080 5.724e-05" stroke="url(#paint4_linear_49_26)" stroke-opacity="0.1"/>
<path d="M616.5 0.690191L616.5 851.006M644.5 0.690191L644.5 851.006M672.5 0.690191L672.5 851.006M700.5 0.690191L700.5 851.006M728.5 0.690191L728.5 851.006M756.5 0.690191L756.5 851.006M784.5 0.690191L784.5 851.006M812.5 0.690191L812.5 851.006M840.5 0.690191L840.5 851.006M868.5 0.690191L868.5 851.006M896.5 0.690191V851.006M924.5 0.690191V851.006M952.5 0.690191V851.006M980.5 0.690191V851.006M1008.5 0.690191V851.006M1036.5 0.690191V851.006M1064.5 0.690191V851.006M1092.5 0.690191V851.006M1120.5 0.690191V851.006M1148.5 0.690191L1148.5 851.006M1176.5 0.690191L1176.5 851.006M1204.5 0.690191L1204.5 851.006M1232.5 0.690191L1232.5 851.006M616 850.316L1232 850.316M616 811.665L1232 811.665M616 773.014L1232 773.014M616 734.364L1232 734.364M616 695.713L1232 695.713M616 657.062L1232 657.062M616 618.411L1232 618.412M616 579.761L1232 579.761M616 541.11L1232 541.11M616 502.459L1232 502.459M616 463.809L1232 463.809M616 425.158L1232 425.158M616 386.507L1232 386.507M616 347.857L1232 347.857M616 309.206L1232 309.206M616 270.555L1232 270.555M616 231.904L1232 231.904M616 193.254L1232 193.254M616 154.603L1232 154.603M616 115.952L1232 115.952M616 77.3014L1232 77.3015M616 38.6507L1232 38.6508M616 0L1232 5.724e-05" stroke="url(#paint5_linear_49_26)" stroke-opacity="0.1"/>
<path d="M0.500027 0.690191L0.5 851.006M28.5 0.690191L28.5 851.006M56.5 0.690191L56.5 851.006M84.5 0.690191L84.5 851.006M112.5 0.690191L112.5 851.006M140.5 0.690191L140.5 851.006M168.5 0.690191L168.5 851.006M196.5 0.690191L196.5 851.006M224.5 0.690191L224.5 851.006M252.5 0.690191L252.5 851.006M280.5 0.690191V851.006M308.5 0.690191V851.006M336.5 0.690191V851.006M364.5 0.690191V851.006M392.5 0.690191V851.006M420.5 0.690191V851.006M448.5 0.690191V851.006M476.5 0.690191V851.006M504.5 0.690191V851.006M532.5 0.690191L532.5 851.006M560.5 0.690191L560.5 851.006M588.5 0.690191L588.5 851.006M616.5 0.690191L616.5 851.006M0 850.316L616 850.316M0 811.665L616 811.665M0 773.014L616 773.014M0 734.364L616 734.364M0 695.713L616 695.713M0 657.062L616 657.062M0 618.411L616 618.412M0 579.761L616 579.761M0 541.11L616 541.11M0 502.459L616 502.459M0 463.809L616 463.809M0 425.158L616 425.158M0 386.507L616 386.507M0 347.857L616 347.857M0 309.206L616 309.206M0 270.555L616 270.555M0 231.904L616 231.904M0 193.254L616 193.254M0 154.603L616 154.603M0 115.952L616 115.952M0 77.3014L616 77.3015M0 38.6507L616 38.6508M0 0L616 5.724e-05" stroke="url(#paint6_linear_49_26)" stroke-opacity="0.1"/>
<path d="M1232.5 0.690191L1232.5 851.006M1260.5 0.690191L1260.5 851.006M1288.5 0.690191L1288.5 851.006M1316.5 0.690191L1316.5 851.006M1344.5 0.690191L1344.5 851.006M1372.5 0.690191L1372.5 851.006M1400.5 0.690191L1400.5 851.006M1428.5 0.690191L1428.5 851.006M1456.5 0.690191L1456.5 851.006M1484.5 0.690191L1484.5 851.006M1512.5 0.690191V851.006M1540.5 0.690191V851.006M1568.5 0.690191V851.006M1596.5 0.690191V851.006M1624.5 0.690191V851.006M1652.5 0.690191V851.006M1680.5 0.690191V851.006M1708.5 0.690191V851.006M1736.5 0.690191V851.006M1764.5 0.690191L1764.5 851.006M1792.5 0.690191L1792.5 851.006M1820.5 0.690191L1820.5 851.006M1848.5 0.690191L1848.5 851.006M1232 850.316L1848 850.316M1232 811.665L1848 811.665M1232 773.014L1848 773.014M1232 734.364L1848 734.364M1232 695.713L1848 695.713M1232 657.062L1848 657.062M1232 618.411L1848 618.412M1232 579.761L1848 579.761M1232 541.11L1848 541.11M1232 502.459L1848 502.459M1232 463.809L1848 463.809M1232 425.158L1848 425.158M1232 386.507L1848 386.507M1232 347.857L1848 347.857M1232 309.206L1848 309.206M1232 270.555L1848 270.555M1232 231.904L1848 231.904M1232 193.254L1848 193.254M1232 154.603L1848 154.603M1232 115.952L1848 115.952M1232 77.3014L1848 77.3015M1232 38.6507L1848 38.6508M1232 0L1848 5.724e-05" stroke="url(#paint7_linear_49_26)" stroke-opacity="0.1"/>
<path d="M1848.5 0.690191L1848.5 851.006M1876.5 0.690191L1876.5 851.006M1904.5 0.690191L1904.5 851.006M1932.5 0.690191L1932.5 851.006M1960.5 0.690191L1960.5 851.006M1988.5 0.690191L1988.5 851.006M2016.5 0.690191L2016.5 851.006M2044.5 0.690191L2044.5 851.006M2072.5 0.690191L2072.5 851.006M2100.5 0.690191L2100.5 851.006M2128.5 0.690191V851.006M2156.5 0.690191V851.006M2184.5 0.690191V851.006M2212.5 0.690191V851.006M2240.5 0.690191V851.006M2268.5 0.690191V851.006M2296.5 0.690191V851.006M2324.5 0.690191V851.006M2352.5 0.690191V851.006M2380.5 0.690191L2380.5 851.006M2408.5 0.690191L2408.5 851.006M2436.5 0.690191L2436.5 851.006M2464.5 0.690191L2464.5 851.006M1848 850.316L2464 850.316M1848 811.665L2464 811.665M1848 773.014L2464 773.014M1848 734.364L2464 734.364M1848 695.713L2464 695.713M1848 657.062L2464 657.062M1848 618.411L2464 618.412M1848 579.761L2464 579.761M1848 541.11L2464 541.11M1848 502.459L2464 502.459M1848 463.809L2464 463.809M1848 425.158L2464 425.158M1848 386.507L2464 386.507M1848 347.857L2464 347.857M1848 309.206L2464 309.206M1848 270.555L2464 270.555M1848 231.904L2464 231.904M1848 193.254L2464 193.254M1848 154.603L2464 154.603M1848 115.952L2464 115.952M1848 77.3014L2464 77.3015M1848 38.6507L2464 38.6508M1848 0L2464 5.724e-05" stroke="url(#paint8_linear_49_26)" stroke-opacity="0.1"/>
<path d="M3703.5 0.690191L3703.5 851.006M3731.5 0.690191L3731.5 851.006M3759.5 0.690191L3759.5 851.006M3787.5 0.690191L3787.5 851.006M3815.5 0.690191L3815.5 851.006M3843.5 0.690191L3843.5 851.006M3871.5 0.690191L3871.5 851.006M3899.5 0.690191L3899.5 851.006M3927.5 0.690191L3927.5 851.006M3955.5 0.690191L3955.5 851.006M3983.5 0.690191V851.006M4011.5 0.690191V851.006M4039.5 0.690191V851.006M4067.5 0.690191V851.006M4095.5 0.690191V851.006M4123.5 0.690191V851.006M4151.5 0.690191V851.006M4179.5 0.690191V851.006M4207.5 0.690191V851.006M4235.5 0.690191L4235.5 851.006M4263.5 0.690191L4263.5 851.006M4291.5 0.690191L4291.5 851.006M4319.5 0.690191L4319.5 851.006M3703 850.316L4319 850.316M3703 811.665L4319 811.665M3703 773.014L4319 773.014M3703 734.364L4319 734.364M3703 695.713L4319 695.713M3703 657.062L4319 657.062M3703 618.411L4319 618.412M3703 579.761L4319 579.761M3703 541.11L4319 541.11M3703 502.459L4319 502.459M3703 463.809L4319 463.809M3703 425.158L4319 425.158M3703 386.507L4319 386.507M3703 347.857L4319 347.857M3703 309.206L4319 309.206M3703 270.555L4319 270.555M3703 231.904L4319 231.904M3703 193.254L4319 193.254M3703 154.603L4319 154.603M3703 115.952L4319 115.952M3703 77.3014L4319 77.3015M3703 38.6507L4319 38.6508M3703 0L4319 5.724e-05" stroke="url(#paint9_linear_49_26)" stroke-opacity="0.1"/>
<path d="M3087.5 0.690191L3087.5 851.006M3115.5 0.690191L3115.5 851.006M3143.5 0.690191L3143.5 851.006M3171.5 0.690191L3171.5 851.006M3199.5 0.690191L3199.5 851.006M3227.5 0.690191L3227.5 851.006M3255.5 0.690191L3255.5 851.006M3283.5 0.690191L3283.5 851.006M3311.5 0.690191L3311.5 851.006M3339.5 0.690191L3339.5 851.006M3367.5 0.690191V851.006M3395.5 0.690191V851.006M3423.5 0.690191V851.006M3451.5 0.690191V851.006M3479.5 0.690191V851.006M3507.5 0.690191V851.006M3535.5 0.690191V851.006M3563.5 0.690191V851.006M3591.5 0.690191V851.006M3619.5 0.690191L3619.5 851.006M3647.5 0.690191L3647.5 851.006M3675.5 0.690191L3675.5 851.006M3703.5 0.690191L3703.5 851.006M3087 850.316L3703 850.316M3087 811.665L3703 811.665M3087 773.014L3703 773.014M3087 734.364L3703 734.364M3087 695.713L3703 695.713M3087 657.062L3703 657.062M3087 618.411L3703 618.412M3087 579.761L3703 579.761M3087 541.11L3703 541.11M3087 502.459L3703 502.459M3087 463.809L3703 463.809M3087 425.158L3703 425.158M3087 386.507L3703 386.507M3087 347.857L3703 347.857M3087 309.206L3703 309.206M3087 270.555L3703 270.555M3087 231.904L3703 231.904M3087 193.254L3703 193.254M3087 154.603L3703 154.603M3087 115.952L3703 115.952M3087 77.3014L3703 77.3015M3087 38.6507L3703 38.6508M3087 0L3703 5.724e-05" stroke="url(#paint10_linear_49_26)" stroke-opacity="0.1"/>
<path d="M4319.5 0.690191L4319.5 851.006M4347.5 0.690191L4347.5 851.006M4375.5 0.690191L4375.5 851.006M4403.5 0.690191L4403.5 851.006M4431.5 0.690191L4431.5 851.006M4459.5 0.690191L4459.5 851.006M4487.5 0.690191L4487.5 851.006M4515.5 0.690191L4515.5 851.006M4543.5 0.690191L4543.5 851.006M4571.5 0.690191L4571.5 851.006M4599.5 0.690191V851.006M4627.5 0.690191V851.006M4655.5 0.690191V851.006M4683.5 0.690191V851.006M4711.5 0.690191V851.006M4739.5 0.690191V851.006M4767.5 0.690191V851.006M4795.5 0.690191V851.006M4823.5 0.690191V851.006M4851.5 0.690191L4851.5 851.006M4879.5 0.690191L4879.5 851.006M4907.5 0.690191L4907.5 851.006M4935.5 0.690191L4935.5 851.006M4319 850.316L4935 850.316M4319 811.665L4935 811.665M4319 773.014L4935 773.014M4319 734.364L4935 734.364M4319 695.713L4935 695.713M4319 657.062L4935 657.062M4319 618.411L4935 618.412M4319 579.761L4935 579.761M4319 541.11L4935 541.11M4319 502.459L4935 502.459M4319 463.809L4935 463.809M4319 425.158L4935 425.158M4319 386.507L4935 386.507M4319 347.857L4935 347.857M4319 309.206L4935 309.206M4319 270.555L4935 270.555M4319 231.904L4935 231.904M4319 193.254L4935 193.254M4319 154.603L4935 154.603M4319 115.952L4935 115.952M4319 77.3014L4935 77.3015M4319 38.6507L4935 38.6508M4319 0L4935 5.724e-05" stroke="url(#paint11_linear_49_26)" stroke-opacity="0.1"/>
<path d="M4935.5 0.690191L4935.5 851.006M4963.5 0.690191L4963.5 851.006M4991.5 0.690191L4991.5 851.006M5019.5 0.690191L5019.5 851.006M5047.5 0.690191L5047.5 851.006M5075.5 0.690191L5075.5 851.006M5103.5 0.690191L5103.5 851.006M5131.5 0.690191L5131.5 851.006M5159.5 0.690191L5159.5 851.006M5187.5 0.690191L5187.5 851.006M5215.5 0.690191V851.006M5243.5 0.690191V851.006M5271.5 0.690191V851.006M5299.5 0.690191V851.006M5327.5 0.690191V851.006M5355.5 0.690191V851.006M5383.5 0.690191V851.006M5411.5 0.690191V851.006M5439.5 0.690191V851.006M5467.5 0.690191L5467.5 851.006M5495.5 0.690191L5495.5 851.006M5523.5 0.690191L5523.5 851.006M5551.5 0.690191L5551.5 851.006M4935 850.316L5551 850.316M4935 811.665L5551 811.665M4935 773.014L5551 773.014M4935 734.364L5551 734.364M4935 695.713L5551 695.713M4935 657.062L5551 657.062M4935 618.411L5551 618.412M4935 579.761L5551 579.761M4935 541.11L5551 541.11M4935 502.459L5551 502.459M4935 463.809L5551 463.809M4935 425.158L5551 425.158M4935 386.507L5551 386.507M4935 347.857L5551 347.857M4935 309.206L5551 309.206M4935 270.555L5551 270.555M4935 231.904L5551 231.904M4935 193.254L5551 193.254M4935 154.603L5551 154.603M4935 115.952L5551 115.952M4935 77.3014L5551 77.3015M4935 38.6507L5551 38.6508M4935 0L5551 5.724e-05" stroke="url(#paint12_linear_49_26)" stroke-opacity="0.1"/>
<g filter="url(#filter3_f_49_26)">
<path d="M2389.46 458C2389.46 466.671 2381.48 474.5 2370.59 474.5C2359.7 474.5 2351.71 466.671 2351.71 458C2351.71 449.329 2359.7 441.5 2370.59 441.5C2381.48 441.5 2389.46 449.329 2389.46 458Z" stroke="#605DEC" stroke-width="9"/>
</g>
<path d="M2390.96 458C2390.96 467.647 2382.15 476 2370.59 476C2359.03 476 2350.21 467.647 2350.21 458C2350.21 448.353 2359.03 440 2370.59 440C2382.15 440 2390.96 448.353 2390.96 458Z" stroke="white" stroke-width="6"/>
<path d="M2227.96 517.368V514.68H2245.21V517.368H2227.96ZM2227.96 512.952V510.264H2245.21V512.952H2227.96ZM2243.19 525.4C2241.44 525.4 2239.82 525.122 2238.33 524.568C2236.86 523.992 2235.58 523.181 2234.49 522.136C2233.4 521.09 2232.56 519.864 2231.96 518.456C2231.36 517.048 2231.06 515.501 2231.06 513.816C2231.06 512.13 2231.36 510.584 2231.96 509.176C2232.56 507.768 2233.4 506.541 2234.49 505.496C2235.58 504.45 2236.86 503.65 2238.33 503.096C2239.82 502.52 2241.44 502.232 2243.19 502.232C2245.13 502.232 2246.89 502.573 2248.47 503.256C2250.05 503.917 2251.36 504.898 2252.41 506.2L2249.11 509.272C2248.34 508.397 2247.49 507.746 2246.55 507.32C2245.61 506.872 2244.58 506.648 2243.45 506.648C2242.4 506.648 2241.44 506.818 2240.57 507.16C2239.69 507.501 2238.94 507.992 2238.3 508.632C2237.66 509.272 2237.15 510.029 2236.79 510.904C2236.45 511.778 2236.28 512.749 2236.28 513.816C2236.28 514.882 2236.45 515.853 2236.79 516.728C2237.15 517.602 2237.66 518.36 2238.3 519C2238.94 519.64 2239.69 520.13 2240.57 520.472C2241.44 520.813 2242.4 520.984 2243.45 520.984C2244.58 520.984 2245.61 520.77 2246.55 520.344C2247.49 519.896 2248.34 519.224 2249.11 518.328L2252.41 521.4C2251.36 522.701 2250.05 523.693 2248.47 524.376C2246.89 525.058 2245.13 525.4 2243.19 525.4ZM2261.8 525.4C2260.24 525.4 2258.7 525.197 2257.16 524.792C2255.65 524.365 2254.35 523.768 2253.26 523L2255.31 519.032C2256.16 519.65 2257.14 520.141 2258.25 520.504C2259.38 520.866 2260.52 521.048 2261.67 521.048C2262.97 521.048 2264 520.792 2264.75 520.28C2265.49 519.768 2265.87 519.053 2265.87 518.136C2265.87 517.56 2265.72 517.048 2265.42 516.6C2265.12 516.152 2264.59 515.81 2263.82 515.576C2263.07 515.341 2262.01 515.224 2260.65 515.224H2254.92L2256.07 502.616H2269.74V506.776H2257.93L2260.62 504.408L2259.82 513.4L2257.13 511.032H2261.87C2264.08 511.032 2265.87 511.341 2267.21 511.96C2268.57 512.557 2269.57 513.378 2270.19 514.424C2270.8 515.469 2271.11 516.653 2271.11 517.976C2271.11 519.298 2270.78 520.525 2270.12 521.656C2269.46 522.765 2268.44 523.672 2267.05 524.376C2265.68 525.058 2263.93 525.4 2261.8 525.4ZM2273.41 529.944L2275.52 522.264L2276.22 525.144C2275.31 525.144 2274.55 524.877 2273.95 524.344C2273.38 523.81 2273.09 523.074 2273.09 522.136C2273.09 521.197 2273.39 520.45 2273.98 519.896C2274.58 519.341 2275.32 519.064 2276.19 519.064C2277.09 519.064 2277.82 519.352 2278.4 519.928C2278.98 520.482 2279.26 521.218 2279.26 522.136C2279.26 522.413 2279.24 522.69 2279.2 522.968C2279.16 523.224 2279.07 523.544 2278.94 523.928C2278.84 524.29 2278.66 524.76 2278.4 525.336L2276.58 529.944H2273.41ZM2290.79 525.4C2288.95 525.4 2287.31 524.952 2285.86 524.056C2284.41 523.138 2283.27 521.816 2282.43 520.088C2281.6 518.36 2281.19 516.269 2281.19 513.816C2281.19 511.362 2281.6 509.272 2282.43 507.544C2283.27 505.816 2284.41 504.504 2285.86 503.608C2287.31 502.69 2288.95 502.232 2290.79 502.232C2292.64 502.232 2294.28 502.69 2295.71 503.608C2297.16 504.504 2298.31 505.816 2299.14 507.544C2299.97 509.272 2300.39 511.362 2300.39 513.816C2300.39 516.269 2299.97 518.36 2299.14 520.088C2298.31 521.816 2297.16 523.138 2295.71 524.056C2294.28 524.952 2292.64 525.4 2290.79 525.4ZM2290.79 521.016C2291.66 521.016 2292.42 520.77 2293.06 520.28C2293.72 519.789 2294.23 519.01 2294.59 517.944C2294.98 516.877 2295.17 515.501 2295.17 513.816C2295.17 512.13 2294.98 510.754 2294.59 509.688C2294.23 508.621 2293.72 507.842 2293.06 507.352C2292.42 506.861 2291.66 506.616 2290.79 506.616C2289.93 506.616 2289.17 506.861 2288.51 507.352C2287.87 507.842 2287.36 508.621 2286.98 509.688C2286.61 510.754 2286.43 512.13 2286.43 513.816C2286.43 515.501 2286.61 516.877 2286.98 517.944C2287.36 519.01 2287.87 519.789 2288.51 520.28C2289.17 520.77 2289.93 521.016 2290.79 521.016ZM2312.5 525.4C2310.67 525.4 2309.03 524.952 2307.58 524.056C2306.13 523.138 2304.98 521.816 2304.15 520.088C2303.32 518.36 2302.9 516.269 2302.9 513.816C2302.9 511.362 2303.32 509.272 2304.15 507.544C2304.98 505.816 2306.13 504.504 2307.58 503.608C2309.03 502.69 2310.67 502.232 2312.5 502.232C2314.36 502.232 2316 502.69 2317.43 503.608C2318.88 504.504 2320.02 505.816 2320.86 507.544C2321.69 509.272 2322.1 511.362 2322.1 513.816C2322.1 516.269 2321.69 518.36 2320.86 520.088C2320.02 521.816 2318.88 523.138 2317.43 524.056C2316 524.952 2314.36 525.4 2312.5 525.4ZM2312.5 521.016C2313.38 521.016 2314.14 520.77 2314.78 520.28C2315.44 519.789 2315.95 519.01 2316.31 517.944C2316.7 516.877 2316.89 515.501 2316.89 513.816C2316.89 512.13 2316.7 510.754 2316.31 509.688C2315.95 508.621 2315.44 507.842 2314.78 507.352C2314.14 506.861 2313.38 506.616 2312.5 506.616C2311.65 506.616 2310.89 506.861 2310.23 507.352C2309.59 507.842 2309.08 508.621 2308.7 509.688C2308.33 510.754 2308.15 512.13 2308.15 513.816C2308.15 515.501 2308.33 516.877 2308.7 517.944C2309.08 519.01 2309.59 519.789 2310.23 520.28C2310.89 520.77 2311.65 521.016 2312.5 521.016ZM2334.22 525.4C2332.39 525.4 2330.75 524.952 2329.3 524.056C2327.84 523.138 2326.7 521.816 2325.87 520.088C2325.04 518.36 2324.62 516.269 2324.62 513.816C2324.62 511.362 2325.04 509.272 2325.87 507.544C2326.7 505.816 2327.84 504.504 2329.3 503.608C2330.75 502.69 2332.39 502.232 2334.22 502.232C2336.08 502.232 2337.72 502.69 2339.15 503.608C2340.6 504.504 2341.74 505.816 2342.58 507.544C2343.41 509.272 2343.82 511.362 2343.82 513.816C2343.82 516.269 2343.41 518.36 2342.58 520.088C2341.74 521.816 2340.6 523.138 2339.15 524.056C2337.72 524.952 2336.08 525.4 2334.22 525.4ZM2334.22 521.016C2335.1 521.016 2335.86 520.77 2336.5 520.28C2337.16 519.789 2337.67 519.01 2338.03 517.944C2338.42 516.877 2338.61 515.501 2338.61 513.816C2338.61 512.13 2338.42 510.754 2338.03 509.688C2337.67 508.621 2337.16 507.842 2336.5 507.352C2335.86 506.861 2335.1 506.616 2334.22 506.616C2333.37 506.616 2332.61 506.861 2331.95 507.352C2331.31 507.842 2330.8 508.621 2330.42 509.688C2330.05 510.754 2329.87 512.13 2329.87 513.816C2329.87 515.501 2330.05 516.877 2330.42 517.944C2330.8 519.01 2331.31 519.789 2331.95 520.28C2332.61 520.77 2333.37 521.016 2334.22 521.016ZM2363.5 525.272C2361.47 525.272 2359.89 524.76 2358.76 523.736C2357.63 522.69 2357.07 521.144 2357.07 519.096V503.992H2362.06V519.032C2362.06 519.757 2362.25 520.322 2362.64 520.728C2363.02 521.112 2363.54 521.304 2364.2 521.304C2364.99 521.304 2365.67 521.09 2366.22 520.664L2367.56 524.184C2367.05 524.546 2366.43 524.824 2365.71 525.016C2365 525.186 2364.27 525.272 2363.5 525.272ZM2354.41 512.024V508.184H2366.35V512.024H2354.41ZM2378.03 525.272C2376.19 525.272 2374.56 524.888 2373.13 524.12C2371.72 523.352 2370.6 522.306 2369.77 520.984C2368.96 519.64 2368.56 518.114 2368.56 516.408C2368.56 514.68 2368.96 513.154 2369.77 511.832C2370.6 510.488 2371.72 509.442 2373.13 508.696C2374.56 507.928 2376.19 507.544 2378.03 507.544C2379.84 507.544 2381.46 507.928 2382.89 508.696C2384.32 509.442 2385.44 510.477 2386.25 511.8C2387.06 513.122 2387.47 514.658 2387.47 516.408C2387.47 518.114 2387.06 519.64 2386.25 520.984C2385.44 522.306 2384.32 523.352 2382.89 524.12C2381.46 524.888 2379.84 525.272 2378.03 525.272ZM2378.03 521.176C2378.86 521.176 2379.61 520.984 2380.27 520.6C2380.93 520.216 2381.45 519.672 2381.84 518.968C2382.22 518.242 2382.41 517.389 2382.41 516.408C2382.41 515.405 2382.22 514.552 2381.84 513.848C2381.45 513.144 2380.93 512.6 2380.27 512.216C2379.61 511.832 2378.86 511.64 2378.03 511.64C2377.2 511.64 2376.45 511.832 2375.79 512.216C2375.13 512.6 2374.59 513.144 2374.19 513.848C2373.8 514.552 2373.61 515.405 2373.61 516.408C2373.61 517.389 2373.8 518.242 2374.19 518.968C2374.59 519.672 2375.13 520.216 2375.79 520.6C2376.45 520.984 2377.2 521.176 2378.03 521.176ZM2398.52 517.368V514.68H2415.77V517.368H2398.52ZM2398.52 512.952V510.264H2415.77V512.952H2398.52ZM2413.75 525.4C2412.01 525.4 2410.38 525.122 2408.89 524.568C2407.42 523.992 2406.14 523.181 2405.05 522.136C2403.96 521.09 2403.12 519.864 2402.52 518.456C2401.93 517.048 2401.63 515.501 2401.63 513.816C2401.63 512.13 2401.93 510.584 2402.52 509.176C2403.12 507.768 2403.96 506.541 2405.05 505.496C2406.14 504.45 2407.42 503.65 2408.89 503.096C2410.38 502.52 2412.01 502.232 2413.75 502.232C2415.7 502.232 2417.46 502.573 2419.03 503.256C2420.61 503.917 2421.93 504.898 2422.97 506.2L2419.67 509.272C2418.91 508.397 2418.05 507.746 2417.11 507.32C2416.18 506.872 2415.14 506.648 2414.01 506.648C2412.97 506.648 2412.01 506.818 2411.13 507.16C2410.26 507.501 2409.5 507.992 2408.86 508.632C2408.22 509.272 2407.72 510.029 2407.35 510.904C2407.01 511.778 2406.84 512.749 2406.84 513.816C2406.84 514.882 2407.01 515.853 2407.35 516.728C2407.72 517.602 2408.22 518.36 2408.86 519C2409.5 519.64 2410.26 520.13 2411.13 520.472C2412.01 520.813 2412.97 520.984 2414.01 520.984C2415.14 520.984 2416.18 520.77 2417.11 520.344C2418.05 519.896 2418.91 519.224 2419.67 518.328L2422.97 521.4C2421.93 522.701 2420.61 523.693 2419.03 524.376C2417.46 525.058 2415.7 525.4 2413.75 525.4ZM2428.83 525.016V504.536L2431.07 506.776H2424.35V502.616H2434.01V525.016H2428.83ZM2447.5 525.4C2445.67 525.4 2444.03 524.952 2442.58 524.056C2441.13 523.138 2439.98 521.816 2439.15 520.088C2438.32 518.36 2437.9 516.269 2437.9 513.816C2437.9 511.362 2438.32 509.272 2439.15 507.544C2439.98 505.816 2441.13 504.504 2442.58 503.608C2444.03 502.69 2445.67 502.232 2447.5 502.232C2449.36 502.232 2451 502.69 2452.43 503.608C2453.88 504.504 2455.02 505.816 2455.86 507.544C2456.69 509.272 2457.1 511.362 2457.1 513.816C2457.1 516.269 2456.69 518.36 2455.86 520.088C2455.02 521.816 2453.88 523.138 2452.43 524.056C2451 524.952 2449.36 525.4 2447.5 525.4ZM2447.5 521.016C2448.38 521.016 2449.14 520.77 2449.78 520.28C2450.44 519.789 2450.95 519.01 2451.31 517.944C2451.7 516.877 2451.89 515.501 2451.89 513.816C2451.89 512.13 2451.7 510.754 2451.31 509.688C2450.95 508.621 2450.44 507.842 2449.78 507.352C2449.14 506.861 2448.38 506.616 2447.5 506.616C2446.65 506.616 2445.89 506.861 2445.23 507.352C2444.59 507.842 2444.08 508.621 2443.7 509.688C2443.33 510.754 2443.15 512.13 2443.15 513.816C2443.15 515.501 2443.33 516.877 2443.7 517.944C2444.08 519.01 2444.59 519.789 2445.23 520.28C2445.89 520.77 2446.65 521.016 2447.5 521.016ZM2459.41 529.944L2461.52 522.264L2462.22 525.144C2461.31 525.144 2460.55 524.877 2459.95 524.344C2459.38 523.81 2459.09 523.074 2459.09 522.136C2459.09 521.197 2459.39 520.45 2459.98 519.896C2460.58 519.341 2461.32 519.064 2462.19 519.064C2463.09 519.064 2463.82 519.352 2464.4 519.928C2464.98 520.482 2465.26 521.218 2465.26 522.136C2465.26 522.413 2465.24 522.69 2465.2 522.968C2465.16 523.224 2465.07 523.544 2464.94 523.928C2464.84 524.29 2464.66 524.76 2464.4 525.336L2462.58 529.944H2459.41ZM2476.79 525.4C2474.95 525.4 2473.31 524.952 2471.86 524.056C2470.41 523.138 2469.27 521.816 2468.43 520.088C2467.6 518.36 2467.19 516.269 2467.19 513.816C2467.19 511.362 2467.6 509.272 2468.43 507.544C2469.27 505.816 2470.41 504.504 2471.86 503.608C2473.31 502.69 2474.95 502.232 2476.79 502.232C2478.64 502.232 2480.28 502.69 2481.71 503.608C2483.16 504.504 2484.31 505.816 2485.14 507.544C2485.97 509.272 2486.39 511.362 2486.39 513.816C2486.39 516.269 2485.97 518.36 2485.14 520.088C2484.31 521.816 2483.16 523.138 2481.71 524.056C2480.28 524.952 2478.64 525.4 2476.79 525.4ZM2476.79 521.016C2477.66 521.016 2478.42 520.77 2479.06 520.28C2479.72 519.789 2480.23 519.01 2480.59 517.944C2480.98 516.877 2481.17 515.501 2481.17 513.816C2481.17 512.13 2480.98 510.754 2480.59 509.688C2480.23 508.621 2479.72 507.842 2479.06 507.352C2478.42 506.861 2477.66 506.616 2476.79 506.616C2475.93 506.616 2475.17 506.861 2474.51 507.352C2473.87 507.842 2473.36 508.621 2472.98 509.688C2472.61 510.754 2472.43 512.13 2472.43 513.816C2472.43 515.501 2472.61 516.877 2472.98 517.944C2473.36 519.01 2473.87 519.789 2474.51 520.28C2475.17 520.77 2475.93 521.016 2476.79 521.016ZM2498.5 525.4C2496.67 525.4 2495.03 524.952 2493.58 524.056C2492.13 523.138 2490.98 521.816 2490.15 520.088C2489.32 518.36 2488.9 516.269 2488.9 513.816C2488.9 511.362 2489.32 509.272 2490.15 507.544C2490.98 505.816 2492.13 504.504 2493.58 503.608C2495.03 502.69 2496.67 502.232 2498.5 502.232C2500.36 502.232 2502 502.69 2503.43 503.608C2504.88 504.504 2506.02 505.816 2506.86 507.544C2507.69 509.272 2508.1 511.362 2508.1 513.816C2508.1 516.269 2507.69 518.36 2506.86 520.088C2506.02 521.816 2504.88 523.138 2503.43 524.056C2502 524.952 2500.36 525.4 2498.5 525.4ZM2498.5 521.016C2499.38 521.016 2500.14 520.77 2500.78 520.28C2501.44 519.789 2501.95 519.01 2502.31 517.944C2502.7 516.877 2502.89 515.501 2502.89 513.816C2502.89 512.13 2502.7 510.754 2502.31 509.688C2501.95 508.621 2501.44 507.842 2500.78 507.352C2500.14 506.861 2499.38 506.616 2498.5 506.616C2497.65 506.616 2496.89 506.861 2496.23 507.352C2495.59 507.842 2495.08 508.621 2494.7 509.688C2494.33 510.754 2494.15 512.13 2494.15 513.816C2494.15 515.501 2494.33 516.877 2494.7 517.944C2495.08 519.01 2495.59 519.789 2496.23 520.28C2496.89 520.77 2497.65 521.016 2498.5 521.016ZM2520.22 525.4C2518.39 525.4 2516.75 524.952 2515.3 524.056C2513.84 523.138 2512.7 521.816 2511.87 520.088C2511.04 518.36 2510.62 516.269 2510.62 513.816C2510.62 511.362 2511.04 509.272 2511.87 507.544C2512.7 505.816 2513.84 504.504 2515.3 503.608C2516.75 502.69 2518.39 502.232 2520.22 502.232C2522.08 502.232 2523.72 502.69 2525.15 503.608C2526.6 504.504 2527.74 505.816 2528.58 507.544C2529.41 509.272 2529.82 511.362 2529.82 513.816C2529.82 516.269 2529.41 518.36 2528.58 520.088C2527.74 521.816 2526.6 523.138 2525.15 524.056C2523.72 524.952 2522.08 525.4 2520.22 525.4ZM2520.22 521.016C2521.1 521.016 2521.86 520.77 2522.5 520.28C2523.16 519.789 2523.67 519.01 2524.03 517.944C2524.42 516.877 2524.61 515.501 2524.61 513.816C2524.61 512.13 2524.42 510.754 2524.03 509.688C2523.67 508.621 2523.16 507.842 2522.5 507.352C2521.86 506.861 2521.1 506.616 2520.22 506.616C2519.37 506.616 2518.61 506.861 2517.95 507.352C2517.31 507.842 2516.8 508.621 2516.42 509.688C2516.05 510.754 2515.87 512.13 2515.87 513.816C2515.87 515.501 2516.05 516.877 2516.42 517.944C2516.8 519.01 2517.31 519.789 2517.95 520.28C2518.61 520.77 2519.37 521.016 2520.22 521.016Z" fill="white"/>
<rect x="2237.02" y="347" width="163.626" height="61.5" rx="10" fill="white"/>
<path d="M2296.02 393.463C2294.47 393.463 2292.92 393.26 2291.38 392.855C2289.85 392.428 2288.55 391.831 2287.48 391.063L2289.5 387.095C2290.35 387.713 2291.34 388.204 2292.47 388.567C2293.6 388.929 2294.74 389.111 2295.9 389.111C2297.2 389.111 2298.22 388.855 2298.97 388.343C2299.72 387.831 2300.09 387.127 2300.09 386.231C2300.09 385.377 2299.76 384.705 2299.1 384.215C2298.44 383.724 2297.37 383.479 2295.9 383.479H2293.53V380.055L2299.77 372.983L2300.34 374.839H2288.6V370.679H2304.28V374.039L2298.07 381.111L2295.45 379.607H2296.95C2299.7 379.607 2301.78 380.225 2303.19 381.463C2304.6 382.7 2305.3 384.289 2305.3 386.231C2305.3 387.489 2304.97 388.673 2304.31 389.783C2303.65 390.871 2302.64 391.756 2301.27 392.439C2299.91 393.121 2298.16 393.463 2296.02 393.463ZM2317.3 393.463C2315.46 393.463 2313.82 393.015 2312.37 392.119C2310.92 391.201 2309.78 389.879 2308.95 388.151C2308.11 386.423 2307.7 384.332 2307.7 381.879C2307.7 379.425 2308.11 377.335 2308.95 375.607C2309.78 373.879 2310.92 372.567 2312.37 371.671C2313.82 370.753 2315.46 370.295 2317.3 370.295C2319.15 370.295 2320.8 370.753 2322.23 371.671C2323.68 372.567 2324.82 373.879 2325.65 375.607C2326.48 377.335 2326.9 379.425 2326.9 381.879C2326.9 384.332 2326.48 386.423 2325.65 388.151C2324.82 389.879 2323.68 391.201 2322.23 392.119C2320.8 393.015 2319.15 393.463 2317.3 393.463ZM2317.3 389.079C2318.17 389.079 2318.93 388.833 2319.57 388.343C2320.23 387.852 2320.74 387.073 2321.11 386.007C2321.49 384.94 2321.68 383.564 2321.68 381.879C2321.68 380.193 2321.49 378.817 2321.11 377.751C2320.74 376.684 2320.23 375.905 2319.57 375.415C2318.93 374.924 2318.17 374.679 2317.3 374.679C2316.45 374.679 2315.69 374.924 2315.03 375.415C2314.39 375.905 2313.87 376.684 2313.49 377.751C2313.13 378.817 2312.95 380.193 2312.95 381.879C2312.95 383.564 2313.13 384.94 2313.49 386.007C2313.87 387.073 2314.39 387.852 2315.03 388.343C2315.69 388.833 2316.45 389.079 2317.3 389.079ZM2332.65 393.079L2347.95 370.679H2351.75L2336.46 393.079H2332.65ZM2334.6 382.775C2333.51 382.775 2332.55 382.529 2331.72 382.039C2330.89 381.527 2330.23 380.812 2329.74 379.895C2329.27 378.956 2329.03 377.857 2329.03 376.599C2329.03 375.34 2329.27 374.252 2329.74 373.335C2330.23 372.417 2330.89 371.703 2331.72 371.191C2332.55 370.679 2333.51 370.423 2334.6 370.423C2335.69 370.423 2336.65 370.679 2337.48 371.191C2338.31 371.703 2338.96 372.417 2339.43 373.335C2339.9 374.252 2340.14 375.34 2340.14 376.599C2340.14 377.857 2339.9 378.956 2339.43 379.895C2338.96 380.812 2338.31 381.527 2337.48 382.039C2336.65 382.529 2335.69 382.775 2334.6 382.775ZM2334.6 380.151C2335.31 380.151 2335.87 379.863 2336.3 379.287C2336.72 378.689 2336.94 377.793 2336.94 376.599C2336.94 375.404 2336.72 374.519 2336.3 373.943C2335.87 373.345 2335.31 373.047 2334.6 373.047C2333.92 373.047 2333.35 373.345 2332.91 373.943C2332.48 374.519 2332.27 375.404 2332.27 376.599C2332.27 377.772 2332.48 378.657 2332.91 379.255C2333.35 379.852 2333.92 380.151 2334.6 380.151ZM2349.8 393.335C2348.73 393.335 2347.77 393.089 2346.92 392.599C2346.09 392.087 2345.44 391.372 2344.97 390.455C2344.5 389.516 2344.27 388.417 2344.27 387.159C2344.27 385.9 2344.5 384.812 2344.97 383.895C2345.44 382.977 2346.09 382.263 2346.92 381.751C2347.77 381.239 2348.73 380.983 2349.8 380.983C2350.91 380.983 2351.88 381.239 2352.71 381.751C2353.55 382.263 2354.2 382.977 2354.67 383.895C2355.13 384.812 2355.37 385.9 2355.37 387.159C2355.37 388.417 2355.13 389.516 2354.67 390.455C2354.2 391.372 2353.55 392.087 2352.71 392.599C2351.88 393.089 2350.91 393.335 2349.8 393.335ZM2349.8 390.711C2350.51 390.711 2351.07 390.423 2351.5 389.847C2351.92 389.249 2352.14 388.353 2352.14 387.159C2352.14 385.985 2351.92 385.1 2351.5 384.503C2351.07 383.905 2350.51 383.607 2349.8 383.607C2349.12 383.607 2348.55 383.905 2348.11 384.503C2347.68 385.079 2347.47 385.964 2347.47 387.159C2347.47 388.353 2347.68 389.249 2348.11 389.847C2348.55 390.423 2349.12 390.711 2349.8 390.711Z" fill="url(#paint13_linear_49_26)"/>
<path d="M2369.75 422L2360.36 411.875H2379.15L2369.75 422Z" fill="white"/>
</g>
<defs>
<filter id="filter0_f_49_26" x="1968.73" y="508.73" width="49.8843" height="47.5405" filterUnits="userSpaceOnUse" color-interpolation-filters="sRGB">
<feFlood flood-opacity="0" result="BackgroundImageFix"/>
<feBlend mode="normal" in="SourceGraphic" in2="BackgroundImageFix" result="shape"/>
<feGaussianBlur stdDeviation="2" result="effect1_foregroundBlur_49_26"/>
</filter>
<filter id="filter1_f_49_26" x="3083.4" y="142.316" width="55.5557" height="52.4602" filterUnits="userSpaceOnUse" color-interpolation-filters="sRGB">
<feFlood flood-opacity="0" result="BackgroundImageFix"/>
<feBlend mode="normal" in="SourceGraphic" in2="BackgroundImageFix" result="shape"/>
<feGaussianBlur stdDeviation="2" result="effect1_foregroundBlur_49_26"/>
</filter>
<filter id="filter2_f_49_26" x="2727.41" y="295.748" width="56.426" height="49.8901" filterUnits="userSpaceOnUse" color-interpolation-filters="sRGB">
<feFlood flood-opacity="0" result="BackgroundImageFix"/>
<feBlend mode="normal" in="SourceGraphic" in2="BackgroundImageFix" result="shape"/>
<feGaussianBlur stdDeviation="2" result="effect1_foregroundBlur_49_26"/>
</filter>
<filter id="filter3_f_49_26" x="2343.21" y="433" width="54.7502" height="50" filterUnits="userSpaceOnUse" color-interpolation-filters="sRGB">
<feFlood flood-opacity="0" result="BackgroundImageFix"/>
<feBlend mode="normal" in="SourceGraphic" in2="BackgroundImageFix" result="shape"/>
<feGaussianBlur stdDeviation="2" result="effect1_foregroundBlur_49_26"/>
</filter>
<linearGradient id="paint0_linear_49_26" x1="2502" y1="268.831" x2="2502" y2="1165.82" gradientUnits="userSpaceOnUse">
<stop stop-color="#310C79" stop-opacity="0.78"/>
<stop offset="1" stop-color="#602C72"/>
</linearGradient>
<linearGradient id="paint1_linear_49_26" x1="1921.44" y1="454.311" x2="1992" y2="454.311" gradientUnits="userSpaceOnUse">
<stop stop-color="#4075FF"/>
<stop offset="1" stop-color="#EC77FF"/>
</linearGradient>
<linearGradient id="paint2_linear_49_26" x1="3028.32" y1="77.6647" x2="3097" y2="77.6647" gradientUnits="userSpaceOnUse">
<stop stop-color="#4075FF"/>
<stop offset="1" stop-color="#EC77FF"/>
</linearGradient>
<linearGradient id="paint3_linear_49_26" x1="2671.26" y1="235.065" x2="2741.19" y2="235.065" gradientUnits="userSpaceOnUse">
<stop stop-color="#4075FF"/>
<stop offset="1" stop-color="#EC77FF"/>
</linearGradient>
<linearGradient id="paint4_linear_49_26" x1="2772.25" y1="0" x2="2772.25" y2="851.006" gradientUnits="userSpaceOnUse">
<stop stop-color="white" stop-opacity="0"/>
<stop offset="0.34375" stop-color="white"/>
<stop offset="0.619792" stop-color="white" stop-opacity="0"/>
</linearGradient>
<linearGradient id="paint5_linear_49_26" x1="924.25" y1="0" x2="924.25" y2="851.006" gradientUnits="userSpaceOnUse">
<stop stop-color="white" stop-opacity="0"/>
<stop offset="0.34375" stop-color="white"/>
<stop offset="0.619792" stop-color="white" stop-opacity="0"/>
</linearGradient>
<linearGradient id="paint6_linear_49_26" x1="308.25" y1="0" x2="308.25" y2="851.006" gradientUnits="userSpaceOnUse">
<stop stop-color="white" stop-opacity="0"/>
<stop offset="0.34375" stop-color="white"/>
<stop offset="0.619792" stop-color="white" stop-opacity="0"/>
</linearGradient>
<linearGradient id="paint7_linear_49_26" x1="1540.25" y1="0" x2="1540.25" y2="851.006" gradientUnits="userSpaceOnUse">
<stop stop-color="white" stop-opacity="0"/>
<stop offset="0.34375" stop-color="white"/>
<stop offset="0.619792" stop-color="white" stop-opacity="0"/>
</linearGradient>
<linearGradient id="paint8_linear_49_26" x1="2156.25" y1="0" x2="2156.25" y2="851.006" gradientUnits="userSpaceOnUse">
<stop stop-color="white" stop-opacity="0"/>
<stop offset="0.34375" stop-color="white"/>
<stop offset="0.619792" stop-color="white" stop-opacity="0"/>
</linearGradient>
<linearGradient id="paint9_linear_49_26" x1="4011.25" y1="0" x2="4011.25" y2="851.006" gradientUnits="userSpaceOnUse">
<stop stop-color="white" stop-opacity="0"/>
<stop offset="0.34375" stop-color="white"/>
<stop offset="0.619792" stop-color="white" stop-opacity="0"/>
</linearGradient>
<linearGradient id="paint10_linear_49_26" x1="3395.25" y1="0" x2="3395.25" y2="851.006" gradientUnits="userSpaceOnUse">
<stop stop-color="white" stop-opacity="0"/>
<stop offset="0.34375" stop-color="white"/>
<stop offset="0.619792" stop-color="white" stop-opacity="0"/>
</linearGradient>
<linearGradient id="paint11_linear_49_26" x1="4627.25" y1="0" x2="4627.25" y2="851.006" gradientUnits="userSpaceOnUse">
<stop stop-color="white" stop-opacity="0"/>
<stop offset="0.34375" stop-color="white"/>
<stop offset="0.619792" stop-color="white" stop-opacity="0"/>
</linearGradient>
<linearGradient id="paint12_linear_49_26" x1="5243.25" y1="0" x2="5243.25" y2="851.006" gradientUnits="userSpaceOnUse">
<stop stop-color="white" stop-opacity="0"/>
<stop offset="0.34375" stop-color="white"/>
<stop offset="0.619792" stop-color="white" stop-opacity="0"/>
</linearGradient>
<linearGradient id="paint13_linear_49_26" x1="2291.76" y1="378.571" x2="2359.31" y2="378.571" gradientUnits="userSpaceOnUse">
<stop stop-color="#4075FF"/>
<stop offset="1" stop-color="#EC77FF"/>
</linearGradient>
<clipPath id="clip0_49_26">
<rect width="5040" height="765" fill="white"/>
</clipPath>
</defs>
</svg>
