<svg width="5040" height="998" viewBox="0 0 5040 998" fill="none" xmlns="http://www.w3.org/2000/svg">
<g clip-path="url(#clip0_49_26)">
<path d="M5102 3.91382H0V987.563H5102V3.91382Z" fill="#1D242A"/>
<path d="M1723 690.088H1653H1583C1436 690.088 1373 676.632 1233 659.81C1093 642.989 953 598.132 813 553.276C673 508.418 541 464.843 393 441.133C253 418.705 113 418.705 43 418.705H-27V1186H43H393H813H1233H1583H1653H1723H2073H2493H2913H3263H3333H3403H3753H4173H4593H4943H5013L5035 -278L4884 -134.5C4737 -134.5 4845.5 -117.678 4705.5 -134.5C4565.5 -151.321 4524 -37.6434 4384 -82.5C4244 -127.358 4238 -92.3418 4062.5 -48C3939.89 -17.0221 3943.5 -18.4999 3839.5 24L3671.5 93.0001L3562.5 142.5C3482.5 177.679 3020.5 351.073 2890 409.164C2759.5 467.254 2633 508.418 2493 553.276C2353 598.132 2213 642.989 2073 659.81C1933 676.632 1870 690.088 1723 690.088Z" fill="url(#paint0_linear_49_26)"/>
<g filter="url(#filter0_f_49_26)">
<path d="M2127.11 656.5C2127.11 664.693 2120 671.77 2110.67 671.77C2101.34 671.77 2094.23 664.693 2094.23 656.5C2094.23 648.307 2101.34 641.23 2110.67 641.23C2120 641.23 2127.11 648.307 2127.11 656.5Z" stroke="#605DEC" stroke-width="9"/>
</g>
<path d="M2128.61 656.5C2128.61 665.602 2120.74 673.27 2110.67 673.27C2100.6 673.27 2092.73 665.602 2092.73 656.5C2092.73 647.398 2100.6 639.73 2110.67 639.73C2120.74 639.73 2128.61 647.398 2128.61 656.5Z" stroke="white" stroke-width="6"/>
<path d="M2024.22 717.915L2008.98 712.123V707.963L2024.22 702.171V706.171L2010.49 711.163V708.923L2024.22 713.915V717.915ZM2036.18 713.595V710.907H2053.43V713.595H2036.18ZM2036.18 709.179V706.491H2053.43V709.179H2036.18ZM2051.41 721.627C2049.66 721.627 2048.04 721.35 2046.55 720.795C2045.07 720.219 2043.79 719.408 2042.71 718.363C2041.62 717.318 2040.78 716.091 2040.18 714.683C2039.58 713.275 2039.28 711.728 2039.28 710.043C2039.28 708.358 2039.58 706.811 2040.18 705.403C2040.78 703.995 2041.62 702.768 2042.71 701.723C2043.79 700.678 2045.07 699.878 2046.55 699.323C2048.04 698.747 2049.66 698.459 2051.41 698.459C2053.35 698.459 2055.11 698.8 2056.69 699.483C2058.27 700.144 2059.58 701.126 2060.63 702.427L2057.33 705.499C2056.56 704.624 2055.71 703.974 2054.77 703.547C2053.83 703.099 2052.8 702.875 2051.67 702.875C2050.62 702.875 2049.66 703.046 2048.79 703.387C2047.91 703.728 2047.15 704.219 2046.51 704.859C2045.87 705.499 2045.37 706.256 2045.01 707.131C2044.67 708.006 2044.5 708.976 2044.5 710.043C2044.5 711.11 2044.67 712.08 2045.01 712.955C2045.37 713.83 2045.87 714.587 2046.51 715.227C2047.15 715.867 2047.91 716.358 2048.79 716.699C2049.66 717.04 2050.62 717.211 2051.67 717.211C2052.8 717.211 2053.83 716.998 2054.77 716.571C2055.71 716.123 2056.56 715.451 2057.33 714.555L2060.63 717.627C2059.58 718.928 2058.27 719.92 2056.69 720.603C2055.11 721.286 2053.35 721.627 2051.41 721.627ZM2070.02 721.627C2068.46 721.627 2066.92 721.424 2065.38 721.019C2063.87 720.592 2062.56 719.995 2061.48 719.227L2063.52 715.259C2064.38 715.878 2065.36 716.368 2066.47 716.731C2067.6 717.094 2068.74 717.275 2069.89 717.275C2071.19 717.275 2072.22 717.019 2072.96 716.507C2073.71 715.995 2074.08 715.28 2074.08 714.363C2074.08 713.787 2073.93 713.275 2073.64 712.827C2073.34 712.379 2072.8 712.038 2072.04 711.803C2071.29 711.568 2070.23 711.451 2068.87 711.451H2063.14L2064.29 698.843H2077.96V703.003H2066.15L2068.84 700.635L2068.04 709.627L2065.35 707.259H2070.08C2072.3 707.259 2074.08 707.568 2075.43 708.187C2076.79 708.784 2077.79 709.606 2078.4 710.651C2079.02 711.696 2079.33 712.88 2079.33 714.203C2079.33 715.526 2079 716.752 2078.34 717.883C2077.68 718.992 2076.65 719.899 2075.27 720.603C2073.9 721.286 2072.15 721.627 2070.02 721.627ZM2081.63 726.171L2083.74 718.491L2084.44 721.371C2083.53 721.371 2082.77 721.104 2082.17 720.571C2081.6 720.038 2081.31 719.302 2081.31 718.363C2081.31 717.424 2081.61 716.678 2082.2 716.123C2082.8 715.568 2083.54 715.291 2084.41 715.291C2085.31 715.291 2086.04 715.579 2086.62 716.155C2087.2 716.71 2087.48 717.446 2087.48 718.363C2087.48 718.64 2087.46 718.918 2087.42 719.195C2087.38 719.451 2087.29 719.771 2087.16 720.155C2087.06 720.518 2086.88 720.987 2086.62 721.563L2084.8 726.171H2081.63ZM2099 721.627C2097.17 721.627 2095.53 721.179 2094.08 720.283C2092.63 719.366 2091.48 718.043 2090.65 716.315C2089.82 714.587 2089.4 712.496 2089.4 710.043C2089.4 707.59 2089.82 705.499 2090.65 703.771C2091.48 702.043 2092.63 700.731 2094.08 699.835C2095.53 698.918 2097.17 698.459 2099 698.459C2100.86 698.459 2102.5 698.918 2103.93 699.835C2105.38 700.731 2106.52 702.043 2107.36 703.771C2108.19 705.499 2108.6 707.59 2108.6 710.043C2108.6 712.496 2108.19 714.587 2107.36 716.315C2106.52 718.043 2105.38 719.366 2103.93 720.283C2102.5 721.179 2100.86 721.627 2099 721.627ZM2099 717.243C2099.88 717.243 2100.64 716.998 2101.28 716.507C2101.94 716.016 2102.45 715.238 2102.81 714.171C2103.2 713.104 2103.39 711.728 2103.39 710.043C2103.39 708.358 2103.2 706.982 2102.81 705.915C2102.45 704.848 2101.94 704.07 2101.28 703.579C2100.64 703.088 2099.88 702.843 2099 702.843C2098.15 702.843 2097.39 703.088 2096.73 703.579C2096.09 704.07 2095.58 704.848 2095.2 705.915C2094.83 706.982 2094.65 708.358 2094.65 710.043C2094.65 711.728 2094.83 713.104 2095.2 714.171C2095.58 715.238 2096.09 716.016 2096.73 716.507C2097.39 716.998 2098.15 717.243 2099 717.243ZM2120.72 721.627C2118.89 721.627 2117.25 721.179 2115.8 720.283C2114.34 719.366 2113.2 718.043 2112.37 716.315C2111.54 714.587 2111.12 712.496 2111.12 710.043C2111.12 707.59 2111.54 705.499 2112.37 703.771C2113.2 702.043 2114.34 700.731 2115.8 699.835C2117.25 698.918 2118.89 698.459 2120.72 698.459C2122.58 698.459 2124.22 698.918 2125.65 699.835C2127.1 700.731 2128.24 702.043 2129.08 703.771C2129.91 705.499 2130.32 707.59 2130.32 710.043C2130.32 712.496 2129.91 714.587 2129.08 716.315C2128.24 718.043 2127.1 719.366 2125.65 720.283C2124.22 721.179 2122.58 721.627 2120.72 721.627ZM2120.72 717.243C2121.6 717.243 2122.36 716.998 2123 716.507C2123.66 716.016 2124.17 715.238 2124.53 714.171C2124.92 713.104 2125.11 711.728 2125.11 710.043C2125.11 708.358 2124.92 706.982 2124.53 705.915C2124.17 704.848 2123.66 704.07 2123 703.579C2122.36 703.088 2121.6 702.843 2120.72 702.843C2119.87 702.843 2119.11 703.088 2118.45 703.579C2117.81 704.07 2117.3 704.848 2116.92 705.915C2116.55 706.982 2116.37 708.358 2116.37 710.043C2116.37 711.728 2116.55 713.104 2116.92 714.171C2117.3 715.238 2117.81 716.016 2118.45 716.507C2119.11 716.998 2119.87 717.243 2120.72 717.243ZM2142.44 721.627C2140.61 721.627 2138.96 721.179 2137.51 720.283C2136.06 719.366 2134.92 718.043 2134.09 716.315C2133.26 714.587 2132.84 712.496 2132.84 710.043C2132.84 707.59 2133.26 705.499 2134.09 703.771C2134.92 702.043 2136.06 700.731 2137.51 699.835C2138.96 698.918 2140.61 698.459 2142.44 698.459C2144.3 698.459 2145.94 698.918 2147.37 699.835C2148.82 700.731 2149.96 702.043 2150.79 703.771C2151.63 705.499 2152.04 707.59 2152.04 710.043C2152.04 712.496 2151.63 714.587 2150.79 716.315C2149.96 718.043 2148.82 719.366 2147.37 720.283C2145.94 721.179 2144.3 721.627 2142.44 721.627ZM2142.44 717.243C2143.32 717.243 2144.07 716.998 2144.71 716.507C2145.38 716.016 2145.89 715.238 2146.25 714.171C2146.63 713.104 2146.83 711.728 2146.83 710.043C2146.83 708.358 2146.63 706.982 2146.25 705.915C2145.89 704.848 2145.38 704.07 2144.71 703.579C2144.07 703.088 2143.32 702.843 2142.44 702.843C2141.59 702.843 2140.83 703.088 2140.17 703.579C2139.53 704.07 2139.02 704.848 2138.63 705.915C2138.27 706.982 2138.09 708.358 2138.09 710.043C2138.09 711.728 2138.27 713.104 2138.63 714.171C2139.02 715.238 2139.53 716.016 2140.17 716.507C2140.83 716.998 2141.59 717.243 2142.44 717.243Z" fill="white"/>
<rect x="1991" y="552" width="146.595" height="57.8986" rx="10" fill="white"/>
<path d="M2035.06 593.703V590.343L2043.7 582.183C2044.38 581.564 2044.88 581.009 2045.2 580.519C2045.52 580.028 2045.73 579.58 2045.84 579.175C2045.97 578.769 2046.03 578.396 2046.03 578.055C2046.03 577.159 2045.72 576.476 2045.1 576.007C2044.51 575.516 2043.62 575.271 2042.45 575.271C2041.51 575.271 2040.63 575.452 2039.82 575.815C2039.03 576.177 2038.36 576.743 2037.81 577.511L2034.03 575.079C2034.89 573.799 2036.08 572.785 2037.62 572.039C2039.15 571.292 2040.92 570.919 2042.93 570.919C2044.59 570.919 2046.04 571.196 2047.28 571.751C2048.54 572.284 2049.51 573.041 2050.19 574.023C2050.9 575.004 2051.25 576.177 2051.25 577.543C2051.25 578.268 2051.15 578.993 2050.96 579.719C2050.79 580.423 2050.43 581.169 2049.87 581.959C2049.34 582.748 2048.55 583.633 2047.5 584.615L2040.34 591.367L2039.34 589.479H2051.98V593.703H2035.06ZM2061.74 594.087C2060.18 594.087 2058.64 593.884 2057.1 593.479C2055.58 593.052 2054.28 592.455 2053.2 591.687L2055.24 587.719C2056.1 588.337 2057.08 588.828 2058.19 589.191C2059.32 589.553 2060.46 589.735 2061.61 589.735C2062.91 589.735 2063.94 589.479 2064.68 588.967C2065.43 588.455 2065.8 587.74 2065.8 586.823C2065.8 586.247 2065.65 585.735 2065.36 585.287C2065.06 584.839 2064.52 584.497 2063.76 584.263C2063.01 584.028 2061.95 583.911 2060.59 583.911H2054.86L2056.01 571.303H2069.68V575.463H2057.87L2060.56 573.095L2059.76 582.087L2057.07 579.719H2061.8C2064.02 579.719 2065.8 580.028 2067.15 580.647C2068.51 581.244 2069.5 582.065 2070.12 583.111C2070.74 584.156 2071.05 585.34 2071.05 586.663C2071.05 587.985 2070.72 589.212 2070.06 590.343C2069.4 591.452 2068.37 592.359 2066.99 593.063C2065.62 593.745 2063.87 594.087 2061.74 594.087ZM2076.07 593.703L2091.37 571.303H2095.18L2079.88 593.703H2076.07ZM2078.03 583.399C2076.94 583.399 2075.98 583.153 2075.15 582.663C2074.31 582.151 2073.65 581.436 2073.16 580.519C2072.69 579.58 2072.46 578.481 2072.46 577.223C2072.46 575.964 2072.69 574.876 2073.16 573.959C2073.65 573.041 2074.31 572.327 2075.15 571.815C2075.98 571.303 2076.94 571.047 2078.03 571.047C2079.11 571.047 2080.07 571.303 2080.91 571.815C2081.74 572.327 2082.39 573.041 2082.86 573.959C2083.33 574.876 2083.56 575.964 2083.56 577.223C2083.56 578.481 2083.33 579.58 2082.86 580.519C2082.39 581.436 2081.74 582.151 2080.91 582.663C2080.07 583.153 2079.11 583.399 2078.03 583.399ZM2078.03 580.775C2078.73 580.775 2079.3 580.487 2079.72 579.911C2080.15 579.313 2080.36 578.417 2080.36 577.223C2080.36 576.028 2080.15 575.143 2079.72 574.567C2079.3 573.969 2078.73 573.671 2078.03 573.671C2077.34 573.671 2076.78 573.969 2076.33 574.567C2075.9 575.143 2075.69 576.028 2075.69 577.223C2075.69 578.396 2075.9 579.281 2076.33 579.879C2076.78 580.476 2077.34 580.775 2078.03 580.775ZM2093.23 593.959C2092.16 593.959 2091.2 593.713 2090.35 593.223C2089.51 592.711 2088.86 591.996 2088.39 591.079C2087.92 590.14 2087.69 589.041 2087.69 587.783C2087.69 586.524 2087.92 585.436 2088.39 584.519C2088.86 583.601 2089.51 582.887 2090.35 582.375C2091.2 581.863 2092.16 581.607 2093.23 581.607C2094.34 581.607 2095.31 581.863 2096.14 582.375C2096.97 582.887 2097.62 583.601 2098.09 584.519C2098.56 585.436 2098.79 586.524 2098.79 587.783C2098.79 589.041 2098.56 590.14 2098.09 591.079C2097.62 591.996 2096.97 592.711 2096.14 593.223C2095.31 593.713 2094.34 593.959 2093.23 593.959ZM2093.23 591.335C2093.93 591.335 2094.5 591.047 2094.92 590.471C2095.35 589.873 2095.56 588.977 2095.56 587.783C2095.56 586.609 2095.35 585.724 2094.92 585.127C2094.5 584.529 2093.93 584.231 2093.23 584.231C2092.54 584.231 2091.98 584.529 2091.53 585.127C2091.1 585.703 2090.89 586.588 2090.89 587.783C2090.89 588.977 2091.1 589.873 2091.53 590.471C2091.98 591.047 2092.54 591.335 2093.23 591.335Z" fill="url(#paint1_linear_49_26)"/>
<path d="M2109.92 622.608L2101.5 613.076H2118.34L2109.92 622.608Z" fill="white"/>
<g filter="url(#filter1_f_49_26)">
<path d="M3107.04 328.518C3107.04 338.433 3098.33 346.992 3086.92 346.992C3075.51 346.992 3066.8 338.433 3066.8 328.518C3066.8 318.602 3075.51 310.043 3086.92 310.043C3098.33 310.043 3107.04 318.602 3107.04 328.518Z" stroke="#605DEC" stroke-width="9"/>
</g>
<path d="M3108.54 328.518C3108.54 339.357 3099.06 348.492 3086.92 348.492C3074.78 348.492 3065.3 339.357 3065.3 328.518C3065.3 317.678 3074.78 308.543 3086.92 308.543C3099.06 308.543 3108.54 317.678 3108.54 328.518Z" stroke="white" stroke-width="6"/>
<path d="M2972.77 391.611V388.923H2990.02V391.611H2972.77ZM2972.77 387.195V384.507H2990.02V387.195H2972.77ZM2988.01 399.643C2986.26 399.643 2984.63 399.366 2983.14 398.811C2981.67 398.235 2980.39 397.425 2979.3 396.379C2978.21 395.334 2977.37 394.107 2976.77 392.699C2976.18 391.291 2975.88 389.745 2975.88 388.059C2975.88 386.374 2976.18 384.827 2976.77 383.419C2977.37 382.011 2978.21 380.785 2979.3 379.739C2980.39 378.694 2981.67 377.894 2983.14 377.339C2984.63 376.763 2986.26 376.475 2988.01 376.475C2989.95 376.475 2991.71 376.817 2993.29 377.499C2994.86 378.161 2996.18 379.142 2997.22 380.443L2993.93 383.515C2993.16 382.641 2992.3 381.99 2991.37 381.563C2990.43 381.115 2989.39 380.891 2988.26 380.891C2987.22 380.891 2986.26 381.062 2985.38 381.403C2984.51 381.745 2983.75 382.235 2983.11 382.875C2982.47 383.515 2981.97 384.273 2981.61 385.147C2981.26 386.022 2981.09 386.993 2981.09 388.059C2981.09 389.126 2981.26 390.097 2981.61 390.971C2981.97 391.846 2982.47 392.603 2983.11 393.243C2983.75 393.883 2984.51 394.374 2985.38 394.715C2986.26 395.057 2987.22 395.227 2988.26 395.227C2989.39 395.227 2990.43 395.014 2991.37 394.587C2992.3 394.139 2993.16 393.467 2993.93 392.571L2997.22 395.643C2996.18 396.945 2994.86 397.937 2993.29 398.619C2991.71 399.302 2989.95 399.643 2988.01 399.643ZM2999.03 399.259V395.899L3007.67 387.739C3008.35 387.121 3008.85 386.566 3009.17 386.075C3009.49 385.585 3009.7 385.137 3009.81 384.731C3009.94 384.326 3010 383.953 3010 383.611C3010 382.715 3009.69 382.033 3009.07 381.563C3008.48 381.073 3007.59 380.827 3006.42 380.827C3005.48 380.827 3004.6 381.009 3003.79 381.371C3003 381.734 3002.33 382.299 3001.78 383.067L2998 380.635C2998.85 379.355 3000.05 378.342 3001.59 377.595C3003.12 376.849 3004.89 376.475 3006.9 376.475C3008.56 376.475 3010.01 376.753 3011.25 377.307C3012.51 377.841 3013.48 378.598 3014.16 379.579C3014.87 380.561 3015.22 381.734 3015.22 383.099C3015.22 383.825 3015.12 384.55 3014.93 385.275C3014.76 385.979 3014.4 386.726 3013.84 387.515C3013.31 388.305 3012.52 389.19 3011.47 390.171L3004.31 396.923L3003.31 395.035H3015.95V399.259H2999.03ZM3027.69 399.643C3025.86 399.643 3024.22 399.195 3022.76 398.299C3021.31 397.382 3020.17 396.059 3019.34 394.331C3018.51 392.603 3018.09 390.513 3018.09 388.059C3018.09 385.606 3018.51 383.515 3019.34 381.787C3020.17 380.059 3021.31 378.747 3022.76 377.851C3024.22 376.934 3025.86 376.475 3027.69 376.475C3029.55 376.475 3031.19 376.934 3032.62 377.851C3034.07 378.747 3035.21 380.059 3036.04 381.787C3036.88 383.515 3037.29 385.606 3037.29 388.059C3037.29 390.513 3036.88 392.603 3036.04 394.331C3035.21 396.059 3034.07 397.382 3032.62 398.299C3031.19 399.195 3029.55 399.643 3027.69 399.643ZM3027.69 395.259C3028.57 395.259 3029.32 395.014 3029.96 394.523C3030.63 394.033 3031.14 393.254 3031.5 392.187C3031.88 391.121 3032.08 389.745 3032.08 388.059C3032.08 386.374 3031.88 384.998 3031.5 383.931C3031.14 382.865 3030.63 382.086 3029.96 381.595C3029.32 381.105 3028.57 380.859 3027.69 380.859C3026.84 380.859 3026.08 381.105 3025.42 381.595C3024.78 382.086 3024.27 382.865 3023.88 383.931C3023.52 384.998 3023.34 386.374 3023.34 388.059C3023.34 389.745 3023.52 391.121 3023.88 392.187C3024.27 393.254 3024.78 394.033 3025.42 394.523C3026.08 395.014 3026.84 395.259 3027.69 395.259ZM3039.6 404.187L3041.71 396.507L3042.41 399.387C3041.5 399.387 3040.74 399.121 3040.14 398.587C3039.56 398.054 3039.28 397.318 3039.28 396.379C3039.28 395.441 3039.58 394.694 3040.17 394.139C3040.77 393.585 3041.51 393.307 3042.38 393.307C3043.28 393.307 3044.01 393.595 3044.59 394.171C3045.16 394.726 3045.45 395.462 3045.45 396.379C3045.45 396.657 3045.43 396.934 3045.39 397.211C3045.35 397.467 3045.26 397.787 3045.13 398.171C3045.03 398.534 3044.84 399.003 3044.59 399.579L3042.76 404.187H3039.6ZM3056.97 399.643C3055.14 399.643 3053.5 399.195 3052.05 398.299C3050.6 397.382 3049.45 396.059 3048.62 394.331C3047.79 392.603 3047.37 390.513 3047.37 388.059C3047.37 385.606 3047.79 383.515 3048.62 381.787C3049.45 380.059 3050.6 378.747 3052.05 377.851C3053.5 376.934 3055.14 376.475 3056.97 376.475C3058.83 376.475 3060.47 376.934 3061.9 377.851C3063.35 378.747 3064.49 380.059 3065.33 381.787C3066.16 383.515 3066.57 385.606 3066.57 388.059C3066.57 390.513 3066.16 392.603 3065.33 394.331C3064.49 396.059 3063.35 397.382 3061.9 398.299C3060.47 399.195 3058.83 399.643 3056.97 399.643ZM3056.97 395.259C3057.85 395.259 3058.61 395.014 3059.25 394.523C3059.91 394.033 3060.42 393.254 3060.78 392.187C3061.17 391.121 3061.36 389.745 3061.36 388.059C3061.36 386.374 3061.17 384.998 3060.78 383.931C3060.42 382.865 3059.91 382.086 3059.25 381.595C3058.61 381.105 3057.85 380.859 3056.97 380.859C3056.12 380.859 3055.36 381.105 3054.7 381.595C3054.06 382.086 3053.55 382.865 3053.17 383.931C3052.8 384.998 3052.62 386.374 3052.62 388.059C3052.62 389.745 3052.8 391.121 3053.17 392.187C3053.55 393.254 3054.06 394.033 3054.7 394.523C3055.36 395.014 3056.12 395.259 3056.97 395.259ZM3078.69 399.643C3076.86 399.643 3075.22 399.195 3073.76 398.299C3072.31 397.382 3071.17 396.059 3070.34 394.331C3069.51 392.603 3069.09 390.513 3069.09 388.059C3069.09 385.606 3069.51 383.515 3070.34 381.787C3071.17 380.059 3072.31 378.747 3073.76 377.851C3075.22 376.934 3076.86 376.475 3078.69 376.475C3080.55 376.475 3082.19 376.934 3083.62 377.851C3085.07 378.747 3086.21 380.059 3087.04 381.787C3087.88 383.515 3088.29 385.606 3088.29 388.059C3088.29 390.513 3087.88 392.603 3087.04 394.331C3086.21 396.059 3085.07 397.382 3083.62 398.299C3082.19 399.195 3080.55 399.643 3078.69 399.643ZM3078.69 395.259C3079.57 395.259 3080.32 395.014 3080.96 394.523C3081.63 394.033 3082.14 393.254 3082.5 392.187C3082.88 391.121 3083.08 389.745 3083.08 388.059C3083.08 386.374 3082.88 384.998 3082.5 383.931C3082.14 382.865 3081.63 382.086 3080.96 381.595C3080.32 381.105 3079.57 380.859 3078.69 380.859C3077.84 380.859 3077.08 381.105 3076.42 381.595C3075.78 382.086 3075.27 382.865 3074.88 383.931C3074.52 384.998 3074.34 386.374 3074.34 388.059C3074.34 389.745 3074.52 391.121 3074.88 392.187C3075.27 393.254 3075.78 394.033 3076.42 394.523C3077.08 395.014 3077.84 395.259 3078.69 395.259ZM3100.41 399.643C3098.58 399.643 3096.93 399.195 3095.48 398.299C3094.03 397.382 3092.89 396.059 3092.06 394.331C3091.23 392.603 3090.81 390.513 3090.81 388.059C3090.81 385.606 3091.23 383.515 3092.06 381.787C3092.89 380.059 3094.03 378.747 3095.48 377.851C3096.93 376.934 3098.58 376.475 3100.41 376.475C3102.27 376.475 3103.91 376.934 3105.34 377.851C3106.79 378.747 3107.93 380.059 3108.76 381.787C3109.6 383.515 3110.01 385.606 3110.01 388.059C3110.01 390.513 3109.6 392.603 3108.76 394.331C3107.93 396.059 3106.79 397.382 3105.34 398.299C3103.91 399.195 3102.27 399.643 3100.41 399.643ZM3100.41 395.259C3101.29 395.259 3102.04 395.014 3102.68 394.523C3103.34 394.033 3103.86 393.254 3104.22 392.187C3104.6 391.121 3104.8 389.745 3104.8 388.059C3104.8 386.374 3104.6 384.998 3104.22 383.931C3103.86 382.865 3103.34 382.086 3102.68 381.595C3102.04 381.105 3101.29 380.859 3100.41 380.859C3099.56 380.859 3098.8 381.105 3098.14 381.595C3097.5 382.086 3096.99 382.865 3096.6 383.931C3096.24 384.998 3096.06 386.374 3096.06 388.059C3096.06 389.745 3096.24 391.121 3096.6 392.187C3096.99 393.254 3097.5 394.033 3098.14 394.523C3098.8 395.014 3099.56 395.259 3100.41 395.259ZM3127.86 395.451V380.667H3131.99V395.451H3127.86ZM3122.33 390.011V386.107H3137.56V390.011H3122.33Z" fill="white"/>
<path d="M2948 216C2948 210.477 2952.48 206 2958 206H3035.25H3109.87C3115.39 206 3119.87 210.477 3119.87 216V263.972C3119.87 269.495 3115.39 273.972 3109.87 273.972H2958C2952.48 273.972 2948 269.495 2948 263.972V216Z" fill="white"/>
<path d="M2997.65 243.085V239.597L3008.21 225.389H3013.65L3003.32 239.597L3000.79 238.861H3018.42V243.085H2997.65ZM3009.72 247.789V243.085L3009.88 238.861V234.669H3014.77V247.789H3009.72ZM3029.57 248.173C3027.74 248.173 3026.09 247.725 3024.64 246.829C3023.19 245.912 3022.05 244.589 3021.22 242.861C3020.39 241.133 3019.97 239.042 3019.97 236.589C3019.97 234.136 3020.39 232.045 3021.22 230.317C3022.05 228.589 3023.19 227.277 3024.64 226.381C3026.09 225.464 3027.74 225.005 3029.57 225.005C3031.43 225.005 3033.07 225.464 3034.5 226.381C3035.95 227.277 3037.09 228.589 3037.92 230.317C3038.76 232.045 3039.17 234.136 3039.17 236.589C3039.17 239.042 3038.76 241.133 3037.92 242.861C3037.09 244.589 3035.95 245.912 3034.5 246.829C3033.07 247.725 3031.43 248.173 3029.57 248.173ZM3029.57 243.789C3030.45 243.789 3031.2 243.544 3031.84 243.053C3032.51 242.562 3033.02 241.784 3033.38 240.717C3033.76 239.65 3033.96 238.274 3033.96 236.589C3033.96 234.904 3033.76 233.528 3033.38 232.461C3033.02 231.394 3032.51 230.616 3031.84 230.125C3031.2 229.634 3030.45 229.389 3029.57 229.389C3028.72 229.389 3027.96 229.634 3027.3 230.125C3026.66 230.616 3026.15 231.394 3025.76 232.461C3025.4 233.528 3025.22 234.904 3025.22 236.589C3025.22 238.274 3025.4 239.65 3025.76 240.717C3026.15 241.784 3026.66 242.562 3027.3 243.053C3027.96 243.544 3028.72 243.789 3029.57 243.789ZM3044.92 247.789L3060.22 225.389H3064.03L3048.73 247.789H3044.92ZM3046.87 237.485C3045.79 237.485 3044.83 237.24 3043.99 236.749C3043.16 236.237 3042.5 235.522 3042.01 234.605C3041.54 233.666 3041.31 232.568 3041.31 231.309C3041.31 230.05 3041.54 228.962 3042.01 228.045C3042.5 227.128 3043.16 226.413 3043.99 225.901C3044.83 225.389 3045.79 225.133 3046.87 225.133C3047.96 225.133 3048.92 225.389 3049.75 225.901C3050.59 226.413 3051.24 227.128 3051.71 228.045C3052.18 228.962 3052.41 230.05 3052.41 231.309C3052.41 232.568 3052.18 233.666 3051.71 234.605C3051.24 235.522 3050.59 236.237 3049.75 236.749C3048.92 237.24 3047.96 237.485 3046.87 237.485ZM3046.87 234.861C3047.58 234.861 3048.14 234.573 3048.57 233.997C3049 233.4 3049.21 232.504 3049.21 231.309C3049.21 230.114 3049 229.229 3048.57 228.653C3048.14 228.056 3047.58 227.757 3046.87 227.757C3046.19 227.757 3045.63 228.056 3045.18 228.653C3044.75 229.229 3044.54 230.114 3044.54 231.309C3044.54 232.482 3044.75 233.368 3045.18 233.965C3045.63 234.562 3046.19 234.861 3046.87 234.861ZM3062.07 248.045C3061.01 248.045 3060.05 247.8 3059.19 247.309C3058.36 246.797 3057.71 246.082 3057.24 245.165C3056.77 244.226 3056.54 243.128 3056.54 241.869C3056.54 240.61 3056.77 239.522 3057.24 238.605C3057.71 237.688 3058.36 236.973 3059.19 236.461C3060.05 235.949 3061.01 235.693 3062.07 235.693C3063.18 235.693 3064.15 235.949 3064.99 236.461C3065.82 236.973 3066.47 237.688 3066.94 238.605C3067.41 239.522 3067.64 240.61 3067.64 241.869C3067.64 243.128 3067.41 244.226 3066.94 245.165C3066.47 246.082 3065.82 246.797 3064.99 247.309C3064.15 247.8 3063.18 248.045 3062.07 248.045ZM3062.07 245.421C3062.78 245.421 3063.34 245.133 3063.77 244.557C3064.2 243.96 3064.41 243.064 3064.41 241.869C3064.41 240.696 3064.2 239.81 3063.77 239.213C3063.34 238.616 3062.78 238.317 3062.07 238.317C3061.39 238.317 3060.83 238.616 3060.38 239.213C3059.95 239.789 3059.74 240.674 3059.74 241.869C3059.74 243.064 3059.95 243.96 3060.38 244.557C3060.83 245.133 3061.39 245.421 3062.07 245.421Z" fill="url(#paint2_linear_49_26)"/>
<path d="M3087.8 289.132L3077.9 278.055H3097.7L3087.8 289.132Z" fill="white"/>
<g filter="url(#filter2_f_49_26)">
<path d="M2800.34 456.951C2800.34 466.582 2791.83 474.944 2780.62 474.944C2769.42 474.944 2760.91 466.582 2760.91 456.951C2760.91 447.32 2769.42 438.957 2780.62 438.957C2791.83 438.957 2800.34 447.32 2800.34 456.951Z" stroke="#605DEC" stroke-width="9"/>
</g>
<path d="M2801.84 456.951C2801.84 467.512 2792.55 476.444 2780.62 476.444C2768.7 476.444 2759.41 467.512 2759.41 456.951C2759.41 446.389 2768.7 437.457 2780.62 437.457C2792.55 437.457 2801.84 446.389 2801.84 456.951Z" stroke="white" stroke-width="6"/>
<path d="M2621.96 519.293V516.605H2639.21V519.293H2621.96ZM2621.96 514.877V512.189H2639.21V514.877H2621.96ZM2637.19 527.325C2635.44 527.325 2633.82 527.048 2632.33 526.493C2630.86 525.917 2629.58 525.107 2628.49 524.061C2627.4 523.016 2626.56 521.789 2625.96 520.381C2625.36 518.973 2625.06 517.427 2625.06 515.741C2625.06 514.056 2625.36 512.509 2625.96 511.101C2626.56 509.693 2627.4 508.467 2628.49 507.421C2629.58 506.376 2630.86 505.576 2632.33 505.021C2633.82 504.445 2635.44 504.157 2637.19 504.157C2639.13 504.157 2640.89 504.499 2642.47 505.181C2644.05 505.843 2645.36 506.824 2646.41 508.125L2643.11 511.197C2642.34 510.323 2641.49 509.672 2640.55 509.245C2639.61 508.797 2638.58 508.573 2637.45 508.573C2636.4 508.573 2635.44 508.744 2634.57 509.085C2633.69 509.427 2632.94 509.917 2632.3 510.557C2631.66 511.197 2631.15 511.955 2630.79 512.829C2630.45 513.704 2630.28 514.675 2630.28 515.741C2630.28 516.808 2630.45 517.779 2630.79 518.653C2631.15 519.528 2631.66 520.285 2632.3 520.925C2632.94 521.565 2633.69 522.056 2634.57 522.397C2635.44 522.739 2636.4 522.909 2637.45 522.909C2638.58 522.909 2639.61 522.696 2640.55 522.269C2641.49 521.821 2642.34 521.149 2643.11 520.253L2646.41 523.325C2645.36 524.627 2644.05 525.619 2642.47 526.301C2640.89 526.984 2639.13 527.325 2637.19 527.325ZM2652.27 526.941V506.461L2654.51 508.701H2647.79V504.541H2657.45V526.941H2652.27ZM2670.94 527.325C2669.11 527.325 2667.46 526.877 2666.01 525.981C2664.56 525.064 2663.42 523.741 2662.59 522.013C2661.76 520.285 2661.34 518.195 2661.34 515.741C2661.34 513.288 2661.76 511.197 2662.59 509.469C2663.42 507.741 2664.56 506.429 2666.01 505.533C2667.46 504.616 2669.11 504.157 2670.94 504.157C2672.8 504.157 2674.44 504.616 2675.87 505.533C2677.32 506.429 2678.46 507.741 2679.29 509.469C2680.13 511.197 2680.54 513.288 2680.54 515.741C2680.54 518.195 2680.13 520.285 2679.29 522.013C2678.46 523.741 2677.32 525.064 2675.87 525.981C2674.44 526.877 2672.8 527.325 2670.94 527.325ZM2670.94 522.941C2671.82 522.941 2672.57 522.696 2673.21 522.205C2673.88 521.715 2674.39 520.936 2674.75 519.869C2675.13 518.803 2675.33 517.427 2675.33 515.741C2675.33 514.056 2675.13 512.68 2674.75 511.613C2674.39 510.547 2673.88 509.768 2673.21 509.277C2672.57 508.787 2671.82 508.541 2670.94 508.541C2670.09 508.541 2669.33 508.787 2668.67 509.277C2668.03 509.768 2667.52 510.547 2667.13 511.613C2666.77 512.68 2666.59 514.056 2666.59 515.741C2666.59 517.427 2666.77 518.803 2667.13 519.869C2667.52 520.936 2668.03 521.715 2668.67 522.205C2669.33 522.696 2670.09 522.941 2670.94 522.941ZM2682.85 531.869L2684.96 524.189L2685.66 527.069C2684.74 527.069 2683.99 526.803 2683.39 526.269C2682.81 525.736 2682.53 525 2682.53 524.061C2682.53 523.123 2682.82 522.376 2683.42 521.821C2684.02 521.267 2684.76 520.989 2685.63 520.989C2686.53 520.989 2687.26 521.277 2687.84 521.853C2688.41 522.408 2688.7 523.144 2688.7 524.061C2688.7 524.339 2688.68 524.616 2688.64 524.893C2688.6 525.149 2688.51 525.469 2688.38 525.853C2688.28 526.216 2688.09 526.685 2687.84 527.261L2686.01 531.869H2682.85ZM2700.22 527.325C2698.39 527.325 2696.75 526.877 2695.3 525.981C2693.84 525.064 2692.7 523.741 2691.87 522.013C2691.04 520.285 2690.62 518.195 2690.62 515.741C2690.62 513.288 2691.04 511.197 2691.87 509.469C2692.7 507.741 2693.84 506.429 2695.3 505.533C2696.75 504.616 2698.39 504.157 2700.22 504.157C2702.08 504.157 2703.72 504.616 2705.15 505.533C2706.6 506.429 2707.74 507.741 2708.58 509.469C2709.41 511.197 2709.82 513.288 2709.82 515.741C2709.82 518.195 2709.41 520.285 2708.58 522.013C2707.74 523.741 2706.6 525.064 2705.15 525.981C2703.72 526.877 2702.08 527.325 2700.22 527.325ZM2700.22 522.941C2701.1 522.941 2701.86 522.696 2702.5 522.205C2703.16 521.715 2703.67 520.936 2704.03 519.869C2704.42 518.803 2704.61 517.427 2704.61 515.741C2704.61 514.056 2704.42 512.68 2704.03 511.613C2703.67 510.547 2703.16 509.768 2702.5 509.277C2701.86 508.787 2701.1 508.541 2700.22 508.541C2699.37 508.541 2698.61 508.787 2697.95 509.277C2697.31 509.768 2696.8 510.547 2696.42 511.613C2696.05 512.68 2695.87 514.056 2695.87 515.741C2695.87 517.427 2696.05 518.803 2696.42 519.869C2696.8 520.936 2697.31 521.715 2697.95 522.205C2698.61 522.696 2699.37 522.941 2700.22 522.941ZM2721.94 527.325C2720.11 527.325 2718.46 526.877 2717.01 525.981C2715.56 525.064 2714.42 523.741 2713.59 522.013C2712.76 520.285 2712.34 518.195 2712.34 515.741C2712.34 513.288 2712.76 511.197 2713.59 509.469C2714.42 507.741 2715.56 506.429 2717.01 505.533C2718.46 504.616 2720.11 504.157 2721.94 504.157C2723.8 504.157 2725.44 504.616 2726.87 505.533C2728.32 506.429 2729.46 507.741 2730.29 509.469C2731.13 511.197 2731.54 513.288 2731.54 515.741C2731.54 518.195 2731.13 520.285 2730.29 522.013C2729.46 523.741 2728.32 525.064 2726.87 525.981C2725.44 526.877 2723.8 527.325 2721.94 527.325ZM2721.94 522.941C2722.82 522.941 2723.57 522.696 2724.21 522.205C2724.88 521.715 2725.39 520.936 2725.75 519.869C2726.13 518.803 2726.33 517.427 2726.33 515.741C2726.33 514.056 2726.13 512.68 2725.75 511.613C2725.39 510.547 2724.88 509.768 2724.21 509.277C2723.57 508.787 2722.82 508.541 2721.94 508.541C2721.09 508.541 2720.33 508.787 2719.67 509.277C2719.03 509.768 2718.52 510.547 2718.13 511.613C2717.77 512.68 2717.59 514.056 2717.59 515.741C2717.59 517.427 2717.77 518.803 2718.13 519.869C2718.52 520.936 2719.03 521.715 2719.67 522.205C2720.33 522.696 2721.09 522.941 2721.94 522.941ZM2743.66 527.325C2741.83 527.325 2740.18 526.877 2738.73 525.981C2737.28 525.064 2736.14 523.741 2735.31 522.013C2734.48 520.285 2734.06 518.195 2734.06 515.741C2734.06 513.288 2734.48 511.197 2735.31 509.469C2736.14 507.741 2737.28 506.429 2738.73 505.533C2740.18 504.616 2741.83 504.157 2743.66 504.157C2745.52 504.157 2747.16 504.616 2748.59 505.533C2750.04 506.429 2751.18 507.741 2752.01 509.469C2752.84 511.197 2753.26 513.288 2753.26 515.741C2753.26 518.195 2752.84 520.285 2752.01 522.013C2751.18 523.741 2750.04 525.064 2748.59 525.981C2747.16 526.877 2745.52 527.325 2743.66 527.325ZM2743.66 522.941C2744.54 522.941 2745.29 522.696 2745.93 522.205C2746.59 521.715 2747.11 520.936 2747.47 519.869C2747.85 518.803 2748.04 517.427 2748.04 515.741C2748.04 514.056 2747.85 512.68 2747.47 511.613C2747.11 510.547 2746.59 509.768 2745.93 509.277C2745.29 508.787 2744.54 508.541 2743.66 508.541C2742.81 508.541 2742.05 508.787 2741.39 509.277C2740.75 509.768 2740.24 510.547 2739.85 511.613C2739.49 512.68 2739.31 514.056 2739.31 515.741C2739.31 517.427 2739.49 518.803 2739.85 519.869C2740.24 520.936 2740.75 521.715 2741.39 522.205C2742.05 522.696 2742.81 522.941 2743.66 522.941ZM2772.94 527.197C2770.91 527.197 2769.33 526.685 2768.2 525.661C2767.07 524.616 2766.51 523.069 2766.51 521.021V505.917H2771.5V520.957C2771.5 521.683 2771.69 522.248 2772.07 522.653C2772.46 523.037 2772.98 523.229 2773.64 523.229C2774.43 523.229 2775.1 523.016 2775.66 522.589L2777 526.109C2776.49 526.472 2775.87 526.749 2775.15 526.941C2774.44 527.112 2773.71 527.197 2772.94 527.197ZM2763.85 513.949V510.109H2775.79V513.949H2763.85ZM2787.46 527.197C2785.63 527.197 2784 526.813 2782.57 526.045C2781.16 525.277 2780.04 524.232 2779.21 522.909C2778.4 521.565 2777.99 520.04 2777.99 518.333C2777.99 516.605 2778.4 515.08 2779.21 513.757C2780.04 512.413 2781.16 511.368 2782.57 510.621C2784 509.853 2785.63 509.469 2787.46 509.469C2789.28 509.469 2790.9 509.853 2792.33 510.621C2793.76 511.368 2794.88 512.403 2795.69 513.725C2796.5 515.048 2796.9 516.584 2796.9 518.333C2796.9 520.04 2796.5 521.565 2795.69 522.909C2794.88 524.232 2793.76 525.277 2792.33 526.045C2790.9 526.813 2789.28 527.197 2787.46 527.197ZM2787.46 523.101C2788.3 523.101 2789.04 522.909 2789.7 522.525C2790.37 522.141 2790.89 521.597 2791.27 520.893C2791.66 520.168 2791.85 519.315 2791.85 518.333C2791.85 517.331 2791.66 516.477 2791.27 515.773C2790.89 515.069 2790.37 514.525 2789.7 514.141C2789.04 513.757 2788.3 513.565 2787.46 513.565C2786.63 513.565 2785.89 513.757 2785.22 514.141C2784.56 514.525 2784.03 515.069 2783.62 515.773C2783.24 516.477 2783.05 517.331 2783.05 518.333C2783.05 519.315 2783.24 520.168 2783.62 520.893C2784.03 521.597 2784.56 522.141 2785.22 522.525C2785.89 522.909 2786.63 523.101 2787.46 523.101ZM2807.96 519.293V516.605H2825.21V519.293H2807.96ZM2807.96 514.877V512.189H2825.21V514.877H2807.96ZM2823.19 527.325C2821.44 527.325 2819.82 527.048 2818.33 526.493C2816.86 525.917 2815.58 525.107 2814.49 524.061C2813.4 523.016 2812.56 521.789 2811.96 520.381C2811.36 518.973 2811.06 517.427 2811.06 515.741C2811.06 514.056 2811.36 512.509 2811.96 511.101C2812.56 509.693 2813.4 508.467 2814.49 507.421C2815.58 506.376 2816.86 505.576 2818.33 505.021C2819.82 504.445 2821.44 504.157 2823.19 504.157C2825.13 504.157 2826.89 504.499 2828.47 505.181C2830.05 505.843 2831.36 506.824 2832.41 508.125L2829.11 511.197C2828.34 510.323 2827.49 509.672 2826.55 509.245C2825.61 508.797 2824.58 508.573 2823.45 508.573C2822.4 508.573 2821.44 508.744 2820.57 509.085C2819.69 509.427 2818.94 509.917 2818.3 510.557C2817.66 511.197 2817.15 511.955 2816.79 512.829C2816.45 513.704 2816.28 514.675 2816.28 515.741C2816.28 516.808 2816.45 517.779 2816.79 518.653C2817.15 519.528 2817.66 520.285 2818.3 520.925C2818.94 521.565 2819.69 522.056 2820.57 522.397C2821.44 522.739 2822.4 522.909 2823.45 522.909C2824.58 522.909 2825.61 522.696 2826.55 522.269C2827.49 521.821 2828.34 521.149 2829.11 520.253L2832.41 523.325C2831.36 524.627 2830.05 525.619 2828.47 526.301C2826.89 526.984 2825.13 527.325 2823.19 527.325ZM2834.21 526.941V523.581L2842.85 515.421C2843.53 514.803 2844.04 514.248 2844.36 513.757C2844.68 513.267 2844.89 512.819 2845 512.413C2845.12 512.008 2845.19 511.635 2845.19 511.293C2845.19 510.397 2844.88 509.715 2844.26 509.245C2843.66 508.755 2842.78 508.509 2841.6 508.509C2840.67 508.509 2839.79 508.691 2838.98 509.053C2838.19 509.416 2837.52 509.981 2836.96 510.749L2833.19 508.317C2834.04 507.037 2835.24 506.024 2836.77 505.277C2838.31 504.531 2840.08 504.157 2842.08 504.157C2843.75 504.157 2845.2 504.435 2846.44 504.989C2847.69 505.523 2848.67 506.28 2849.35 507.261C2850.05 508.243 2850.4 509.416 2850.4 510.781C2850.4 511.507 2850.31 512.232 2850.12 512.957C2849.95 513.661 2849.58 514.408 2849.03 515.197C2848.49 515.987 2847.71 516.872 2846.66 517.853L2839.49 524.605L2838.5 522.717H2851.14V526.941H2834.21ZM2862.88 527.325C2861.04 527.325 2859.4 526.877 2857.95 525.981C2856.5 525.064 2855.36 523.741 2854.53 522.013C2853.7 520.285 2853.28 518.195 2853.28 515.741C2853.28 513.288 2853.7 511.197 2854.53 509.469C2855.36 507.741 2856.5 506.429 2857.95 505.533C2859.4 504.616 2861.04 504.157 2862.88 504.157C2864.74 504.157 2866.38 504.616 2867.81 505.533C2869.26 506.429 2870.4 507.741 2871.23 509.469C2872.06 511.197 2872.48 513.288 2872.48 515.741C2872.48 518.195 2872.06 520.285 2871.23 522.013C2870.4 523.741 2869.26 525.064 2867.81 525.981C2866.38 526.877 2864.74 527.325 2862.88 527.325ZM2862.88 522.941C2863.75 522.941 2864.51 522.696 2865.15 522.205C2865.81 521.715 2866.32 520.936 2866.69 519.869C2867.07 518.803 2867.26 517.427 2867.26 515.741C2867.26 514.056 2867.07 512.68 2866.69 511.613C2866.32 510.547 2865.81 509.768 2865.15 509.277C2864.51 508.787 2863.75 508.541 2862.88 508.541C2862.03 508.541 2861.27 508.787 2860.61 509.277C2859.97 509.768 2859.46 510.547 2859.07 511.613C2858.71 512.68 2858.53 514.056 2858.53 515.741C2858.53 517.427 2858.71 518.803 2859.07 519.869C2859.46 520.936 2859.97 521.715 2860.61 522.205C2861.27 522.696 2862.03 522.941 2862.88 522.941ZM2874.78 531.869L2876.9 524.189L2877.6 527.069C2876.68 527.069 2875.93 526.803 2875.33 526.269C2874.75 525.736 2874.46 525 2874.46 524.061C2874.46 523.123 2874.76 522.376 2875.36 521.821C2875.96 521.267 2876.69 520.989 2877.57 520.989C2878.46 520.989 2879.2 521.277 2879.78 521.853C2880.35 522.408 2880.64 523.144 2880.64 524.061C2880.64 524.339 2880.62 524.616 2880.58 524.893C2880.53 525.149 2880.45 525.469 2880.32 525.853C2880.21 526.216 2880.03 526.685 2879.78 527.261L2877.95 531.869H2874.78ZM2892.16 527.325C2890.33 527.325 2888.68 526.877 2887.23 525.981C2885.78 525.064 2884.64 523.741 2883.81 522.013C2882.98 520.285 2882.56 518.195 2882.56 515.741C2882.56 513.288 2882.98 511.197 2883.81 509.469C2884.64 507.741 2885.78 506.429 2887.23 505.533C2888.68 504.616 2890.33 504.157 2892.16 504.157C2894.02 504.157 2895.66 504.616 2897.09 505.533C2898.54 506.429 2899.68 507.741 2900.51 509.469C2901.34 511.197 2901.76 513.288 2901.76 515.741C2901.76 518.195 2901.34 520.285 2900.51 522.013C2899.68 523.741 2898.54 525.064 2897.09 525.981C2895.66 526.877 2894.02 527.325 2892.16 527.325ZM2892.16 522.941C2893.04 522.941 2893.79 522.696 2894.43 522.205C2895.09 521.715 2895.61 520.936 2895.97 519.869C2896.35 518.803 2896.54 517.427 2896.54 515.741C2896.54 514.056 2896.35 512.68 2895.97 511.613C2895.61 510.547 2895.09 509.768 2894.43 509.277C2893.79 508.787 2893.04 508.541 2892.16 508.541C2891.31 508.541 2890.55 508.787 2889.89 509.277C2889.25 509.768 2888.74 510.547 2888.35 511.613C2887.99 512.68 2887.81 514.056 2887.81 515.741C2887.81 517.427 2887.99 518.803 2888.35 519.869C2888.74 520.936 2889.25 521.715 2889.89 522.205C2890.55 522.696 2891.31 522.941 2892.16 522.941ZM2913.88 527.325C2912.04 527.325 2910.4 526.877 2908.95 525.981C2907.5 525.064 2906.36 523.741 2905.53 522.013C2904.7 520.285 2904.28 518.195 2904.28 515.741C2904.28 513.288 2904.7 511.197 2905.53 509.469C2906.36 507.741 2907.5 506.429 2908.95 505.533C2910.4 504.616 2912.04 504.157 2913.88 504.157C2915.74 504.157 2917.38 504.616 2918.81 505.533C2920.26 506.429 2921.4 507.741 2922.23 509.469C2923.06 511.197 2923.48 513.288 2923.48 515.741C2923.48 518.195 2923.06 520.285 2922.23 522.013C2921.4 523.741 2920.26 525.064 2918.81 525.981C2917.38 526.877 2915.74 527.325 2913.88 527.325ZM2913.88 522.941C2914.75 522.941 2915.51 522.696 2916.15 522.205C2916.81 521.715 2917.32 520.936 2917.69 519.869C2918.07 518.803 2918.26 517.427 2918.26 515.741C2918.26 514.056 2918.07 512.68 2917.69 511.613C2917.32 510.547 2916.81 509.768 2916.15 509.277C2915.51 508.787 2914.75 508.541 2913.88 508.541C2913.03 508.541 2912.27 508.787 2911.61 509.277C2910.97 509.768 2910.46 510.547 2910.07 511.613C2909.71 512.68 2909.53 514.056 2909.53 515.741C2909.53 517.427 2909.71 518.803 2910.07 519.869C2910.46 520.936 2910.97 521.715 2911.61 522.205C2912.27 522.696 2913.03 522.941 2913.88 522.941ZM2935.6 527.325C2933.76 527.325 2932.12 526.877 2930.67 525.981C2929.22 525.064 2928.08 523.741 2927.25 522.013C2926.41 520.285 2926 518.195 2926 515.741C2926 513.288 2926.41 511.197 2927.25 509.469C2928.08 507.741 2929.22 506.429 2930.67 505.533C2932.12 504.616 2933.76 504.157 2935.6 504.157C2937.45 504.157 2939.1 504.616 2940.53 505.533C2941.98 506.429 2943.12 507.741 2943.95 509.469C2944.78 511.197 2945.2 513.288 2945.2 515.741C2945.2 518.195 2944.78 520.285 2943.95 522.013C2943.12 523.741 2941.98 525.064 2940.53 525.981C2939.1 526.877 2937.45 527.325 2935.6 527.325ZM2935.6 522.941C2936.47 522.941 2937.23 522.696 2937.87 522.205C2938.53 521.715 2939.04 520.936 2939.41 519.869C2939.79 518.803 2939.98 517.427 2939.98 515.741C2939.98 514.056 2939.79 512.68 2939.41 511.613C2939.04 510.547 2938.53 509.768 2937.87 509.277C2937.23 508.787 2936.47 508.541 2935.6 508.541C2934.74 508.541 2933.99 508.787 2933.33 509.277C2932.69 509.768 2932.17 510.547 2931.79 511.613C2931.43 512.68 2931.25 514.056 2931.25 515.741C2931.25 517.427 2931.43 518.803 2931.79 519.869C2932.17 520.936 2932.69 521.715 2933.33 522.205C2933.99 522.696 2934.74 522.941 2935.6 522.941Z" fill="white"/>
<path d="M2643.99 347C2643.99 341.477 2648.47 337 2653.99 337H2729.81H2803.03C2808.56 337 2813.03 341.477 2813.03 347V393.548C2813.03 399.071 2808.56 403.548 2803.03 403.548H2653.99C2648.47 403.548 2643.99 399.071 2643.99 393.548V347Z" fill="white"/>
<path d="M2700.37 378.947C2698.81 378.947 2697.26 378.745 2695.73 378.339C2694.19 377.913 2692.89 377.315 2691.82 376.547L2693.84 372.579C2694.69 373.198 2695.68 373.689 2696.81 374.051C2697.95 374.414 2699.09 374.595 2700.24 374.595C2701.54 374.595 2702.56 374.339 2703.31 373.827C2704.06 373.315 2704.43 372.611 2704.43 371.715C2704.43 370.862 2704.1 370.19 2703.44 369.699C2702.78 369.209 2701.71 368.963 2700.24 368.963H2697.87V365.539L2704.11 358.467L2704.69 360.323H2692.94V356.163H2708.62V359.523L2702.41 366.595L2699.79 365.091H2701.29C2704.05 365.091 2706.13 365.71 2707.53 366.947C2708.94 368.185 2709.65 369.774 2709.65 371.715C2709.65 372.974 2709.32 374.158 2708.65 375.267C2707.99 376.355 2706.98 377.241 2705.61 377.923C2704.25 378.606 2702.5 378.947 2700.37 378.947ZM2719.34 378.947C2717.79 378.947 2716.24 378.745 2714.7 378.339C2713.19 377.913 2711.89 377.315 2710.8 376.547L2712.85 372.579C2713.7 373.198 2714.68 373.689 2715.79 374.051C2716.92 374.414 2718.06 374.595 2719.22 374.595C2720.52 374.595 2721.54 374.339 2722.29 373.827C2723.03 373.315 2723.41 372.601 2723.41 371.683C2723.41 371.107 2723.26 370.595 2722.96 370.147C2722.66 369.699 2722.13 369.358 2721.36 369.123C2720.61 368.889 2719.56 368.771 2718.19 368.771H2712.46L2713.62 356.163H2727.28V360.323H2715.47L2718.16 357.955L2717.36 366.947L2714.67 364.579H2719.41C2721.63 364.579 2723.41 364.889 2724.75 365.507C2726.12 366.105 2727.11 366.926 2727.73 367.971C2728.35 369.017 2728.66 370.201 2728.66 371.523C2728.66 372.846 2728.33 374.073 2727.66 375.203C2727 376.313 2725.98 377.219 2724.59 377.923C2723.23 378.606 2721.48 378.947 2719.34 378.947ZM2733.68 378.563L2748.97 356.163H2752.78L2737.49 378.563H2733.68ZM2735.63 368.259C2734.54 368.259 2733.58 368.014 2732.75 367.523C2731.92 367.011 2731.26 366.297 2730.77 365.379C2730.3 364.441 2730.06 363.342 2730.06 362.083C2730.06 360.825 2730.3 359.737 2730.77 358.819C2731.26 357.902 2731.92 357.187 2732.75 356.675C2733.58 356.163 2734.54 355.907 2735.63 355.907C2736.72 355.907 2737.68 356.163 2738.51 356.675C2739.34 357.187 2739.99 357.902 2740.46 358.819C2740.93 359.737 2741.17 360.825 2741.17 362.083C2741.17 363.342 2740.93 364.441 2740.46 365.379C2739.99 366.297 2739.34 367.011 2738.51 367.523C2737.68 368.014 2736.72 368.259 2735.63 368.259ZM2735.63 365.635C2736.33 365.635 2736.9 365.347 2737.33 364.771C2737.75 364.174 2737.97 363.278 2737.97 362.083C2737.97 360.889 2737.75 360.003 2737.33 359.427C2736.9 358.83 2736.33 358.531 2735.63 358.531C2734.95 358.531 2734.38 358.83 2733.93 359.427C2733.51 360.003 2733.29 360.889 2733.29 362.083C2733.29 363.257 2733.51 364.142 2733.93 364.739C2734.38 365.337 2734.95 365.635 2735.63 365.635ZM2750.83 378.819C2749.76 378.819 2748.8 378.574 2747.95 378.083C2747.12 377.571 2746.47 376.857 2746 375.939C2745.53 375.001 2745.29 373.902 2745.29 372.643C2745.29 371.385 2745.53 370.297 2746 369.379C2746.47 368.462 2747.12 367.747 2747.95 367.235C2748.8 366.723 2749.76 366.467 2750.83 366.467C2751.94 366.467 2752.91 366.723 2753.74 367.235C2754.57 367.747 2755.23 368.462 2755.69 369.379C2756.16 370.297 2756.4 371.385 2756.4 372.643C2756.4 373.902 2756.16 375.001 2755.69 375.939C2755.23 376.857 2754.57 377.571 2753.74 378.083C2752.91 378.574 2751.94 378.819 2750.83 378.819ZM2750.83 376.195C2751.53 376.195 2752.1 375.907 2752.53 375.331C2752.95 374.734 2753.17 373.838 2753.17 372.643C2753.17 371.47 2752.95 370.585 2752.53 369.987C2752.1 369.39 2751.53 369.091 2750.83 369.091C2750.15 369.091 2749.58 369.39 2749.13 369.987C2748.71 370.563 2748.49 371.449 2748.49 372.643C2748.49 373.838 2748.71 374.734 2749.13 375.331C2749.58 375.907 2750.15 376.195 2750.83 376.195Z" fill="url(#paint3_linear_49_26)"/>
<path d="M2781.49 418.39L2771.75 407.545H2791.23L2781.49 418.39Z" fill="white"/>
<path d="M2013.96 0.620438L2013.96 765M2036.84 0.620438L2036.84 765M2059.72 0.620438L2059.72 765M2082.6 0.620438L2082.6 765M2105.48 0.620438L2105.48 765M2128.36 0.620438L2128.36 765M2151.24 0.620438L2151.24 765M2174.13 0.620438L2174.13 765M2197.01 0.620438L2197.01 765M2219.89 0.620438L2219.89 765M2242.77 0.620438V765M2265.65 0.620438V765M2288.53 0.620438V765M2311.41 0.620438V765M2334.29 0.620438V765M2357.18 0.620438V765M2380.06 0.620438V765M2402.94 0.620438V765M2425.82 0.620438V765M2448.7 0.620438L2448.7 765M2471.58 0.620438L2471.58 765M2494.46 0.620438L2494.46 765M2517.34 0.620438L2517.34 765M2013.55 764.38L2516.94 764.38M2013.55 729.635L2516.94 729.635M2013.55 694.89L2516.94 694.891M2013.55 660.146L2516.94 660.146M2013.55 625.401L2516.94 625.402M2013.55 590.657L2516.94 590.657M2013.55 555.912L2516.94 555.912M2013.55 521.168L2516.94 521.168M2013.55 486.423L2516.94 486.423M2013.55 451.679L2516.94 451.679M2013.55 416.934L2516.94 416.934M2013.55 382.19L2516.94 382.19M2013.55 347.445L2516.94 347.445M2013.55 312.701L2516.94 312.701M2013.55 277.956L2516.94 277.956M2013.55 243.212L2516.94 243.212M2013.55 208.467L2516.94 208.467M2013.55 173.723L2516.94 173.723M2013.55 138.978L2516.94 138.978M2013.55 104.234L2516.94 104.234M2013.55 69.4891L2516.94 69.4891M2013.55 34.7445L2516.94 34.7446M2013.55 0L2516.94 5.14551e-05" stroke="url(#paint4_linear_49_26)" stroke-opacity="0.1"/>
<path d="M503.796 0.620438L503.796 765M526.677 0.620438L526.677 765M549.558 0.620438L549.558 765M572.44 0.620438L572.439 765M595.321 0.620438L595.321 765M618.202 0.620438L618.202 765M641.083 0.620438L641.083 765M663.964 0.620438L663.964 765M686.846 0.620438L686.846 765M709.727 0.620438L709.727 765M732.608 0.620438V765M755.489 0.620438V765M778.371 0.620438V765M801.252 0.620438V765M824.133 0.620438V765M847.014 0.620438V765M869.896 0.620438V765M892.777 0.620438V765M915.658 0.620438V765M938.539 0.620438L938.539 765M961.42 0.620438L961.42 765M984.302 0.620438L984.302 765M1007.18 0.620438L1007.18 765M503.387 764.38L1006.77 764.38M503.387 729.635L1006.77 729.635M503.387 694.891L1006.77 694.891M503.387 660.146L1006.77 660.146M503.387 625.401L1006.77 625.402M503.387 590.657L1006.77 590.657M503.387 555.912L1006.77 555.913M503.387 521.168L1006.77 521.168M503.387 486.423L1006.77 486.423M503.387 451.679L1006.77 451.679M503.387 416.934L1006.77 416.934M503.387 382.19L1006.77 382.19M503.387 347.445L1006.77 347.445M503.387 312.701L1006.77 312.701M503.387 277.956L1006.77 277.956M503.387 243.212L1006.77 243.212M503.387 208.467L1006.77 208.467M503.387 173.723L1006.77 173.723M503.387 138.978L1006.77 138.978M503.387 104.234L1006.77 104.234M503.387 69.4891L1006.77 69.4891M503.387 34.7445L1006.77 34.7446M503.387 0L1006.77 5.14551e-05" stroke="url(#paint5_linear_49_26)" stroke-opacity="0.1"/>
<path d="M0.408615 0.620438L0.408593 765M23.2898 0.620438L23.2898 765M46.1711 0.620438L46.1711 765M69.0523 0.620438L69.0523 765M91.9335 0.620438L91.9335 765M114.815 0.620438L114.815 765M137.696 0.620438L137.696 765M160.577 0.620438L160.577 765M183.458 0.620438L183.458 765M206.34 0.620438L206.34 765M229.221 0.620438V765M252.102 0.620438V765M274.983 0.620438V765M297.865 0.620438V765M320.746 0.620438V765M343.627 0.620438V765M366.508 0.620438V765M389.39 0.620438V765M412.271 0.620438V765M435.152 0.620438L435.152 765M458.033 0.620438L458.033 765M480.915 0.620438L480.914 765M503.796 0.620438L503.796 765M0 764.38L503.387 764.38M0 729.635L503.387 729.635M0 694.891L503.387 694.891M0 660.146L503.387 660.146M0 625.401L503.387 625.402M0 590.657L503.387 590.657M0 555.912L503.387 555.913M0 521.168L503.387 521.168M0 486.423L503.387 486.423M0 451.679L503.387 451.679M0 416.934L503.387 416.934M0 382.19L503.387 382.19M0 347.445L503.387 347.445M0 312.701L503.387 312.701M0 277.956L503.387 277.956M0 243.212L503.387 243.212M0 208.467L503.387 208.467M0 173.723L503.387 173.723M0 138.978L503.387 138.978M0 104.234L503.387 104.234M0 69.4891L503.387 69.4891M0 34.7445L503.387 34.7446M0 0L503.387 5.14551e-05" stroke="url(#paint6_linear_49_26)" stroke-opacity="0.1"/>
<path d="M1007.18 0.620438L1007.18 765M1030.06 0.620438L1030.06 765M1052.95 0.620438L1052.95 765M1075.83 0.620438L1075.83 765M1098.71 0.620438L1098.71 765M1121.59 0.620438L1121.59 765M1144.47 0.620438L1144.47 765M1167.35 0.620438L1167.35 765M1190.23 0.620438L1190.23 765M1213.11 0.620438L1213.11 765M1236 0.620438V765M1258.88 0.620438V765M1281.76 0.620438V765M1304.64 0.620438V765M1327.52 0.620438V765M1350.4 0.620438V765M1373.28 0.620438V765M1396.16 0.620438V765M1419.05 0.620438V765M1441.93 0.620438L1441.93 765M1464.81 0.620438L1464.81 765M1487.69 0.620438L1487.69 765M1510.57 0.620438L1510.57 765M1006.77 764.38L1510.16 764.38M1006.77 729.635L1510.16 729.635M1006.77 694.891L1510.16 694.891M1006.77 660.146L1510.16 660.146M1006.77 625.401L1510.16 625.402M1006.77 590.657L1510.16 590.657M1006.77 555.912L1510.16 555.913M1006.77 521.168L1510.16 521.168M1006.77 486.423L1510.16 486.423M1006.77 451.679L1510.16 451.679M1006.77 416.934L1510.16 416.934M1006.77 382.19L1510.16 382.19M1006.77 347.445L1510.16 347.445M1006.77 312.701L1510.16 312.701M1006.77 277.956L1510.16 277.956M1006.77 243.212L1510.16 243.212M1006.77 208.467L1510.16 208.467M1006.77 173.723L1510.16 173.723M1006.77 138.978L1510.16 138.978M1006.77 104.234L1510.16 104.234M1006.77 69.4891L1510.16 69.4891M1006.77 34.7445L1510.16 34.7446M1006.77 0L1510.16 5.14551e-05" stroke="url(#paint7_linear_49_26)" stroke-opacity="0.1"/>
<path d="M1510.57 0.620438L1510.57 765M1533.45 0.620438L1533.45 765M1556.33 0.620438L1556.33 765M1579.21 0.620438L1579.21 765M1602.09 0.620438L1602.09 765M1624.98 0.620438L1624.98 765M1647.86 0.620438L1647.86 765M1670.74 0.620438L1670.74 765M1693.62 0.620438L1693.62 765M1716.5 0.620438L1716.5 765M1739.38 0.620438V765M1762.26 0.620438V765M1785.14 0.620438V765M1808.03 0.620438V765M1830.91 0.620438V765M1853.79 0.620438V765M1876.67 0.620438V765M1899.55 0.620438V765M1922.43 0.620438V765M1945.31 0.620438L1945.31 765M1968.19 0.620438L1968.19 765M1991.08 0.620438L1991.08 765M2013.96 0.620438L2013.96 765M1510.16 764.38L2013.55 764.38M1510.16 729.635L2013.55 729.635M1510.16 694.891L2013.55 694.891M1510.16 660.146L2013.55 660.146M1510.16 625.401L2013.55 625.402M1510.16 590.657L2013.55 590.657M1510.16 555.912L2013.55 555.913M1510.16 521.168L2013.55 521.168M1510.16 486.423L2013.55 486.423M1510.16 451.679L2013.55 451.679M1510.16 416.934L2013.55 416.934M1510.16 382.19L2013.55 382.19M1510.16 347.445L2013.55 347.445M1510.16 312.701L2013.55 312.701M1510.16 277.956L2013.55 277.956M1510.16 243.212L2013.55 243.212M1510.16 208.467L2013.55 208.467M1510.16 173.723L2013.55 173.723M1510.16 138.978L2013.55 138.978M1510.16 104.234L2013.55 104.234M1510.16 69.4891L2013.55 69.4891M1510.16 34.7445L2013.55 34.7446M1510.16 0L2013.55 5.14551e-05" stroke="url(#paint8_linear_49_26)" stroke-opacity="0.1"/>
<path d="M4531.3 0.620438L4531.3 765M4554.18 0.620438L4554.18 765M4577.06 0.620438L4577.06 765M4599.95 0.620438L4599.95 765M4622.83 0.620438L4622.83 765M4645.71 0.620438L4645.71 765M4668.59 0.620438L4668.59 765M4691.47 0.620438L4691.47 765M4714.35 0.620438L4714.35 765M4737.23 0.620438L4737.23 765M4760.11 0.620438V765M4782.99 0.620438V765M4805.88 0.620438V765M4828.76 0.620438V765M4851.64 0.620438V765M4874.52 0.620438V765M4897.4 0.620438V765M4920.28 0.620438V765M4943.16 0.620438V765M4966.04 0.620438L4966.04 765M4988.93 0.620438L4988.93 765M5011.81 0.620438L5011.81 765M5034.69 0.620438L5034.69 765M4530.89 764.38L5034.28 764.38M4530.89 729.635L5034.28 729.635M4530.89 694.891L5034.28 694.891M4530.89 660.146L5034.28 660.146M4530.89 625.401L5034.28 625.402M4530.89 590.657L5034.28 590.657M4530.89 555.912L5034.28 555.913M4530.89 521.168L5034.28 521.168M4530.89 486.423L5034.28 486.423M4530.89 451.679L5034.28 451.679M4530.89 416.934L5034.28 416.934M4530.89 382.19L5034.28 382.19M4530.89 347.445L5034.28 347.445M4530.89 312.701L5034.28 312.701M4530.89 277.956L5034.28 277.956M4530.89 243.212L5034.28 243.212M4530.89 208.467L5034.28 208.467M4530.89 173.723L5034.28 173.723M4530.89 138.978L5034.28 138.978M4530.89 104.234L5034.28 104.234M4530.89 69.4891L5034.28 69.4891M4530.89 34.7445L5034.28 34.7446M4530.89 0L5034.28 5.14551e-05" stroke="url(#paint9_linear_49_26)" stroke-opacity="0.1"/>
<path d="M3021.14 0.620438L3021.14 765M3044.02 0.620438L3044.02 765M3066.9 0.620438L3066.9 765M3089.78 0.620438L3089.78 765M3112.66 0.620438L3112.66 765M3135.55 0.620438L3135.55 765M3158.43 0.620438L3158.43 765M3181.31 0.620438L3181.31 765M3204.19 0.620438L3204.19 765M3227.07 0.620438L3227.07 765M3249.95 0.620438V765M3272.83 0.620438V765M3295.71 0.620438V765M3318.6 0.620438V765M3341.48 0.620438V765M3364.36 0.620438V765M3387.24 0.620438V765M3410.12 0.620438V765M3433 0.620438V765M3455.88 0.620438L3455.88 765M3478.76 0.620438L3478.76 765M3501.65 0.620438L3501.65 765M3524.53 0.620438L3524.53 765M3020.73 764.38L3524.12 764.38M3020.73 729.635L3524.12 729.635M3020.73 694.891L3524.12 694.891M3020.73 660.146L3524.12 660.146M3020.73 625.401L3524.12 625.402M3020.73 590.657L3524.12 590.657M3020.73 555.912L3524.12 555.913M3020.73 521.168L3524.12 521.168M3020.73 486.423L3524.12 486.423M3020.73 451.679L3524.12 451.679M3020.73 416.934L3524.12 416.934M3020.73 382.19L3524.12 382.19M3020.73 347.445L3524.12 347.445M3020.73 312.701L3524.12 312.701M3020.73 277.956L3524.12 277.956M3020.73 243.212L3524.12 243.212M3020.73 208.467L3524.12 208.467M3020.73 173.723L3524.12 173.723M3020.73 138.978L3524.12 138.978M3020.73 104.234L3524.12 104.234M3020.73 69.4891L3524.12 69.4891M3020.73 34.7445L3524.12 34.7446M3020.73 0L3524.12 5.14551e-05" stroke="url(#paint10_linear_49_26)" stroke-opacity="0.1"/>
<path d="M2517.75 0.620438L2517.75 765M2540.63 0.620438L2540.63 765M2563.52 0.620438L2563.52 765M2586.4 0.620438L2586.4 765M2609.28 0.620438L2609.28 765M2632.16 0.620438L2632.16 765M2655.04 0.620438L2655.04 765M2677.92 0.620438L2677.92 765M2700.8 0.620438L2700.8 765M2723.68 0.620438L2723.68 765M2746.57 0.620438V765M2769.45 0.620438V765M2792.33 0.620438V765M2815.21 0.620438V765M2838.09 0.620438V765M2860.97 0.620438V765M2883.85 0.620438V765M2906.73 0.620438V765M2929.61 0.620438V765M2952.5 0.620438L2952.5 765M2975.38 0.620438L2975.38 765M2998.26 0.620438L2998.26 765M3021.14 0.620438L3021.14 765M2517.34 764.38L3020.73 764.38M2517.34 729.635L3020.73 729.635M2517.34 694.891L3020.73 694.891M2517.34 660.146L3020.73 660.146M2517.34 625.401L3020.73 625.402M2517.34 590.657L3020.73 590.657M2517.34 555.912L3020.73 555.912M2517.34 521.168L3020.73 521.168M2517.34 486.423L3020.73 486.423M2517.34 451.679L3020.73 451.679M2517.34 416.934L3020.73 416.934M2517.34 382.19L3020.73 382.19M2517.34 347.445L3020.73 347.445M2517.34 312.701L3020.73 312.701M2517.34 277.956L3020.73 277.956M2517.34 243.212L3020.73 243.212M2517.34 208.467L3020.73 208.467M2517.34 173.723L3020.73 173.723M2517.34 138.978L3020.73 138.978M2517.34 104.234L3020.73 104.234M2517.34 69.4891L3020.73 69.4891M2517.34 34.7445L3020.73 34.7446M2517.34 0L3020.73 5.14551e-05" stroke="url(#paint11_linear_49_26)" stroke-opacity="0.1"/>
<path d="M3524.53 0.620438L3524.53 765M3547.41 0.620438L3547.41 765M3570.29 0.620438L3570.29 765M3593.17 0.620438L3593.17 765M3616.05 0.620438L3616.05 765M3638.93 0.620438L3638.93 765M3661.81 0.620438L3661.81 765M3684.7 0.620438L3684.7 765M3707.58 0.620438L3707.58 765M3730.46 0.620438L3730.46 765M3753.34 0.620438V765M3776.22 0.620438V765M3799.1 0.620438V765M3821.98 0.620438V765M3844.86 0.620438V765M3867.75 0.620438V765M3890.63 0.620438V765M3913.51 0.620438V765M3936.39 0.620438V765M3959.27 0.620438L3959.27 765M3982.15 0.620438L3982.15 765M4005.03 0.620438L4005.03 765M4027.91 0.620438L4027.91 765M3524.12 764.38L4027.51 764.38M3524.12 729.635L4027.51 729.635M3524.12 694.891L4027.51 694.891M3524.12 660.146L4027.51 660.146M3524.12 625.401L4027.51 625.402M3524.12 590.657L4027.51 590.657M3524.12 555.912L4027.51 555.913M3524.12 521.168L4027.51 521.168M3524.12 486.423L4027.51 486.423M3524.12 451.679L4027.51 451.679M3524.12 416.934L4027.51 416.934M3524.12 382.19L4027.51 382.19M3524.12 347.445L4027.51 347.445M3524.12 312.701L4027.51 312.701M3524.12 277.956L4027.51 277.956M3524.12 243.212L4027.51 243.212M3524.12 208.467L4027.51 208.467M3524.12 173.723L4027.51 173.723M3524.12 138.978L4027.51 138.978M3524.12 104.234L4027.51 104.234M3524.12 69.4891L4027.51 69.4891M3524.12 34.7445L4027.51 34.7446M3524.12 0L4027.51 5.14551e-05" stroke="url(#paint12_linear_49_26)" stroke-opacity="0.1"/>
<path d="M4027.91 0.620438L4027.91 765M4050.8 0.620438L4050.8 765M4073.68 0.620438L4073.68 765M4096.56 0.620438L4096.56 765M4119.44 0.620438L4119.44 765M4142.32 0.620438L4142.32 765M4165.2 0.620438L4165.2 765M4188.08 0.620438L4188.08 765M4210.96 0.620438L4210.96 765M4233.85 0.620438L4233.85 765M4256.73 0.620438V765M4279.61 0.620438V765M4302.49 0.620438V765M4325.37 0.620438V765M4348.25 0.620438V765M4371.13 0.620438V765M4394.01 0.620438V765M4416.9 0.620438V765M4439.78 0.620438V765M4462.66 0.620438L4462.66 765M4485.54 0.620438L4485.54 765M4508.42 0.620438L4508.42 765M4531.3 0.620438L4531.3 765M4027.51 764.38L4530.89 764.38M4027.51 729.635L4530.89 729.635M4027.51 694.891L4530.89 694.891M4027.51 660.146L4530.89 660.146M4027.51 625.401L4530.89 625.402M4027.51 590.657L4530.89 590.657M4027.51 555.912L4530.89 555.913M4027.51 521.168L4530.89 521.168M4027.51 486.423L4530.89 486.423M4027.51 451.679L4530.89 451.679M4027.51 416.934L4530.89 416.934M4027.51 382.19L4530.89 382.19M4027.51 347.445L4530.89 347.445M4027.51 312.701L4530.89 312.701M4027.51 277.956L4530.89 277.956M4027.51 243.212L4530.89 243.212M4027.51 208.467L4530.89 208.467M4027.51 173.723L4530.89 173.723M4027.51 138.978L4530.89 138.978M4027.51 104.234L4530.89 104.234M4027.51 69.4891L4530.89 69.4891M4027.51 34.7445L4530.89 34.7446M4027.51 0L4530.89 5.14551e-05" stroke="url(#paint13_linear_49_26)" stroke-opacity="0.1"/>
<g filter="url(#filter3_f_49_26)">
<path d="M2450.46 573C2450.46 581.671 2442.48 589.5 2431.59 589.5C2420.7 589.5 2412.71 581.671 2412.71 573C2412.71 564.329 2420.7 556.5 2431.59 556.5C2442.48 556.5 2450.46 564.329 2450.46 573Z" stroke="#605DEC" stroke-width="9"/>
</g>
<path d="M2451.96 573C2451.96 582.647 2443.15 591 2431.59 591C2420.03 591 2411.21 582.647 2411.21 573C2411.21 563.353 2420.03 555 2431.59 555C2443.15 555 2451.96 563.353 2451.96 573Z" stroke="white" stroke-width="6"/>
<path d="M2288.96 632.368V629.68H2306.21V632.368H2288.96ZM2288.96 627.952V625.264H2306.21V627.952H2288.96ZM2304.19 640.4C2302.44 640.4 2300.82 640.122 2299.33 639.568C2297.86 638.992 2296.58 638.181 2295.49 637.136C2294.4 636.09 2293.56 634.864 2292.96 633.456C2292.36 632.048 2292.06 630.501 2292.06 628.816C2292.06 627.13 2292.36 625.584 2292.96 624.176C2293.56 622.768 2294.4 621.541 2295.49 620.496C2296.58 619.45 2297.86 618.65 2299.33 618.096C2300.82 617.52 2302.44 617.232 2304.19 617.232C2306.13 617.232 2307.89 617.573 2309.47 618.256C2311.05 618.917 2312.36 619.898 2313.41 621.2L2310.11 624.272C2309.34 623.397 2308.49 622.746 2307.55 622.32C2306.61 621.872 2305.58 621.648 2304.45 621.648C2303.4 621.648 2302.44 621.818 2301.57 622.16C2300.69 622.501 2299.94 622.992 2299.3 623.632C2298.66 624.272 2298.15 625.029 2297.79 625.904C2297.45 626.778 2297.28 627.749 2297.28 628.816C2297.28 629.882 2297.45 630.853 2297.79 631.728C2298.15 632.602 2298.66 633.36 2299.3 634C2299.94 634.64 2300.69 635.13 2301.57 635.472C2302.44 635.813 2303.4 635.984 2304.45 635.984C2305.58 635.984 2306.61 635.77 2307.55 635.344C2308.49 634.896 2309.34 634.224 2310.11 633.328L2313.41 636.4C2312.36 637.701 2311.05 638.693 2309.47 639.376C2307.89 640.058 2306.13 640.4 2304.19 640.4ZM2322.8 640.4C2321.24 640.4 2319.7 640.197 2318.16 639.792C2316.65 639.365 2315.35 638.768 2314.26 638L2316.31 634.032C2317.16 634.65 2318.14 635.141 2319.25 635.504C2320.38 635.866 2321.52 636.048 2322.67 636.048C2323.97 636.048 2325 635.792 2325.75 635.28C2326.49 634.768 2326.87 634.053 2326.87 633.136C2326.87 632.56 2326.72 632.048 2326.42 631.6C2326.12 631.152 2325.59 630.81 2324.82 630.576C2324.07 630.341 2323.01 630.224 2321.65 630.224H2315.92L2317.07 617.616H2330.74V621.776H2318.93L2321.62 619.408L2320.82 628.4L2318.13 626.032H2322.87C2325.08 626.032 2326.87 626.341 2328.21 626.96C2329.57 627.557 2330.57 628.378 2331.19 629.424C2331.8 630.469 2332.11 631.653 2332.11 632.976C2332.11 634.298 2331.78 635.525 2331.12 636.656C2330.46 637.765 2329.44 638.672 2328.05 639.376C2326.68 640.058 2324.93 640.4 2322.8 640.4ZM2334.41 644.944L2336.52 637.264L2337.22 640.144C2336.31 640.144 2335.55 639.877 2334.95 639.344C2334.38 638.81 2334.09 638.074 2334.09 637.136C2334.09 636.197 2334.39 635.45 2334.98 634.896C2335.58 634.341 2336.32 634.064 2337.19 634.064C2338.09 634.064 2338.82 634.352 2339.4 634.928C2339.98 635.482 2340.26 636.218 2340.26 637.136C2340.26 637.413 2340.24 637.69 2340.2 637.968C2340.16 638.224 2340.07 638.544 2339.94 638.928C2339.84 639.29 2339.66 639.76 2339.4 640.336L2337.58 644.944H2334.41ZM2351.79 640.4C2349.95 640.4 2348.31 639.952 2346.86 639.056C2345.41 638.138 2344.27 636.816 2343.43 635.088C2342.6 633.36 2342.19 631.269 2342.19 628.816C2342.19 626.362 2342.6 624.272 2343.43 622.544C2344.27 620.816 2345.41 619.504 2346.86 618.608C2348.31 617.69 2349.95 617.232 2351.79 617.232C2353.64 617.232 2355.28 617.69 2356.71 618.608C2358.16 619.504 2359.31 620.816 2360.14 622.544C2360.97 624.272 2361.39 626.362 2361.39 628.816C2361.39 631.269 2360.97 633.36 2360.14 635.088C2359.31 636.816 2358.16 638.138 2356.71 639.056C2355.28 639.952 2353.64 640.4 2351.79 640.4ZM2351.79 636.016C2352.66 636.016 2353.42 635.77 2354.06 635.28C2354.72 634.789 2355.23 634.01 2355.59 632.944C2355.98 631.877 2356.17 630.501 2356.17 628.816C2356.17 627.13 2355.98 625.754 2355.59 624.688C2355.23 623.621 2354.72 622.842 2354.06 622.352C2353.42 621.861 2352.66 621.616 2351.79 621.616C2350.93 621.616 2350.17 621.861 2349.51 622.352C2348.87 622.842 2348.36 623.621 2347.98 624.688C2347.61 625.754 2347.43 627.13 2347.43 628.816C2347.43 630.501 2347.61 631.877 2347.98 632.944C2348.36 634.01 2348.87 634.789 2349.51 635.28C2350.17 635.77 2350.93 636.016 2351.79 636.016ZM2373.5 640.4C2371.67 640.4 2370.03 639.952 2368.58 639.056C2367.13 638.138 2365.98 636.816 2365.15 635.088C2364.32 633.36 2363.9 631.269 2363.9 628.816C2363.9 626.362 2364.32 624.272 2365.15 622.544C2365.98 620.816 2367.13 619.504 2368.58 618.608C2370.03 617.69 2371.67 617.232 2373.5 617.232C2375.36 617.232 2377 617.69 2378.43 618.608C2379.88 619.504 2381.02 620.816 2381.86 622.544C2382.69 624.272 2383.1 626.362 2383.1 628.816C2383.1 631.269 2382.69 633.36 2381.86 635.088C2381.02 636.816 2379.88 638.138 2378.43 639.056C2377 639.952 2375.36 640.4 2373.5 640.4ZM2373.5 636.016C2374.38 636.016 2375.14 635.77 2375.78 635.28C2376.44 634.789 2376.95 634.01 2377.31 632.944C2377.7 631.877 2377.89 630.501 2377.89 628.816C2377.89 627.13 2377.7 625.754 2377.31 624.688C2376.95 623.621 2376.44 622.842 2375.78 622.352C2375.14 621.861 2374.38 621.616 2373.5 621.616C2372.65 621.616 2371.89 621.861 2371.23 622.352C2370.59 622.842 2370.08 623.621 2369.7 624.688C2369.33 625.754 2369.15 627.13 2369.15 628.816C2369.15 630.501 2369.33 631.877 2369.7 632.944C2370.08 634.01 2370.59 634.789 2371.23 635.28C2371.89 635.77 2372.65 636.016 2373.5 636.016ZM2395.22 640.4C2393.39 640.4 2391.75 639.952 2390.3 639.056C2388.84 638.138 2387.7 636.816 2386.87 635.088C2386.04 633.36 2385.62 631.269 2385.62 628.816C2385.62 626.362 2386.04 624.272 2386.87 622.544C2387.7 620.816 2388.84 619.504 2390.3 618.608C2391.75 617.69 2393.39 617.232 2395.22 617.232C2397.08 617.232 2398.72 617.69 2400.15 618.608C2401.6 619.504 2402.74 620.816 2403.58 622.544C2404.41 624.272 2404.82 626.362 2404.82 628.816C2404.82 631.269 2404.41 633.36 2403.58 635.088C2402.74 636.816 2401.6 638.138 2400.15 639.056C2398.72 639.952 2397.08 640.4 2395.22 640.4ZM2395.22 636.016C2396.1 636.016 2396.86 635.77 2397.5 635.28C2398.16 634.789 2398.67 634.01 2399.03 632.944C2399.42 631.877 2399.61 630.501 2399.61 628.816C2399.61 627.13 2399.42 625.754 2399.03 624.688C2398.67 623.621 2398.16 622.842 2397.5 622.352C2396.86 621.861 2396.1 621.616 2395.22 621.616C2394.37 621.616 2393.61 621.861 2392.95 622.352C2392.31 622.842 2391.8 623.621 2391.42 624.688C2391.05 625.754 2390.87 627.13 2390.87 628.816C2390.87 630.501 2391.05 631.877 2391.42 632.944C2391.8 634.01 2392.31 634.789 2392.95 635.28C2393.61 635.77 2394.37 636.016 2395.22 636.016ZM2424.5 640.272C2422.47 640.272 2420.89 639.76 2419.76 638.736C2418.63 637.69 2418.07 636.144 2418.07 634.096V618.992H2423.06V634.032C2423.06 634.757 2423.25 635.322 2423.64 635.728C2424.02 636.112 2424.54 636.304 2425.2 636.304C2425.99 636.304 2426.67 636.09 2427.22 635.664L2428.56 639.184C2428.05 639.546 2427.43 639.824 2426.71 640.016C2426 640.186 2425.27 640.272 2424.5 640.272ZM2415.41 627.024V623.184H2427.35V627.024H2415.41ZM2439.03 640.272C2437.19 640.272 2435.56 639.888 2434.13 639.12C2432.72 638.352 2431.6 637.306 2430.77 635.984C2429.96 634.64 2429.56 633.114 2429.56 631.408C2429.56 629.68 2429.96 628.154 2430.77 626.832C2431.6 625.488 2432.72 624.442 2434.13 623.696C2435.56 622.928 2437.19 622.544 2439.03 622.544C2440.84 622.544 2442.46 622.928 2443.89 623.696C2445.32 624.442 2446.44 625.477 2447.25 626.8C2448.06 628.122 2448.47 629.658 2448.47 631.408C2448.47 633.114 2448.06 634.64 2447.25 635.984C2446.44 637.306 2445.32 638.352 2443.89 639.12C2442.46 639.888 2440.84 640.272 2439.03 640.272ZM2439.03 636.176C2439.86 636.176 2440.61 635.984 2441.27 635.6C2441.93 635.216 2442.45 634.672 2442.84 633.968C2443.22 633.242 2443.41 632.389 2443.41 631.408C2443.41 630.405 2443.22 629.552 2442.84 628.848C2442.45 628.144 2441.93 627.6 2441.27 627.216C2440.61 626.832 2439.86 626.64 2439.03 626.64C2438.2 626.64 2437.45 626.832 2436.79 627.216C2436.13 627.6 2435.59 628.144 2435.19 628.848C2434.8 629.552 2434.61 630.405 2434.61 631.408C2434.61 632.389 2434.8 633.242 2435.19 633.968C2435.59 634.672 2436.13 635.216 2436.79 635.6C2437.45 635.984 2438.2 636.176 2439.03 636.176ZM2459.52 632.368V629.68H2476.77V632.368H2459.52ZM2459.52 627.952V625.264H2476.77V627.952H2459.52ZM2474.75 640.4C2473.01 640.4 2471.38 640.122 2469.89 639.568C2468.42 638.992 2467.14 638.181 2466.05 637.136C2464.96 636.09 2464.12 634.864 2463.52 633.456C2462.93 632.048 2462.63 630.501 2462.63 628.816C2462.63 627.13 2462.93 625.584 2463.52 624.176C2464.12 622.768 2464.96 621.541 2466.05 620.496C2467.14 619.45 2468.42 618.65 2469.89 618.096C2471.38 617.52 2473.01 617.232 2474.75 617.232C2476.7 617.232 2478.46 617.573 2480.03 618.256C2481.61 618.917 2482.93 619.898 2483.97 621.2L2480.67 624.272C2479.91 623.397 2479.05 622.746 2478.11 622.32C2477.18 621.872 2476.14 621.648 2475.01 621.648C2473.97 621.648 2473.01 621.818 2472.13 622.16C2471.26 622.501 2470.5 622.992 2469.86 623.632C2469.22 624.272 2468.72 625.029 2468.35 625.904C2468.01 626.778 2467.84 627.749 2467.84 628.816C2467.84 629.882 2468.01 630.853 2468.35 631.728C2468.72 632.602 2469.22 633.36 2469.86 634C2470.5 634.64 2471.26 635.13 2472.13 635.472C2473.01 635.813 2473.97 635.984 2475.01 635.984C2476.14 635.984 2477.18 635.77 2478.11 635.344C2479.05 634.896 2479.91 634.224 2480.67 633.328L2483.97 636.4C2482.93 637.701 2481.61 638.693 2480.03 639.376C2478.46 640.058 2476.7 640.4 2474.75 640.4ZM2489.83 640.016V619.536L2492.07 621.776H2485.35V617.616H2495.01V640.016H2489.83ZM2508.5 640.4C2506.67 640.4 2505.03 639.952 2503.58 639.056C2502.13 638.138 2500.98 636.816 2500.15 635.088C2499.32 633.36 2498.9 631.269 2498.9 628.816C2498.9 626.362 2499.32 624.272 2500.15 622.544C2500.98 620.816 2502.13 619.504 2503.58 618.608C2505.03 617.69 2506.67 617.232 2508.5 617.232C2510.36 617.232 2512 617.69 2513.43 618.608C2514.88 619.504 2516.02 620.816 2516.86 622.544C2517.69 624.272 2518.1 626.362 2518.1 628.816C2518.1 631.269 2517.69 633.36 2516.86 635.088C2516.02 636.816 2514.88 638.138 2513.43 639.056C2512 639.952 2510.36 640.4 2508.5 640.4ZM2508.5 636.016C2509.38 636.016 2510.14 635.77 2510.78 635.28C2511.44 634.789 2511.95 634.01 2512.31 632.944C2512.7 631.877 2512.89 630.501 2512.89 628.816C2512.89 627.13 2512.7 625.754 2512.31 624.688C2511.95 623.621 2511.44 622.842 2510.78 622.352C2510.14 621.861 2509.38 621.616 2508.5 621.616C2507.65 621.616 2506.89 621.861 2506.23 622.352C2505.59 622.842 2505.08 623.621 2504.7 624.688C2504.33 625.754 2504.15 627.13 2504.15 628.816C2504.15 630.501 2504.33 631.877 2504.7 632.944C2505.08 634.01 2505.59 634.789 2506.23 635.28C2506.89 635.77 2507.65 636.016 2508.5 636.016ZM2520.41 644.944L2522.52 637.264L2523.22 640.144C2522.31 640.144 2521.55 639.877 2520.95 639.344C2520.38 638.81 2520.09 638.074 2520.09 637.136C2520.09 636.197 2520.39 635.45 2520.98 634.896C2521.58 634.341 2522.32 634.064 2523.19 634.064C2524.09 634.064 2524.82 634.352 2525.4 634.928C2525.98 635.482 2526.26 636.218 2526.26 637.136C2526.26 637.413 2526.24 637.69 2526.2 637.968C2526.16 638.224 2526.07 638.544 2525.94 638.928C2525.84 639.29 2525.66 639.76 2525.4 640.336L2523.58 644.944H2520.41ZM2537.79 640.4C2535.95 640.4 2534.31 639.952 2532.86 639.056C2531.41 638.138 2530.27 636.816 2529.43 635.088C2528.6 633.36 2528.19 631.269 2528.19 628.816C2528.19 626.362 2528.6 624.272 2529.43 622.544C2530.27 620.816 2531.41 619.504 2532.86 618.608C2534.31 617.69 2535.95 617.232 2537.79 617.232C2539.64 617.232 2541.28 617.69 2542.71 618.608C2544.16 619.504 2545.31 620.816 2546.14 622.544C2546.97 624.272 2547.39 626.362 2547.39 628.816C2547.39 631.269 2546.97 633.36 2546.14 635.088C2545.31 636.816 2544.16 638.138 2542.71 639.056C2541.28 639.952 2539.64 640.4 2537.79 640.4ZM2537.79 636.016C2538.66 636.016 2539.42 635.77 2540.06 635.28C2540.72 634.789 2541.23 634.01 2541.59 632.944C2541.98 631.877 2542.17 630.501 2542.17 628.816C2542.17 627.13 2541.98 625.754 2541.59 624.688C2541.23 623.621 2540.72 622.842 2540.06 622.352C2539.42 621.861 2538.66 621.616 2537.79 621.616C2536.93 621.616 2536.17 621.861 2535.51 622.352C2534.87 622.842 2534.36 623.621 2533.98 624.688C2533.61 625.754 2533.43 627.13 2533.43 628.816C2533.43 630.501 2533.61 631.877 2533.98 632.944C2534.36 634.01 2534.87 634.789 2535.51 635.28C2536.17 635.77 2536.93 636.016 2537.79 636.016ZM2559.5 640.4C2557.67 640.4 2556.03 639.952 2554.58 639.056C2553.13 638.138 2551.98 636.816 2551.15 635.088C2550.32 633.36 2549.9 631.269 2549.9 628.816C2549.9 626.362 2550.32 624.272 2551.15 622.544C2551.98 620.816 2553.13 619.504 2554.58 618.608C2556.03 617.69 2557.67 617.232 2559.5 617.232C2561.36 617.232 2563 617.69 2564.43 618.608C2565.88 619.504 2567.02 620.816 2567.86 622.544C2568.69 624.272 2569.1 626.362 2569.1 628.816C2569.1 631.269 2568.69 633.36 2567.86 635.088C2567.02 636.816 2565.88 638.138 2564.43 639.056C2563 639.952 2561.36 640.4 2559.5 640.4ZM2559.5 636.016C2560.38 636.016 2561.14 635.77 2561.78 635.28C2562.44 634.789 2562.95 634.01 2563.31 632.944C2563.7 631.877 2563.89 630.501 2563.89 628.816C2563.89 627.13 2563.7 625.754 2563.31 624.688C2562.95 623.621 2562.44 622.842 2561.78 622.352C2561.14 621.861 2560.38 621.616 2559.5 621.616C2558.65 621.616 2557.89 621.861 2557.23 622.352C2556.59 622.842 2556.08 623.621 2555.7 624.688C2555.33 625.754 2555.15 627.13 2555.15 628.816C2555.15 630.501 2555.33 631.877 2555.7 632.944C2556.08 634.01 2556.59 634.789 2557.23 635.28C2557.89 635.77 2558.65 636.016 2559.5 636.016ZM2581.22 640.4C2579.39 640.4 2577.75 639.952 2576.3 639.056C2574.84 638.138 2573.7 636.816 2572.87 635.088C2572.04 633.36 2571.62 631.269 2571.62 628.816C2571.62 626.362 2572.04 624.272 2572.87 622.544C2573.7 620.816 2574.84 619.504 2576.3 618.608C2577.75 617.69 2579.39 617.232 2581.22 617.232C2583.08 617.232 2584.72 617.69 2586.15 618.608C2587.6 619.504 2588.74 620.816 2589.58 622.544C2590.41 624.272 2590.82 626.362 2590.82 628.816C2590.82 631.269 2590.41 633.36 2589.58 635.088C2588.74 636.816 2587.6 638.138 2586.15 639.056C2584.72 639.952 2583.08 640.4 2581.22 640.4ZM2581.22 636.016C2582.1 636.016 2582.86 635.77 2583.5 635.28C2584.16 634.789 2584.67 634.01 2585.03 632.944C2585.42 631.877 2585.61 630.501 2585.61 628.816C2585.61 627.13 2585.42 625.754 2585.03 624.688C2584.67 623.621 2584.16 622.842 2583.5 622.352C2582.86 621.861 2582.1 621.616 2581.22 621.616C2580.37 621.616 2579.61 621.861 2578.95 622.352C2578.31 622.842 2577.8 623.621 2577.42 624.688C2577.05 625.754 2576.87 627.13 2576.87 628.816C2576.87 630.501 2577.05 631.877 2577.42 632.944C2577.8 634.01 2578.31 634.789 2578.95 635.28C2579.61 635.77 2580.37 636.016 2581.22 636.016Z" fill="white"/>
<rect x="2298.02" y="462" width="163.626" height="61.5" rx="10" fill="white"/>
<path d="M2357.03 508.463C2355.47 508.463 2353.92 508.26 2352.39 507.855C2350.85 507.428 2349.55 506.831 2348.48 506.063L2350.5 502.095C2351.35 502.713 2352.34 503.204 2353.47 503.567C2354.6 503.929 2355.75 504.111 2356.9 504.111C2358.2 504.111 2359.22 503.855 2359.97 503.343C2360.72 502.831 2361.09 502.127 2361.09 501.231C2361.09 500.377 2360.76 499.705 2360.1 499.215C2359.44 498.724 2358.37 498.479 2356.9 498.479H2354.53V495.055L2360.77 487.983L2361.35 489.839H2349.6V485.679H2365.28V489.039L2359.07 496.111L2356.45 494.607H2357.95C2360.71 494.607 2362.79 495.225 2364.19 496.463C2365.6 497.7 2366.31 499.289 2366.31 501.231C2366.31 502.489 2365.97 503.673 2365.31 504.783C2364.65 505.871 2363.64 506.756 2362.27 507.439C2360.91 508.121 2359.16 508.463 2357.03 508.463ZM2378.3 508.463C2376.46 508.463 2374.82 508.015 2373.37 507.119C2371.92 506.201 2370.78 504.879 2369.95 503.151C2369.11 501.423 2368.7 499.332 2368.7 496.879C2368.7 494.425 2369.11 492.335 2369.95 490.607C2370.78 488.879 2371.92 487.567 2373.37 486.671C2374.82 485.753 2376.46 485.295 2378.3 485.295C2380.15 485.295 2381.8 485.753 2383.23 486.671C2384.68 487.567 2385.82 488.879 2386.65 490.607C2387.48 492.335 2387.9 494.425 2387.9 496.879C2387.9 499.332 2387.48 501.423 2386.65 503.151C2385.82 504.879 2384.68 506.201 2383.23 507.119C2381.8 508.015 2380.15 508.463 2378.3 508.463ZM2378.3 504.079C2379.17 504.079 2379.93 503.833 2380.57 503.343C2381.23 502.852 2381.74 502.073 2382.11 501.007C2382.49 499.94 2382.68 498.564 2382.68 496.879C2382.68 495.193 2382.49 493.817 2382.11 492.751C2381.74 491.684 2381.23 490.905 2380.57 490.415C2379.93 489.924 2379.17 489.679 2378.3 489.679C2377.45 489.679 2376.69 489.924 2376.03 490.415C2375.39 490.905 2374.87 491.684 2374.49 492.751C2374.13 493.817 2373.95 495.193 2373.95 496.879C2373.95 498.564 2374.13 499.94 2374.49 501.007C2374.87 502.073 2375.39 502.852 2376.03 503.343C2376.69 503.833 2377.45 504.079 2378.3 504.079ZM2393.65 508.079L2408.95 485.679H2412.75L2397.46 508.079H2393.65ZM2395.6 497.775C2394.51 497.775 2393.55 497.529 2392.72 497.039C2391.89 496.527 2391.23 495.812 2390.74 494.895C2390.27 493.956 2390.03 492.857 2390.03 491.599C2390.03 490.34 2390.27 489.252 2390.74 488.335C2391.23 487.417 2391.89 486.703 2392.72 486.191C2393.55 485.679 2394.51 485.423 2395.6 485.423C2396.69 485.423 2397.65 485.679 2398.48 486.191C2399.31 486.703 2399.96 487.417 2400.43 488.335C2400.9 489.252 2401.14 490.34 2401.14 491.599C2401.14 492.857 2400.9 493.956 2400.43 494.895C2399.96 495.812 2399.31 496.527 2398.48 497.039C2397.65 497.529 2396.69 497.775 2395.6 497.775ZM2395.6 495.151C2396.31 495.151 2396.87 494.863 2397.3 494.287C2397.72 493.689 2397.94 492.793 2397.94 491.599C2397.94 490.404 2397.72 489.519 2397.3 488.943C2396.87 488.345 2396.31 488.047 2395.6 488.047C2394.92 488.047 2394.35 488.345 2393.91 488.943C2393.48 489.519 2393.27 490.404 2393.27 491.599C2393.27 492.772 2393.48 493.657 2393.91 494.255C2394.35 494.852 2394.92 495.151 2395.6 495.151ZM2410.8 508.335C2409.73 508.335 2408.77 508.089 2407.92 507.599C2407.09 507.087 2406.44 506.372 2405.97 505.455C2405.5 504.516 2405.27 503.417 2405.27 502.159C2405.27 500.9 2405.5 499.812 2405.97 498.895C2406.44 497.977 2407.09 497.263 2407.92 496.751C2408.77 496.239 2409.73 495.983 2410.8 495.983C2411.91 495.983 2412.88 496.239 2413.71 496.751C2414.55 497.263 2415.2 497.977 2415.67 498.895C2416.13 499.812 2416.37 500.9 2416.37 502.159C2416.37 503.417 2416.13 504.516 2415.67 505.455C2415.2 506.372 2414.55 507.087 2413.71 507.599C2412.88 508.089 2411.91 508.335 2410.8 508.335ZM2410.8 505.711C2411.51 505.711 2412.07 505.423 2412.5 504.847C2412.92 504.249 2413.14 503.353 2413.14 502.159C2413.14 500.985 2412.92 500.1 2412.5 499.503C2412.07 498.905 2411.51 498.607 2410.8 498.607C2410.12 498.607 2409.55 498.905 2409.11 499.503C2408.68 500.079 2408.47 500.964 2408.47 502.159C2408.47 503.353 2408.68 504.249 2409.11 504.847C2409.55 505.423 2410.12 505.711 2410.8 505.711Z" fill="url(#paint14_linear_49_26)"/>
<path d="M2430.76 537L2421.36 526.875H2440.15L2430.76 537Z" fill="white"/>
</g>
<defs>
<filter id="filter0_f_49_26" x="2085.73" y="632.73" width="49.8843" height="47.5405" filterUnits="userSpaceOnUse" color-interpolation-filters="sRGB">
<feFlood flood-opacity="0" result="BackgroundImageFix"/>
<feBlend mode="normal" in="SourceGraphic" in2="BackgroundImageFix" result="shape"/>
<feGaussianBlur stdDeviation="2" result="effect1_foregroundBlur_49_26"/>
</filter>
<filter id="filter1_f_49_26" x="3058.3" y="301.543" width="57.2368" height="53.9495" filterUnits="userSpaceOnUse" color-interpolation-filters="sRGB">
<feFlood flood-opacity="0" result="BackgroundImageFix"/>
<feBlend mode="normal" in="SourceGraphic" in2="BackgroundImageFix" result="shape"/>
<feGaussianBlur stdDeviation="2" result="effect1_foregroundBlur_49_26"/>
</filter>
<filter id="filter2_f_49_26" x="2752.41" y="430.457" width="56.426" height="52.9871" filterUnits="userSpaceOnUse" color-interpolation-filters="sRGB">
<feFlood flood-opacity="0" result="BackgroundImageFix"/>
<feBlend mode="normal" in="SourceGraphic" in2="BackgroundImageFix" result="shape"/>
<feGaussianBlur stdDeviation="2" result="effect1_foregroundBlur_49_26"/>
</filter>
<filter id="filter3_f_49_26" x="2404.21" y="548" width="54.75" height="50" filterUnits="userSpaceOnUse" color-interpolation-filters="sRGB">
<feFlood flood-opacity="0" result="BackgroundImageFix"/>
<feBlend mode="normal" in="SourceGraphic" in2="BackgroundImageFix" result="shape"/>
<feGaussianBlur stdDeviation="2" result="effect1_foregroundBlur_49_26"/>
</filter>
<linearGradient id="paint0_linear_49_26" x1="2475" y1="413.92" x2="2475" y2="1297.08" gradientUnits="userSpaceOnUse">
<stop stop-color="#310C79" stop-opacity="0.78"/>
<stop offset="1" stop-color="#602C72"/>
</linearGradient>
<linearGradient id="paint1_linear_49_26" x1="2038.44" y1="578.311" x2="2109" y2="578.311" gradientUnits="userSpaceOnUse">
<stop stop-color="#4075FF"/>
<stop offset="1" stop-color="#EC77FF"/>
</linearGradient>
<linearGradient id="paint2_linear_49_26" x1="3001.14" y1="234.591" x2="3072.24" y2="234.591" gradientUnits="userSpaceOnUse">
<stop stop-color="#4075FF"/>
<stop offset="1" stop-color="#EC77FF"/>
</linearGradient>
<linearGradient id="paint3_linear_49_26" x1="2696.26" y1="364.993" x2="2766.19" y2="364.993" gradientUnits="userSpaceOnUse">
<stop stop-color="#4075FF"/>
<stop offset="1" stop-color="#EC77FF"/>
</linearGradient>
<linearGradient id="paint4_linear_49_26" x1="2265.45" y1="0" x2="2265.45" y2="765" gradientUnits="userSpaceOnUse">
<stop stop-color="white" stop-opacity="0"/>
<stop offset="0.34375" stop-color="white"/>
<stop offset="0.619792" stop-color="white" stop-opacity="0"/>
</linearGradient>
<linearGradient id="paint5_linear_49_26" x1="755.285" y1="0" x2="755.285" y2="765" gradientUnits="userSpaceOnUse">
<stop stop-color="white" stop-opacity="0"/>
<stop offset="0.34375" stop-color="white"/>
<stop offset="0.619792" stop-color="white" stop-opacity="0"/>
</linearGradient>
<linearGradient id="paint6_linear_49_26" x1="251.898" y1="0" x2="251.898" y2="765" gradientUnits="userSpaceOnUse">
<stop stop-color="white" stop-opacity="0"/>
<stop offset="0.34375" stop-color="white"/>
<stop offset="0.619792" stop-color="white" stop-opacity="0"/>
</linearGradient>
<linearGradient id="paint7_linear_49_26" x1="1258.67" y1="0" x2="1258.67" y2="765" gradientUnits="userSpaceOnUse">
<stop stop-color="white" stop-opacity="0"/>
<stop offset="0.34375" stop-color="white"/>
<stop offset="0.619792" stop-color="white" stop-opacity="0"/>
</linearGradient>
<linearGradient id="paint8_linear_49_26" x1="1762.06" y1="0" x2="1762.06" y2="765" gradientUnits="userSpaceOnUse">
<stop stop-color="white" stop-opacity="0"/>
<stop offset="0.34375" stop-color="white"/>
<stop offset="0.619792" stop-color="white" stop-opacity="0"/>
</linearGradient>
<linearGradient id="paint9_linear_49_26" x1="4782.79" y1="0" x2="4782.79" y2="765" gradientUnits="userSpaceOnUse">
<stop stop-color="white" stop-opacity="0"/>
<stop offset="0.34375" stop-color="white"/>
<stop offset="0.619792" stop-color="white" stop-opacity="0"/>
</linearGradient>
<linearGradient id="paint10_linear_49_26" x1="3272.63" y1="0" x2="3272.63" y2="765" gradientUnits="userSpaceOnUse">
<stop stop-color="white" stop-opacity="0"/>
<stop offset="0.34375" stop-color="white"/>
<stop offset="0.619792" stop-color="white" stop-opacity="0"/>
</linearGradient>
<linearGradient id="paint11_linear_49_26" x1="2769.24" y1="0" x2="2769.24" y2="765" gradientUnits="userSpaceOnUse">
<stop stop-color="white" stop-opacity="0"/>
<stop offset="0.34375" stop-color="white"/>
<stop offset="0.619792" stop-color="white" stop-opacity="0"/>
</linearGradient>
<linearGradient id="paint12_linear_49_26" x1="3776.02" y1="0" x2="3776.02" y2="765" gradientUnits="userSpaceOnUse">
<stop stop-color="white" stop-opacity="0"/>
<stop offset="0.34375" stop-color="white"/>
<stop offset="0.619792" stop-color="white" stop-opacity="0"/>
</linearGradient>
<linearGradient id="paint13_linear_49_26" x1="4279.4" y1="0" x2="4279.4" y2="765" gradientUnits="userSpaceOnUse">
<stop stop-color="white" stop-opacity="0"/>
<stop offset="0.34375" stop-color="white"/>
<stop offset="0.619792" stop-color="white" stop-opacity="0"/>
</linearGradient>
<linearGradient id="paint14_linear_49_26" x1="2352.76" y1="493.571" x2="2420.31" y2="493.571" gradientUnits="userSpaceOnUse">
<stop stop-color="#4075FF"/>
<stop offset="1" stop-color="#EC77FF"/>
</linearGradient>
<clipPath id="clip0_49_26">
<rect width="5040" height="998" fill="white"/>
</clipPath>
</defs>
</svg>
