<svg width="5040" height="998" viewBox="0 0 5040 998" fill="none" xmlns="http://www.w3.org/2000/svg">
<g clip-path="url(#clip0_110_162)">
<path d="M5102 3.91357H0V987.563H5102V3.91357Z" fill="#1D242A"/>
<path d="M1723 690.089H1653H1583C1436 690.089 1373 676.632 1233 659.811C1093 642.989 953 598.133 813 553.276C673 508.418 541 464.843 393 441.134C253 418.705 113 418.705 43 418.705H-27V1186H43H393H813H1233H1583H1653H1723H2073H2493H2913H3263H3333H3403H3753H4173H4593H4943H5013L5035.5 -43L4772.5 37C4609 50.5 4695.5 37 4555.5 60.5C4392.5 133.5 4445.5 76.9999 4359 133.5C4183 177 4191 179.158 4015.5 223.5C4119.5 181 3892.89 254.478 4015.5 223.5L3779 280.5L3602.5 333.5C3522.5 368.679 3076 463.5 2939 493.5C2802 523.5 2633 565.644 2493 610.5C2353 655.357 2213 673.267 2073 690.089C1933 706.91 1870 690.089 1723 690.089Z" fill="url(#paint0_linear_110_162)"/>
<g filter="url(#filter0_f_110_162)">
<path d="M2131.11 685.5C2131.11 693.693 2124 700.77 2114.67 700.77C2105.34 700.77 2098.23 693.693 2098.23 685.5C2098.23 677.307 2105.34 670.229 2114.67 670.229C2124 670.229 2131.11 677.307 2131.11 685.5Z" stroke="#605DEC" stroke-width="9"/>
</g>
<path d="M2132.61 685.5C2132.61 694.601 2124.74 702.27 2114.67 702.27C2104.6 702.27 2096.73 694.601 2096.73 685.5C2096.73 676.398 2104.6 668.729 2114.67 668.729C2124.74 668.729 2132.61 676.398 2132.61 685.5Z" stroke="white" stroke-width="6"/>
<path d="M2028.22 746.915L2012.98 741.123V736.963L2028.22 731.171V735.171L2014.49 740.163V737.923L2028.22 742.915V746.915ZM2048.08 754.083V724.003H2051.28V754.083H2048.08ZM2049.23 750.627C2047.44 750.627 2045.73 750.392 2044.08 749.923C2042.44 749.432 2041.12 748.803 2040.11 748.035L2041.87 744.131C2042.83 744.814 2043.97 745.379 2045.27 745.827C2046.59 746.254 2047.92 746.467 2049.27 746.467C2050.29 746.467 2051.11 746.371 2051.73 746.179C2052.37 745.966 2052.84 745.678 2053.14 745.315C2053.44 744.952 2053.59 744.536 2053.59 744.067C2053.59 743.47 2053.35 743 2052.88 742.659C2052.41 742.296 2051.79 742.008 2051.03 741.795C2050.26 741.56 2049.41 741.347 2048.47 741.155C2047.55 740.942 2046.62 740.686 2045.68 740.387C2044.77 740.088 2043.92 739.704 2043.15 739.235C2042.39 738.766 2041.76 738.147 2041.27 737.379C2040.8 736.611 2040.56 735.63 2040.56 734.435C2040.56 733.155 2040.9 731.992 2041.59 730.947C2042.29 729.88 2043.34 729.038 2044.72 728.419C2046.13 727.779 2047.89 727.459 2050 727.459C2051.41 727.459 2052.8 727.63 2054.16 727.971C2055.53 728.291 2056.73 728.782 2057.78 729.443L2056.18 733.379C2055.13 732.782 2054.09 732.344 2053.04 732.067C2052 731.768 2050.97 731.619 2049.97 731.619C2048.97 731.619 2048.15 731.736 2047.51 731.971C2046.87 732.206 2046.41 732.515 2046.13 732.899C2045.85 733.262 2045.71 733.688 2045.71 734.179C2045.71 734.755 2045.95 735.224 2046.42 735.587C2046.89 735.928 2047.51 736.206 2048.27 736.419C2049.04 736.632 2049.89 736.846 2050.8 737.059C2051.74 737.272 2052.67 737.518 2053.59 737.795C2054.53 738.072 2055.38 738.446 2056.15 738.915C2056.91 739.384 2057.53 740.003 2058 740.771C2058.49 741.539 2058.74 742.51 2058.74 743.683C2058.74 744.942 2058.39 746.094 2057.68 747.139C2056.98 748.184 2055.92 749.027 2054.51 749.667C2053.13 750.307 2051.37 750.627 2049.23 750.627ZM2068.49 750.627C2066.93 750.627 2065.39 750.424 2063.85 750.019C2062.33 749.592 2061.03 748.995 2059.95 748.227L2061.99 744.259C2062.85 744.878 2063.83 745.368 2064.94 745.731C2066.07 746.094 2067.21 746.275 2068.36 746.275C2069.66 746.275 2070.69 746.019 2071.43 745.507C2072.18 744.995 2072.55 744.28 2072.55 743.363C2072.55 742.787 2072.4 742.275 2072.11 741.827C2071.81 741.379 2071.27 741.038 2070.51 740.803C2069.76 740.568 2068.7 740.451 2067.34 740.451H2061.61L2062.76 727.843H2076.43V732.003H2064.62L2067.31 729.635L2066.51 738.627L2063.82 736.259H2068.55C2070.77 736.259 2072.55 736.568 2073.9 737.187C2075.26 737.784 2076.25 738.606 2076.87 739.651C2077.49 740.696 2077.8 741.88 2077.8 743.203C2077.8 744.526 2077.47 745.752 2076.81 746.883C2076.15 747.992 2075.12 748.899 2073.74 749.603C2072.37 750.286 2070.62 750.627 2068.49 750.627ZM2080.1 755.171L2082.21 747.491L2082.91 750.371C2081.99 750.371 2081.24 750.104 2080.64 749.571C2080.06 749.038 2079.78 748.302 2079.78 747.363C2079.78 746.424 2080.07 745.678 2080.67 745.123C2081.27 744.568 2082.01 744.291 2082.88 744.291C2083.78 744.291 2084.51 744.579 2085.09 745.155C2085.66 745.71 2085.95 746.446 2085.95 747.363C2085.95 747.64 2085.93 747.918 2085.89 748.195C2085.85 748.451 2085.76 748.771 2085.63 749.155C2085.53 749.518 2085.34 749.987 2085.09 750.563L2083.26 755.171H2080.1ZM2097.47 750.627C2095.64 750.627 2094 750.179 2092.55 749.283C2091.09 748.366 2089.95 747.043 2089.12 745.315C2088.29 743.587 2087.87 741.496 2087.87 739.043C2087.87 736.59 2088.29 734.499 2089.12 732.771C2089.95 731.043 2091.09 729.731 2092.55 728.835C2094 727.918 2095.64 727.459 2097.47 727.459C2099.33 727.459 2100.97 727.918 2102.4 728.835C2103.85 729.731 2104.99 731.043 2105.83 732.771C2106.66 734.499 2107.07 736.59 2107.07 739.043C2107.07 741.496 2106.66 743.587 2105.83 745.315C2104.99 747.043 2103.85 748.366 2102.4 749.283C2100.97 750.179 2099.33 750.627 2097.47 750.627ZM2097.47 746.243C2098.35 746.243 2099.11 745.998 2099.75 745.507C2100.41 745.016 2100.92 744.238 2101.28 743.171C2101.67 742.104 2101.86 740.728 2101.86 739.043C2101.86 737.358 2101.67 735.982 2101.28 734.915C2100.92 733.848 2100.41 733.07 2099.75 732.579C2099.11 732.088 2098.35 731.843 2097.47 731.843C2096.62 731.843 2095.86 732.088 2095.2 732.579C2094.56 733.07 2094.05 733.848 2093.67 734.915C2093.3 735.982 2093.12 737.358 2093.12 739.043C2093.12 740.728 2093.3 742.104 2093.67 743.171C2094.05 744.238 2094.56 745.016 2095.2 745.507C2095.86 745.998 2096.62 746.243 2097.47 746.243ZM2119.19 750.627C2117.36 750.627 2115.71 750.179 2114.26 749.283C2112.81 748.366 2111.67 747.043 2110.84 745.315C2110.01 743.587 2109.59 741.496 2109.59 739.043C2109.59 736.59 2110.01 734.499 2110.84 732.771C2111.67 731.043 2112.81 729.731 2114.26 728.835C2115.71 727.918 2117.36 727.459 2119.19 727.459C2121.05 727.459 2122.69 727.918 2124.12 728.835C2125.57 729.731 2126.71 731.043 2127.54 732.771C2128.38 734.499 2128.79 736.59 2128.79 739.043C2128.79 741.496 2128.38 743.587 2127.54 745.315C2126.71 747.043 2125.57 748.366 2124.12 749.283C2122.69 750.179 2121.05 750.627 2119.19 750.627ZM2119.19 746.243C2120.07 746.243 2120.82 745.998 2121.46 745.507C2122.13 745.016 2122.64 744.238 2123 743.171C2123.38 742.104 2123.58 740.728 2123.58 739.043C2123.58 737.358 2123.38 735.982 2123 734.915C2122.64 733.848 2122.13 733.07 2121.46 732.579C2120.82 732.088 2120.07 731.843 2119.19 731.843C2118.34 731.843 2117.58 732.088 2116.92 732.579C2116.28 733.07 2115.77 733.848 2115.38 734.915C2115.02 735.982 2114.84 737.358 2114.84 739.043C2114.84 740.728 2115.02 742.104 2115.38 743.171C2115.77 744.238 2116.28 745.016 2116.92 745.507C2117.58 745.998 2118.34 746.243 2119.19 746.243ZM2140.91 750.627C2139.08 750.627 2137.43 750.179 2135.98 749.283C2134.53 748.366 2133.39 747.043 2132.56 745.315C2131.73 743.587 2131.31 741.496 2131.31 739.043C2131.31 736.59 2131.73 734.499 2132.56 732.771C2133.39 731.043 2134.53 729.731 2135.98 728.835C2137.43 727.918 2139.08 727.459 2140.91 727.459C2142.77 727.459 2144.41 727.918 2145.84 728.835C2147.29 729.731 2148.43 731.043 2149.26 732.771C2150.09 734.499 2150.51 736.59 2150.51 739.043C2150.51 741.496 2150.09 743.587 2149.26 745.315C2148.43 747.043 2147.29 748.366 2145.84 749.283C2144.41 750.179 2142.77 750.627 2140.91 750.627ZM2140.91 746.243C2141.79 746.243 2142.54 745.998 2143.18 745.507C2143.84 745.016 2144.36 744.238 2144.72 743.171C2145.1 742.104 2145.29 740.728 2145.29 739.043C2145.29 737.358 2145.1 735.982 2144.72 734.915C2144.36 733.848 2143.84 733.07 2143.18 732.579C2142.54 732.088 2141.79 731.843 2140.91 731.843C2140.06 731.843 2139.3 732.088 2138.64 732.579C2138 733.07 2137.49 733.848 2137.1 734.915C2136.74 735.982 2136.56 737.358 2136.56 739.043C2136.56 740.728 2136.74 742.104 2137.1 743.171C2137.49 744.238 2138 745.016 2138.64 745.507C2139.3 745.998 2140.06 746.243 2140.91 746.243Z" fill="white"/>
<rect x="1995" y="581" width="146.595" height="57.8986" rx="10" fill="white"/>
<path d="M2039.06 622.703V619.343L2047.7 611.183C2048.38 610.564 2048.88 610.009 2049.2 609.519C2049.52 609.028 2049.73 608.58 2049.84 608.175C2049.97 607.769 2050.03 607.396 2050.03 607.055C2050.03 606.159 2049.72 605.476 2049.1 605.007C2048.51 604.516 2047.62 604.271 2046.45 604.271C2045.51 604.271 2044.63 604.452 2043.82 604.815C2043.03 605.177 2042.36 605.743 2041.81 606.511L2038.03 604.079C2038.89 602.799 2040.08 601.785 2041.62 601.039C2043.15 600.292 2044.92 599.919 2046.93 599.919C2048.59 599.919 2050.04 600.196 2051.28 600.751C2052.54 601.284 2053.51 602.041 2054.19 603.023C2054.9 604.004 2055.25 605.177 2055.25 606.543C2055.25 607.268 2055.15 607.993 2054.96 608.719C2054.79 609.423 2054.43 610.169 2053.87 610.959C2053.34 611.748 2052.55 612.633 2051.5 613.615L2044.34 620.367L2043.34 618.479H2055.98V622.703H2039.06ZM2065.74 623.087C2064.18 623.087 2062.64 622.884 2061.1 622.479C2059.58 622.052 2058.28 621.455 2057.2 620.687L2059.24 616.719C2060.1 617.337 2061.08 617.828 2062.19 618.191C2063.32 618.553 2064.46 618.735 2065.61 618.735C2066.91 618.735 2067.94 618.479 2068.68 617.967C2069.43 617.455 2069.8 616.74 2069.8 615.823C2069.8 615.247 2069.65 614.735 2069.36 614.287C2069.06 613.839 2068.52 613.497 2067.76 613.263C2067.01 613.028 2065.95 612.911 2064.59 612.911H2058.86L2060.01 600.303H2073.68V604.463H2061.87L2064.56 602.095L2063.76 611.087L2061.07 608.719H2065.8C2068.02 608.719 2069.8 609.028 2071.15 609.647C2072.51 610.244 2073.5 611.065 2074.12 612.111C2074.74 613.156 2075.05 614.34 2075.05 615.663C2075.05 616.985 2074.72 618.212 2074.06 619.343C2073.4 620.452 2072.37 621.359 2070.99 622.063C2069.62 622.745 2067.87 623.087 2065.74 623.087ZM2080.07 622.703L2095.37 600.303H2099.18L2083.88 622.703H2080.07ZM2082.03 612.399C2080.94 612.399 2079.98 612.153 2079.15 611.663C2078.31 611.151 2077.65 610.436 2077.16 609.519C2076.69 608.58 2076.46 607.481 2076.46 606.223C2076.46 604.964 2076.69 603.876 2077.16 602.959C2077.65 602.041 2078.31 601.327 2079.15 600.815C2079.98 600.303 2080.94 600.047 2082.03 600.047C2083.11 600.047 2084.07 600.303 2084.91 600.815C2085.74 601.327 2086.39 602.041 2086.86 602.959C2087.33 603.876 2087.56 604.964 2087.56 606.223C2087.56 607.481 2087.33 608.58 2086.86 609.519C2086.39 610.436 2085.74 611.151 2084.91 611.663C2084.07 612.153 2083.11 612.399 2082.03 612.399ZM2082.03 609.775C2082.73 609.775 2083.3 609.487 2083.72 608.911C2084.15 608.313 2084.36 607.417 2084.36 606.223C2084.36 605.028 2084.15 604.143 2083.72 603.567C2083.3 602.969 2082.73 602.671 2082.03 602.671C2081.34 602.671 2080.78 602.969 2080.33 603.567C2079.9 604.143 2079.69 605.028 2079.69 606.223C2079.69 607.396 2079.9 608.281 2080.33 608.879C2080.78 609.476 2081.34 609.775 2082.03 609.775ZM2097.23 622.959C2096.16 622.959 2095.2 622.713 2094.35 622.223C2093.51 621.711 2092.86 620.996 2092.39 620.079C2091.92 619.14 2091.69 618.041 2091.69 616.783C2091.69 615.524 2091.92 614.436 2092.39 613.519C2092.86 612.601 2093.51 611.887 2094.35 611.375C2095.2 610.863 2096.16 610.607 2097.23 610.607C2098.34 610.607 2099.31 610.863 2100.14 611.375C2100.97 611.887 2101.62 612.601 2102.09 613.519C2102.56 614.436 2102.79 615.524 2102.79 616.783C2102.79 618.041 2102.56 619.14 2102.09 620.079C2101.62 620.996 2100.97 621.711 2100.14 622.223C2099.31 622.713 2098.34 622.959 2097.23 622.959ZM2097.23 620.335C2097.93 620.335 2098.5 620.047 2098.92 619.471C2099.35 618.873 2099.56 617.977 2099.56 616.783C2099.56 615.609 2099.35 614.724 2098.92 614.127C2098.5 613.529 2097.93 613.231 2097.23 613.231C2096.54 613.231 2095.98 613.529 2095.53 614.127C2095.1 614.703 2094.89 615.588 2094.89 616.783C2094.89 617.977 2095.1 618.873 2095.53 619.471C2095.98 620.047 2096.54 620.335 2097.23 620.335Z" fill="url(#paint1_linear_110_162)"/>
<path d="M2113.92 651.608L2105.5 642.076H2122.34L2113.92 651.608Z" fill="white"/>
<g filter="url(#filter1_f_110_162)">
<path d="M3117.04 461.517C3117.04 471.433 3108.33 479.992 3096.92 479.992C3085.51 479.992 3076.8 471.433 3076.8 461.517C3076.8 451.602 3085.51 443.042 3096.92 443.042C3108.33 443.042 3117.04 451.602 3117.04 461.517Z" stroke="#605DEC" stroke-width="9"/>
</g>
<path d="M3118.54 461.517C3118.54 472.357 3109.06 481.492 3096.92 481.492C3084.78 481.492 3075.3 472.357 3075.3 461.517C3075.3 450.677 3084.78 441.542 3096.92 441.542C3109.06 441.542 3118.54 450.677 3118.54 461.517Z" stroke="white" stroke-width="6"/>
<path d="M2990.68 536.099V506.019H2993.88V536.099H2990.68ZM2991.83 532.643C2990.04 532.643 2988.32 532.409 2986.68 531.939C2985.03 531.449 2983.71 530.819 2982.71 530.051L2984.47 526.147C2985.43 526.83 2986.56 527.395 2987.86 527.843C2989.18 528.27 2990.52 528.483 2991.86 528.483C2992.89 528.483 2993.71 528.387 2994.33 528.195C2994.97 527.982 2995.43 527.694 2995.73 527.331C2996.03 526.969 2996.18 526.553 2996.18 526.083C2996.18 525.486 2995.95 525.017 2995.48 524.675C2995.01 524.313 2994.39 524.025 2993.62 523.811C2992.85 523.577 2992 523.363 2991.06 523.171C2990.14 522.958 2989.22 522.702 2988.28 522.403C2987.36 522.105 2986.52 521.721 2985.75 521.251C2984.98 520.782 2984.35 520.163 2983.86 519.395C2983.39 518.627 2983.16 517.646 2983.16 516.451C2983.16 515.171 2983.5 514.009 2984.18 512.963C2984.89 511.897 2985.93 511.054 2987.32 510.435C2988.73 509.795 2990.49 509.475 2992.6 509.475C2994.01 509.475 2995.39 509.646 2996.76 509.987C2998.12 510.307 2999.33 510.798 3000.37 511.459L2998.77 515.395C2997.73 514.798 2996.68 514.361 2995.64 514.083C2994.59 513.785 2993.57 513.635 2992.57 513.635C2991.56 513.635 2990.74 513.753 2990.1 513.987C2989.46 514.222 2989 514.531 2988.73 514.915C2988.45 515.278 2988.31 515.705 2988.31 516.195C2988.31 516.771 2988.54 517.241 2989.01 517.603C2989.48 517.945 2990.1 518.222 2990.87 518.435C2991.64 518.649 2992.48 518.862 2993.4 519.075C2994.34 519.289 2995.26 519.534 2996.18 519.811C2997.12 520.089 2997.97 520.462 2998.74 520.931C2999.51 521.401 3000.13 522.019 3000.6 522.787C3001.09 523.555 3001.33 524.526 3001.33 525.699C3001.33 526.958 3000.98 528.11 3000.28 529.155C2999.57 530.201 2998.52 531.043 2997.11 531.683C2995.72 532.323 2993.96 532.643 2991.83 532.643ZM3003.28 532.259V528.899L3011.92 520.739C3012.6 520.121 3013.1 519.566 3013.42 519.075C3013.74 518.585 3013.95 518.137 3014.06 517.731C3014.19 517.326 3014.25 516.953 3014.25 516.611C3014.25 515.715 3013.94 515.033 3013.32 514.563C3012.73 514.073 3011.84 513.827 3010.67 513.827C3009.73 513.827 3008.85 514.009 3008.04 514.371C3007.25 514.734 3006.58 515.299 3006.03 516.067L3002.25 513.635C3003.1 512.355 3004.3 511.342 3005.84 510.595C3007.37 509.849 3009.14 509.475 3011.15 509.475C3012.81 509.475 3014.26 509.753 3015.5 510.307C3016.76 510.841 3017.73 511.598 3018.41 512.579C3019.12 513.561 3019.47 514.734 3019.47 516.099C3019.47 516.825 3019.37 517.55 3019.18 518.275C3019.01 518.979 3018.65 519.726 3018.09 520.515C3017.56 521.305 3016.77 522.19 3015.72 523.171L3008.56 529.923L3007.56 528.035H3020.2V532.259H3003.28ZM3031.94 532.643C3030.11 532.643 3028.47 532.195 3027.01 531.299C3025.56 530.382 3024.42 529.059 3023.59 527.331C3022.76 525.603 3022.34 523.513 3022.34 521.059C3022.34 518.606 3022.76 516.515 3023.59 514.787C3024.42 513.059 3025.56 511.747 3027.01 510.851C3028.47 509.934 3030.11 509.475 3031.94 509.475C3033.8 509.475 3035.44 509.934 3036.87 510.851C3038.32 511.747 3039.46 513.059 3040.29 514.787C3041.13 516.515 3041.54 518.606 3041.54 521.059C3041.54 523.513 3041.13 525.603 3040.29 527.331C3039.46 529.059 3038.32 530.382 3036.87 531.299C3035.44 532.195 3033.8 532.643 3031.94 532.643ZM3031.94 528.259C3032.82 528.259 3033.57 528.014 3034.21 527.523C3034.88 527.033 3035.39 526.254 3035.75 525.187C3036.13 524.121 3036.33 522.745 3036.33 521.059C3036.33 519.374 3036.13 517.998 3035.75 516.931C3035.39 515.865 3034.88 515.086 3034.21 514.595C3033.57 514.105 3032.82 513.859 3031.94 513.859C3031.09 513.859 3030.33 514.105 3029.67 514.595C3029.03 515.086 3028.52 515.865 3028.13 516.931C3027.77 517.998 3027.59 519.374 3027.59 521.059C3027.59 522.745 3027.77 524.121 3028.13 525.187C3028.52 526.254 3029.03 527.033 3029.67 527.523C3030.33 528.014 3031.09 528.259 3031.94 528.259ZM3043.85 537.187L3045.96 529.507L3046.66 532.387C3045.75 532.387 3044.99 532.121 3044.39 531.587C3043.81 531.054 3043.53 530.318 3043.53 529.379C3043.53 528.441 3043.83 527.694 3044.42 527.139C3045.02 526.585 3045.76 526.307 3046.63 526.307C3047.53 526.307 3048.26 526.595 3048.84 527.171C3049.41 527.726 3049.7 528.462 3049.7 529.379C3049.7 529.657 3049.68 529.934 3049.64 530.211C3049.6 530.467 3049.51 530.787 3049.38 531.171C3049.28 531.534 3049.09 532.003 3048.84 532.579L3047.01 537.187H3043.85ZM3061.22 532.643C3059.39 532.643 3057.75 532.195 3056.3 531.299C3054.85 530.382 3053.7 529.059 3052.87 527.331C3052.04 525.603 3051.62 523.513 3051.62 521.059C3051.62 518.606 3052.04 516.515 3052.87 514.787C3053.7 513.059 3054.85 511.747 3056.3 510.851C3057.75 509.934 3059.39 509.475 3061.22 509.475C3063.08 509.475 3064.72 509.934 3066.15 510.851C3067.6 511.747 3068.74 513.059 3069.58 514.787C3070.41 516.515 3070.82 518.606 3070.82 521.059C3070.82 523.513 3070.41 525.603 3069.58 527.331C3068.74 529.059 3067.6 530.382 3066.15 531.299C3064.72 532.195 3063.08 532.643 3061.22 532.643ZM3061.22 528.259C3062.1 528.259 3062.86 528.014 3063.5 527.523C3064.16 527.033 3064.67 526.254 3065.03 525.187C3065.42 524.121 3065.61 522.745 3065.61 521.059C3065.61 519.374 3065.42 517.998 3065.03 516.931C3064.67 515.865 3064.16 515.086 3063.5 514.595C3062.86 514.105 3062.1 513.859 3061.22 513.859C3060.37 513.859 3059.61 514.105 3058.95 514.595C3058.31 515.086 3057.8 515.865 3057.42 516.931C3057.05 517.998 3056.87 519.374 3056.87 521.059C3056.87 522.745 3057.05 524.121 3057.42 525.187C3057.8 526.254 3058.31 527.033 3058.95 527.523C3059.61 528.014 3060.37 528.259 3061.22 528.259ZM3082.94 532.643C3081.11 532.643 3079.47 532.195 3078.01 531.299C3076.56 530.382 3075.42 529.059 3074.59 527.331C3073.76 525.603 3073.34 523.513 3073.34 521.059C3073.34 518.606 3073.76 516.515 3074.59 514.787C3075.42 513.059 3076.56 511.747 3078.01 510.851C3079.47 509.934 3081.11 509.475 3082.94 509.475C3084.8 509.475 3086.44 509.934 3087.87 510.851C3089.32 511.747 3090.46 513.059 3091.29 514.787C3092.13 516.515 3092.54 518.606 3092.54 521.059C3092.54 523.513 3092.13 525.603 3091.29 527.331C3090.46 529.059 3089.32 530.382 3087.87 531.299C3086.44 532.195 3084.8 532.643 3082.94 532.643ZM3082.94 528.259C3083.82 528.259 3084.57 528.014 3085.21 527.523C3085.88 527.033 3086.39 526.254 3086.75 525.187C3087.13 524.121 3087.33 522.745 3087.33 521.059C3087.33 519.374 3087.13 517.998 3086.75 516.931C3086.39 515.865 3085.88 515.086 3085.21 514.595C3084.57 514.105 3083.82 513.859 3082.94 513.859C3082.09 513.859 3081.33 514.105 3080.67 514.595C3080.03 515.086 3079.52 515.865 3079.13 516.931C3078.77 517.998 3078.59 519.374 3078.59 521.059C3078.59 522.745 3078.77 524.121 3079.13 525.187C3079.52 526.254 3080.03 527.033 3080.67 527.523C3081.33 528.014 3082.09 528.259 3082.94 528.259ZM3104.66 532.643C3102.83 532.643 3101.18 532.195 3099.73 531.299C3098.28 530.382 3097.14 529.059 3096.31 527.331C3095.48 525.603 3095.06 523.513 3095.06 521.059C3095.06 518.606 3095.48 516.515 3096.31 514.787C3097.14 513.059 3098.28 511.747 3099.73 510.851C3101.18 509.934 3102.83 509.475 3104.66 509.475C3106.52 509.475 3108.16 509.934 3109.59 510.851C3111.04 511.747 3112.18 513.059 3113.01 514.787C3113.85 516.515 3114.26 518.606 3114.26 521.059C3114.26 523.513 3113.85 525.603 3113.01 527.331C3112.18 529.059 3111.04 530.382 3109.59 531.299C3108.16 532.195 3106.52 532.643 3104.66 532.643ZM3104.66 528.259C3105.54 528.259 3106.29 528.014 3106.93 527.523C3107.59 527.033 3108.11 526.254 3108.47 525.187C3108.85 524.121 3109.05 522.745 3109.05 521.059C3109.05 519.374 3108.85 517.998 3108.47 516.931C3108.11 515.865 3107.59 515.086 3106.93 514.595C3106.29 514.105 3105.54 513.859 3104.66 513.859C3103.81 513.859 3103.05 514.105 3102.39 514.595C3101.75 515.086 3101.24 515.865 3100.85 516.931C3100.49 517.998 3100.31 519.374 3100.31 521.059C3100.31 522.745 3100.49 524.121 3100.85 525.187C3101.24 526.254 3101.75 527.033 3102.39 527.523C3103.05 528.014 3103.81 528.259 3104.66 528.259ZM3132.11 528.451V513.667H3136.24V528.451H3132.11ZM3126.58 523.011V519.107H3141.81V523.011H3126.58Z" fill="white"/>
<path d="M2958 349C2958 343.477 2962.48 339 2968 339H3045.25H3119.87C3125.39 339 3129.87 343.477 3129.87 349V396.972C3129.87 402.495 3125.39 406.972 3119.87 406.972H2968C2962.48 406.972 2958 402.495 2958 396.972V349Z" fill="white"/>
<path d="M3007.65 376.085V372.597L3018.21 358.389H3023.65L3013.32 372.597L3010.79 371.861H3028.42V376.085H3007.65ZM3019.72 380.789V376.085L3019.88 371.861V367.669H3024.77V380.789H3019.72ZM3039.57 381.173C3037.74 381.173 3036.09 380.725 3034.64 379.829C3033.19 378.912 3032.05 377.589 3031.22 375.861C3030.39 374.133 3029.97 372.042 3029.97 369.589C3029.97 367.136 3030.39 365.045 3031.22 363.317C3032.05 361.589 3033.19 360.277 3034.64 359.381C3036.09 358.464 3037.74 358.005 3039.57 358.005C3041.43 358.005 3043.07 358.464 3044.5 359.381C3045.95 360.277 3047.09 361.589 3047.92 363.317C3048.76 365.045 3049.17 367.136 3049.17 369.589C3049.17 372.042 3048.76 374.133 3047.92 375.861C3047.09 377.589 3045.95 378.912 3044.5 379.829C3043.07 380.725 3041.43 381.173 3039.57 381.173ZM3039.57 376.789C3040.45 376.789 3041.2 376.544 3041.84 376.053C3042.51 375.562 3043.02 374.784 3043.38 373.717C3043.76 372.65 3043.96 371.274 3043.96 369.589C3043.96 367.904 3043.76 366.528 3043.38 365.461C3043.02 364.394 3042.51 363.616 3041.84 363.125C3041.2 362.634 3040.45 362.389 3039.57 362.389C3038.72 362.389 3037.96 362.634 3037.3 363.125C3036.66 363.616 3036.15 364.394 3035.76 365.461C3035.4 366.528 3035.22 367.904 3035.22 369.589C3035.22 371.274 3035.4 372.65 3035.76 373.717C3036.15 374.784 3036.66 375.562 3037.3 376.053C3037.96 376.544 3038.72 376.789 3039.57 376.789ZM3054.92 380.789L3070.22 358.389H3074.03L3058.73 380.789H3054.92ZM3056.87 370.485C3055.79 370.485 3054.83 370.24 3053.99 369.749C3053.16 369.237 3052.5 368.522 3052.01 367.605C3051.54 366.666 3051.31 365.568 3051.31 364.309C3051.31 363.05 3051.54 361.962 3052.01 361.045C3052.5 360.128 3053.16 359.413 3053.99 358.901C3054.83 358.389 3055.79 358.133 3056.87 358.133C3057.96 358.133 3058.92 358.389 3059.75 358.901C3060.59 359.413 3061.24 360.128 3061.71 361.045C3062.18 361.962 3062.41 363.05 3062.41 364.309C3062.41 365.568 3062.18 366.666 3061.71 367.605C3061.24 368.522 3060.59 369.237 3059.75 369.749C3058.92 370.24 3057.96 370.485 3056.87 370.485ZM3056.87 367.861C3057.58 367.861 3058.14 367.573 3058.57 366.997C3059 366.4 3059.21 365.504 3059.21 364.309C3059.21 363.114 3059 362.229 3058.57 361.653C3058.14 361.056 3057.58 360.757 3056.87 360.757C3056.19 360.757 3055.63 361.056 3055.18 361.653C3054.75 362.229 3054.54 363.114 3054.54 364.309C3054.54 365.482 3054.75 366.368 3055.18 366.965C3055.63 367.562 3056.19 367.861 3056.87 367.861ZM3072.07 381.045C3071.01 381.045 3070.05 380.8 3069.19 380.309C3068.36 379.797 3067.71 379.082 3067.24 378.165C3066.77 377.226 3066.54 376.128 3066.54 374.869C3066.54 373.61 3066.77 372.522 3067.24 371.605C3067.71 370.688 3068.36 369.973 3069.19 369.461C3070.05 368.949 3071.01 368.693 3072.07 368.693C3073.18 368.693 3074.15 368.949 3074.99 369.461C3075.82 369.973 3076.47 370.688 3076.94 371.605C3077.41 372.522 3077.64 373.61 3077.64 374.869C3077.64 376.128 3077.41 377.226 3076.94 378.165C3076.47 379.082 3075.82 379.797 3074.99 380.309C3074.15 380.8 3073.18 381.045 3072.07 381.045ZM3072.07 378.421C3072.78 378.421 3073.34 378.133 3073.77 377.557C3074.2 376.96 3074.41 376.064 3074.41 374.869C3074.41 373.696 3074.2 372.81 3073.77 372.213C3073.34 371.616 3072.78 371.317 3072.07 371.317C3071.39 371.317 3070.83 371.616 3070.38 372.213C3069.95 372.789 3069.74 373.674 3069.74 374.869C3069.74 376.064 3069.95 376.96 3070.38 377.557C3070.83 378.133 3071.39 378.421 3072.07 378.421Z" fill="url(#paint2_linear_110_162)"/>
<path d="M3097.8 422.132L3087.9 411.055H3107.7L3097.8 422.132Z" fill="white"/>
<g filter="url(#filter2_f_110_162)">
<path d="M2800.34 529.951C2800.34 539.582 2791.83 547.944 2780.62 547.944C2769.42 547.944 2760.91 539.582 2760.91 529.951C2760.91 520.319 2769.42 511.957 2780.62 511.957C2791.83 511.957 2800.34 520.319 2800.34 529.951Z" stroke="#605DEC" stroke-width="9"/>
</g>
<path d="M2801.84 529.951C2801.84 540.512 2792.55 549.444 2780.62 549.444C2768.7 549.444 2759.41 540.512 2759.41 529.951C2759.41 519.389 2768.7 510.457 2780.62 510.457C2792.55 510.457 2801.84 519.389 2801.84 529.951Z" stroke="white" stroke-width="6"/>
<path d="M2629.86 603.781V573.701H2633.06V603.781H2629.86ZM2631.02 600.325C2629.22 600.325 2627.51 600.091 2625.86 599.621C2624.22 599.131 2622.9 598.501 2621.9 597.733L2623.66 593.829C2624.62 594.512 2625.75 595.077 2627.05 595.525C2628.37 595.952 2629.7 596.165 2631.05 596.165C2632.07 596.165 2632.89 596.069 2633.51 595.877C2634.15 595.664 2634.62 595.376 2634.92 595.013C2635.22 594.651 2635.37 594.235 2635.37 593.765C2635.37 593.168 2635.13 592.699 2634.66 592.357C2634.19 591.995 2633.58 591.707 2632.81 591.493C2632.04 591.259 2631.19 591.045 2630.25 590.853C2629.33 590.64 2628.4 590.384 2627.46 590.085C2626.55 589.787 2625.7 589.403 2624.94 588.933C2624.17 588.464 2623.54 587.845 2623.05 587.077C2622.58 586.309 2622.34 585.328 2622.34 584.133C2622.34 582.853 2622.69 581.691 2623.37 580.645C2624.07 579.579 2625.12 578.736 2626.5 578.117C2627.91 577.477 2629.67 577.157 2631.78 577.157C2633.19 577.157 2634.58 577.328 2635.94 577.669C2637.31 577.989 2638.51 578.48 2639.56 579.141L2637.96 583.077C2636.91 582.48 2635.87 582.043 2634.82 581.765C2633.78 581.467 2632.75 581.317 2631.75 581.317C2630.75 581.317 2629.93 581.435 2629.29 581.669C2628.65 581.904 2628.19 582.213 2627.91 582.597C2627.63 582.96 2627.5 583.387 2627.5 583.877C2627.5 584.453 2627.73 584.923 2628.2 585.285C2628.67 585.627 2629.29 585.904 2630.06 586.117C2630.82 586.331 2631.67 586.544 2632.58 586.757C2633.52 586.971 2634.45 587.216 2635.37 587.493C2636.31 587.771 2637.16 588.144 2637.93 588.613C2638.7 589.083 2639.31 589.701 2639.78 590.469C2640.27 591.237 2640.52 592.208 2640.52 593.381C2640.52 594.64 2640.17 595.792 2639.46 596.837C2638.76 597.883 2637.7 598.725 2636.3 599.365C2634.91 600.005 2633.15 600.325 2631.02 600.325ZM2645.8 599.941V579.461L2648.04 581.701H2641.32V577.541H2650.98V599.941H2645.8ZM2664.47 600.325C2662.64 600.325 2661 599.877 2659.55 598.981C2658.09 598.064 2656.95 596.741 2656.12 595.013C2655.29 593.285 2654.87 591.195 2654.87 588.741C2654.87 586.288 2655.29 584.197 2656.12 582.469C2656.95 580.741 2658.09 579.429 2659.55 578.533C2661 577.616 2662.64 577.157 2664.47 577.157C2666.33 577.157 2667.97 577.616 2669.4 578.533C2670.85 579.429 2671.99 580.741 2672.83 582.469C2673.66 584.197 2674.07 586.288 2674.07 588.741C2674.07 591.195 2673.66 593.285 2672.83 595.013C2671.99 596.741 2670.85 598.064 2669.4 598.981C2667.97 599.877 2666.33 600.325 2664.47 600.325ZM2664.47 595.941C2665.35 595.941 2666.11 595.696 2666.75 595.205C2667.41 594.715 2667.92 593.936 2668.28 592.869C2668.67 591.803 2668.86 590.427 2668.86 588.741C2668.86 587.056 2668.67 585.68 2668.28 584.613C2667.92 583.547 2667.41 582.768 2666.75 582.277C2666.11 581.787 2665.35 581.541 2664.47 581.541C2663.62 581.541 2662.86 581.787 2662.2 582.277C2661.56 582.768 2661.05 583.547 2660.67 584.613C2660.3 585.68 2660.12 587.056 2660.12 588.741C2660.12 590.427 2660.3 591.803 2660.67 592.869C2661.05 593.936 2661.56 594.715 2662.2 595.205C2662.86 595.696 2663.62 595.941 2664.47 595.941ZM2676.38 604.869L2678.49 597.189L2679.19 600.069C2678.28 600.069 2677.52 599.803 2676.92 599.269C2676.35 598.736 2676.06 598 2676.06 597.061C2676.06 596.123 2676.36 595.376 2676.95 594.821C2677.55 594.267 2678.29 593.989 2679.16 593.989C2680.06 593.989 2680.79 594.277 2681.37 594.853C2681.95 595.408 2682.23 596.144 2682.23 597.061C2682.23 597.339 2682.21 597.616 2682.17 597.893C2682.13 598.149 2682.04 598.469 2681.91 598.853C2681.81 599.216 2681.63 599.685 2681.37 600.261L2679.55 604.869H2676.38ZM2693.75 600.325C2691.92 600.325 2690.28 599.877 2688.83 598.981C2687.38 598.064 2686.23 596.741 2685.4 595.013C2684.57 593.285 2684.15 591.195 2684.15 588.741C2684.15 586.288 2684.57 584.197 2685.4 582.469C2686.23 580.741 2687.38 579.429 2688.83 578.533C2690.28 577.616 2691.92 577.157 2693.75 577.157C2695.61 577.157 2697.25 577.616 2698.68 578.533C2700.13 579.429 2701.27 580.741 2702.11 582.469C2702.94 584.197 2703.35 586.288 2703.35 588.741C2703.35 591.195 2702.94 593.285 2702.11 595.013C2701.27 596.741 2700.13 598.064 2698.68 598.981C2697.25 599.877 2695.61 600.325 2693.75 600.325ZM2693.75 595.941C2694.63 595.941 2695.39 595.696 2696.03 595.205C2696.69 594.715 2697.2 593.936 2697.56 592.869C2697.95 591.803 2698.14 590.427 2698.14 588.741C2698.14 587.056 2697.95 585.68 2697.56 584.613C2697.2 583.547 2696.69 582.768 2696.03 582.277C2695.39 581.787 2694.63 581.541 2693.75 581.541C2692.9 581.541 2692.14 581.787 2691.48 582.277C2690.84 582.768 2690.33 583.547 2689.95 584.613C2689.58 585.68 2689.4 587.056 2689.4 588.741C2689.4 590.427 2689.58 591.803 2689.95 592.869C2690.33 593.936 2690.84 594.715 2691.48 595.205C2692.14 595.696 2692.9 595.941 2693.75 595.941ZM2715.47 600.325C2713.64 600.325 2712 599.877 2710.55 598.981C2709.09 598.064 2707.95 596.741 2707.12 595.013C2706.29 593.285 2705.87 591.195 2705.87 588.741C2705.87 586.288 2706.29 584.197 2707.12 582.469C2707.95 580.741 2709.09 579.429 2710.55 578.533C2712 577.616 2713.64 577.157 2715.47 577.157C2717.33 577.157 2718.97 577.616 2720.4 578.533C2721.85 579.429 2722.99 580.741 2723.83 582.469C2724.66 584.197 2725.07 586.288 2725.07 588.741C2725.07 591.195 2724.66 593.285 2723.83 595.013C2722.99 596.741 2721.85 598.064 2720.4 598.981C2718.97 599.877 2717.33 600.325 2715.47 600.325ZM2715.47 595.941C2716.35 595.941 2717.11 595.696 2717.75 595.205C2718.41 594.715 2718.92 593.936 2719.28 592.869C2719.67 591.803 2719.86 590.427 2719.86 588.741C2719.86 587.056 2719.67 585.68 2719.28 584.613C2718.92 583.547 2718.41 582.768 2717.75 582.277C2717.11 581.787 2716.35 581.541 2715.47 581.541C2714.62 581.541 2713.86 581.787 2713.2 582.277C2712.56 582.768 2712.05 583.547 2711.67 584.613C2711.3 585.68 2711.12 587.056 2711.12 588.741C2711.12 590.427 2711.3 591.803 2711.67 592.869C2712.05 593.936 2712.56 594.715 2713.2 595.205C2713.86 595.696 2714.62 595.941 2715.47 595.941ZM2737.19 600.325C2735.36 600.325 2733.71 599.877 2732.26 598.981C2730.81 598.064 2729.67 596.741 2728.84 595.013C2728.01 593.285 2727.59 591.195 2727.59 588.741C2727.59 586.288 2728.01 584.197 2728.84 582.469C2729.67 580.741 2730.81 579.429 2732.26 578.533C2733.71 577.616 2735.36 577.157 2737.19 577.157C2739.05 577.157 2740.69 577.616 2742.12 578.533C2743.57 579.429 2744.71 580.741 2745.54 582.469C2746.38 584.197 2746.79 586.288 2746.79 588.741C2746.79 591.195 2746.38 593.285 2745.54 595.013C2744.71 596.741 2743.57 598.064 2742.12 598.981C2740.69 599.877 2739.05 600.325 2737.19 600.325ZM2737.19 595.941C2738.07 595.941 2738.82 595.696 2739.46 595.205C2740.13 594.715 2740.64 593.936 2741 592.869C2741.38 591.803 2741.58 590.427 2741.58 588.741C2741.58 587.056 2741.38 585.68 2741 584.613C2740.64 583.547 2740.13 582.768 2739.46 582.277C2738.82 581.787 2738.07 581.541 2737.19 581.541C2736.34 581.541 2735.58 581.787 2734.92 582.277C2734.28 582.768 2733.77 583.547 2733.38 584.613C2733.02 585.68 2732.84 587.056 2732.84 588.741C2732.84 590.427 2733.02 591.803 2733.38 592.869C2733.77 593.936 2734.28 594.715 2734.92 595.205C2735.58 595.696 2736.34 595.941 2737.19 595.941ZM2766.47 600.197C2764.44 600.197 2762.86 599.685 2761.73 598.661C2760.6 597.616 2760.04 596.069 2760.04 594.021V578.917H2765.03V593.957C2765.03 594.683 2765.22 595.248 2765.61 595.653C2765.99 596.037 2766.51 596.229 2767.17 596.229C2767.96 596.229 2768.63 596.016 2769.19 595.589L2770.53 599.109C2770.02 599.472 2769.4 599.749 2768.68 599.941C2767.97 600.112 2767.24 600.197 2766.47 600.197ZM2757.38 586.949V583.109H2769.32V586.949H2757.38ZM2781 600.197C2779.16 600.197 2777.53 599.813 2776.1 599.045C2774.69 598.277 2773.57 597.232 2772.74 595.909C2771.93 594.565 2771.52 593.04 2771.52 591.333C2771.52 589.605 2771.93 588.08 2772.74 586.757C2773.57 585.413 2774.69 584.368 2776.1 583.621C2777.53 582.853 2779.16 582.469 2781 582.469C2782.81 582.469 2784.43 582.853 2785.86 583.621C2787.29 584.368 2788.41 585.403 2789.22 586.725C2790.03 588.048 2790.44 589.584 2790.44 591.333C2790.44 593.04 2790.03 594.565 2789.22 595.909C2788.41 597.232 2787.29 598.277 2785.86 599.045C2784.43 599.813 2782.81 600.197 2781 600.197ZM2781 596.101C2781.83 596.101 2782.57 595.909 2783.24 595.525C2783.9 595.141 2784.42 594.597 2784.8 593.893C2785.19 593.168 2785.38 592.315 2785.38 591.333C2785.38 590.331 2785.19 589.477 2784.8 588.773C2784.42 588.069 2783.9 587.525 2783.24 587.141C2782.57 586.757 2781.83 586.565 2781 586.565C2780.16 586.565 2779.42 586.757 2778.76 587.141C2778.09 587.525 2777.56 588.069 2777.16 588.773C2776.77 589.477 2776.58 590.331 2776.58 591.333C2776.58 592.315 2776.77 593.168 2777.16 593.893C2777.56 594.597 2778.09 595.141 2778.76 595.525C2779.42 595.909 2780.16 596.101 2781 596.101ZM2809.4 603.781V573.701H2812.6V603.781H2809.4ZM2810.55 600.325C2808.76 600.325 2807.04 600.091 2805.4 599.621C2803.75 599.131 2802.43 598.501 2801.43 597.733L2803.19 593.829C2804.15 594.512 2805.28 595.077 2806.58 595.525C2807.9 595.952 2809.24 596.165 2810.58 596.165C2811.6 596.165 2812.42 596.069 2813.04 595.877C2813.68 595.664 2814.15 595.376 2814.45 595.013C2814.75 594.651 2814.9 594.235 2814.9 593.765C2814.9 593.168 2814.66 592.699 2814.2 592.357C2813.73 591.995 2813.11 591.707 2812.34 591.493C2811.57 591.259 2810.72 591.045 2809.78 590.853C2808.86 590.64 2807.93 590.384 2807 590.085C2806.08 589.787 2805.24 589.403 2804.47 588.933C2803.7 588.464 2803.07 587.845 2802.58 587.077C2802.11 586.309 2801.88 585.328 2801.88 584.133C2801.88 582.853 2802.22 581.691 2802.9 580.645C2803.6 579.579 2804.65 578.736 2806.04 578.117C2807.44 577.477 2809.2 577.157 2811.32 577.157C2812.72 577.157 2814.11 577.328 2815.48 577.669C2816.84 577.989 2818.05 578.48 2819.09 579.141L2817.49 583.077C2816.45 582.48 2815.4 582.043 2814.36 581.765C2813.31 581.467 2812.29 581.317 2811.28 581.317C2810.28 581.317 2809.46 581.435 2808.82 581.669C2808.18 581.904 2807.72 582.213 2807.44 582.597C2807.17 582.96 2807.03 583.387 2807.03 583.877C2807.03 584.453 2807.26 584.923 2807.73 585.285C2808.2 585.627 2808.82 585.904 2809.59 586.117C2810.36 586.331 2811.2 586.544 2812.12 586.757C2813.05 586.971 2813.98 587.216 2814.9 587.493C2815.84 587.771 2816.69 588.144 2817.46 588.613C2818.23 589.083 2818.85 589.701 2819.32 590.469C2819.81 591.237 2820.05 592.208 2820.05 593.381C2820.05 594.64 2819.7 595.792 2819 596.837C2818.29 597.883 2817.24 598.725 2815.83 599.365C2814.44 600.005 2812.68 600.325 2810.55 600.325ZM2821.99 599.941V596.581L2830.63 588.421C2831.32 587.803 2831.82 587.248 2832.14 586.757C2832.46 586.267 2832.67 585.819 2832.78 585.413C2832.91 585.008 2832.97 584.635 2832.97 584.293C2832.97 583.397 2832.66 582.715 2832.04 582.245C2831.44 581.755 2830.56 581.509 2829.39 581.509C2828.45 581.509 2827.57 581.691 2826.76 582.053C2825.97 582.416 2825.3 582.981 2824.75 583.749L2820.97 581.317C2821.82 580.037 2823.02 579.024 2824.55 578.277C2826.09 577.531 2827.86 577.157 2829.87 577.157C2831.53 577.157 2832.98 577.435 2834.22 577.989C2835.48 578.523 2836.45 579.28 2837.13 580.261C2837.83 581.243 2838.19 582.416 2838.19 583.781C2838.19 584.507 2838.09 585.232 2837.9 585.957C2837.73 586.661 2837.36 587.408 2836.81 588.197C2836.28 588.987 2835.49 589.872 2834.44 590.853L2827.27 597.605L2826.28 595.717H2838.92V599.941H2821.99ZM2850.66 600.325C2848.83 600.325 2847.18 599.877 2845.73 598.981C2844.28 598.064 2843.14 596.741 2842.31 595.013C2841.48 593.285 2841.06 591.195 2841.06 588.741C2841.06 586.288 2841.48 584.197 2842.31 582.469C2843.14 580.741 2844.28 579.429 2845.73 578.533C2847.18 577.616 2848.83 577.157 2850.66 577.157C2852.52 577.157 2854.16 577.616 2855.59 578.533C2857.04 579.429 2858.18 580.741 2859.01 582.469C2859.84 584.197 2860.26 586.288 2860.26 588.741C2860.26 591.195 2859.84 593.285 2859.01 595.013C2858.18 596.741 2857.04 598.064 2855.59 598.981C2854.16 599.877 2852.52 600.325 2850.66 600.325ZM2850.66 595.941C2851.54 595.941 2852.29 595.696 2852.93 595.205C2853.59 594.715 2854.11 593.936 2854.47 592.869C2854.85 591.803 2855.04 590.427 2855.04 588.741C2855.04 587.056 2854.85 585.68 2854.47 584.613C2854.11 583.547 2853.59 582.768 2852.93 582.277C2852.29 581.787 2851.54 581.541 2850.66 581.541C2849.81 581.541 2849.05 581.787 2848.39 582.277C2847.75 582.768 2847.24 583.547 2846.85 584.613C2846.49 585.68 2846.31 587.056 2846.31 588.741C2846.31 590.427 2846.49 591.803 2846.85 592.869C2847.24 593.936 2847.75 594.715 2848.39 595.205C2849.05 595.696 2849.81 595.941 2850.66 595.941ZM2862.57 604.869L2864.68 597.189L2865.38 600.069C2864.46 600.069 2863.71 599.803 2863.11 599.269C2862.53 598.736 2862.25 598 2862.25 597.061C2862.25 596.123 2862.54 595.376 2863.14 594.821C2863.74 594.267 2864.47 593.989 2865.35 593.989C2866.25 593.989 2866.98 594.277 2867.56 594.853C2868.13 595.408 2868.42 596.144 2868.42 597.061C2868.42 597.339 2868.4 597.616 2868.36 597.893C2868.31 598.149 2868.23 598.469 2868.1 598.853C2867.99 599.216 2867.81 599.685 2867.56 600.261L2865.73 604.869H2862.57ZM2879.94 600.325C2878.11 600.325 2876.46 599.877 2875.01 598.981C2873.56 598.064 2872.42 596.741 2871.59 595.013C2870.76 593.285 2870.34 591.195 2870.34 588.741C2870.34 586.288 2870.76 584.197 2871.59 582.469C2872.42 580.741 2873.56 579.429 2875.01 578.533C2876.46 577.616 2878.11 577.157 2879.94 577.157C2881.8 577.157 2883.44 577.616 2884.87 578.533C2886.32 579.429 2887.46 580.741 2888.29 582.469C2889.13 584.197 2889.54 586.288 2889.54 588.741C2889.54 591.195 2889.13 593.285 2888.29 595.013C2887.46 596.741 2886.32 598.064 2884.87 598.981C2883.44 599.877 2881.8 600.325 2879.94 600.325ZM2879.94 595.941C2880.82 595.941 2881.57 595.696 2882.21 595.205C2882.88 594.715 2883.39 593.936 2883.75 592.869C2884.13 591.803 2884.33 590.427 2884.33 588.741C2884.33 587.056 2884.13 585.68 2883.75 584.613C2883.39 583.547 2882.88 582.768 2882.21 582.277C2881.57 581.787 2880.82 581.541 2879.94 581.541C2879.09 581.541 2878.33 581.787 2877.67 582.277C2877.03 582.768 2876.52 583.547 2876.13 584.613C2875.77 585.68 2875.59 587.056 2875.59 588.741C2875.59 590.427 2875.77 591.803 2876.13 592.869C2876.52 593.936 2877.03 594.715 2877.67 595.205C2878.33 595.696 2879.09 595.941 2879.94 595.941ZM2901.66 600.325C2899.83 600.325 2898.18 599.877 2896.73 598.981C2895.28 598.064 2894.14 596.741 2893.31 595.013C2892.48 593.285 2892.06 591.195 2892.06 588.741C2892.06 586.288 2892.48 584.197 2893.31 582.469C2894.14 580.741 2895.28 579.429 2896.73 578.533C2898.18 577.616 2899.83 577.157 2901.66 577.157C2903.52 577.157 2905.16 577.616 2906.59 578.533C2908.04 579.429 2909.18 580.741 2910.01 582.469C2910.84 584.197 2911.26 586.288 2911.26 588.741C2911.26 591.195 2910.84 593.285 2910.01 595.013C2909.18 596.741 2908.04 598.064 2906.59 598.981C2905.16 599.877 2903.52 600.325 2901.66 600.325ZM2901.66 595.941C2902.54 595.941 2903.29 595.696 2903.93 595.205C2904.59 594.715 2905.11 593.936 2905.47 592.869C2905.85 591.803 2906.04 590.427 2906.04 588.741C2906.04 587.056 2905.85 585.68 2905.47 584.613C2905.11 583.547 2904.59 582.768 2903.93 582.277C2903.29 581.787 2902.54 581.541 2901.66 581.541C2900.81 581.541 2900.05 581.787 2899.39 582.277C2898.75 582.768 2898.24 583.547 2897.85 584.613C2897.49 585.68 2897.31 587.056 2897.31 588.741C2897.31 590.427 2897.49 591.803 2897.85 592.869C2898.24 593.936 2898.75 594.715 2899.39 595.205C2900.05 595.696 2900.81 595.941 2901.66 595.941ZM2923.38 600.325C2921.54 600.325 2919.9 599.877 2918.45 598.981C2917 598.064 2915.86 596.741 2915.03 595.013C2914.2 593.285 2913.78 591.195 2913.78 588.741C2913.78 586.288 2914.2 584.197 2915.03 582.469C2915.86 580.741 2917 579.429 2918.45 578.533C2919.9 577.616 2921.54 577.157 2923.38 577.157C2925.24 577.157 2926.88 577.616 2928.31 578.533C2929.76 579.429 2930.9 580.741 2931.73 582.469C2932.56 584.197 2932.98 586.288 2932.98 588.741C2932.98 591.195 2932.56 593.285 2931.73 595.013C2930.9 596.741 2929.76 598.064 2928.31 598.981C2926.88 599.877 2925.24 600.325 2923.38 600.325ZM2923.38 595.941C2924.25 595.941 2925.01 595.696 2925.65 595.205C2926.31 594.715 2926.82 593.936 2927.19 592.869C2927.57 591.803 2927.76 590.427 2927.76 588.741C2927.76 587.056 2927.57 585.68 2927.19 584.613C2926.82 583.547 2926.31 582.768 2925.65 582.277C2925.01 581.787 2924.25 581.541 2923.38 581.541C2922.53 581.541 2921.77 581.787 2921.11 582.277C2920.47 582.768 2919.96 583.547 2919.57 584.613C2919.21 585.68 2919.03 587.056 2919.03 588.741C2919.03 590.427 2919.21 591.803 2919.57 592.869C2919.96 593.936 2920.47 594.715 2921.11 595.205C2921.77 595.696 2922.53 595.941 2923.38 595.941Z" fill="white"/>
<path d="M2643.99 420C2643.99 414.477 2648.47 410 2653.99 410H2729.81H2803.03C2808.56 410 2813.03 414.477 2813.03 420V466.548C2813.03 472.071 2808.56 476.548 2803.03 476.548H2653.99C2648.47 476.548 2643.99 472.071 2643.99 466.548V420Z" fill="white"/>
<path d="M2700.37 451.947C2698.81 451.947 2697.26 451.744 2695.73 451.339C2694.19 450.912 2692.89 450.315 2691.82 449.547L2693.84 445.579C2694.69 446.198 2695.68 446.688 2696.81 447.051C2697.95 447.414 2699.09 447.595 2700.24 447.595C2701.54 447.595 2702.56 447.339 2703.31 446.827C2704.06 446.315 2704.43 445.611 2704.43 444.715C2704.43 443.862 2704.1 443.19 2703.44 442.699C2702.78 442.208 2701.71 441.963 2700.24 441.963H2697.87V438.539L2704.11 431.467L2704.69 433.323H2692.94V429.163H2708.62V432.523L2702.41 439.595L2699.79 438.091H2701.29C2704.05 438.091 2706.13 438.71 2707.53 439.947C2708.94 441.184 2709.65 442.774 2709.65 444.715C2709.65 445.974 2709.32 447.158 2708.65 448.267C2707.99 449.355 2706.98 450.24 2705.61 450.923C2704.25 451.606 2702.5 451.947 2700.37 451.947ZM2719.34 451.947C2717.79 451.947 2716.24 451.744 2714.7 451.339C2713.19 450.912 2711.89 450.315 2710.8 449.547L2712.85 445.579C2713.7 446.198 2714.68 446.688 2715.79 447.051C2716.92 447.414 2718.06 447.595 2719.22 447.595C2720.52 447.595 2721.54 447.339 2722.29 446.827C2723.03 446.315 2723.41 445.6 2723.41 444.683C2723.41 444.107 2723.26 443.595 2722.96 443.147C2722.66 442.699 2722.13 442.358 2721.36 442.123C2720.61 441.888 2719.56 441.771 2718.19 441.771H2712.46L2713.62 429.163H2727.28V433.323H2715.47L2718.16 430.955L2717.36 439.947L2714.67 437.579H2719.41C2721.63 437.579 2723.41 437.888 2724.75 438.507C2726.12 439.104 2727.11 439.926 2727.73 440.971C2728.35 442.016 2728.66 443.2 2728.66 444.523C2728.66 445.846 2728.33 447.072 2727.66 448.203C2727 449.312 2725.98 450.219 2724.59 450.923C2723.23 451.606 2721.48 451.947 2719.34 451.947ZM2733.68 451.563L2748.97 429.163H2752.78L2737.49 451.563H2733.68ZM2735.63 441.259C2734.54 441.259 2733.58 441.014 2732.75 440.523C2731.92 440.011 2731.26 439.296 2730.77 438.379C2730.3 437.44 2730.06 436.342 2730.06 435.083C2730.06 433.824 2730.3 432.736 2730.77 431.819C2731.26 430.902 2731.92 430.187 2732.75 429.675C2733.58 429.163 2734.54 428.907 2735.63 428.907C2736.72 428.907 2737.68 429.163 2738.51 429.675C2739.34 430.187 2739.99 430.902 2740.46 431.819C2740.93 432.736 2741.17 433.824 2741.17 435.083C2741.17 436.342 2740.93 437.44 2740.46 438.379C2739.99 439.296 2739.34 440.011 2738.51 440.523C2737.68 441.014 2736.72 441.259 2735.63 441.259ZM2735.63 438.635C2736.33 438.635 2736.9 438.347 2737.33 437.771C2737.75 437.174 2737.97 436.278 2737.97 435.083C2737.97 433.888 2737.75 433.003 2737.33 432.427C2736.9 431.83 2736.33 431.531 2735.63 431.531C2734.95 431.531 2734.38 431.83 2733.93 432.427C2733.51 433.003 2733.29 433.888 2733.29 435.083C2733.29 436.256 2733.51 437.142 2733.93 437.739C2734.38 438.336 2734.95 438.635 2735.63 438.635ZM2750.83 451.819C2749.76 451.819 2748.8 451.574 2747.95 451.083C2747.12 450.571 2746.47 449.856 2746 448.939C2745.53 448 2745.29 446.902 2745.29 445.643C2745.29 444.384 2745.53 443.296 2746 442.379C2746.47 441.462 2747.12 440.747 2747.95 440.235C2748.8 439.723 2749.76 439.467 2750.83 439.467C2751.94 439.467 2752.91 439.723 2753.74 440.235C2754.57 440.747 2755.23 441.462 2755.69 442.379C2756.16 443.296 2756.4 444.384 2756.4 445.643C2756.4 446.902 2756.16 448 2755.69 448.939C2755.23 449.856 2754.57 450.571 2753.74 451.083C2752.91 451.574 2751.94 451.819 2750.83 451.819ZM2750.83 449.195C2751.53 449.195 2752.1 448.907 2752.53 448.331C2752.95 447.734 2753.17 446.838 2753.17 445.643C2753.17 444.47 2752.95 443.584 2752.53 442.987C2752.1 442.39 2751.53 442.091 2750.83 442.091C2750.15 442.091 2749.58 442.39 2749.13 442.987C2748.71 443.563 2748.49 444.448 2748.49 445.643C2748.49 446.838 2748.71 447.734 2749.13 448.331C2749.58 448.907 2750.15 449.195 2750.83 449.195Z" fill="url(#paint3_linear_110_162)"/>
<path d="M2781.49 491.39L2771.75 480.545H2791.23L2781.49 491.39Z" fill="white"/>
<path d="M2013.96 0.620438L2013.96 765M2036.84 0.620438L2036.84 765M2059.72 0.620438L2059.72 765M2082.6 0.620438L2082.6 765M2105.48 0.620438L2105.48 765M2128.36 0.620438L2128.36 765M2151.24 0.620438L2151.24 765M2174.13 0.620438L2174.13 765M2197.01 0.620438L2197.01 765M2219.89 0.620438L2219.89 765M2242.77 0.620438V765M2265.65 0.620438V765M2288.53 0.620438V765M2311.41 0.620438V765M2334.29 0.620438V765M2357.18 0.620438V765M2380.06 0.620438V765M2402.94 0.620438V765M2425.82 0.620438V765M2448.7 0.620438L2448.7 765M2471.58 0.620438L2471.58 765M2494.46 0.620438L2494.46 765M2517.34 0.620438L2517.34 765M2013.55 764.38L2516.94 764.38M2013.55 729.635L2516.94 729.635M2013.55 694.891L2516.94 694.891M2013.55 660.146L2516.94 660.146M2013.55 625.401L2516.94 625.402M2013.55 590.657L2516.94 590.657M2013.55 555.912L2516.94 555.912M2013.55 521.168L2516.94 521.168M2013.55 486.423L2516.94 486.423M2013.55 451.679L2516.94 451.679M2013.55 416.934L2516.94 416.934M2013.55 382.19L2516.94 382.19M2013.55 347.445H2516.94M2013.55 312.701L2516.94 312.701M2013.55 277.956L2516.94 277.956M2013.55 243.212L2516.94 243.212M2013.55 208.467L2516.94 208.467M2013.55 173.723L2516.94 173.723M2013.55 138.978L2516.94 138.978M2013.55 104.234L2516.94 104.234M2013.55 69.4891L2516.94 69.4891M2013.55 34.7445L2516.94 34.7446M2013.55 0L2516.94 5.14551e-05" stroke="url(#paint4_linear_110_162)" stroke-opacity="0.1"/>
<path d="M503.796 0.620438L503.796 765M526.677 0.620438L526.677 765M549.558 0.620438L549.558 765M572.44 0.620438L572.439 765M595.321 0.620438L595.321 765M618.202 0.620438L618.202 765M641.083 0.620438L641.083 765M663.964 0.620438L663.964 765M686.846 0.620438L686.846 765M709.727 0.620438L709.727 765M732.608 0.620438V765M755.489 0.620438V765M778.371 0.620438V765M801.252 0.620438V765M824.133 0.620438V765M847.014 0.620438V765M869.896 0.620438V765M892.777 0.620438V765M915.658 0.620438V765M938.539 0.620438L938.539 765M961.42 0.620438L961.42 765M984.302 0.620438L984.302 765M1007.18 0.620438L1007.18 765M503.387 764.38L1006.77 764.38M503.387 729.635L1006.77 729.635M503.387 694.891L1006.77 694.891M503.387 660.146L1006.77 660.146M503.387 625.401L1006.77 625.402M503.387 590.657L1006.77 590.657M503.387 555.912L1006.77 555.913M503.387 521.168L1006.77 521.168M503.387 486.423L1006.77 486.423M503.387 451.679L1006.77 451.679M503.387 416.934L1006.77 416.934M503.387 382.19L1006.77 382.19M503.387 347.445L1006.77 347.445M503.387 312.701L1006.77 312.701M503.387 277.956L1006.77 277.956M503.387 243.212L1006.77 243.212M503.387 208.467L1006.77 208.467M503.387 173.723L1006.77 173.723M503.387 138.978L1006.77 138.978M503.387 104.234L1006.77 104.234M503.387 69.4891L1006.77 69.4891M503.387 34.7445L1006.77 34.7446M503.387 0L1006.77 5.14551e-05" stroke="url(#paint5_linear_110_162)" stroke-opacity="0.1"/>
<path d="M0.408615 0.620438L0.408593 765M23.2898 0.620438L23.2898 765M46.1711 0.620438L46.1711 765M69.0523 0.620438L69.0523 765M91.9335 0.620438L91.9335 765M114.815 0.620438L114.815 765M137.696 0.620438L137.696 765M160.577 0.620438L160.577 765M183.458 0.620438L183.458 765M206.34 0.620438L206.34 765M229.221 0.620438V765M252.102 0.620438V765M274.983 0.620438V765M297.865 0.620438V765M320.746 0.620438V765M343.627 0.620438V765M366.508 0.620438V765M389.39 0.620438V765M412.271 0.620438V765M435.152 0.620438L435.152 765M458.033 0.620438L458.033 765M480.915 0.620438L480.914 765M503.796 0.620438L503.796 765M0 764.38L503.387 764.38M0 729.635L503.387 729.635M0 694.891L503.387 694.891M0 660.146L503.387 660.146M0 625.401L503.387 625.402M0 590.657L503.387 590.657M0 555.912L503.387 555.913M0 521.168L503.387 521.168M0 486.423L503.387 486.423M0 451.679L503.387 451.679M0 416.934L503.387 416.934M0 382.19L503.387 382.19M0 347.445L503.387 347.445M0 312.701L503.387 312.701M0 277.956L503.387 277.956M0 243.212L503.387 243.212M0 208.467L503.387 208.467M0 173.723L503.387 173.723M0 138.978L503.387 138.978M0 104.234L503.387 104.234M0 69.4891L503.387 69.4891M0 34.7445L503.387 34.7446M0 0L503.387 5.14551e-05" stroke="url(#paint6_linear_110_162)" stroke-opacity="0.1"/>
<path d="M1007.18 0.620438L1007.18 765M1030.06 0.620438L1030.06 765M1052.95 0.620438L1052.95 765M1075.83 0.620438L1075.83 765M1098.71 0.620438L1098.71 765M1121.59 0.620438L1121.59 765M1144.47 0.620438L1144.47 765M1167.35 0.620438L1167.35 765M1190.23 0.620438L1190.23 765M1213.11 0.620438L1213.11 765M1236 0.620438V765M1258.88 0.620438V765M1281.76 0.620438V765M1304.64 0.620438V765M1327.52 0.620438V765M1350.4 0.620438V765M1373.28 0.620438V765M1396.16 0.620438V765M1419.05 0.620438V765M1441.93 0.620438L1441.93 765M1464.81 0.620438L1464.81 765M1487.69 0.620438L1487.69 765M1510.57 0.620438L1510.57 765M1006.77 764.38L1510.16 764.38M1006.77 729.635L1510.16 729.635M1006.77 694.891L1510.16 694.891M1006.77 660.146L1510.16 660.146M1006.77 625.401L1510.16 625.402M1006.77 590.657L1510.16 590.657M1006.77 555.912L1510.16 555.913M1006.77 521.168L1510.16 521.168M1006.77 486.423L1510.16 486.423M1006.77 451.679L1510.16 451.679M1006.77 416.934L1510.16 416.934M1006.77 382.19L1510.16 382.19M1006.77 347.445L1510.16 347.445M1006.77 312.701L1510.16 312.701M1006.77 277.956L1510.16 277.956M1006.77 243.212L1510.16 243.212M1006.77 208.467L1510.16 208.467M1006.77 173.723L1510.16 173.723M1006.77 138.978L1510.16 138.978M1006.77 104.234L1510.16 104.234M1006.77 69.4891L1510.16 69.4891M1006.77 34.7445L1510.16 34.7446M1006.77 0L1510.16 5.14551e-05" stroke="url(#paint7_linear_110_162)" stroke-opacity="0.1"/>
<path d="M1510.57 0.620438L1510.57 765M1533.45 0.620438L1533.45 765M1556.33 0.620438L1556.33 765M1579.21 0.620438L1579.21 765M1602.09 0.620438L1602.09 765M1624.98 0.620438L1624.98 765M1647.86 0.620438L1647.86 765M1670.74 0.620438L1670.74 765M1693.62 0.620438L1693.62 765M1716.5 0.620438L1716.5 765M1739.38 0.620438V765M1762.26 0.620438V765M1785.14 0.620438V765M1808.03 0.620438V765M1830.91 0.620438V765M1853.79 0.620438V765M1876.67 0.620438V765M1899.55 0.620438V765M1922.43 0.620438V765M1945.31 0.620438L1945.31 765M1968.19 0.620438L1968.19 765M1991.08 0.620438L1991.08 765M2013.96 0.620438L2013.96 765M1510.16 764.38L2013.55 764.38M1510.16 729.635L2013.55 729.635M1510.16 694.891L2013.55 694.891M1510.16 660.146L2013.55 660.146M1510.16 625.401L2013.55 625.402M1510.16 590.657L2013.55 590.657M1510.16 555.912L2013.55 555.913M1510.16 521.168L2013.55 521.168M1510.16 486.423L2013.55 486.423M1510.16 451.679L2013.55 451.679M1510.16 416.934L2013.55 416.934M1510.16 382.19L2013.55 382.19M1510.16 347.445L2013.55 347.445M1510.16 312.701L2013.55 312.701M1510.16 277.956L2013.55 277.956M1510.16 243.212L2013.55 243.212M1510.16 208.467L2013.55 208.467M1510.16 173.723L2013.55 173.723M1510.16 138.978L2013.55 138.978M1510.16 104.234L2013.55 104.234M1510.16 69.4891L2013.55 69.4891M1510.16 34.7445L2013.55 34.7446M1510.16 0L2013.55 5.14551e-05" stroke="url(#paint8_linear_110_162)" stroke-opacity="0.1"/>
<path d="M4531.3 0.620438L4531.3 765M4554.18 0.620438L4554.18 765M4577.06 0.620438L4577.06 765M4599.95 0.620438L4599.95 765M4622.83 0.620438L4622.83 765M4645.71 0.620438L4645.71 765M4668.59 0.620438L4668.59 765M4691.47 0.620438L4691.47 765M4714.35 0.620438L4714.35 765M4737.23 0.620438L4737.23 765M4760.11 0.620438V765M4782.99 0.620438V765M4805.88 0.620438V765M4828.76 0.620438V765M4851.64 0.620438V765M4874.52 0.620438V765M4897.4 0.620438V765M4920.28 0.620438V765M4943.16 0.620438V765M4966.04 0.620438L4966.04 765M4988.93 0.620438L4988.93 765M5011.81 0.620438L5011.81 765M5034.69 0.620438L5034.69 765M4530.89 764.38L5034.28 764.38M4530.89 729.635L5034.28 729.635M4530.89 694.891L5034.28 694.891M4530.89 660.146L5034.28 660.146M4530.89 625.401L5034.28 625.402M4530.89 590.657L5034.28 590.657M4530.89 555.912L5034.28 555.913M4530.89 521.168L5034.28 521.168M4530.89 486.423L5034.28 486.423M4530.89 451.679L5034.28 451.679M4530.89 416.934L5034.28 416.934M4530.89 382.19L5034.28 382.19M4530.89 347.445L5034.28 347.445M4530.89 312.701L5034.28 312.701M4530.89 277.956L5034.28 277.956M4530.89 243.212L5034.28 243.212M4530.89 208.467L5034.28 208.467M4530.89 173.723L5034.28 173.723M4530.89 138.978L5034.28 138.978M4530.89 104.234L5034.28 104.234M4530.89 69.4891L5034.28 69.4891M4530.89 34.7445L5034.28 34.7446M4530.89 0L5034.28 5.14551e-05" stroke="url(#paint9_linear_110_162)" stroke-opacity="0.1"/>
<path d="M3021.14 0.620438L3021.14 765M3044.02 0.620438L3044.02 765M3066.9 0.620438L3066.9 765M3089.78 0.620438L3089.78 765M3112.66 0.620438L3112.66 765M3135.55 0.620438L3135.55 765M3158.43 0.620438L3158.43 765M3181.31 0.620438L3181.31 765M3204.19 0.620438L3204.19 765M3227.07 0.620438L3227.07 765M3249.95 0.620438V765M3272.83 0.620438V765M3295.71 0.620438V765M3318.6 0.620438V765M3341.48 0.620438V765M3364.36 0.620438V765M3387.24 0.620438V765M3410.12 0.620438V765M3433 0.620438V765M3455.88 0.620438L3455.88 765M3478.76 0.620438L3478.76 765M3501.65 0.620438L3501.65 765M3524.53 0.620438L3524.53 765M3020.73 764.38L3524.12 764.38M3020.73 729.635L3524.12 729.635M3020.73 694.891L3524.12 694.891M3020.73 660.146L3524.12 660.146M3020.73 625.401L3524.12 625.402M3020.73 590.657L3524.12 590.657M3020.73 555.912L3524.12 555.913M3020.73 521.168L3524.12 521.168M3020.73 486.423L3524.12 486.423M3020.73 451.679L3524.12 451.679M3020.73 416.934L3524.12 416.934M3020.73 382.19L3524.12 382.19M3020.73 347.445L3524.12 347.445M3020.73 312.701L3524.12 312.701M3020.73 277.956L3524.12 277.956M3020.73 243.212L3524.12 243.212M3020.73 208.467L3524.12 208.467M3020.73 173.723L3524.12 173.723M3020.73 138.978L3524.12 138.978M3020.73 104.234L3524.12 104.234M3020.73 69.4891L3524.12 69.4891M3020.73 34.7445L3524.12 34.7446M3020.73 0L3524.12 5.14551e-05" stroke="url(#paint10_linear_110_162)" stroke-opacity="0.1"/>
<path d="M2517.75 0.620438L2517.75 765M2540.63 0.620438L2540.63 765M2563.52 0.620438L2563.52 765M2586.4 0.620438L2586.4 765M2609.28 0.620438L2609.28 765M2632.16 0.620438L2632.16 765M2655.04 0.620438L2655.04 765M2677.92 0.620438L2677.92 765M2700.8 0.620438L2700.8 765M2723.68 0.620438L2723.68 765M2746.57 0.620438V765M2769.45 0.620438V765M2792.33 0.620438V765M2815.21 0.620438V765M2838.09 0.620438V765M2860.97 0.620438V765M2883.85 0.620438V765M2906.73 0.620438V765M2929.61 0.620438V765M2952.5 0.620438L2952.5 765M2975.38 0.620438L2975.38 765M2998.26 0.620438L2998.26 765M3021.14 0.620438L3021.14 765M2517.34 764.38L3020.73 764.38M2517.34 729.635L3020.73 729.635M2517.34 694.891L3020.73 694.891M2517.34 660.146L3020.73 660.146M2517.34 625.401L3020.73 625.402M2517.34 590.657L3020.73 590.657M2517.34 555.912L3020.73 555.912M2517.34 521.168L3020.73 521.168M2517.34 486.423L3020.73 486.423M2517.34 451.679L3020.73 451.679M2517.34 416.934L3020.73 416.934M2517.34 382.19L3020.73 382.19M2517.34 347.445L3020.73 347.445M2517.34 312.701L3020.73 312.701M2517.34 277.956L3020.73 277.956M2517.34 243.212L3020.73 243.212M2517.34 208.467L3020.73 208.467M2517.34 173.723L3020.73 173.723M2517.34 138.978L3020.73 138.978M2517.34 104.234L3020.73 104.234M2517.34 69.4891L3020.73 69.4891M2517.34 34.7445L3020.73 34.7446M2517.34 0L3020.73 5.14551e-05" stroke="url(#paint11_linear_110_162)" stroke-opacity="0.1"/>
<path d="M3524.53 0.620438L3524.53 765M3547.41 0.620438L3547.41 765M3570.29 0.620438L3570.29 765M3593.17 0.620438L3593.17 765M3616.05 0.620438L3616.05 765M3638.93 0.620438L3638.93 765M3661.81 0.620438L3661.81 765M3684.7 0.620438L3684.7 765M3707.58 0.620438L3707.58 765M3730.46 0.620438L3730.46 765M3753.34 0.620438V765M3776.22 0.620438V765M3799.1 0.620438V765M3821.98 0.620438V765M3844.86 0.620438V765M3867.75 0.620438V765M3890.63 0.620438V765M3913.51 0.620438V765M3936.39 0.620438V765M3959.27 0.620438L3959.27 765M3982.15 0.620438L3982.15 765M4005.03 0.620438L4005.03 765M4027.91 0.620438L4027.91 765M3524.12 764.38L4027.51 764.38M3524.12 729.635L4027.51 729.635M3524.12 694.891L4027.51 694.891M3524.12 660.146L4027.51 660.146M3524.12 625.401L4027.51 625.402M3524.12 590.657L4027.51 590.657M3524.12 555.912L4027.51 555.913M3524.12 521.168L4027.51 521.168M3524.12 486.423L4027.51 486.423M3524.12 451.679L4027.51 451.679M3524.12 416.934L4027.51 416.934M3524.12 382.19L4027.51 382.19M3524.12 347.445L4027.51 347.445M3524.12 312.701L4027.51 312.701M3524.12 277.956L4027.51 277.956M3524.12 243.212L4027.51 243.212M3524.12 208.467L4027.51 208.467M3524.12 173.723L4027.51 173.723M3524.12 138.978L4027.51 138.978M3524.12 104.234L4027.51 104.234M3524.12 69.4891L4027.51 69.4891M3524.12 34.7445L4027.51 34.7446M3524.12 0L4027.51 5.14551e-05" stroke="url(#paint12_linear_110_162)" stroke-opacity="0.1"/>
<path d="M4027.91 0.620438L4027.91 765M4050.8 0.620438L4050.8 765M4073.68 0.620438L4073.68 765M4096.56 0.620438L4096.56 765M4119.44 0.620438L4119.44 765M4142.32 0.620438L4142.32 765M4165.2 0.620438L4165.2 765M4188.08 0.620438L4188.08 765M4210.96 0.620438L4210.96 765M4233.85 0.620438L4233.85 765M4256.73 0.620438V765M4279.61 0.620438V765M4302.49 0.620438V765M4325.37 0.620438V765M4348.25 0.620438V765M4371.13 0.620438V765M4394.01 0.620438V765M4416.9 0.620438V765M4439.78 0.620438V765M4462.66 0.620438L4462.66 765M4485.54 0.620438L4485.54 765M4508.42 0.620438L4508.42 765M4531.3 0.620438L4531.3 765M4027.51 764.38L4530.89 764.38M4027.51 729.635L4530.89 729.635M4027.51 694.891L4530.89 694.891M4027.51 660.146L4530.89 660.146M4027.51 625.401L4530.89 625.402M4027.51 590.657L4530.89 590.657M4027.51 555.912L4530.89 555.913M4027.51 521.168L4530.89 521.168M4027.51 486.423L4530.89 486.423M4027.51 451.679L4530.89 451.679M4027.51 416.934L4530.89 416.934M4027.51 382.19L4530.89 382.19M4027.51 347.445L4530.89 347.445M4027.51 312.701L4530.89 312.701M4027.51 277.956L4530.89 277.956M4027.51 243.212L4530.89 243.212M4027.51 208.467L4530.89 208.467M4027.51 173.723L4530.89 173.723M4027.51 138.978L4530.89 138.978M4027.51 104.234L4530.89 104.234M4027.51 69.4891L4530.89 69.4891M4027.51 34.7445L4530.89 34.7446M4027.51 0L4530.89 5.14551e-05" stroke="url(#paint13_linear_110_162)" stroke-opacity="0.1"/>
<g filter="url(#filter3_f_110_162)">
<path d="M2463.46 624C2463.46 632.671 2455.48 640.5 2444.59 640.5C2433.7 640.5 2425.71 632.671 2425.71 624C2425.71 615.329 2433.7 607.5 2444.59 607.5C2455.48 607.5 2463.46 615.329 2463.46 624Z" stroke="#605DEC" stroke-width="9"/>
</g>
<path d="M2464.96 624C2464.96 633.647 2456.15 642 2444.59 642C2433.03 642 2424.21 633.647 2424.21 624C2424.21 614.353 2433.03 606 2444.59 606C2456.15 606 2464.96 614.353 2464.96 624Z" stroke="white" stroke-width="6"/>
<path d="M2309.86 694.856V664.776H2313.06V694.856H2309.86ZM2311.02 691.4C2309.22 691.4 2307.51 691.165 2305.86 690.696C2304.22 690.205 2302.9 689.576 2301.9 688.808L2303.66 684.904C2304.62 685.586 2305.75 686.152 2307.05 686.6C2308.37 687.026 2309.7 687.24 2311.05 687.24C2312.07 687.24 2312.89 687.144 2313.51 686.952C2314.15 686.738 2314.62 686.45 2314.92 686.088C2315.22 685.725 2315.37 685.309 2315.37 684.84C2315.37 684.242 2315.13 683.773 2314.66 683.432C2314.19 683.069 2313.58 682.781 2312.81 682.568C2312.04 682.333 2311.19 682.12 2310.25 681.928C2309.33 681.714 2308.4 681.458 2307.46 681.16C2306.55 680.861 2305.7 680.477 2304.94 680.008C2304.17 679.538 2303.54 678.92 2303.05 678.152C2302.58 677.384 2302.34 676.402 2302.34 675.208C2302.34 673.928 2302.69 672.765 2303.37 671.72C2304.07 670.653 2305.12 669.81 2306.5 669.192C2307.91 668.552 2309.67 668.232 2311.78 668.232C2313.19 668.232 2314.58 668.402 2315.94 668.744C2317.31 669.064 2318.51 669.554 2319.56 670.216L2317.96 674.152C2316.91 673.554 2315.87 673.117 2314.82 672.84C2313.78 672.541 2312.75 672.392 2311.75 672.392C2310.75 672.392 2309.93 672.509 2309.29 672.744C2308.65 672.978 2308.19 673.288 2307.91 673.672C2307.63 674.034 2307.5 674.461 2307.5 674.952C2307.5 675.528 2307.73 675.997 2308.2 676.36C2308.67 676.701 2309.29 676.978 2310.06 677.192C2310.82 677.405 2311.67 677.618 2312.58 677.832C2313.52 678.045 2314.45 678.29 2315.37 678.568C2316.31 678.845 2317.16 679.218 2317.93 679.688C2318.7 680.157 2319.31 680.776 2319.78 681.544C2320.27 682.312 2320.52 683.282 2320.52 684.456C2320.52 685.714 2320.17 686.866 2319.46 687.912C2318.76 688.957 2317.7 689.8 2316.3 690.44C2314.91 691.08 2313.15 691.4 2311.02 691.4ZM2330.27 691.4C2328.71 691.4 2327.17 691.197 2325.63 690.792C2324.12 690.365 2322.81 689.768 2321.73 689L2323.77 685.032C2324.63 685.65 2325.61 686.141 2326.72 686.504C2327.85 686.866 2328.99 687.048 2330.14 687.048C2331.44 687.048 2332.47 686.792 2333.21 686.28C2333.96 685.768 2334.33 685.053 2334.33 684.136C2334.33 683.56 2334.18 683.048 2333.89 682.6C2333.59 682.152 2333.05 681.81 2332.29 681.576C2331.54 681.341 2330.48 681.224 2329.12 681.224H2323.39L2324.54 668.616H2338.21V672.776H2326.4L2329.09 670.408L2328.29 679.4L2325.6 677.032H2330.33C2332.55 677.032 2334.33 677.341 2335.68 677.96C2337.04 678.557 2338.04 679.378 2338.65 680.424C2339.27 681.469 2339.58 682.653 2339.58 683.976C2339.58 685.298 2339.25 686.525 2338.59 687.656C2337.93 688.765 2336.9 689.672 2335.52 690.376C2334.15 691.058 2332.4 691.4 2330.27 691.4ZM2341.88 695.944L2343.99 688.264L2344.69 691.144C2343.78 691.144 2343.02 690.877 2342.42 690.344C2341.85 689.81 2341.56 689.074 2341.56 688.136C2341.56 687.197 2341.86 686.45 2342.45 685.896C2343.05 685.341 2343.79 685.064 2344.66 685.064C2345.56 685.064 2346.29 685.352 2346.87 685.928C2347.45 686.482 2347.73 687.218 2347.73 688.136C2347.73 688.413 2347.71 688.69 2347.67 688.968C2347.63 689.224 2347.54 689.544 2347.41 689.928C2347.31 690.29 2347.13 690.76 2346.87 691.336L2345.05 695.944H2341.88ZM2359.25 691.4C2357.42 691.4 2355.78 690.952 2354.33 690.056C2352.88 689.138 2351.73 687.816 2350.9 686.088C2350.07 684.36 2349.65 682.269 2349.65 679.816C2349.65 677.362 2350.07 675.272 2350.9 673.544C2351.73 671.816 2352.88 670.504 2354.33 669.608C2355.78 668.69 2357.42 668.232 2359.25 668.232C2361.11 668.232 2362.75 668.69 2364.18 669.608C2365.63 670.504 2366.77 671.816 2367.61 673.544C2368.44 675.272 2368.85 677.362 2368.85 679.816C2368.85 682.269 2368.44 684.36 2367.61 686.088C2366.77 687.816 2365.63 689.138 2364.18 690.056C2362.75 690.952 2361.11 691.4 2359.25 691.4ZM2359.25 687.016C2360.13 687.016 2360.89 686.77 2361.53 686.28C2362.19 685.789 2362.7 685.01 2363.06 683.944C2363.45 682.877 2363.64 681.501 2363.64 679.816C2363.64 678.13 2363.45 676.754 2363.06 675.688C2362.7 674.621 2362.19 673.842 2361.53 673.352C2360.89 672.861 2360.13 672.616 2359.25 672.616C2358.4 672.616 2357.64 672.861 2356.98 673.352C2356.34 673.842 2355.83 674.621 2355.45 675.688C2355.08 676.754 2354.9 678.13 2354.9 679.816C2354.9 681.501 2355.08 682.877 2355.45 683.944C2355.83 685.01 2356.34 685.789 2356.98 686.28C2357.64 686.77 2358.4 687.016 2359.25 687.016ZM2380.97 691.4C2379.14 691.4 2377.5 690.952 2376.05 690.056C2374.59 689.138 2373.45 687.816 2372.62 686.088C2371.79 684.36 2371.37 682.269 2371.37 679.816C2371.37 677.362 2371.79 675.272 2372.62 673.544C2373.45 671.816 2374.59 670.504 2376.05 669.608C2377.5 668.69 2379.14 668.232 2380.97 668.232C2382.83 668.232 2384.47 668.69 2385.9 669.608C2387.35 670.504 2388.49 671.816 2389.33 673.544C2390.16 675.272 2390.57 677.362 2390.57 679.816C2390.57 682.269 2390.16 684.36 2389.33 686.088C2388.49 687.816 2387.35 689.138 2385.9 690.056C2384.47 690.952 2382.83 691.4 2380.97 691.4ZM2380.97 687.016C2381.85 687.016 2382.61 686.77 2383.25 686.28C2383.91 685.789 2384.42 685.01 2384.78 683.944C2385.17 682.877 2385.36 681.501 2385.36 679.816C2385.36 678.13 2385.17 676.754 2384.78 675.688C2384.42 674.621 2383.91 673.842 2383.25 673.352C2382.61 672.861 2381.85 672.616 2380.97 672.616C2380.12 672.616 2379.36 672.861 2378.7 673.352C2378.06 673.842 2377.55 674.621 2377.17 675.688C2376.8 676.754 2376.62 678.13 2376.62 679.816C2376.62 681.501 2376.8 682.877 2377.17 683.944C2377.55 685.01 2378.06 685.789 2378.7 686.28C2379.36 686.77 2380.12 687.016 2380.97 687.016ZM2402.69 691.4C2400.86 691.4 2399.21 690.952 2397.76 690.056C2396.31 689.138 2395.17 687.816 2394.34 686.088C2393.51 684.36 2393.09 682.269 2393.09 679.816C2393.09 677.362 2393.51 675.272 2394.34 673.544C2395.17 671.816 2396.31 670.504 2397.76 669.608C2399.21 668.69 2400.86 668.232 2402.69 668.232C2404.55 668.232 2406.19 668.69 2407.62 669.608C2409.07 670.504 2410.21 671.816 2411.04 673.544C2411.88 675.272 2412.29 677.362 2412.29 679.816C2412.29 682.269 2411.88 684.36 2411.04 686.088C2410.21 687.816 2409.07 689.138 2407.62 690.056C2406.19 690.952 2404.55 691.4 2402.69 691.4ZM2402.69 687.016C2403.57 687.016 2404.32 686.77 2404.96 686.28C2405.63 685.789 2406.14 685.01 2406.5 683.944C2406.88 682.877 2407.08 681.501 2407.08 679.816C2407.08 678.13 2406.88 676.754 2406.5 675.688C2406.14 674.621 2405.63 673.842 2404.96 673.352C2404.32 672.861 2403.57 672.616 2402.69 672.616C2401.84 672.616 2401.08 672.861 2400.42 673.352C2399.78 673.842 2399.27 674.621 2398.88 675.688C2398.52 676.754 2398.34 678.13 2398.34 679.816C2398.34 681.501 2398.52 682.877 2398.88 683.944C2399.27 685.01 2399.78 685.789 2400.42 686.28C2401.08 686.77 2401.84 687.016 2402.69 687.016ZM2431.97 691.272C2429.94 691.272 2428.36 690.76 2427.23 689.736C2426.1 688.69 2425.54 687.144 2425.54 685.096V669.992H2430.53V685.032C2430.53 685.757 2430.72 686.322 2431.11 686.728C2431.49 687.112 2432.01 687.304 2432.67 687.304C2433.46 687.304 2434.13 687.09 2434.69 686.664L2436.03 690.184C2435.52 690.546 2434.9 690.824 2434.18 691.016C2433.47 691.186 2432.74 691.272 2431.97 691.272ZM2422.88 678.024V674.184H2434.82V678.024H2422.88ZM2446.5 691.272C2444.66 691.272 2443.03 690.888 2441.6 690.12C2440.19 689.352 2439.07 688.306 2438.24 686.984C2437.43 685.64 2437.02 684.114 2437.02 682.408C2437.02 680.68 2437.43 679.154 2438.24 677.832C2439.07 676.488 2440.19 675.442 2441.6 674.696C2443.03 673.928 2444.66 673.544 2446.5 673.544C2448.31 673.544 2449.93 673.928 2451.36 674.696C2452.79 675.442 2453.91 676.477 2454.72 677.8C2455.53 679.122 2455.94 680.658 2455.94 682.408C2455.94 684.114 2455.53 685.64 2454.72 686.984C2453.91 688.306 2452.79 689.352 2451.36 690.12C2449.93 690.888 2448.31 691.272 2446.5 691.272ZM2446.5 687.176C2447.33 687.176 2448.07 686.984 2448.74 686.6C2449.4 686.216 2449.92 685.672 2450.3 684.968C2450.69 684.242 2450.88 683.389 2450.88 682.408C2450.88 681.405 2450.69 680.552 2450.3 679.848C2449.92 679.144 2449.4 678.6 2448.74 678.216C2448.07 677.832 2447.33 677.64 2446.5 677.64C2445.66 677.64 2444.92 677.832 2444.26 678.216C2443.59 678.6 2443.06 679.144 2442.66 679.848C2442.27 680.552 2442.08 681.405 2442.08 682.408C2442.08 683.389 2442.27 684.242 2442.66 684.968C2443.06 685.672 2443.59 686.216 2444.26 686.6C2444.92 686.984 2445.66 687.176 2446.5 687.176ZM2474.9 694.856V664.776H2478.1V694.856H2474.9ZM2476.05 691.4C2474.26 691.4 2472.54 691.165 2470.9 690.696C2469.25 690.205 2467.93 689.576 2466.93 688.808L2468.69 684.904C2469.65 685.586 2470.78 686.152 2472.08 686.6C2473.4 687.026 2474.74 687.24 2476.08 687.24C2477.1 687.24 2477.92 687.144 2478.54 686.952C2479.18 686.738 2479.65 686.45 2479.95 686.088C2480.25 685.725 2480.4 685.309 2480.4 684.84C2480.4 684.242 2480.16 683.773 2479.7 683.432C2479.23 683.069 2478.61 682.781 2477.84 682.568C2477.07 682.333 2476.22 682.12 2475.28 681.928C2474.36 681.714 2473.43 681.458 2472.5 681.16C2471.58 680.861 2470.74 680.477 2469.97 680.008C2469.2 679.538 2468.57 678.92 2468.08 678.152C2467.61 677.384 2467.38 676.402 2467.38 675.208C2467.38 673.928 2467.72 672.765 2468.4 671.72C2469.1 670.653 2470.15 669.81 2471.54 669.192C2472.94 668.552 2474.7 668.232 2476.82 668.232C2478.22 668.232 2479.61 668.402 2480.98 668.744C2482.34 669.064 2483.55 669.554 2484.59 670.216L2482.99 674.152C2481.95 673.554 2480.9 673.117 2479.86 672.84C2478.81 672.541 2477.79 672.392 2476.78 672.392C2475.78 672.392 2474.96 672.509 2474.32 672.744C2473.68 672.978 2473.22 673.288 2472.94 673.672C2472.67 674.034 2472.53 674.461 2472.53 674.952C2472.53 675.528 2472.76 675.997 2473.23 676.36C2473.7 676.701 2474.32 676.978 2475.09 677.192C2475.86 677.405 2476.7 677.618 2477.62 677.832C2478.55 678.045 2479.48 678.29 2480.4 678.568C2481.34 678.845 2482.19 679.218 2482.96 679.688C2483.73 680.157 2484.35 680.776 2484.82 681.544C2485.31 682.312 2485.55 683.282 2485.55 684.456C2485.55 685.714 2485.2 686.866 2484.5 687.912C2483.79 688.957 2482.74 689.8 2481.33 690.44C2479.94 691.08 2478.18 691.4 2476.05 691.4ZM2490.83 691.016V670.536L2493.07 672.776H2486.35V668.616H2496.01V691.016H2490.83ZM2509.5 691.4C2507.67 691.4 2506.03 690.952 2504.58 690.056C2503.13 689.138 2501.98 687.816 2501.15 686.088C2500.32 684.36 2499.9 682.269 2499.9 679.816C2499.9 677.362 2500.32 675.272 2501.15 673.544C2501.98 671.816 2503.13 670.504 2504.58 669.608C2506.03 668.69 2507.67 668.232 2509.5 668.232C2511.36 668.232 2513 668.69 2514.43 669.608C2515.88 670.504 2517.02 671.816 2517.86 673.544C2518.69 675.272 2519.1 677.362 2519.1 679.816C2519.1 682.269 2518.69 684.36 2517.86 686.088C2517.02 687.816 2515.88 689.138 2514.43 690.056C2513 690.952 2511.36 691.4 2509.5 691.4ZM2509.5 687.016C2510.38 687.016 2511.14 686.77 2511.78 686.28C2512.44 685.789 2512.95 685.01 2513.31 683.944C2513.7 682.877 2513.89 681.501 2513.89 679.816C2513.89 678.13 2513.7 676.754 2513.31 675.688C2512.95 674.621 2512.44 673.842 2511.78 673.352C2511.14 672.861 2510.38 672.616 2509.5 672.616C2508.65 672.616 2507.89 672.861 2507.23 673.352C2506.59 673.842 2506.08 674.621 2505.7 675.688C2505.33 676.754 2505.15 678.13 2505.15 679.816C2505.15 681.501 2505.33 682.877 2505.7 683.944C2506.08 685.01 2506.59 685.789 2507.23 686.28C2507.89 686.77 2508.65 687.016 2509.5 687.016ZM2521.41 695.944L2523.52 688.264L2524.22 691.144C2523.31 691.144 2522.55 690.877 2521.95 690.344C2521.38 689.81 2521.09 689.074 2521.09 688.136C2521.09 687.197 2521.39 686.45 2521.98 685.896C2522.58 685.341 2523.32 685.064 2524.19 685.064C2525.09 685.064 2525.82 685.352 2526.4 685.928C2526.98 686.482 2527.26 687.218 2527.26 688.136C2527.26 688.413 2527.24 688.69 2527.2 688.968C2527.16 689.224 2527.07 689.544 2526.94 689.928C2526.84 690.29 2526.66 690.76 2526.4 691.336L2524.58 695.944H2521.41ZM2538.79 691.4C2536.95 691.4 2535.31 690.952 2533.86 690.056C2532.41 689.138 2531.27 687.816 2530.43 686.088C2529.6 684.36 2529.19 682.269 2529.19 679.816C2529.19 677.362 2529.6 675.272 2530.43 673.544C2531.27 671.816 2532.41 670.504 2533.86 669.608C2535.31 668.69 2536.95 668.232 2538.79 668.232C2540.64 668.232 2542.28 668.69 2543.71 669.608C2545.16 670.504 2546.31 671.816 2547.14 673.544C2547.97 675.272 2548.39 677.362 2548.39 679.816C2548.39 682.269 2547.97 684.36 2547.14 686.088C2546.31 687.816 2545.16 689.138 2543.71 690.056C2542.28 690.952 2540.64 691.4 2538.79 691.4ZM2538.79 687.016C2539.66 687.016 2540.42 686.77 2541.06 686.28C2541.72 685.789 2542.23 685.01 2542.59 683.944C2542.98 682.877 2543.17 681.501 2543.17 679.816C2543.17 678.13 2542.98 676.754 2542.59 675.688C2542.23 674.621 2541.72 673.842 2541.06 673.352C2540.42 672.861 2539.66 672.616 2538.79 672.616C2537.93 672.616 2537.17 672.861 2536.51 673.352C2535.87 673.842 2535.36 674.621 2534.98 675.688C2534.61 676.754 2534.43 678.13 2534.43 679.816C2534.43 681.501 2534.61 682.877 2534.98 683.944C2535.36 685.01 2535.87 685.789 2536.51 686.28C2537.17 686.77 2537.93 687.016 2538.79 687.016ZM2560.5 691.4C2558.67 691.4 2557.03 690.952 2555.58 690.056C2554.13 689.138 2552.98 687.816 2552.15 686.088C2551.32 684.36 2550.9 682.269 2550.9 679.816C2550.9 677.362 2551.32 675.272 2552.15 673.544C2552.98 671.816 2554.13 670.504 2555.58 669.608C2557.03 668.69 2558.67 668.232 2560.5 668.232C2562.36 668.232 2564 668.69 2565.43 669.608C2566.88 670.504 2568.02 671.816 2568.86 673.544C2569.69 675.272 2570.1 677.362 2570.1 679.816C2570.1 682.269 2569.69 684.36 2568.86 686.088C2568.02 687.816 2566.88 689.138 2565.43 690.056C2564 690.952 2562.36 691.4 2560.5 691.4ZM2560.5 687.016C2561.38 687.016 2562.14 686.77 2562.78 686.28C2563.44 685.789 2563.95 685.01 2564.31 683.944C2564.7 682.877 2564.89 681.501 2564.89 679.816C2564.89 678.13 2564.7 676.754 2564.31 675.688C2563.95 674.621 2563.44 673.842 2562.78 673.352C2562.14 672.861 2561.38 672.616 2560.5 672.616C2559.65 672.616 2558.89 672.861 2558.23 673.352C2557.59 673.842 2557.08 674.621 2556.7 675.688C2556.33 676.754 2556.15 678.13 2556.15 679.816C2556.15 681.501 2556.33 682.877 2556.7 683.944C2557.08 685.01 2557.59 685.789 2558.23 686.28C2558.89 686.77 2559.65 687.016 2560.5 687.016ZM2582.22 691.4C2580.39 691.4 2578.75 690.952 2577.3 690.056C2575.84 689.138 2574.7 687.816 2573.87 686.088C2573.04 684.36 2572.62 682.269 2572.62 679.816C2572.62 677.362 2573.04 675.272 2573.87 673.544C2574.7 671.816 2575.84 670.504 2577.3 669.608C2578.75 668.69 2580.39 668.232 2582.22 668.232C2584.08 668.232 2585.72 668.69 2587.15 669.608C2588.6 670.504 2589.74 671.816 2590.58 673.544C2591.41 675.272 2591.82 677.362 2591.82 679.816C2591.82 682.269 2591.41 684.36 2590.58 686.088C2589.74 687.816 2588.6 689.138 2587.15 690.056C2585.72 690.952 2584.08 691.4 2582.22 691.4ZM2582.22 687.016C2583.1 687.016 2583.86 686.77 2584.5 686.28C2585.16 685.789 2585.67 685.01 2586.03 683.944C2586.42 682.877 2586.61 681.501 2586.61 679.816C2586.61 678.13 2586.42 676.754 2586.03 675.688C2585.67 674.621 2585.16 673.842 2584.5 673.352C2583.86 672.861 2583.1 672.616 2582.22 672.616C2581.37 672.616 2580.61 672.861 2579.95 673.352C2579.31 673.842 2578.8 674.621 2578.42 675.688C2578.05 676.754 2577.87 678.13 2577.87 679.816C2577.87 681.501 2578.05 682.877 2578.42 683.944C2578.8 685.01 2579.31 685.789 2579.95 686.28C2580.61 686.77 2581.37 687.016 2582.22 687.016Z" fill="white"/>
<rect x="2311.02" y="513" width="163.626" height="61.5" rx="10" fill="white"/>
<path d="M2370.03 559.463C2368.47 559.463 2366.92 559.26 2365.39 558.855C2363.85 558.428 2362.55 557.831 2361.48 557.063L2363.5 553.095C2364.35 553.713 2365.34 554.204 2366.47 554.567C2367.6 554.929 2368.75 555.111 2369.9 555.111C2371.2 555.111 2372.22 554.855 2372.97 554.343C2373.72 553.831 2374.09 553.127 2374.09 552.231C2374.09 551.377 2373.76 550.705 2373.1 550.215C2372.44 549.724 2371.37 549.479 2369.9 549.479H2367.53V546.055L2373.77 538.983L2374.35 540.839H2362.6V536.679H2378.28V540.039L2372.07 547.111L2369.45 545.607H2370.95C2373.71 545.607 2375.79 546.225 2377.19 547.463C2378.6 548.7 2379.31 550.289 2379.31 552.231C2379.31 553.489 2378.97 554.673 2378.31 555.783C2377.65 556.871 2376.64 557.756 2375.27 558.439C2373.91 559.121 2372.16 559.463 2370.03 559.463ZM2391.3 559.463C2389.46 559.463 2387.82 559.015 2386.37 558.119C2384.92 557.201 2383.78 555.879 2382.95 554.151C2382.11 552.423 2381.7 550.332 2381.7 547.879C2381.7 545.425 2382.11 543.335 2382.95 541.607C2383.78 539.879 2384.92 538.567 2386.37 537.671C2387.82 536.753 2389.46 536.295 2391.3 536.295C2393.15 536.295 2394.8 536.753 2396.23 537.671C2397.68 538.567 2398.82 539.879 2399.65 541.607C2400.48 543.335 2400.9 545.425 2400.9 547.879C2400.9 550.332 2400.48 552.423 2399.65 554.151C2398.82 555.879 2397.68 557.201 2396.23 558.119C2394.8 559.015 2393.15 559.463 2391.3 559.463ZM2391.3 555.079C2392.17 555.079 2392.93 554.833 2393.57 554.343C2394.23 553.852 2394.74 553.073 2395.11 552.007C2395.49 550.94 2395.68 549.564 2395.68 547.879C2395.68 546.193 2395.49 544.817 2395.11 543.751C2394.74 542.684 2394.23 541.905 2393.57 541.415C2392.93 540.924 2392.17 540.679 2391.3 540.679C2390.45 540.679 2389.69 540.924 2389.03 541.415C2388.39 541.905 2387.87 542.684 2387.49 543.751C2387.13 544.817 2386.95 546.193 2386.95 547.879C2386.95 549.564 2387.13 550.94 2387.49 552.007C2387.87 553.073 2388.39 553.852 2389.03 554.343C2389.69 554.833 2390.45 555.079 2391.3 555.079ZM2406.65 559.079L2421.95 536.679H2425.75L2410.46 559.079H2406.65ZM2408.6 548.775C2407.51 548.775 2406.55 548.529 2405.72 548.039C2404.89 547.527 2404.23 546.812 2403.74 545.895C2403.27 544.956 2403.03 543.857 2403.03 542.599C2403.03 541.34 2403.27 540.252 2403.74 539.335C2404.23 538.417 2404.89 537.703 2405.72 537.191C2406.55 536.679 2407.51 536.423 2408.6 536.423C2409.69 536.423 2410.65 536.679 2411.48 537.191C2412.31 537.703 2412.96 538.417 2413.43 539.335C2413.9 540.252 2414.14 541.34 2414.14 542.599C2414.14 543.857 2413.9 544.956 2413.43 545.895C2412.96 546.812 2412.31 547.527 2411.48 548.039C2410.65 548.529 2409.69 548.775 2408.6 548.775ZM2408.6 546.151C2409.31 546.151 2409.87 545.863 2410.3 545.287C2410.72 544.689 2410.94 543.793 2410.94 542.599C2410.94 541.404 2410.72 540.519 2410.3 539.943C2409.87 539.345 2409.31 539.047 2408.6 539.047C2407.92 539.047 2407.35 539.345 2406.91 539.943C2406.48 540.519 2406.27 541.404 2406.27 542.599C2406.27 543.772 2406.48 544.657 2406.91 545.255C2407.35 545.852 2407.92 546.151 2408.6 546.151ZM2423.8 559.335C2422.73 559.335 2421.77 559.089 2420.92 558.599C2420.09 558.087 2419.44 557.372 2418.97 556.455C2418.5 555.516 2418.27 554.417 2418.27 553.159C2418.27 551.9 2418.5 550.812 2418.97 549.895C2419.44 548.977 2420.09 548.263 2420.92 547.751C2421.77 547.239 2422.73 546.983 2423.8 546.983C2424.91 546.983 2425.88 547.239 2426.71 547.751C2427.55 548.263 2428.2 548.977 2428.67 549.895C2429.13 550.812 2429.37 551.9 2429.37 553.159C2429.37 554.417 2429.13 555.516 2428.67 556.455C2428.2 557.372 2427.55 558.087 2426.71 558.599C2425.88 559.089 2424.91 559.335 2423.8 559.335ZM2423.8 556.711C2424.51 556.711 2425.07 556.423 2425.5 555.847C2425.92 555.249 2426.14 554.353 2426.14 553.159C2426.14 551.985 2425.92 551.1 2425.5 550.503C2425.07 549.905 2424.51 549.607 2423.8 549.607C2423.12 549.607 2422.55 549.905 2422.11 550.503C2421.68 551.079 2421.47 551.964 2421.47 553.159C2421.47 554.353 2421.68 555.249 2422.11 555.847C2422.55 556.423 2423.12 556.711 2423.8 556.711Z" fill="url(#paint14_linear_110_162)"/>
<path d="M2443.76 588L2434.36 577.875H2453.15L2443.76 588Z" fill="white"/>
</g>
<defs>
<filter id="filter0_f_110_162" x="2089.73" y="661.729" width="49.8843" height="47.5405" filterUnits="userSpaceOnUse" color-interpolation-filters="sRGB">
<feFlood flood-opacity="0" result="BackgroundImageFix"/>
<feBlend mode="normal" in="SourceGraphic" in2="BackgroundImageFix" result="shape"/>
<feGaussianBlur stdDeviation="2" result="effect1_foregroundBlur_110_162"/>
</filter>
<filter id="filter1_f_110_162" x="3068.3" y="434.542" width="57.2368" height="53.9497" filterUnits="userSpaceOnUse" color-interpolation-filters="sRGB">
<feFlood flood-opacity="0" result="BackgroundImageFix"/>
<feBlend mode="normal" in="SourceGraphic" in2="BackgroundImageFix" result="shape"/>
<feGaussianBlur stdDeviation="2" result="effect1_foregroundBlur_110_162"/>
</filter>
<filter id="filter2_f_110_162" x="2752.41" y="503.457" width="56.426" height="52.9868" filterUnits="userSpaceOnUse" color-interpolation-filters="sRGB">
<feFlood flood-opacity="0" result="BackgroundImageFix"/>
<feBlend mode="normal" in="SourceGraphic" in2="BackgroundImageFix" result="shape"/>
<feGaussianBlur stdDeviation="2" result="effect1_foregroundBlur_110_162"/>
</filter>
<filter id="filter3_f_110_162" x="2417.21" y="599" width="54.75" height="50" filterUnits="userSpaceOnUse" color-interpolation-filters="sRGB">
<feFlood flood-opacity="0" result="BackgroundImageFix"/>
<feBlend mode="normal" in="SourceGraphic" in2="BackgroundImageFix" result="shape"/>
<feGaussianBlur stdDeviation="2" result="effect1_foregroundBlur_110_162"/>
</filter>
<linearGradient id="paint0_linear_110_162" x1="2475" y1="413.92" x2="2475" y2="1297.08" gradientUnits="userSpaceOnUse">
<stop stop-color="#310C79" stop-opacity="0.78"/>
<stop offset="1" stop-color="#602C72"/>
</linearGradient>
<linearGradient id="paint1_linear_110_162" x1="2042.44" y1="607.311" x2="2113" y2="607.311" gradientUnits="userSpaceOnUse">
<stop stop-color="#4075FF"/>
<stop offset="1" stop-color="#EC77FF"/>
</linearGradient>
<linearGradient id="paint2_linear_110_162" x1="3011.14" y1="367.591" x2="3082.24" y2="367.591" gradientUnits="userSpaceOnUse">
<stop stop-color="#4075FF"/>
<stop offset="1" stop-color="#EC77FF"/>
</linearGradient>
<linearGradient id="paint3_linear_110_162" x1="2696.26" y1="437.992" x2="2766.19" y2="437.992" gradientUnits="userSpaceOnUse">
<stop stop-color="#4075FF"/>
<stop offset="1" stop-color="#EC77FF"/>
</linearGradient>
<linearGradient id="paint4_linear_110_162" x1="2265.45" y1="0" x2="2265.45" y2="765" gradientUnits="userSpaceOnUse">
<stop stop-color="white" stop-opacity="0"/>
<stop offset="0.34375" stop-color="white"/>
<stop offset="0.619792" stop-color="white" stop-opacity="0"/>
</linearGradient>
<linearGradient id="paint5_linear_110_162" x1="755.285" y1="0" x2="755.285" y2="765" gradientUnits="userSpaceOnUse">
<stop stop-color="white" stop-opacity="0"/>
<stop offset="0.34375" stop-color="white"/>
<stop offset="0.619792" stop-color="white" stop-opacity="0"/>
</linearGradient>
<linearGradient id="paint6_linear_110_162" x1="251.898" y1="0" x2="251.898" y2="765" gradientUnits="userSpaceOnUse">
<stop stop-color="white" stop-opacity="0"/>
<stop offset="0.34375" stop-color="white"/>
<stop offset="0.619792" stop-color="white" stop-opacity="0"/>
</linearGradient>
<linearGradient id="paint7_linear_110_162" x1="1258.67" y1="0" x2="1258.67" y2="765" gradientUnits="userSpaceOnUse">
<stop stop-color="white" stop-opacity="0"/>
<stop offset="0.34375" stop-color="white"/>
<stop offset="0.619792" stop-color="white" stop-opacity="0"/>
</linearGradient>
<linearGradient id="paint8_linear_110_162" x1="1762.06" y1="0" x2="1762.06" y2="765" gradientUnits="userSpaceOnUse">
<stop stop-color="white" stop-opacity="0"/>
<stop offset="0.34375" stop-color="white"/>
<stop offset="0.619792" stop-color="white" stop-opacity="0"/>
</linearGradient>
<linearGradient id="paint9_linear_110_162" x1="4782.79" y1="0" x2="4782.79" y2="765" gradientUnits="userSpaceOnUse">
<stop stop-color="white" stop-opacity="0"/>
<stop offset="0.34375" stop-color="white"/>
<stop offset="0.619792" stop-color="white" stop-opacity="0"/>
</linearGradient>
<linearGradient id="paint10_linear_110_162" x1="3272.63" y1="0" x2="3272.63" y2="765" gradientUnits="userSpaceOnUse">
<stop stop-color="white" stop-opacity="0"/>
<stop offset="0.34375" stop-color="white"/>
<stop offset="0.619792" stop-color="white" stop-opacity="0"/>
</linearGradient>
<linearGradient id="paint11_linear_110_162" x1="2769.24" y1="0" x2="2769.24" y2="765" gradientUnits="userSpaceOnUse">
<stop stop-color="white" stop-opacity="0"/>
<stop offset="0.34375" stop-color="white"/>
<stop offset="0.619792" stop-color="white" stop-opacity="0"/>
</linearGradient>
<linearGradient id="paint12_linear_110_162" x1="3776.02" y1="0" x2="3776.02" y2="765" gradientUnits="userSpaceOnUse">
<stop stop-color="white" stop-opacity="0"/>
<stop offset="0.34375" stop-color="white"/>
<stop offset="0.619792" stop-color="white" stop-opacity="0"/>
</linearGradient>
<linearGradient id="paint13_linear_110_162" x1="4279.4" y1="0" x2="4279.4" y2="765" gradientUnits="userSpaceOnUse">
<stop stop-color="white" stop-opacity="0"/>
<stop offset="0.34375" stop-color="white"/>
<stop offset="0.619792" stop-color="white" stop-opacity="0"/>
</linearGradient>
<linearGradient id="paint14_linear_110_162" x1="2365.76" y1="544.571" x2="2433.31" y2="544.571" gradientUnits="userSpaceOnUse">
<stop stop-color="#4075FF"/>
<stop offset="1" stop-color="#EC77FF"/>
</linearGradient>
<clipPath id="clip0_110_162">
<rect width="5040" height="998" fill="white"/>
</clipPath>
</defs>
</svg>
