<svg width="5040" height="998" viewBox="0 0 5040 998" fill="none" xmlns="http://www.w3.org/2000/svg">
<g clip-path="url(#clip0_49_26)">
<path d="M5102 3.91382H0V987.563H5102V3.91382Z" fill="#1D242A"/>
<path d="M1750 717.264H1680H1610C1463 717.264 1400 699.416 1260 677.104C1120 654.792 980 595.296 840 535.8C700 476.302 568 418.506 420 387.058C280 357.31 140 357.31 70 357.31H0V1375.02H70H420H840H1260H1610H1680H1750H2100H2520H2940H3290H3360H3430H3780H4200H4620H4970H5040V711.941L4970 717.264C4823 717.264 4760 699.416 4620 677.104C4480 654.792 4340 595.296 4200 535.8C4060 476.302 3942.5 372.661 3794.5 271.88C3682 195.273 3615 150.726 3466.5 104.366H3360L3261 136.714C3181 183.374 3047.5 267.605 2917 344.655C2786.5 421.704 2660 476.302 2520 535.8C2380 595.296 2240 654.792 2100 677.104C1960 699.416 1897 717.264 1750 717.264Z" fill="url(#paint0_linear_49_26)"/>
<g filter="url(#filter0_f_49_26)">
<path d="M2142.11 671.5C2142.11 679.693 2135 686.77 2125.67 686.77C2116.34 686.77 2109.23 679.693 2109.23 671.5C2109.23 663.307 2116.34 656.23 2125.67 656.23C2135 656.23 2142.11 663.307 2142.11 671.5Z" stroke="#605DEC" stroke-width="9"/>
</g>
<path d="M2143.61 671.5C2143.61 680.602 2135.74 688.27 2125.67 688.27C2115.6 688.27 2107.73 680.602 2107.73 671.5C2107.73 662.398 2115.6 654.73 2125.67 654.73C2135.74 654.73 2143.61 662.398 2143.61 671.5Z" stroke="white" stroke-width="6"/>
<path d="M2039.22 732.915L2023.98 727.123V722.963L2039.22 717.171V721.171L2025.49 726.163V723.923L2039.22 728.915V732.915ZM2051.18 728.595V725.907H2068.43V728.595H2051.18ZM2051.18 724.179V721.491H2068.43V724.179H2051.18ZM2066.41 736.627C2064.66 736.627 2063.04 736.35 2061.55 735.795C2060.07 735.219 2058.79 734.408 2057.71 733.363C2056.62 732.318 2055.78 731.091 2055.18 729.683C2054.58 728.275 2054.28 726.728 2054.28 725.043C2054.28 723.358 2054.58 721.811 2055.18 720.403C2055.78 718.995 2056.62 717.768 2057.71 716.723C2058.79 715.678 2060.07 714.878 2061.55 714.323C2063.04 713.747 2064.66 713.459 2066.41 713.459C2068.35 713.459 2070.11 713.8 2071.69 714.483C2073.27 715.144 2074.58 716.126 2075.63 717.427L2072.33 720.499C2071.56 719.624 2070.71 718.974 2069.77 718.547C2068.83 718.099 2067.8 717.875 2066.67 717.875C2065.62 717.875 2064.66 718.046 2063.79 718.387C2062.91 718.728 2062.15 719.219 2061.51 719.859C2060.87 720.499 2060.37 721.256 2060.01 722.131C2059.67 723.006 2059.5 723.976 2059.5 725.043C2059.5 726.11 2059.67 727.08 2060.01 727.955C2060.37 728.83 2060.87 729.587 2061.51 730.227C2062.15 730.867 2062.91 731.358 2063.79 731.699C2064.66 732.04 2065.62 732.211 2066.67 732.211C2067.8 732.211 2068.83 731.998 2069.77 731.571C2070.71 731.123 2071.56 730.451 2072.33 729.555L2075.63 732.627C2074.58 733.928 2073.27 734.92 2071.69 735.603C2070.11 736.286 2068.35 736.627 2066.41 736.627ZM2085.02 736.627C2083.46 736.627 2081.92 736.424 2080.38 736.019C2078.87 735.592 2077.56 734.995 2076.48 734.227L2078.52 730.259C2079.38 730.878 2080.36 731.368 2081.47 731.731C2082.6 732.094 2083.74 732.275 2084.89 732.275C2086.19 732.275 2087.22 732.019 2087.96 731.507C2088.71 730.995 2089.08 730.28 2089.08 729.363C2089.08 728.787 2088.93 728.275 2088.64 727.827C2088.34 727.379 2087.8 727.038 2087.04 726.803C2086.29 726.568 2085.23 726.451 2083.87 726.451H2078.14L2079.29 713.843H2092.96V718.003H2081.15L2083.84 715.635L2083.04 724.627L2080.35 722.259H2085.08C2087.3 722.259 2089.08 722.568 2090.43 723.187C2091.79 723.784 2092.79 724.606 2093.4 725.651C2094.02 726.696 2094.33 727.88 2094.33 729.203C2094.33 730.526 2094 731.752 2093.34 732.883C2092.68 733.992 2091.65 734.899 2090.27 735.603C2088.9 736.286 2087.15 736.627 2085.02 736.627ZM2096.63 741.171L2098.74 733.491L2099.44 736.371C2098.53 736.371 2097.77 736.104 2097.17 735.571C2096.6 735.038 2096.31 734.302 2096.31 733.363C2096.31 732.424 2096.61 731.678 2097.2 731.123C2097.8 730.568 2098.54 730.291 2099.41 730.291C2100.31 730.291 2101.04 730.579 2101.62 731.155C2102.2 731.71 2102.48 732.446 2102.48 733.363C2102.48 733.64 2102.46 733.918 2102.42 734.195C2102.38 734.451 2102.29 734.771 2102.16 735.155C2102.06 735.518 2101.88 735.987 2101.62 736.563L2099.8 741.171H2096.63ZM2114 736.627C2112.17 736.627 2110.53 736.179 2109.08 735.283C2107.63 734.366 2106.48 733.043 2105.65 731.315C2104.82 729.587 2104.4 727.496 2104.4 725.043C2104.4 722.59 2104.82 720.499 2105.65 718.771C2106.48 717.043 2107.63 715.731 2109.08 714.835C2110.53 713.918 2112.17 713.459 2114 713.459C2115.86 713.459 2117.5 713.918 2118.93 714.835C2120.38 715.731 2121.52 717.043 2122.36 718.771C2123.19 720.499 2123.6 722.59 2123.6 725.043C2123.6 727.496 2123.19 729.587 2122.36 731.315C2121.52 733.043 2120.38 734.366 2118.93 735.283C2117.5 736.179 2115.86 736.627 2114 736.627ZM2114 732.243C2114.88 732.243 2115.64 731.998 2116.28 731.507C2116.94 731.016 2117.45 730.238 2117.81 729.171C2118.2 728.104 2118.39 726.728 2118.39 725.043C2118.39 723.358 2118.2 721.982 2117.81 720.915C2117.45 719.848 2116.94 719.07 2116.28 718.579C2115.64 718.088 2114.88 717.843 2114 717.843C2113.15 717.843 2112.39 718.088 2111.73 718.579C2111.09 719.07 2110.58 719.848 2110.2 720.915C2109.83 721.982 2109.65 723.358 2109.65 725.043C2109.65 726.728 2109.83 728.104 2110.2 729.171C2110.58 730.238 2111.09 731.016 2111.73 731.507C2112.39 731.998 2113.15 732.243 2114 732.243ZM2135.72 736.627C2133.89 736.627 2132.25 736.179 2130.8 735.283C2129.34 734.366 2128.2 733.043 2127.37 731.315C2126.54 729.587 2126.12 727.496 2126.12 725.043C2126.12 722.59 2126.54 720.499 2127.37 718.771C2128.2 717.043 2129.34 715.731 2130.8 714.835C2132.25 713.918 2133.89 713.459 2135.72 713.459C2137.58 713.459 2139.22 713.918 2140.65 714.835C2142.1 715.731 2143.24 717.043 2144.08 718.771C2144.91 720.499 2145.32 722.59 2145.32 725.043C2145.32 727.496 2144.91 729.587 2144.08 731.315C2143.24 733.043 2142.1 734.366 2140.65 735.283C2139.22 736.179 2137.58 736.627 2135.72 736.627ZM2135.72 732.243C2136.6 732.243 2137.36 731.998 2138 731.507C2138.66 731.016 2139.17 730.238 2139.53 729.171C2139.92 728.104 2140.11 726.728 2140.11 725.043C2140.11 723.358 2139.92 721.982 2139.53 720.915C2139.17 719.848 2138.66 719.07 2138 718.579C2137.36 718.088 2136.6 717.843 2135.72 717.843C2134.87 717.843 2134.11 718.088 2133.45 718.579C2132.81 719.07 2132.3 719.848 2131.92 720.915C2131.55 721.982 2131.37 723.358 2131.37 725.043C2131.37 726.728 2131.55 728.104 2131.92 729.171C2132.3 730.238 2132.81 731.016 2133.45 731.507C2134.11 731.998 2134.87 732.243 2135.72 732.243ZM2157.44 736.627C2155.61 736.627 2153.96 736.179 2152.51 735.283C2151.06 734.366 2149.92 733.043 2149.09 731.315C2148.26 729.587 2147.84 727.496 2147.84 725.043C2147.84 722.59 2148.26 720.499 2149.09 718.771C2149.92 717.043 2151.06 715.731 2152.51 714.835C2153.96 713.918 2155.61 713.459 2157.44 713.459C2159.3 713.459 2160.94 713.918 2162.37 714.835C2163.82 715.731 2164.96 717.043 2165.79 718.771C2166.63 720.499 2167.04 722.59 2167.04 725.043C2167.04 727.496 2166.63 729.587 2165.79 731.315C2164.96 733.043 2163.82 734.366 2162.37 735.283C2160.94 736.179 2159.3 736.627 2157.44 736.627ZM2157.44 732.243C2158.32 732.243 2159.07 731.998 2159.71 731.507C2160.38 731.016 2160.89 730.238 2161.25 729.171C2161.63 728.104 2161.83 726.728 2161.83 725.043C2161.83 723.358 2161.63 721.982 2161.25 720.915C2160.89 719.848 2160.38 719.07 2159.71 718.579C2159.07 718.088 2158.32 717.843 2157.44 717.843C2156.59 717.843 2155.83 718.088 2155.17 718.579C2154.53 719.07 2154.02 719.848 2153.63 720.915C2153.27 721.982 2153.09 723.358 2153.09 725.043C2153.09 726.728 2153.27 728.104 2153.63 729.171C2154.02 730.238 2154.53 731.016 2155.17 731.507C2155.83 731.998 2156.59 732.243 2157.44 732.243Z" fill="white"/>
<rect x="2006" y="567" width="146.595" height="57.8986" rx="10" fill="white"/>
<path d="M2050.06 608.703V605.343L2058.7 597.183C2059.38 596.564 2059.88 596.009 2060.2 595.519C2060.52 595.028 2060.73 594.58 2060.84 594.175C2060.97 593.769 2061.03 593.396 2061.03 593.055C2061.03 592.159 2060.72 591.476 2060.1 591.007C2059.51 590.516 2058.62 590.271 2057.45 590.271C2056.51 590.271 2055.63 590.452 2054.82 590.815C2054.03 591.177 2053.36 591.743 2052.81 592.511L2049.03 590.079C2049.89 588.799 2051.08 587.785 2052.62 587.039C2054.15 586.292 2055.92 585.919 2057.93 585.919C2059.59 585.919 2061.04 586.196 2062.28 586.751C2063.54 587.284 2064.51 588.041 2065.19 589.023C2065.9 590.004 2066.25 591.177 2066.25 592.543C2066.25 593.268 2066.15 593.993 2065.96 594.719C2065.79 595.423 2065.43 596.169 2064.87 596.959C2064.34 597.748 2063.55 598.633 2062.5 599.615L2055.34 606.367L2054.34 604.479H2066.98V608.703H2050.06ZM2076.74 609.087C2075.18 609.087 2073.64 608.884 2072.1 608.479C2070.58 608.052 2069.28 607.455 2068.2 606.687L2070.24 602.719C2071.1 603.337 2072.08 603.828 2073.19 604.191C2074.32 604.553 2075.46 604.735 2076.61 604.735C2077.91 604.735 2078.94 604.479 2079.68 603.967C2080.43 603.455 2080.8 602.74 2080.8 601.823C2080.8 601.247 2080.65 600.735 2080.36 600.287C2080.06 599.839 2079.52 599.497 2078.76 599.263C2078.01 599.028 2076.95 598.911 2075.59 598.911H2069.86L2071.01 586.303H2084.68V590.463H2072.87L2075.56 588.095L2074.76 597.087L2072.07 594.719H2076.8C2079.02 594.719 2080.8 595.028 2082.15 595.647C2083.51 596.244 2084.5 597.065 2085.12 598.111C2085.74 599.156 2086.05 600.34 2086.05 601.663C2086.05 602.985 2085.72 604.212 2085.06 605.343C2084.4 606.452 2083.37 607.359 2081.99 608.063C2080.62 608.745 2078.87 609.087 2076.74 609.087ZM2091.07 608.703L2106.37 586.303H2110.18L2094.88 608.703H2091.07ZM2093.03 598.399C2091.94 598.399 2090.98 598.153 2090.15 597.663C2089.31 597.151 2088.65 596.436 2088.16 595.519C2087.69 594.58 2087.46 593.481 2087.46 592.223C2087.46 590.964 2087.69 589.876 2088.16 588.959C2088.65 588.041 2089.31 587.327 2090.15 586.815C2090.98 586.303 2091.94 586.047 2093.03 586.047C2094.11 586.047 2095.07 586.303 2095.91 586.815C2096.74 587.327 2097.39 588.041 2097.86 588.959C2098.33 589.876 2098.56 590.964 2098.56 592.223C2098.56 593.481 2098.33 594.58 2097.86 595.519C2097.39 596.436 2096.74 597.151 2095.91 597.663C2095.07 598.153 2094.11 598.399 2093.03 598.399ZM2093.03 595.775C2093.73 595.775 2094.3 595.487 2094.72 594.911C2095.15 594.313 2095.36 593.417 2095.36 592.223C2095.36 591.028 2095.15 590.143 2094.72 589.567C2094.3 588.969 2093.73 588.671 2093.03 588.671C2092.34 588.671 2091.78 588.969 2091.33 589.567C2090.9 590.143 2090.69 591.028 2090.69 592.223C2090.69 593.396 2090.9 594.281 2091.33 594.879C2091.78 595.476 2092.34 595.775 2093.03 595.775ZM2108.23 608.959C2107.16 608.959 2106.2 608.713 2105.35 608.223C2104.51 607.711 2103.86 606.996 2103.39 606.079C2102.92 605.14 2102.69 604.041 2102.69 602.783C2102.69 601.524 2102.92 600.436 2103.39 599.519C2103.86 598.601 2104.51 597.887 2105.35 597.375C2106.2 596.863 2107.16 596.607 2108.23 596.607C2109.34 596.607 2110.31 596.863 2111.14 597.375C2111.97 597.887 2112.62 598.601 2113.09 599.519C2113.56 600.436 2113.79 601.524 2113.79 602.783C2113.79 604.041 2113.56 605.14 2113.09 606.079C2112.62 606.996 2111.97 607.711 2111.14 608.223C2110.31 608.713 2109.34 608.959 2108.23 608.959ZM2108.23 606.335C2108.93 606.335 2109.5 606.047 2109.92 605.471C2110.35 604.873 2110.56 603.977 2110.56 602.783C2110.56 601.609 2110.35 600.724 2109.92 600.127C2109.5 599.529 2108.93 599.231 2108.23 599.231C2107.54 599.231 2106.98 599.529 2106.53 600.127C2106.1 600.703 2105.89 601.588 2105.89 602.783C2105.89 603.977 2106.1 604.873 2106.53 605.471C2106.98 606.047 2107.54 606.335 2108.23 606.335Z" fill="url(#paint1_linear_49_26)"/>
<path d="M2124.92 637.608L2116.5 628.076H2133.34L2124.92 637.608Z" fill="white"/>
<g filter="url(#filter1_f_49_26)">
<path d="M3111.45 240.755C3111.45 255.163 3102.03 265.256 3092.17 265.256C3082.32 265.256 3072.9 255.163 3072.9 240.755C3072.9 226.346 3082.32 216.254 3092.17 216.254C3102.03 216.254 3111.45 226.346 3111.45 240.755Z" stroke="#605DEC" stroke-width="9"/>
</g>
<path d="M3112.95 240.755C3112.95 255.699 3103.12 266.756 3092.17 266.756C3081.23 266.756 3071.4 255.699 3071.4 240.755C3071.4 225.81 3081.23 214.754 3092.17 214.754C3103.12 214.754 3112.95 225.81 3112.95 240.755Z" stroke="white" stroke-width="6"/>
<path d="M2981.96 314.272V311.584H2999.21V314.272H2981.96ZM2981.96 309.856V307.168H2999.21V309.856H2981.96ZM2997.19 322.304C2995.44 322.304 2993.82 322.027 2992.33 321.472C2990.86 320.896 2989.58 320.086 2988.49 319.04C2987.4 317.995 2986.56 316.768 2985.96 315.36C2985.36 313.952 2985.06 312.406 2985.06 310.72C2985.06 309.035 2985.36 307.488 2985.96 306.08C2986.56 304.672 2987.4 303.446 2988.49 302.4C2989.58 301.355 2990.86 300.555 2992.33 300C2993.82 299.424 2995.44 299.136 2997.19 299.136C2999.13 299.136 3000.89 299.478 3002.47 300.16C3004.05 300.822 3005.36 301.803 3006.41 303.104L3003.11 306.176C3002.34 305.302 3001.49 304.651 3000.55 304.224C2999.61 303.776 2998.58 303.552 2997.45 303.552C2996.4 303.552 2995.44 303.723 2994.57 304.064C2993.69 304.406 2992.94 304.896 2992.3 305.536C2991.66 306.176 2991.15 306.934 2990.79 307.808C2990.45 308.683 2990.28 309.654 2990.28 310.72C2990.28 311.787 2990.45 312.758 2990.79 313.632C2991.15 314.507 2991.66 315.264 2992.3 315.904C2992.94 316.544 2993.69 317.035 2994.57 317.376C2995.44 317.718 2996.4 317.888 2997.45 317.888C2998.58 317.888 2999.61 317.675 3000.55 317.248C3001.49 316.8 3002.34 316.128 3003.11 315.232L3006.41 318.304C3005.36 319.606 3004.05 320.598 3002.47 321.28C3000.89 321.963 2999.13 322.304 2997.19 322.304ZM3008.21 321.92V318.56L3016.85 310.4C3017.53 309.782 3018.04 309.227 3018.36 308.736C3018.68 308.246 3018.89 307.798 3019 307.392C3019.12 306.987 3019.19 306.614 3019.19 306.272C3019.19 305.376 3018.88 304.694 3018.26 304.224C3017.66 303.734 3016.78 303.488 3015.6 303.488C3014.67 303.488 3013.79 303.67 3012.98 304.032C3012.19 304.395 3011.52 304.96 3010.96 305.728L3007.19 303.296C3008.04 302.016 3009.24 301.003 3010.77 300.256C3012.31 299.51 3014.08 299.136 3016.08 299.136C3017.75 299.136 3019.2 299.414 3020.44 299.968C3021.69 300.502 3022.67 301.259 3023.35 302.24C3024.05 303.222 3024.4 304.395 3024.4 305.76C3024.4 306.486 3024.31 307.211 3024.12 307.936C3023.95 308.64 3023.58 309.387 3023.03 310.176C3022.49 310.966 3021.71 311.851 3020.66 312.832L3013.49 319.584L3012.5 317.696H3025.14V321.92H3008.21ZM3036.88 322.304C3035.04 322.304 3033.4 321.856 3031.95 320.96C3030.5 320.043 3029.36 318.72 3028.53 316.992C3027.7 315.264 3027.28 313.174 3027.28 310.72C3027.28 308.267 3027.7 306.176 3028.53 304.448C3029.36 302.72 3030.5 301.408 3031.95 300.512C3033.4 299.595 3035.04 299.136 3036.88 299.136C3038.74 299.136 3040.38 299.595 3041.81 300.512C3043.26 301.408 3044.4 302.72 3045.23 304.448C3046.06 306.176 3046.48 308.267 3046.48 310.72C3046.48 313.174 3046.06 315.264 3045.23 316.992C3044.4 318.72 3043.26 320.043 3041.81 320.96C3040.38 321.856 3038.74 322.304 3036.88 322.304ZM3036.88 317.92C3037.75 317.92 3038.51 317.675 3039.15 317.184C3039.81 316.694 3040.32 315.915 3040.69 314.848C3041.07 313.782 3041.26 312.406 3041.26 310.72C3041.26 309.035 3041.07 307.659 3040.69 306.592C3040.32 305.526 3039.81 304.747 3039.15 304.256C3038.51 303.766 3037.75 303.52 3036.88 303.52C3036.03 303.52 3035.27 303.766 3034.61 304.256C3033.97 304.747 3033.46 305.526 3033.07 306.592C3032.71 307.659 3032.53 309.035 3032.53 310.72C3032.53 312.406 3032.71 313.782 3033.07 314.848C3033.46 315.915 3033.97 316.694 3034.61 317.184C3035.27 317.675 3036.03 317.92 3036.88 317.92ZM3048.78 326.848L3050.9 319.168L3051.6 322.048C3050.68 322.048 3049.93 321.782 3049.33 321.248C3048.75 320.715 3048.46 319.979 3048.46 319.04C3048.46 318.102 3048.76 317.355 3049.36 316.8C3049.96 316.246 3050.69 315.968 3051.57 315.968C3052.46 315.968 3053.2 316.256 3053.78 316.832C3054.35 317.387 3054.64 318.123 3054.64 319.04C3054.64 319.318 3054.62 319.595 3054.58 319.872C3054.53 320.128 3054.45 320.448 3054.32 320.832C3054.21 321.195 3054.03 321.664 3053.78 322.24L3051.95 326.848H3048.78ZM3066.16 322.304C3064.33 322.304 3062.68 321.856 3061.23 320.96C3059.78 320.043 3058.64 318.72 3057.81 316.992C3056.98 315.264 3056.56 313.174 3056.56 310.72C3056.56 308.267 3056.98 306.176 3057.81 304.448C3058.64 302.72 3059.78 301.408 3061.23 300.512C3062.68 299.595 3064.33 299.136 3066.16 299.136C3068.02 299.136 3069.66 299.595 3071.09 300.512C3072.54 301.408 3073.68 302.72 3074.51 304.448C3075.34 306.176 3075.76 308.267 3075.76 310.72C3075.76 313.174 3075.34 315.264 3074.51 316.992C3073.68 318.72 3072.54 320.043 3071.09 320.96C3069.66 321.856 3068.02 322.304 3066.16 322.304ZM3066.16 317.92C3067.04 317.92 3067.79 317.675 3068.43 317.184C3069.09 316.694 3069.61 315.915 3069.97 314.848C3070.35 313.782 3070.54 312.406 3070.54 310.72C3070.54 309.035 3070.35 307.659 3069.97 306.592C3069.61 305.526 3069.09 304.747 3068.43 304.256C3067.79 303.766 3067.04 303.52 3066.16 303.52C3065.31 303.52 3064.55 303.766 3063.89 304.256C3063.25 304.747 3062.74 305.526 3062.35 306.592C3061.99 307.659 3061.81 309.035 3061.81 310.72C3061.81 312.406 3061.99 313.782 3062.35 314.848C3062.74 315.915 3063.25 316.694 3063.89 317.184C3064.55 317.675 3065.31 317.92 3066.16 317.92ZM3087.88 322.304C3086.04 322.304 3084.4 321.856 3082.95 320.96C3081.5 320.043 3080.36 318.72 3079.53 316.992C3078.7 315.264 3078.28 313.174 3078.28 310.72C3078.28 308.267 3078.7 306.176 3079.53 304.448C3080.36 302.72 3081.5 301.408 3082.95 300.512C3084.4 299.595 3086.04 299.136 3087.88 299.136C3089.74 299.136 3091.38 299.595 3092.81 300.512C3094.26 301.408 3095.4 302.72 3096.23 304.448C3097.06 306.176 3097.48 308.267 3097.48 310.72C3097.48 313.174 3097.06 315.264 3096.23 316.992C3095.4 318.72 3094.26 320.043 3092.81 320.96C3091.38 321.856 3089.74 322.304 3087.88 322.304ZM3087.88 317.92C3088.75 317.92 3089.51 317.675 3090.15 317.184C3090.81 316.694 3091.32 315.915 3091.69 314.848C3092.07 313.782 3092.26 312.406 3092.26 310.72C3092.26 309.035 3092.07 307.659 3091.69 306.592C3091.32 305.526 3090.81 304.747 3090.15 304.256C3089.51 303.766 3088.75 303.52 3087.88 303.52C3087.03 303.52 3086.27 303.766 3085.61 304.256C3084.97 304.747 3084.46 305.526 3084.07 306.592C3083.71 307.659 3083.53 309.035 3083.53 310.72C3083.53 312.406 3083.71 313.782 3084.07 314.848C3084.46 315.915 3084.97 316.694 3085.61 317.184C3086.27 317.675 3087.03 317.92 3087.88 317.92ZM3109.6 322.304C3107.76 322.304 3106.12 321.856 3104.67 320.96C3103.22 320.043 3102.08 318.72 3101.25 316.992C3100.41 315.264 3100 313.174 3100 310.72C3100 308.267 3100.41 306.176 3101.25 304.448C3102.08 302.72 3103.22 301.408 3104.67 300.512C3106.12 299.595 3107.76 299.136 3109.6 299.136C3111.45 299.136 3113.1 299.595 3114.53 300.512C3115.98 301.408 3117.12 302.72 3117.95 304.448C3118.78 306.176 3119.2 308.267 3119.2 310.72C3119.2 313.174 3118.78 315.264 3117.95 316.992C3117.12 318.72 3115.98 320.043 3114.53 320.96C3113.1 321.856 3111.45 322.304 3109.6 322.304ZM3109.6 317.92C3110.47 317.92 3111.23 317.675 3111.87 317.184C3112.53 316.694 3113.04 315.915 3113.41 314.848C3113.79 313.782 3113.98 312.406 3113.98 310.72C3113.98 309.035 3113.79 307.659 3113.41 306.592C3113.04 305.526 3112.53 304.747 3111.87 304.256C3111.23 303.766 3110.47 303.52 3109.6 303.52C3108.74 303.52 3107.99 303.766 3107.33 304.256C3106.69 304.747 3106.17 305.526 3105.79 306.592C3105.43 307.659 3105.25 309.035 3105.25 310.72C3105.25 312.406 3105.43 313.782 3105.79 314.848C3106.17 315.915 3106.69 316.694 3107.33 317.184C3107.99 317.675 3108.74 317.92 3109.6 317.92ZM3137.05 318.112V303.328H3141.18V318.112H3137.05ZM3131.52 312.672V308.768H3146.75V312.672H3131.52Z" fill="white"/>
<path d="M2958 96.102C2958 90.5792 2962.48 86.1021 2968 86.1021H3042.27H3114C3119.52 86.1021 3124 90.5792 3124 96.1021V161.903C3124 167.426 3119.52 171.903 3114 171.903H2968C2962.48 171.903 2958 167.426 2958 161.903V96.102Z" fill="white"/>
<path d="M3005.99 126.017V122.529L3016.55 108.321H3021.99L3011.66 122.529L3009.13 121.793H3026.76V126.017H3005.99ZM3018.06 130.721V126.017L3018.22 121.793V117.601H3023.11V130.721H3018.06ZM3037.91 131.105C3036.08 131.105 3034.43 130.657 3032.98 129.761C3031.53 128.844 3030.39 127.521 3029.56 125.793C3028.73 124.065 3028.31 121.975 3028.31 119.521C3028.31 117.068 3028.73 114.977 3029.56 113.249C3030.39 111.521 3031.53 110.209 3032.98 109.313C3034.43 108.396 3036.08 107.937 3037.91 107.937C3039.77 107.937 3041.41 108.396 3042.84 109.313C3044.29 110.209 3045.43 111.521 3046.26 113.249C3047.09 114.977 3047.51 117.068 3047.51 119.521C3047.51 121.975 3047.09 124.065 3046.26 125.793C3045.43 127.521 3044.29 128.844 3042.84 129.761C3041.41 130.657 3039.77 131.105 3037.91 131.105ZM3037.91 126.721C3038.79 126.721 3039.54 126.476 3040.18 125.985C3040.84 125.495 3041.36 124.716 3041.72 123.649C3042.1 122.583 3042.29 121.207 3042.29 119.521C3042.29 117.836 3042.1 116.46 3041.72 115.393C3041.36 114.327 3040.84 113.548 3040.18 113.057C3039.54 112.567 3038.79 112.321 3037.91 112.321C3037.06 112.321 3036.3 112.567 3035.64 113.057C3035 113.548 3034.49 114.327 3034.1 115.393C3033.74 116.46 3033.56 117.836 3033.56 119.521C3033.56 121.207 3033.74 122.583 3034.1 123.649C3034.49 124.716 3035 125.495 3035.64 125.985C3036.3 126.476 3037.06 126.721 3037.91 126.721ZM3053.26 130.721L3068.56 108.321H3072.37L3057.07 130.721H3053.26ZM3055.21 120.417C3054.13 120.417 3053.17 120.172 3052.33 119.681C3051.5 119.169 3050.84 118.455 3050.35 117.537C3049.88 116.599 3049.65 115.5 3049.65 114.241C3049.65 112.983 3049.88 111.895 3050.35 110.977C3050.84 110.06 3051.5 109.345 3052.33 108.833C3053.17 108.321 3054.13 108.065 3055.21 108.065C3056.3 108.065 3057.26 108.321 3058.09 108.833C3058.93 109.345 3059.58 110.06 3060.05 110.977C3060.51 111.895 3060.75 112.983 3060.75 114.241C3060.75 115.5 3060.51 116.599 3060.05 117.537C3059.58 118.455 3058.93 119.169 3058.09 119.681C3057.26 120.172 3056.3 120.417 3055.21 120.417ZM3055.21 117.793C3055.92 117.793 3056.48 117.505 3056.91 116.929C3057.34 116.332 3057.55 115.436 3057.55 114.241C3057.55 113.047 3057.34 112.161 3056.91 111.585C3056.48 110.988 3055.92 110.689 3055.21 110.689C3054.53 110.689 3053.97 110.988 3053.52 111.585C3053.09 112.161 3052.88 113.047 3052.88 114.241C3052.88 115.415 3053.09 116.3 3053.52 116.897C3053.97 117.495 3054.53 117.793 3055.21 117.793ZM3070.41 130.977C3069.35 130.977 3068.39 130.732 3067.53 130.241C3066.7 129.729 3066.05 129.015 3065.58 128.097C3065.11 127.159 3064.88 126.06 3064.88 124.801C3064.88 123.543 3065.11 122.455 3065.58 121.537C3066.05 120.62 3066.7 119.905 3067.53 119.393C3068.39 118.881 3069.35 118.625 3070.41 118.625C3071.52 118.625 3072.49 118.881 3073.33 119.393C3074.16 119.905 3074.81 120.62 3075.28 121.537C3075.75 122.455 3075.98 123.543 3075.98 124.801C3075.98 126.06 3075.75 127.159 3075.28 128.097C3074.81 129.015 3074.16 129.729 3073.33 130.241C3072.49 130.732 3071.52 130.977 3070.41 130.977ZM3070.41 128.353C3071.12 128.353 3071.68 128.065 3072.11 127.489C3072.54 126.892 3072.75 125.996 3072.75 124.801C3072.75 123.628 3072.54 122.743 3072.11 122.145C3071.68 121.548 3071.12 121.249 3070.41 121.249C3069.73 121.249 3069.17 121.548 3068.72 122.145C3068.29 122.721 3068.08 123.607 3068.08 124.801C3068.08 125.996 3068.29 126.892 3068.72 127.489C3069.17 128.065 3069.73 128.353 3070.41 128.353Z" fill="url(#paint2_linear_49_26)"/>
<path d="M3093.02 191.039L3083.46 177.056H3102.58L3093.02 191.039Z" fill="white"/>
<g filter="url(#filter2_f_49_26)">
<path d="M2787.34 426.196C2787.34 439.328 2778.02 449.02 2767.62 449.02C2757.23 449.02 2747.91 439.328 2747.91 426.196C2747.91 413.064 2757.23 403.372 2767.62 403.372C2778.02 403.372 2787.34 413.064 2787.34 426.196Z" stroke="#605DEC" stroke-width="9"/>
</g>
<path d="M2788.84 426.196C2788.84 439.981 2779.01 450.52 2767.62 450.52C2756.24 450.52 2746.41 439.981 2746.41 426.196C2746.41 412.411 2756.24 401.872 2767.62 401.872C2779.01 401.872 2788.84 412.411 2788.84 426.196Z" stroke="white" stroke-width="6"/>
<path d="M2608.96 496.913V494.225H2626.21V496.913H2608.96ZM2608.96 492.497V489.809H2626.21V492.497H2608.96ZM2624.19 504.945C2622.44 504.945 2620.82 504.667 2619.33 504.113C2617.86 503.537 2616.58 502.726 2615.49 501.681C2614.4 500.635 2613.56 499.409 2612.96 498.001C2612.36 496.593 2612.06 495.046 2612.06 493.361C2612.06 491.675 2612.36 490.129 2612.96 488.721C2613.56 487.313 2614.4 486.086 2615.49 485.041C2616.58 483.995 2617.86 483.195 2619.33 482.641C2620.82 482.065 2622.44 481.777 2624.19 481.777C2626.13 481.777 2627.89 482.118 2629.47 482.801C2631.05 483.462 2632.36 484.443 2633.41 485.745L2630.11 488.817C2629.34 487.942 2628.49 487.291 2627.55 486.865C2626.61 486.417 2625.58 486.193 2624.45 486.193C2623.4 486.193 2622.44 486.363 2621.57 486.705C2620.69 487.046 2619.94 487.537 2619.3 488.177C2618.66 488.817 2618.15 489.574 2617.79 490.449C2617.45 491.323 2617.28 492.294 2617.28 493.361C2617.28 494.427 2617.45 495.398 2617.79 496.273C2618.15 497.147 2618.66 497.905 2619.3 498.545C2619.94 499.185 2620.69 499.675 2621.57 500.017C2622.44 500.358 2623.4 500.529 2624.45 500.529C2625.58 500.529 2626.61 500.315 2627.55 499.889C2628.49 499.441 2629.34 498.769 2630.11 497.873L2633.41 500.945C2632.36 502.246 2631.05 503.238 2629.47 503.921C2627.89 504.603 2626.13 504.945 2624.19 504.945ZM2639.27 504.561V484.081L2641.51 486.321H2634.79V482.161H2644.45V504.561H2639.27ZM2657.94 504.945C2656.11 504.945 2654.46 504.497 2653.01 503.601C2651.56 502.683 2650.42 501.361 2649.59 499.633C2648.76 497.905 2648.34 495.814 2648.34 493.361C2648.34 490.907 2648.76 488.817 2649.59 487.089C2650.42 485.361 2651.56 484.049 2653.01 483.153C2654.46 482.235 2656.11 481.777 2657.94 481.777C2659.8 481.777 2661.44 482.235 2662.87 483.153C2664.32 484.049 2665.46 485.361 2666.29 487.089C2667.13 488.817 2667.54 490.907 2667.54 493.361C2667.54 495.814 2667.13 497.905 2666.29 499.633C2665.46 501.361 2664.32 502.683 2662.87 503.601C2661.44 504.497 2659.8 504.945 2657.94 504.945ZM2657.94 500.561C2658.82 500.561 2659.57 500.315 2660.21 499.825C2660.88 499.334 2661.39 498.555 2661.75 497.489C2662.13 496.422 2662.33 495.046 2662.33 493.361C2662.33 491.675 2662.13 490.299 2661.75 489.233C2661.39 488.166 2660.88 487.387 2660.21 486.897C2659.57 486.406 2658.82 486.161 2657.94 486.161C2657.09 486.161 2656.33 486.406 2655.67 486.897C2655.03 487.387 2654.52 488.166 2654.13 489.233C2653.77 490.299 2653.59 491.675 2653.59 493.361C2653.59 495.046 2653.77 496.422 2654.13 497.489C2654.52 498.555 2655.03 499.334 2655.67 499.825C2656.33 500.315 2657.09 500.561 2657.94 500.561ZM2669.85 509.489L2671.96 501.809L2672.66 504.689C2671.74 504.689 2670.99 504.422 2670.39 503.889C2669.81 503.355 2669.53 502.619 2669.53 501.681C2669.53 500.742 2669.82 499.995 2670.42 499.441C2671.02 498.886 2671.76 498.609 2672.63 498.609C2673.53 498.609 2674.26 498.897 2674.84 499.473C2675.41 500.027 2675.7 500.763 2675.7 501.681C2675.7 501.958 2675.68 502.235 2675.64 502.513C2675.6 502.769 2675.51 503.089 2675.38 503.473C2675.28 503.835 2675.09 504.305 2674.84 504.881L2673.01 509.489H2669.85ZM2687.22 504.945C2685.39 504.945 2683.75 504.497 2682.3 503.601C2680.84 502.683 2679.7 501.361 2678.87 499.633C2678.04 497.905 2677.62 495.814 2677.62 493.361C2677.62 490.907 2678.04 488.817 2678.87 487.089C2679.7 485.361 2680.84 484.049 2682.3 483.153C2683.75 482.235 2685.39 481.777 2687.22 481.777C2689.08 481.777 2690.72 482.235 2692.15 483.153C2693.6 484.049 2694.74 485.361 2695.58 487.089C2696.41 488.817 2696.82 490.907 2696.82 493.361C2696.82 495.814 2696.41 497.905 2695.58 499.633C2694.74 501.361 2693.6 502.683 2692.15 503.601C2690.72 504.497 2689.08 504.945 2687.22 504.945ZM2687.22 500.561C2688.1 500.561 2688.86 500.315 2689.5 499.825C2690.16 499.334 2690.67 498.555 2691.03 497.489C2691.42 496.422 2691.61 495.046 2691.61 493.361C2691.61 491.675 2691.42 490.299 2691.03 489.233C2690.67 488.166 2690.16 487.387 2689.5 486.897C2688.86 486.406 2688.1 486.161 2687.22 486.161C2686.37 486.161 2685.61 486.406 2684.95 486.897C2684.31 487.387 2683.8 488.166 2683.42 489.233C2683.05 490.299 2682.87 491.675 2682.87 493.361C2682.87 495.046 2683.05 496.422 2683.42 497.489C2683.8 498.555 2684.31 499.334 2684.95 499.825C2685.61 500.315 2686.37 500.561 2687.22 500.561ZM2708.94 504.945C2707.11 504.945 2705.46 504.497 2704.01 503.601C2702.56 502.683 2701.42 501.361 2700.59 499.633C2699.76 497.905 2699.34 495.814 2699.34 493.361C2699.34 490.907 2699.76 488.817 2700.59 487.089C2701.42 485.361 2702.56 484.049 2704.01 483.153C2705.46 482.235 2707.11 481.777 2708.94 481.777C2710.8 481.777 2712.44 482.235 2713.87 483.153C2715.32 484.049 2716.46 485.361 2717.29 487.089C2718.13 488.817 2718.54 490.907 2718.54 493.361C2718.54 495.814 2718.13 497.905 2717.29 499.633C2716.46 501.361 2715.32 502.683 2713.87 503.601C2712.44 504.497 2710.8 504.945 2708.94 504.945ZM2708.94 500.561C2709.82 500.561 2710.57 500.315 2711.21 499.825C2711.88 499.334 2712.39 498.555 2712.75 497.489C2713.13 496.422 2713.33 495.046 2713.33 493.361C2713.33 491.675 2713.13 490.299 2712.75 489.233C2712.39 488.166 2711.88 487.387 2711.21 486.897C2710.57 486.406 2709.82 486.161 2708.94 486.161C2708.09 486.161 2707.33 486.406 2706.67 486.897C2706.03 487.387 2705.52 488.166 2705.13 489.233C2704.77 490.299 2704.59 491.675 2704.59 493.361C2704.59 495.046 2704.77 496.422 2705.13 497.489C2705.52 498.555 2706.03 499.334 2706.67 499.825C2707.33 500.315 2708.09 500.561 2708.94 500.561ZM2730.66 504.945C2728.83 504.945 2727.18 504.497 2725.73 503.601C2724.28 502.683 2723.14 501.361 2722.31 499.633C2721.48 497.905 2721.06 495.814 2721.06 493.361C2721.06 490.907 2721.48 488.817 2722.31 487.089C2723.14 485.361 2724.28 484.049 2725.73 483.153C2727.18 482.235 2728.83 481.777 2730.66 481.777C2732.52 481.777 2734.16 482.235 2735.59 483.153C2737.04 484.049 2738.18 485.361 2739.01 487.089C2739.84 488.817 2740.26 490.907 2740.26 493.361C2740.26 495.814 2739.84 497.905 2739.01 499.633C2738.18 501.361 2737.04 502.683 2735.59 503.601C2734.16 504.497 2732.52 504.945 2730.66 504.945ZM2730.66 500.561C2731.54 500.561 2732.29 500.315 2732.93 499.825C2733.59 499.334 2734.11 498.555 2734.47 497.489C2734.85 496.422 2735.04 495.046 2735.04 493.361C2735.04 491.675 2734.85 490.299 2734.47 489.233C2734.11 488.166 2733.59 487.387 2732.93 486.897C2732.29 486.406 2731.54 486.161 2730.66 486.161C2729.81 486.161 2729.05 486.406 2728.39 486.897C2727.75 487.387 2727.24 488.166 2726.85 489.233C2726.49 490.299 2726.31 491.675 2726.31 493.361C2726.31 495.046 2726.49 496.422 2726.85 497.489C2727.24 498.555 2727.75 499.334 2728.39 499.825C2729.05 500.315 2729.81 500.561 2730.66 500.561ZM2759.94 504.817C2757.91 504.817 2756.33 504.305 2755.2 503.281C2754.07 502.235 2753.51 500.689 2753.51 498.641V483.537H2758.5V498.577C2758.5 499.302 2758.69 499.867 2759.07 500.273C2759.46 500.657 2759.98 500.849 2760.64 500.849C2761.43 500.849 2762.1 500.635 2762.66 500.209L2764 503.729C2763.49 504.091 2762.87 504.369 2762.15 504.561C2761.44 504.731 2760.71 504.817 2759.94 504.817ZM2750.85 491.569V487.729H2762.79V491.569H2750.85ZM2774.46 504.817C2772.63 504.817 2771 504.433 2769.57 503.665C2768.16 502.897 2767.04 501.851 2766.21 500.529C2765.4 499.185 2764.99 497.659 2764.99 495.953C2764.99 494.225 2765.4 492.699 2766.21 491.377C2767.04 490.033 2768.16 488.987 2769.57 488.241C2771 487.473 2772.63 487.089 2774.46 487.089C2776.28 487.089 2777.9 487.473 2779.33 488.241C2780.76 488.987 2781.88 490.022 2782.69 491.345C2783.5 492.667 2783.9 494.203 2783.9 495.953C2783.9 497.659 2783.5 499.185 2782.69 500.529C2781.88 501.851 2780.76 502.897 2779.33 503.665C2777.9 504.433 2776.28 504.817 2774.46 504.817ZM2774.46 500.721C2775.3 500.721 2776.04 500.529 2776.7 500.145C2777.37 499.761 2777.89 499.217 2778.27 498.513C2778.66 497.787 2778.85 496.934 2778.85 495.953C2778.85 494.95 2778.66 494.097 2778.27 493.393C2777.89 492.689 2777.37 492.145 2776.7 491.761C2776.04 491.377 2775.3 491.185 2774.46 491.185C2773.63 491.185 2772.89 491.377 2772.22 491.761C2771.56 492.145 2771.03 492.689 2770.62 493.393C2770.24 494.097 2770.05 494.95 2770.05 495.953C2770.05 496.934 2770.24 497.787 2770.62 498.513C2771.03 499.217 2771.56 499.761 2772.22 500.145C2772.89 500.529 2773.63 500.721 2774.46 500.721ZM2794.96 496.913V494.225H2812.21V496.913H2794.96ZM2794.96 492.497V489.809H2812.21V492.497H2794.96ZM2810.19 504.945C2808.44 504.945 2806.82 504.667 2805.33 504.113C2803.86 503.537 2802.58 502.726 2801.49 501.681C2800.4 500.635 2799.56 499.409 2798.96 498.001C2798.36 496.593 2798.06 495.046 2798.06 493.361C2798.06 491.675 2798.36 490.129 2798.96 488.721C2799.56 487.313 2800.4 486.086 2801.49 485.041C2802.58 483.995 2803.86 483.195 2805.33 482.641C2806.82 482.065 2808.44 481.777 2810.19 481.777C2812.13 481.777 2813.89 482.118 2815.47 482.801C2817.05 483.462 2818.36 484.443 2819.41 485.745L2816.11 488.817C2815.34 487.942 2814.49 487.291 2813.55 486.865C2812.61 486.417 2811.58 486.193 2810.45 486.193C2809.4 486.193 2808.44 486.363 2807.57 486.705C2806.69 487.046 2805.94 487.537 2805.3 488.177C2804.66 488.817 2804.15 489.574 2803.79 490.449C2803.45 491.323 2803.28 492.294 2803.28 493.361C2803.28 494.427 2803.45 495.398 2803.79 496.273C2804.15 497.147 2804.66 497.905 2805.3 498.545C2805.94 499.185 2806.69 499.675 2807.57 500.017C2808.44 500.358 2809.4 500.529 2810.45 500.529C2811.58 500.529 2812.61 500.315 2813.55 499.889C2814.49 499.441 2815.34 498.769 2816.11 497.873L2819.41 500.945C2818.36 502.246 2817.05 503.238 2815.47 503.921C2813.89 504.603 2812.13 504.945 2810.19 504.945ZM2821.21 504.561V501.201L2829.85 493.041C2830.53 492.422 2831.04 491.867 2831.36 491.377C2831.68 490.886 2831.89 490.438 2832 490.033C2832.12 489.627 2832.19 489.254 2832.19 488.913C2832.19 488.017 2831.88 487.334 2831.26 486.865C2830.66 486.374 2829.78 486.129 2828.6 486.129C2827.67 486.129 2826.79 486.31 2825.98 486.673C2825.19 487.035 2824.52 487.601 2823.96 488.369L2820.19 485.937C2821.04 484.657 2822.24 483.643 2823.77 482.897C2825.31 482.15 2827.08 481.777 2829.08 481.777C2830.75 481.777 2832.2 482.054 2833.44 482.609C2834.69 483.142 2835.67 483.899 2836.35 484.881C2837.05 485.862 2837.4 487.035 2837.4 488.401C2837.4 489.126 2837.31 489.851 2837.12 490.577C2836.95 491.281 2836.58 492.027 2836.03 492.817C2835.49 493.606 2834.71 494.491 2833.66 495.473L2826.49 502.225L2825.5 500.337H2838.14V504.561H2821.21ZM2849.88 504.945C2848.04 504.945 2846.4 504.497 2844.95 503.601C2843.5 502.683 2842.36 501.361 2841.53 499.633C2840.7 497.905 2840.28 495.814 2840.28 493.361C2840.28 490.907 2840.7 488.817 2841.53 487.089C2842.36 485.361 2843.5 484.049 2844.95 483.153C2846.4 482.235 2848.04 481.777 2849.88 481.777C2851.74 481.777 2853.38 482.235 2854.81 483.153C2856.26 484.049 2857.4 485.361 2858.23 487.089C2859.06 488.817 2859.48 490.907 2859.48 493.361C2859.48 495.814 2859.06 497.905 2858.23 499.633C2857.4 501.361 2856.26 502.683 2854.81 503.601C2853.38 504.497 2851.74 504.945 2849.88 504.945ZM2849.88 500.561C2850.75 500.561 2851.51 500.315 2852.15 499.825C2852.81 499.334 2853.32 498.555 2853.69 497.489C2854.07 496.422 2854.26 495.046 2854.26 493.361C2854.26 491.675 2854.07 490.299 2853.69 489.233C2853.32 488.166 2852.81 487.387 2852.15 486.897C2851.51 486.406 2850.75 486.161 2849.88 486.161C2849.03 486.161 2848.27 486.406 2847.61 486.897C2846.97 487.387 2846.46 488.166 2846.07 489.233C2845.71 490.299 2845.53 491.675 2845.53 493.361C2845.53 495.046 2845.71 496.422 2846.07 497.489C2846.46 498.555 2846.97 499.334 2847.61 499.825C2848.27 500.315 2849.03 500.561 2849.88 500.561ZM2861.78 509.489L2863.9 501.809L2864.6 504.689C2863.68 504.689 2862.93 504.422 2862.33 503.889C2861.75 503.355 2861.46 502.619 2861.46 501.681C2861.46 500.742 2861.76 499.995 2862.36 499.441C2862.96 498.886 2863.69 498.609 2864.57 498.609C2865.46 498.609 2866.2 498.897 2866.78 499.473C2867.35 500.027 2867.64 500.763 2867.64 501.681C2867.64 501.958 2867.62 502.235 2867.58 502.513C2867.53 502.769 2867.45 503.089 2867.32 503.473C2867.21 503.835 2867.03 504.305 2866.78 504.881L2864.95 509.489H2861.78ZM2879.16 504.945C2877.33 504.945 2875.68 504.497 2874.23 503.601C2872.78 502.683 2871.64 501.361 2870.81 499.633C2869.98 497.905 2869.56 495.814 2869.56 493.361C2869.56 490.907 2869.98 488.817 2870.81 487.089C2871.64 485.361 2872.78 484.049 2874.23 483.153C2875.68 482.235 2877.33 481.777 2879.16 481.777C2881.02 481.777 2882.66 482.235 2884.09 483.153C2885.54 484.049 2886.68 485.361 2887.51 487.089C2888.34 488.817 2888.76 490.907 2888.76 493.361C2888.76 495.814 2888.34 497.905 2887.51 499.633C2886.68 501.361 2885.54 502.683 2884.09 503.601C2882.66 504.497 2881.02 504.945 2879.16 504.945ZM2879.16 500.561C2880.04 500.561 2880.79 500.315 2881.43 499.825C2882.09 499.334 2882.61 498.555 2882.97 497.489C2883.35 496.422 2883.54 495.046 2883.54 493.361C2883.54 491.675 2883.35 490.299 2882.97 489.233C2882.61 488.166 2882.09 487.387 2881.43 486.897C2880.79 486.406 2880.04 486.161 2879.16 486.161C2878.31 486.161 2877.55 486.406 2876.89 486.897C2876.25 487.387 2875.74 488.166 2875.35 489.233C2874.99 490.299 2874.81 491.675 2874.81 493.361C2874.81 495.046 2874.99 496.422 2875.35 497.489C2875.74 498.555 2876.25 499.334 2876.89 499.825C2877.55 500.315 2878.31 500.561 2879.16 500.561ZM2900.88 504.945C2899.04 504.945 2897.4 504.497 2895.95 503.601C2894.5 502.683 2893.36 501.361 2892.53 499.633C2891.7 497.905 2891.28 495.814 2891.28 493.361C2891.28 490.907 2891.7 488.817 2892.53 487.089C2893.36 485.361 2894.5 484.049 2895.95 483.153C2897.4 482.235 2899.04 481.777 2900.88 481.777C2902.74 481.777 2904.38 482.235 2905.81 483.153C2907.26 484.049 2908.4 485.361 2909.23 487.089C2910.06 488.817 2910.48 490.907 2910.48 493.361C2910.48 495.814 2910.06 497.905 2909.23 499.633C2908.4 501.361 2907.26 502.683 2905.81 503.601C2904.38 504.497 2902.74 504.945 2900.88 504.945ZM2900.88 500.561C2901.75 500.561 2902.51 500.315 2903.15 499.825C2903.81 499.334 2904.32 498.555 2904.69 497.489C2905.07 496.422 2905.26 495.046 2905.26 493.361C2905.26 491.675 2905.07 490.299 2904.69 489.233C2904.32 488.166 2903.81 487.387 2903.15 486.897C2902.51 486.406 2901.75 486.161 2900.88 486.161C2900.03 486.161 2899.27 486.406 2898.61 486.897C2897.97 487.387 2897.46 488.166 2897.07 489.233C2896.71 490.299 2896.53 491.675 2896.53 493.361C2896.53 495.046 2896.71 496.422 2897.07 497.489C2897.46 498.555 2897.97 499.334 2898.61 499.825C2899.27 500.315 2900.03 500.561 2900.88 500.561ZM2922.6 504.945C2920.76 504.945 2919.12 504.497 2917.67 503.601C2916.22 502.683 2915.08 501.361 2914.25 499.633C2913.41 497.905 2913 495.814 2913 493.361C2913 490.907 2913.41 488.817 2914.25 487.089C2915.08 485.361 2916.22 484.049 2917.67 483.153C2919.12 482.235 2920.76 481.777 2922.6 481.777C2924.45 481.777 2926.1 482.235 2927.53 483.153C2928.98 484.049 2930.12 485.361 2930.95 487.089C2931.78 488.817 2932.2 490.907 2932.2 493.361C2932.2 495.814 2931.78 497.905 2930.95 499.633C2930.12 501.361 2928.98 502.683 2927.53 503.601C2926.1 504.497 2924.45 504.945 2922.6 504.945ZM2922.6 500.561C2923.47 500.561 2924.23 500.315 2924.87 499.825C2925.53 499.334 2926.04 498.555 2926.41 497.489C2926.79 496.422 2926.98 495.046 2926.98 493.361C2926.98 491.675 2926.79 490.299 2926.41 489.233C2926.04 488.166 2925.53 487.387 2924.87 486.897C2924.23 486.406 2923.47 486.161 2922.6 486.161C2921.74 486.161 2920.99 486.406 2920.33 486.897C2919.69 487.387 2919.17 488.166 2918.79 489.233C2918.43 490.299 2918.25 491.675 2918.25 493.361C2918.25 495.046 2918.43 496.422 2918.79 497.489C2919.17 498.555 2919.69 499.334 2920.33 499.825C2920.99 500.315 2921.74 500.561 2922.6 500.561Z" fill="white"/>
<path d="M2630.99 290.484C2630.99 284.961 2635.47 280.484 2640.99 280.484H2716.81H2790.03C2795.56 280.484 2800.03 284.961 2800.03 290.484V351.325C2800.03 356.847 2795.56 361.325 2790.03 361.325H2640.99C2635.47 361.325 2630.99 356.847 2630.99 351.325V290.484Z" fill="white"/>
<path d="M2687.37 324.699C2685.81 324.699 2684.26 324.497 2682.73 324.091C2681.19 323.665 2679.89 323.067 2678.82 322.299L2680.84 318.331C2681.69 318.95 2682.68 319.441 2683.81 319.803C2684.95 320.166 2686.09 320.347 2687.24 320.347C2688.54 320.347 2689.56 320.091 2690.31 319.579C2691.06 319.067 2691.43 318.363 2691.43 317.467C2691.43 316.614 2691.1 315.942 2690.44 315.451C2689.78 314.961 2688.71 314.715 2687.24 314.715H2684.87V311.291L2691.11 304.219L2691.69 306.075H2679.94V301.915H2695.62V305.275L2689.41 312.347L2686.79 310.843H2688.29C2691.05 310.843 2693.13 311.462 2694.53 312.699C2695.94 313.937 2696.65 315.526 2696.65 317.467C2696.65 318.726 2696.32 319.91 2695.65 321.019C2694.99 322.107 2693.98 322.993 2692.61 323.675C2691.25 324.358 2689.5 324.699 2687.37 324.699ZM2706.34 324.699C2704.79 324.699 2703.24 324.497 2701.7 324.091C2700.19 323.665 2698.89 323.067 2697.8 322.299L2699.85 318.331C2700.7 318.95 2701.68 319.441 2702.79 319.803C2703.92 320.166 2705.06 320.347 2706.22 320.347C2707.52 320.347 2708.54 320.091 2709.29 319.579C2710.03 319.067 2710.41 318.353 2710.41 317.435C2710.41 316.859 2710.26 316.347 2709.96 315.899C2709.66 315.451 2709.13 315.11 2708.36 314.875C2707.61 314.641 2706.56 314.523 2705.19 314.523H2699.46L2700.62 301.915H2714.28V306.075H2702.47L2705.16 303.707L2704.36 312.699L2701.67 310.331H2706.41C2708.63 310.331 2710.41 310.641 2711.75 311.259C2713.12 311.857 2714.11 312.678 2714.73 313.723C2715.35 314.769 2715.66 315.953 2715.66 317.275C2715.66 318.598 2715.33 319.825 2714.66 320.955C2714 322.065 2712.98 322.971 2711.59 323.675C2710.23 324.358 2708.48 324.699 2706.34 324.699ZM2720.68 324.315L2735.97 301.915H2739.78L2724.49 324.315H2720.68ZM2722.63 314.011C2721.54 314.011 2720.58 313.766 2719.75 313.275C2718.92 312.763 2718.26 312.049 2717.77 311.131C2717.3 310.193 2717.06 309.094 2717.06 307.835C2717.06 306.577 2717.3 305.489 2717.77 304.571C2718.26 303.654 2718.92 302.939 2719.75 302.427C2720.58 301.915 2721.54 301.659 2722.63 301.659C2723.72 301.659 2724.68 301.915 2725.51 302.427C2726.34 302.939 2726.99 303.654 2727.46 304.571C2727.93 305.489 2728.17 306.577 2728.17 307.835C2728.17 309.094 2727.93 310.193 2727.46 311.131C2726.99 312.049 2726.34 312.763 2725.51 313.275C2724.68 313.766 2723.72 314.011 2722.63 314.011ZM2722.63 311.387C2723.33 311.387 2723.9 311.099 2724.33 310.523C2724.75 309.926 2724.97 309.03 2724.97 307.835C2724.97 306.641 2724.75 305.755 2724.33 305.179C2723.9 304.582 2723.33 304.283 2722.63 304.283C2721.95 304.283 2721.38 304.582 2720.93 305.179C2720.51 305.755 2720.29 306.641 2720.29 307.835C2720.29 309.009 2720.51 309.894 2720.93 310.491C2721.38 311.089 2721.95 311.387 2722.63 311.387ZM2737.83 324.571C2736.76 324.571 2735.8 324.326 2734.95 323.835C2734.12 323.323 2733.47 322.609 2733 321.691C2732.53 320.753 2732.29 319.654 2732.29 318.395C2732.29 317.137 2732.53 316.049 2733 315.131C2733.47 314.214 2734.12 313.499 2734.95 312.987C2735.8 312.475 2736.76 312.219 2737.83 312.219C2738.94 312.219 2739.91 312.475 2740.74 312.987C2741.57 313.499 2742.23 314.214 2742.69 315.131C2743.16 316.049 2743.4 317.137 2743.4 318.395C2743.4 319.654 2743.16 320.753 2742.69 321.691C2742.23 322.609 2741.57 323.323 2740.74 323.835C2739.91 324.326 2738.94 324.571 2737.83 324.571ZM2737.83 321.947C2738.53 321.947 2739.1 321.659 2739.53 321.083C2739.95 320.486 2740.17 319.59 2740.17 318.395C2740.17 317.222 2739.95 316.337 2739.53 315.739C2739.1 315.142 2738.53 314.843 2737.83 314.843C2737.15 314.843 2736.58 315.142 2736.13 315.739C2735.71 316.315 2735.49 317.201 2735.49 318.395C2735.49 319.59 2735.71 320.486 2736.13 321.083C2736.58 321.659 2737.15 321.947 2737.83 321.947Z" fill="url(#paint3_linear_49_26)"/>
<path d="M2768.49 379.354L2758.75 366.18H2778.23L2768.49 379.354Z" fill="white"/>
<path d="M2013.96 0.620438L2013.96 765M2036.84 0.620438L2036.84 765M2059.72 0.620438L2059.72 765M2082.6 0.620438L2082.6 765M2105.48 0.620438L2105.48 765M2128.36 0.620438L2128.36 765M2151.24 0.620438L2151.24 765M2174.13 0.620438L2174.13 765M2197.01 0.620438L2197.01 765M2219.89 0.620438L2219.89 765M2242.77 0.620438V765M2265.65 0.620438V765M2288.53 0.620438V765M2311.41 0.620438V765M2334.29 0.620438V765M2357.18 0.620438V765M2380.06 0.620438V765M2402.94 0.620438V765M2425.82 0.620438V765M2448.7 0.620438L2448.7 765M2471.58 0.620438L2471.58 765M2494.46 0.620438L2494.46 765M2517.34 0.620438L2517.34 765M2013.55 764.38L2516.94 764.38M2013.55 729.635L2516.94 729.635M2013.55 694.89L2516.94 694.891M2013.55 660.146L2516.94 660.146M2013.55 625.401L2516.94 625.402M2013.55 590.657L2516.94 590.657M2013.55 555.912L2516.94 555.912M2013.55 521.168L2516.94 521.168M2013.55 486.423L2516.94 486.423M2013.55 451.679L2516.94 451.679M2013.55 416.934L2516.94 416.934M2013.55 382.19L2516.94 382.19M2013.55 347.445L2516.94 347.445M2013.55 312.701L2516.94 312.701M2013.55 277.956L2516.94 277.956M2013.55 243.212L2516.94 243.212M2013.55 208.467L2516.94 208.467M2013.55 173.723L2516.94 173.723M2013.55 138.978L2516.94 138.978M2013.55 104.234L2516.94 104.234M2013.55 69.4891L2516.94 69.4891M2013.55 34.7445L2516.94 34.7446M2013.55 0L2516.94 5.14551e-05" stroke="url(#paint4_linear_49_26)" stroke-opacity="0.1"/>
<path d="M503.796 0.620438L503.796 765M526.677 0.620438L526.677 765M549.558 0.620438L549.558 765M572.44 0.620438L572.439 765M595.321 0.620438L595.321 765M618.202 0.620438L618.202 765M641.083 0.620438L641.083 765M663.964 0.620438L663.964 765M686.846 0.620438L686.846 765M709.727 0.620438L709.727 765M732.608 0.620438V765M755.489 0.620438V765M778.371 0.620438V765M801.252 0.620438V765M824.133 0.620438V765M847.014 0.620438V765M869.896 0.620438V765M892.777 0.620438V765M915.658 0.620438V765M938.539 0.620438L938.539 765M961.42 0.620438L961.42 765M984.302 0.620438L984.302 765M1007.18 0.620438L1007.18 765M503.387 764.38L1006.77 764.38M503.387 729.635L1006.77 729.635M503.387 694.891L1006.77 694.891M503.387 660.146L1006.77 660.146M503.387 625.401L1006.77 625.402M503.387 590.657L1006.77 590.657M503.387 555.912L1006.77 555.913M503.387 521.168L1006.77 521.168M503.387 486.423L1006.77 486.423M503.387 451.679L1006.77 451.679M503.387 416.934L1006.77 416.934M503.387 382.19L1006.77 382.19M503.387 347.445L1006.77 347.445M503.387 312.701L1006.77 312.701M503.387 277.956L1006.77 277.956M503.387 243.212L1006.77 243.212M503.387 208.467L1006.77 208.467M503.387 173.723L1006.77 173.723M503.387 138.978L1006.77 138.978M503.387 104.234L1006.77 104.234M503.387 69.4891L1006.77 69.4891M503.387 34.7445L1006.77 34.7446M503.387 0L1006.77 5.14551e-05" stroke="url(#paint5_linear_49_26)" stroke-opacity="0.1"/>
<path d="M0.408615 0.620438L0.408593 765M23.2898 0.620438L23.2898 765M46.1711 0.620438L46.1711 765M69.0523 0.620438L69.0523 765M91.9335 0.620438L91.9335 765M114.815 0.620438L114.815 765M137.696 0.620438L137.696 765M160.577 0.620438L160.577 765M183.458 0.620438L183.458 765M206.34 0.620438L206.34 765M229.221 0.620438V765M252.102 0.620438V765M274.983 0.620438V765M297.865 0.620438V765M320.746 0.620438V765M343.627 0.620438V765M366.508 0.620438V765M389.39 0.620438V765M412.271 0.620438V765M435.152 0.620438L435.152 765M458.033 0.620438L458.033 765M480.915 0.620438L480.914 765M503.796 0.620438L503.796 765M0 764.38L503.387 764.38M0 729.635L503.387 729.635M0 694.891L503.387 694.891M0 660.146L503.387 660.146M0 625.401L503.387 625.402M0 590.657L503.387 590.657M0 555.912L503.387 555.913M0 521.168L503.387 521.168M0 486.423L503.387 486.423M0 451.679L503.387 451.679M0 416.934L503.387 416.934M0 382.19L503.387 382.19M0 347.445L503.387 347.445M0 312.701L503.387 312.701M0 277.956L503.387 277.956M0 243.212L503.387 243.212M0 208.467L503.387 208.467M0 173.723L503.387 173.723M0 138.978L503.387 138.978M0 104.234L503.387 104.234M0 69.4891L503.387 69.4891M0 34.7445L503.387 34.7446M0 0L503.387 5.14551e-05" stroke="url(#paint6_linear_49_26)" stroke-opacity="0.1"/>
<path d="M1007.18 0.620438L1007.18 765M1030.06 0.620438L1030.06 765M1052.95 0.620438L1052.95 765M1075.83 0.620438L1075.83 765M1098.71 0.620438L1098.71 765M1121.59 0.620438L1121.59 765M1144.47 0.620438L1144.47 765M1167.35 0.620438L1167.35 765M1190.23 0.620438L1190.23 765M1213.11 0.620438L1213.11 765M1236 0.620438V765M1258.88 0.620438V765M1281.76 0.620438V765M1304.64 0.620438V765M1327.52 0.620438V765M1350.4 0.620438V765M1373.28 0.620438V765M1396.16 0.620438V765M1419.05 0.620438V765M1441.93 0.620438L1441.93 765M1464.81 0.620438L1464.81 765M1487.69 0.620438L1487.69 765M1510.57 0.620438L1510.57 765M1006.77 764.38L1510.16 764.38M1006.77 729.635L1510.16 729.635M1006.77 694.891L1510.16 694.891M1006.77 660.146L1510.16 660.146M1006.77 625.401L1510.16 625.402M1006.77 590.657L1510.16 590.657M1006.77 555.912L1510.16 555.913M1006.77 521.168L1510.16 521.168M1006.77 486.423L1510.16 486.423M1006.77 451.679L1510.16 451.679M1006.77 416.934L1510.16 416.934M1006.77 382.19L1510.16 382.19M1006.77 347.445L1510.16 347.445M1006.77 312.701L1510.16 312.701M1006.77 277.956L1510.16 277.956M1006.77 243.212L1510.16 243.212M1006.77 208.467L1510.16 208.467M1006.77 173.723L1510.16 173.723M1006.77 138.978L1510.16 138.978M1006.77 104.234L1510.16 104.234M1006.77 69.4891L1510.16 69.4891M1006.77 34.7445L1510.16 34.7446M1006.77 0L1510.16 5.14551e-05" stroke="url(#paint7_linear_49_26)" stroke-opacity="0.1"/>
<path d="M1510.57 0.620438L1510.57 765M1533.45 0.620438L1533.45 765M1556.33 0.620438L1556.33 765M1579.21 0.620438L1579.21 765M1602.09 0.620438L1602.09 765M1624.98 0.620438L1624.98 765M1647.86 0.620438L1647.86 765M1670.74 0.620438L1670.74 765M1693.62 0.620438L1693.62 765M1716.5 0.620438L1716.5 765M1739.38 0.620438V765M1762.26 0.620438V765M1785.14 0.620438V765M1808.03 0.620438V765M1830.91 0.620438V765M1853.79 0.620438V765M1876.67 0.620438V765M1899.55 0.620438V765M1922.43 0.620438V765M1945.31 0.620438L1945.31 765M1968.19 0.620438L1968.19 765M1991.08 0.620438L1991.08 765M2013.96 0.620438L2013.96 765M1510.16 764.38L2013.55 764.38M1510.16 729.635L2013.55 729.635M1510.16 694.891L2013.55 694.891M1510.16 660.146L2013.55 660.146M1510.16 625.401L2013.55 625.402M1510.16 590.657L2013.55 590.657M1510.16 555.912L2013.55 555.913M1510.16 521.168L2013.55 521.168M1510.16 486.423L2013.55 486.423M1510.16 451.679L2013.55 451.679M1510.16 416.934L2013.55 416.934M1510.16 382.19L2013.55 382.19M1510.16 347.445L2013.55 347.445M1510.16 312.701L2013.55 312.701M1510.16 277.956L2013.55 277.956M1510.16 243.212L2013.55 243.212M1510.16 208.467L2013.55 208.467M1510.16 173.723L2013.55 173.723M1510.16 138.978L2013.55 138.978M1510.16 104.234L2013.55 104.234M1510.16 69.4891L2013.55 69.4891M1510.16 34.7445L2013.55 34.7446M1510.16 0L2013.55 5.14551e-05" stroke="url(#paint8_linear_49_26)" stroke-opacity="0.1"/>
<path d="M4531.3 0.620438L4531.3 765M4554.18 0.620438L4554.18 765M4577.06 0.620438L4577.06 765M4599.95 0.620438L4599.95 765M4622.83 0.620438L4622.83 765M4645.71 0.620438L4645.71 765M4668.59 0.620438L4668.59 765M4691.47 0.620438L4691.47 765M4714.35 0.620438L4714.35 765M4737.23 0.620438L4737.23 765M4760.11 0.620438V765M4782.99 0.620438V765M4805.88 0.620438V765M4828.76 0.620438V765M4851.64 0.620438V765M4874.52 0.620438V765M4897.4 0.620438V765M4920.28 0.620438V765M4943.16 0.620438V765M4966.04 0.620438L4966.04 765M4988.93 0.620438L4988.93 765M5011.81 0.620438L5011.81 765M5034.69 0.620438L5034.69 765M4530.89 764.38L5034.28 764.38M4530.89 729.635L5034.28 729.635M4530.89 694.891L5034.28 694.891M4530.89 660.146L5034.28 660.146M4530.89 625.401L5034.28 625.402M4530.89 590.657L5034.28 590.657M4530.89 555.912L5034.28 555.913M4530.89 521.168L5034.28 521.168M4530.89 486.423L5034.28 486.423M4530.89 451.679L5034.28 451.679M4530.89 416.934L5034.28 416.934M4530.89 382.19L5034.28 382.19M4530.89 347.445L5034.28 347.445M4530.89 312.701L5034.28 312.701M4530.89 277.956L5034.28 277.956M4530.89 243.212L5034.28 243.212M4530.89 208.467L5034.28 208.467M4530.89 173.723L5034.28 173.723M4530.89 138.978L5034.28 138.978M4530.89 104.234L5034.28 104.234M4530.89 69.4891L5034.28 69.4891M4530.89 34.7445L5034.28 34.7446M4530.89 0L5034.28 5.14551e-05" stroke="url(#paint9_linear_49_26)" stroke-opacity="0.1"/>
<path d="M3021.14 0.620438L3021.14 765M3044.02 0.620438L3044.02 765M3066.9 0.620438L3066.9 765M3089.78 0.620438L3089.78 765M3112.66 0.620438L3112.66 765M3135.55 0.620438L3135.55 765M3158.43 0.620438L3158.43 765M3181.31 0.620438L3181.31 765M3204.19 0.620438L3204.19 765M3227.07 0.620438L3227.07 765M3249.95 0.620438V765M3272.83 0.620438V765M3295.71 0.620438V765M3318.6 0.620438V765M3341.48 0.620438V765M3364.36 0.620438V765M3387.24 0.620438V765M3410.12 0.620438V765M3433 0.620438V765M3455.88 0.620438L3455.88 765M3478.76 0.620438L3478.76 765M3501.65 0.620438L3501.65 765M3524.53 0.620438L3524.53 765M3020.73 764.38L3524.12 764.38M3020.73 729.635L3524.12 729.635M3020.73 694.891L3524.12 694.891M3020.73 660.146L3524.12 660.146M3020.73 625.401L3524.12 625.402M3020.73 590.657L3524.12 590.657M3020.73 555.912L3524.12 555.913M3020.73 521.168L3524.12 521.168M3020.73 486.423L3524.12 486.423M3020.73 451.679L3524.12 451.679M3020.73 416.934L3524.12 416.934M3020.73 382.19L3524.12 382.19M3020.73 347.445L3524.12 347.445M3020.73 312.701L3524.12 312.701M3020.73 277.956L3524.12 277.956M3020.73 243.212L3524.12 243.212M3020.73 208.467L3524.12 208.467M3020.73 173.723L3524.12 173.723M3020.73 138.978L3524.12 138.978M3020.73 104.234L3524.12 104.234M3020.73 69.4891L3524.12 69.4891M3020.73 34.7445L3524.12 34.7446M3020.73 0L3524.12 5.14551e-05" stroke="url(#paint10_linear_49_26)" stroke-opacity="0.1"/>
<path d="M2517.75 0.620438L2517.75 765M2540.63 0.620438L2540.63 765M2563.52 0.620438L2563.52 765M2586.4 0.620438L2586.4 765M2609.28 0.620438L2609.28 765M2632.16 0.620438L2632.16 765M2655.04 0.620438L2655.04 765M2677.92 0.620438L2677.92 765M2700.8 0.620438L2700.8 765M2723.68 0.620438L2723.68 765M2746.57 0.620438V765M2769.45 0.620438V765M2792.33 0.620438V765M2815.21 0.620438V765M2838.09 0.620438V765M2860.97 0.620438V765M2883.85 0.620438V765M2906.73 0.620438V765M2929.61 0.620438V765M2952.5 0.620438L2952.5 765M2975.38 0.620438L2975.38 765M2998.26 0.620438L2998.26 765M3021.14 0.620438L3021.14 765M2517.34 764.38L3020.73 764.38M2517.34 729.635L3020.73 729.635M2517.34 694.891L3020.73 694.891M2517.34 660.146L3020.73 660.146M2517.34 625.401L3020.73 625.402M2517.34 590.657L3020.73 590.657M2517.34 555.912L3020.73 555.913M2517.34 521.168L3020.73 521.168M2517.34 486.423L3020.73 486.423M2517.34 451.679L3020.73 451.679M2517.34 416.934L3020.73 416.934M2517.34 382.19L3020.73 382.19M2517.34 347.445L3020.73 347.445M2517.34 312.701L3020.73 312.701M2517.34 277.956L3020.73 277.956M2517.34 243.212L3020.73 243.212M2517.34 208.467L3020.73 208.467M2517.34 173.723L3020.73 173.723M2517.34 138.978L3020.73 138.978M2517.34 104.234L3020.73 104.234M2517.34 69.4891L3020.73 69.4891M2517.34 34.7445L3020.73 34.7446M2517.34 0L3020.73 5.14551e-05" stroke="url(#paint11_linear_49_26)" stroke-opacity="0.1"/>
<path d="M3524.53 0.620438L3524.53 765M3547.41 0.620438L3547.41 765M3570.29 0.620438L3570.29 765M3593.17 0.620438L3593.17 765M3616.05 0.620438L3616.05 765M3638.93 0.620438L3638.93 765M3661.81 0.620438L3661.81 765M3684.7 0.620438L3684.7 765M3707.58 0.620438L3707.58 765M3730.46 0.620438L3730.46 765M3753.34 0.620438V765M3776.22 0.620438V765M3799.1 0.620438V765M3821.98 0.620438V765M3844.86 0.620438V765M3867.75 0.620438V765M3890.63 0.620438V765M3913.51 0.620438V765M3936.39 0.620438V765M3959.27 0.620438L3959.27 765M3982.15 0.620438L3982.15 765M4005.03 0.620438L4005.03 765M4027.91 0.620438L4027.91 765M3524.12 764.38L4027.51 764.38M3524.12 729.635L4027.51 729.635M3524.12 694.891L4027.51 694.891M3524.12 660.146L4027.51 660.146M3524.12 625.401L4027.51 625.402M3524.12 590.657L4027.51 590.657M3524.12 555.912L4027.51 555.913M3524.12 521.168L4027.51 521.168M3524.12 486.423L4027.51 486.423M3524.12 451.679L4027.51 451.679M3524.12 416.934L4027.51 416.934M3524.12 382.19L4027.51 382.19M3524.12 347.445L4027.51 347.445M3524.12 312.701L4027.51 312.701M3524.12 277.956L4027.51 277.956M3524.12 243.212L4027.51 243.212M3524.12 208.467L4027.51 208.467M3524.12 173.723L4027.51 173.723M3524.12 138.978L4027.51 138.978M3524.12 104.234L4027.51 104.234M3524.12 69.4891L4027.51 69.4891M3524.12 34.7445L4027.51 34.7446M3524.12 0L4027.51 5.14551e-05" stroke="url(#paint12_linear_49_26)" stroke-opacity="0.1"/>
<path d="M4027.91 0.620438L4027.91 765M4050.8 0.620438L4050.8 765M4073.68 0.620438L4073.68 765M4096.56 0.620438L4096.56 765M4119.44 0.620438L4119.44 765M4142.32 0.620438L4142.32 765M4165.2 0.620438L4165.2 765M4188.08 0.620438L4188.08 765M4210.96 0.620438L4210.96 765M4233.85 0.620438L4233.85 765M4256.73 0.620438V765M4279.61 0.620438V765M4302.49 0.620438V765M4325.37 0.620438V765M4348.25 0.620438V765M4371.13 0.620438V765M4394.01 0.620438V765M4416.9 0.620438V765M4439.78 0.620438V765M4462.66 0.620438L4462.66 765M4485.54 0.620438L4485.54 765M4508.42 0.620438L4508.42 765M4531.3 0.620438L4531.3 765M4027.51 764.38L4530.89 764.38M4027.51 729.635L4530.89 729.635M4027.51 694.891L4530.89 694.891M4027.51 660.146L4530.89 660.146M4027.51 625.401L4530.89 625.402M4027.51 590.657L4530.89 590.657M4027.51 555.912L4530.89 555.913M4027.51 521.168L4530.89 521.168M4027.51 486.423L4530.89 486.423M4027.51 451.679L4530.89 451.679M4027.51 416.934L4530.89 416.934M4027.51 382.19L4530.89 382.19M4027.51 347.445L4530.89 347.445M4027.51 312.701L4530.89 312.701M4027.51 277.956L4530.89 277.956M4027.51 243.212L4530.89 243.212M4027.51 208.467L4530.89 208.467M4027.51 173.723L4530.89 173.723M4027.51 138.978L4530.89 138.978M4027.51 104.234L4530.89 104.234M4027.51 69.4891L4530.89 69.4891M4027.51 34.7445L4530.89 34.7446M4027.51 0L4530.89 5.14551e-05" stroke="url(#paint13_linear_49_26)" stroke-opacity="0.1"/>
<g filter="url(#filter3_f_49_26)">
<path d="M2450.46 573C2450.46 581.671 2442.48 589.5 2431.59 589.5C2420.7 589.5 2412.71 581.671 2412.71 573C2412.71 564.329 2420.7 556.5 2431.59 556.5C2442.48 556.5 2450.46 564.329 2450.46 573Z" stroke="#605DEC" stroke-width="9"/>
</g>
<path d="M2451.96 573C2451.96 582.647 2443.15 591 2431.59 591C2420.03 591 2411.21 582.647 2411.21 573C2411.21 563.353 2420.03 555 2431.59 555C2443.15 555 2451.96 563.353 2451.96 573Z" stroke="white" stroke-width="6"/>
<path d="M2288.96 632.368V629.68H2306.21V632.368H2288.96ZM2288.96 627.952V625.264H2306.21V627.952H2288.96ZM2304.19 640.4C2302.44 640.4 2300.82 640.122 2299.33 639.568C2297.86 638.992 2296.58 638.181 2295.49 637.136C2294.4 636.09 2293.56 634.864 2292.96 633.456C2292.36 632.048 2292.06 630.501 2292.06 628.816C2292.06 627.13 2292.36 625.584 2292.96 624.176C2293.56 622.768 2294.4 621.541 2295.49 620.496C2296.58 619.45 2297.86 618.65 2299.33 618.096C2300.82 617.52 2302.44 617.232 2304.19 617.232C2306.13 617.232 2307.89 617.573 2309.47 618.256C2311.05 618.917 2312.36 619.898 2313.41 621.2L2310.11 624.272C2309.34 623.397 2308.49 622.746 2307.55 622.32C2306.61 621.872 2305.58 621.648 2304.45 621.648C2303.4 621.648 2302.44 621.818 2301.57 622.16C2300.69 622.501 2299.94 622.992 2299.3 623.632C2298.66 624.272 2298.15 625.029 2297.79 625.904C2297.45 626.778 2297.28 627.749 2297.28 628.816C2297.28 629.882 2297.45 630.853 2297.79 631.728C2298.15 632.602 2298.66 633.36 2299.3 634C2299.94 634.64 2300.69 635.13 2301.57 635.472C2302.44 635.813 2303.4 635.984 2304.45 635.984C2305.58 635.984 2306.61 635.77 2307.55 635.344C2308.49 634.896 2309.34 634.224 2310.11 633.328L2313.41 636.4C2312.36 637.701 2311.05 638.693 2309.47 639.376C2307.89 640.058 2306.13 640.4 2304.19 640.4ZM2322.8 640.4C2321.24 640.4 2319.7 640.197 2318.16 639.792C2316.65 639.365 2315.35 638.768 2314.26 638L2316.31 634.032C2317.16 634.65 2318.14 635.141 2319.25 635.504C2320.38 635.866 2321.52 636.048 2322.67 636.048C2323.97 636.048 2325 635.792 2325.75 635.28C2326.49 634.768 2326.87 634.053 2326.87 633.136C2326.87 632.56 2326.72 632.048 2326.42 631.6C2326.12 631.152 2325.59 630.81 2324.82 630.576C2324.07 630.341 2323.01 630.224 2321.65 630.224H2315.92L2317.07 617.616H2330.74V621.776H2318.93L2321.62 619.408L2320.82 628.4L2318.13 626.032H2322.87C2325.08 626.032 2326.87 626.341 2328.21 626.96C2329.57 627.557 2330.57 628.378 2331.19 629.424C2331.8 630.469 2332.11 631.653 2332.11 632.976C2332.11 634.298 2331.78 635.525 2331.12 636.656C2330.46 637.765 2329.44 638.672 2328.05 639.376C2326.68 640.058 2324.93 640.4 2322.8 640.4ZM2334.41 644.944L2336.52 637.264L2337.22 640.144C2336.31 640.144 2335.55 639.877 2334.95 639.344C2334.38 638.81 2334.09 638.074 2334.09 637.136C2334.09 636.197 2334.39 635.45 2334.98 634.896C2335.58 634.341 2336.32 634.064 2337.19 634.064C2338.09 634.064 2338.82 634.352 2339.4 634.928C2339.98 635.482 2340.26 636.218 2340.26 637.136C2340.26 637.413 2340.24 637.69 2340.2 637.968C2340.16 638.224 2340.07 638.544 2339.94 638.928C2339.84 639.29 2339.66 639.76 2339.4 640.336L2337.58 644.944H2334.41ZM2351.79 640.4C2349.95 640.4 2348.31 639.952 2346.86 639.056C2345.41 638.138 2344.27 636.816 2343.43 635.088C2342.6 633.36 2342.19 631.269 2342.19 628.816C2342.19 626.362 2342.6 624.272 2343.43 622.544C2344.27 620.816 2345.41 619.504 2346.86 618.608C2348.31 617.69 2349.95 617.232 2351.79 617.232C2353.64 617.232 2355.28 617.69 2356.71 618.608C2358.16 619.504 2359.31 620.816 2360.14 622.544C2360.97 624.272 2361.39 626.362 2361.39 628.816C2361.39 631.269 2360.97 633.36 2360.14 635.088C2359.31 636.816 2358.16 638.138 2356.71 639.056C2355.28 639.952 2353.64 640.4 2351.79 640.4ZM2351.79 636.016C2352.66 636.016 2353.42 635.77 2354.06 635.28C2354.72 634.789 2355.23 634.01 2355.59 632.944C2355.98 631.877 2356.17 630.501 2356.17 628.816C2356.17 627.13 2355.98 625.754 2355.59 624.688C2355.23 623.621 2354.72 622.842 2354.06 622.352C2353.42 621.861 2352.66 621.616 2351.79 621.616C2350.93 621.616 2350.17 621.861 2349.51 622.352C2348.87 622.842 2348.36 623.621 2347.98 624.688C2347.61 625.754 2347.43 627.13 2347.43 628.816C2347.43 630.501 2347.61 631.877 2347.98 632.944C2348.36 634.01 2348.87 634.789 2349.51 635.28C2350.17 635.77 2350.93 636.016 2351.79 636.016ZM2373.5 640.4C2371.67 640.4 2370.03 639.952 2368.58 639.056C2367.13 638.138 2365.98 636.816 2365.15 635.088C2364.32 633.36 2363.9 631.269 2363.9 628.816C2363.9 626.362 2364.32 624.272 2365.15 622.544C2365.98 620.816 2367.13 619.504 2368.58 618.608C2370.03 617.69 2371.67 617.232 2373.5 617.232C2375.36 617.232 2377 617.69 2378.43 618.608C2379.88 619.504 2381.02 620.816 2381.86 622.544C2382.69 624.272 2383.1 626.362 2383.1 628.816C2383.1 631.269 2382.69 633.36 2381.86 635.088C2381.02 636.816 2379.88 638.138 2378.43 639.056C2377 639.952 2375.36 640.4 2373.5 640.4ZM2373.5 636.016C2374.38 636.016 2375.14 635.77 2375.78 635.28C2376.44 634.789 2376.95 634.01 2377.31 632.944C2377.7 631.877 2377.89 630.501 2377.89 628.816C2377.89 627.13 2377.7 625.754 2377.31 624.688C2376.95 623.621 2376.44 622.842 2375.78 622.352C2375.14 621.861 2374.38 621.616 2373.5 621.616C2372.65 621.616 2371.89 621.861 2371.23 622.352C2370.59 622.842 2370.08 623.621 2369.7 624.688C2369.33 625.754 2369.15 627.13 2369.15 628.816C2369.15 630.501 2369.33 631.877 2369.7 632.944C2370.08 634.01 2370.59 634.789 2371.23 635.28C2371.89 635.77 2372.65 636.016 2373.5 636.016ZM2395.22 640.4C2393.39 640.4 2391.75 639.952 2390.3 639.056C2388.84 638.138 2387.7 636.816 2386.87 635.088C2386.04 633.36 2385.62 631.269 2385.62 628.816C2385.62 626.362 2386.04 624.272 2386.87 622.544C2387.7 620.816 2388.84 619.504 2390.3 618.608C2391.75 617.69 2393.39 617.232 2395.22 617.232C2397.08 617.232 2398.72 617.69 2400.15 618.608C2401.6 619.504 2402.74 620.816 2403.58 622.544C2404.41 624.272 2404.82 626.362 2404.82 628.816C2404.82 631.269 2404.41 633.36 2403.58 635.088C2402.74 636.816 2401.6 638.138 2400.15 639.056C2398.72 639.952 2397.08 640.4 2395.22 640.4ZM2395.22 636.016C2396.1 636.016 2396.86 635.77 2397.5 635.28C2398.16 634.789 2398.67 634.01 2399.03 632.944C2399.42 631.877 2399.61 630.501 2399.61 628.816C2399.61 627.13 2399.42 625.754 2399.03 624.688C2398.67 623.621 2398.16 622.842 2397.5 622.352C2396.86 621.861 2396.1 621.616 2395.22 621.616C2394.37 621.616 2393.61 621.861 2392.95 622.352C2392.31 622.842 2391.8 623.621 2391.42 624.688C2391.05 625.754 2390.87 627.13 2390.87 628.816C2390.87 630.501 2391.05 631.877 2391.42 632.944C2391.8 634.01 2392.31 634.789 2392.95 635.28C2393.61 635.77 2394.37 636.016 2395.22 636.016ZM2424.5 640.272C2422.47 640.272 2420.89 639.76 2419.76 638.736C2418.63 637.69 2418.07 636.144 2418.07 634.096V618.992H2423.06V634.032C2423.06 634.757 2423.25 635.322 2423.64 635.728C2424.02 636.112 2424.54 636.304 2425.2 636.304C2425.99 636.304 2426.67 636.09 2427.22 635.664L2428.56 639.184C2428.05 639.546 2427.43 639.824 2426.71 640.016C2426 640.186 2425.27 640.272 2424.5 640.272ZM2415.41 627.024V623.184H2427.35V627.024H2415.41ZM2439.03 640.272C2437.19 640.272 2435.56 639.888 2434.13 639.12C2432.72 638.352 2431.6 637.306 2430.77 635.984C2429.96 634.64 2429.56 633.114 2429.56 631.408C2429.56 629.68 2429.96 628.154 2430.77 626.832C2431.6 625.488 2432.72 624.442 2434.13 623.696C2435.56 622.928 2437.19 622.544 2439.03 622.544C2440.84 622.544 2442.46 622.928 2443.89 623.696C2445.32 624.442 2446.44 625.477 2447.25 626.8C2448.06 628.122 2448.47 629.658 2448.47 631.408C2448.47 633.114 2448.06 634.64 2447.25 635.984C2446.44 637.306 2445.32 638.352 2443.89 639.12C2442.46 639.888 2440.84 640.272 2439.03 640.272ZM2439.03 636.176C2439.86 636.176 2440.61 635.984 2441.27 635.6C2441.93 635.216 2442.45 634.672 2442.84 633.968C2443.22 633.242 2443.41 632.389 2443.41 631.408C2443.41 630.405 2443.22 629.552 2442.84 628.848C2442.45 628.144 2441.93 627.6 2441.27 627.216C2440.61 626.832 2439.86 626.64 2439.03 626.64C2438.2 626.64 2437.45 626.832 2436.79 627.216C2436.13 627.6 2435.59 628.144 2435.19 628.848C2434.8 629.552 2434.61 630.405 2434.61 631.408C2434.61 632.389 2434.8 633.242 2435.19 633.968C2435.59 634.672 2436.13 635.216 2436.79 635.6C2437.45 635.984 2438.2 636.176 2439.03 636.176ZM2459.52 632.368V629.68H2476.77V632.368H2459.52ZM2459.52 627.952V625.264H2476.77V627.952H2459.52ZM2474.75 640.4C2473.01 640.4 2471.38 640.122 2469.89 639.568C2468.42 638.992 2467.14 638.181 2466.05 637.136C2464.96 636.09 2464.12 634.864 2463.52 633.456C2462.93 632.048 2462.63 630.501 2462.63 628.816C2462.63 627.13 2462.93 625.584 2463.52 624.176C2464.12 622.768 2464.96 621.541 2466.05 620.496C2467.14 619.45 2468.42 618.65 2469.89 618.096C2471.38 617.52 2473.01 617.232 2474.75 617.232C2476.7 617.232 2478.46 617.573 2480.03 618.256C2481.61 618.917 2482.93 619.898 2483.97 621.2L2480.67 624.272C2479.91 623.397 2479.05 622.746 2478.11 622.32C2477.18 621.872 2476.14 621.648 2475.01 621.648C2473.97 621.648 2473.01 621.818 2472.13 622.16C2471.26 622.501 2470.5 622.992 2469.86 623.632C2469.22 624.272 2468.72 625.029 2468.35 625.904C2468.01 626.778 2467.84 627.749 2467.84 628.816C2467.84 629.882 2468.01 630.853 2468.35 631.728C2468.72 632.602 2469.22 633.36 2469.86 634C2470.5 634.64 2471.26 635.13 2472.13 635.472C2473.01 635.813 2473.97 635.984 2475.01 635.984C2476.14 635.984 2477.18 635.77 2478.11 635.344C2479.05 634.896 2479.91 634.224 2480.67 633.328L2483.97 636.4C2482.93 637.701 2481.61 638.693 2480.03 639.376C2478.46 640.058 2476.7 640.4 2474.75 640.4ZM2489.83 640.016V619.536L2492.07 621.776H2485.35V617.616H2495.01V640.016H2489.83ZM2508.5 640.4C2506.67 640.4 2505.03 639.952 2503.58 639.056C2502.13 638.138 2500.98 636.816 2500.15 635.088C2499.32 633.36 2498.9 631.269 2498.9 628.816C2498.9 626.362 2499.32 624.272 2500.15 622.544C2500.98 620.816 2502.13 619.504 2503.58 618.608C2505.03 617.69 2506.67 617.232 2508.5 617.232C2510.36 617.232 2512 617.69 2513.43 618.608C2514.88 619.504 2516.02 620.816 2516.86 622.544C2517.69 624.272 2518.1 626.362 2518.1 628.816C2518.1 631.269 2517.69 633.36 2516.86 635.088C2516.02 636.816 2514.88 638.138 2513.43 639.056C2512 639.952 2510.36 640.4 2508.5 640.4ZM2508.5 636.016C2509.38 636.016 2510.14 635.77 2510.78 635.28C2511.44 634.789 2511.95 634.01 2512.31 632.944C2512.7 631.877 2512.89 630.501 2512.89 628.816C2512.89 627.13 2512.7 625.754 2512.31 624.688C2511.95 623.621 2511.44 622.842 2510.78 622.352C2510.14 621.861 2509.38 621.616 2508.5 621.616C2507.65 621.616 2506.89 621.861 2506.23 622.352C2505.59 622.842 2505.08 623.621 2504.7 624.688C2504.33 625.754 2504.15 627.13 2504.15 628.816C2504.15 630.501 2504.33 631.877 2504.7 632.944C2505.08 634.01 2505.59 634.789 2506.23 635.28C2506.89 635.77 2507.65 636.016 2508.5 636.016ZM2520.41 644.944L2522.52 637.264L2523.22 640.144C2522.31 640.144 2521.55 639.877 2520.95 639.344C2520.38 638.81 2520.09 638.074 2520.09 637.136C2520.09 636.197 2520.39 635.45 2520.98 634.896C2521.58 634.341 2522.32 634.064 2523.19 634.064C2524.09 634.064 2524.82 634.352 2525.4 634.928C2525.98 635.482 2526.26 636.218 2526.26 637.136C2526.26 637.413 2526.24 637.69 2526.2 637.968C2526.16 638.224 2526.07 638.544 2525.94 638.928C2525.84 639.29 2525.66 639.76 2525.4 640.336L2523.58 644.944H2520.41ZM2537.79 640.4C2535.95 640.4 2534.31 639.952 2532.86 639.056C2531.41 638.138 2530.27 636.816 2529.43 635.088C2528.6 633.36 2528.19 631.269 2528.19 628.816C2528.19 626.362 2528.6 624.272 2529.43 622.544C2530.27 620.816 2531.41 619.504 2532.86 618.608C2534.31 617.69 2535.95 617.232 2537.79 617.232C2539.64 617.232 2541.28 617.69 2542.71 618.608C2544.16 619.504 2545.31 620.816 2546.14 622.544C2546.97 624.272 2547.39 626.362 2547.39 628.816C2547.39 631.269 2546.97 633.36 2546.14 635.088C2545.31 636.816 2544.16 638.138 2542.71 639.056C2541.28 639.952 2539.64 640.4 2537.79 640.4ZM2537.79 636.016C2538.66 636.016 2539.42 635.77 2540.06 635.28C2540.72 634.789 2541.23 634.01 2541.59 632.944C2541.98 631.877 2542.17 630.501 2542.17 628.816C2542.17 627.13 2541.98 625.754 2541.59 624.688C2541.23 623.621 2540.72 622.842 2540.06 622.352C2539.42 621.861 2538.66 621.616 2537.79 621.616C2536.93 621.616 2536.17 621.861 2535.51 622.352C2534.87 622.842 2534.36 623.621 2533.98 624.688C2533.61 625.754 2533.43 627.13 2533.43 628.816C2533.43 630.501 2533.61 631.877 2533.98 632.944C2534.36 634.01 2534.87 634.789 2535.51 635.28C2536.17 635.77 2536.93 636.016 2537.79 636.016ZM2559.5 640.4C2557.67 640.4 2556.03 639.952 2554.58 639.056C2553.13 638.138 2551.98 636.816 2551.15 635.088C2550.32 633.36 2549.9 631.269 2549.9 628.816C2549.9 626.362 2550.32 624.272 2551.15 622.544C2551.98 620.816 2553.13 619.504 2554.58 618.608C2556.03 617.69 2557.67 617.232 2559.5 617.232C2561.36 617.232 2563 617.69 2564.43 618.608C2565.88 619.504 2567.02 620.816 2567.86 622.544C2568.69 624.272 2569.1 626.362 2569.1 628.816C2569.1 631.269 2568.69 633.36 2567.86 635.088C2567.02 636.816 2565.88 638.138 2564.43 639.056C2563 639.952 2561.36 640.4 2559.5 640.4ZM2559.5 636.016C2560.38 636.016 2561.14 635.77 2561.78 635.28C2562.44 634.789 2562.95 634.01 2563.31 632.944C2563.7 631.877 2563.89 630.501 2563.89 628.816C2563.89 627.13 2563.7 625.754 2563.31 624.688C2562.95 623.621 2562.44 622.842 2561.78 622.352C2561.14 621.861 2560.38 621.616 2559.5 621.616C2558.65 621.616 2557.89 621.861 2557.23 622.352C2556.59 622.842 2556.08 623.621 2555.7 624.688C2555.33 625.754 2555.15 627.13 2555.15 628.816C2555.15 630.501 2555.33 631.877 2555.7 632.944C2556.08 634.01 2556.59 634.789 2557.23 635.28C2557.89 635.77 2558.65 636.016 2559.5 636.016ZM2581.22 640.4C2579.39 640.4 2577.75 639.952 2576.3 639.056C2574.84 638.138 2573.7 636.816 2572.87 635.088C2572.04 633.36 2571.62 631.269 2571.62 628.816C2571.62 626.362 2572.04 624.272 2572.87 622.544C2573.7 620.816 2574.84 619.504 2576.3 618.608C2577.75 617.69 2579.39 617.232 2581.22 617.232C2583.08 617.232 2584.72 617.69 2586.15 618.608C2587.6 619.504 2588.74 620.816 2589.58 622.544C2590.41 624.272 2590.82 626.362 2590.82 628.816C2590.82 631.269 2590.41 633.36 2589.58 635.088C2588.74 636.816 2587.6 638.138 2586.15 639.056C2584.72 639.952 2583.08 640.4 2581.22 640.4ZM2581.22 636.016C2582.1 636.016 2582.86 635.77 2583.5 635.28C2584.16 634.789 2584.67 634.01 2585.03 632.944C2585.42 631.877 2585.61 630.501 2585.61 628.816C2585.61 627.13 2585.42 625.754 2585.03 624.688C2584.67 623.621 2584.16 622.842 2583.5 622.352C2582.86 621.861 2582.1 621.616 2581.22 621.616C2580.37 621.616 2579.61 621.861 2578.95 622.352C2578.31 622.842 2577.8 623.621 2577.42 624.688C2577.05 625.754 2576.87 627.13 2576.87 628.816C2576.87 630.501 2577.05 631.877 2577.42 632.944C2577.8 634.01 2578.31 634.789 2578.95 635.28C2579.61 635.77 2580.37 636.016 2581.22 636.016Z" fill="white"/>
<rect x="2298.02" y="462" width="163.626" height="61.5" rx="10" fill="white"/>
<path d="M2357.03 508.463C2355.47 508.463 2353.92 508.26 2352.39 507.855C2350.85 507.428 2349.55 506.831 2348.48 506.063L2350.5 502.095C2351.35 502.713 2352.34 503.204 2353.47 503.567C2354.6 503.929 2355.75 504.111 2356.9 504.111C2358.2 504.111 2359.22 503.855 2359.97 503.343C2360.72 502.831 2361.09 502.127 2361.09 501.231C2361.09 500.377 2360.76 499.705 2360.1 499.215C2359.44 498.724 2358.37 498.479 2356.9 498.479H2354.53V495.055L2360.77 487.983L2361.35 489.839H2349.6V485.679H2365.28V489.039L2359.07 496.111L2356.45 494.607H2357.95C2360.71 494.607 2362.79 495.225 2364.19 496.463C2365.6 497.7 2366.31 499.289 2366.31 501.231C2366.31 502.489 2365.97 503.673 2365.31 504.783C2364.65 505.871 2363.64 506.756 2362.27 507.439C2360.91 508.121 2359.16 508.463 2357.03 508.463ZM2378.3 508.463C2376.46 508.463 2374.82 508.015 2373.37 507.119C2371.92 506.201 2370.78 504.879 2369.95 503.151C2369.11 501.423 2368.7 499.332 2368.7 496.879C2368.7 494.425 2369.11 492.335 2369.95 490.607C2370.78 488.879 2371.92 487.567 2373.37 486.671C2374.82 485.753 2376.46 485.295 2378.3 485.295C2380.15 485.295 2381.8 485.753 2383.23 486.671C2384.68 487.567 2385.82 488.879 2386.65 490.607C2387.48 492.335 2387.9 494.425 2387.9 496.879C2387.9 499.332 2387.48 501.423 2386.65 503.151C2385.82 504.879 2384.68 506.201 2383.23 507.119C2381.8 508.015 2380.15 508.463 2378.3 508.463ZM2378.3 504.079C2379.17 504.079 2379.93 503.833 2380.57 503.343C2381.23 502.852 2381.74 502.073 2382.11 501.007C2382.49 499.94 2382.68 498.564 2382.68 496.879C2382.68 495.193 2382.49 493.817 2382.11 492.751C2381.74 491.684 2381.23 490.905 2380.57 490.415C2379.93 489.924 2379.17 489.679 2378.3 489.679C2377.45 489.679 2376.69 489.924 2376.03 490.415C2375.39 490.905 2374.87 491.684 2374.49 492.751C2374.13 493.817 2373.95 495.193 2373.95 496.879C2373.95 498.564 2374.13 499.94 2374.49 501.007C2374.87 502.073 2375.39 502.852 2376.03 503.343C2376.69 503.833 2377.45 504.079 2378.3 504.079ZM2393.65 508.079L2408.95 485.679H2412.75L2397.46 508.079H2393.65ZM2395.6 497.775C2394.51 497.775 2393.55 497.529 2392.72 497.039C2391.89 496.527 2391.23 495.812 2390.74 494.895C2390.27 493.956 2390.03 492.857 2390.03 491.599C2390.03 490.34 2390.27 489.252 2390.74 488.335C2391.23 487.417 2391.89 486.703 2392.72 486.191C2393.55 485.679 2394.51 485.423 2395.6 485.423C2396.69 485.423 2397.65 485.679 2398.48 486.191C2399.31 486.703 2399.96 487.417 2400.43 488.335C2400.9 489.252 2401.14 490.34 2401.14 491.599C2401.14 492.857 2400.9 493.956 2400.43 494.895C2399.96 495.812 2399.31 496.527 2398.48 497.039C2397.65 497.529 2396.69 497.775 2395.6 497.775ZM2395.6 495.151C2396.31 495.151 2396.87 494.863 2397.3 494.287C2397.72 493.689 2397.94 492.793 2397.94 491.599C2397.94 490.404 2397.72 489.519 2397.3 488.943C2396.87 488.345 2396.31 488.047 2395.6 488.047C2394.92 488.047 2394.35 488.345 2393.91 488.943C2393.48 489.519 2393.27 490.404 2393.27 491.599C2393.27 492.772 2393.48 493.657 2393.91 494.255C2394.35 494.852 2394.92 495.151 2395.6 495.151ZM2410.8 508.335C2409.73 508.335 2408.77 508.089 2407.92 507.599C2407.09 507.087 2406.44 506.372 2405.97 505.455C2405.5 504.516 2405.27 503.417 2405.27 502.159C2405.27 500.9 2405.5 499.812 2405.97 498.895C2406.44 497.977 2407.09 497.263 2407.92 496.751C2408.77 496.239 2409.73 495.983 2410.8 495.983C2411.91 495.983 2412.88 496.239 2413.71 496.751C2414.55 497.263 2415.2 497.977 2415.67 498.895C2416.13 499.812 2416.37 500.9 2416.37 502.159C2416.37 503.417 2416.13 504.516 2415.67 505.455C2415.2 506.372 2414.55 507.087 2413.71 507.599C2412.88 508.089 2411.91 508.335 2410.8 508.335ZM2410.8 505.711C2411.51 505.711 2412.07 505.423 2412.5 504.847C2412.92 504.249 2413.14 503.353 2413.14 502.159C2413.14 500.985 2412.92 500.1 2412.5 499.503C2412.07 498.905 2411.51 498.607 2410.8 498.607C2410.12 498.607 2409.55 498.905 2409.11 499.503C2408.68 500.079 2408.47 500.964 2408.47 502.159C2408.47 503.353 2408.68 504.249 2409.11 504.847C2409.55 505.423 2410.12 505.711 2410.8 505.711Z" fill="url(#paint14_linear_49_26)"/>
<path d="M2430.76 537L2421.36 526.875H2440.15L2430.76 537Z" fill="white"/>
</g>
<defs>
<filter id="filter0_f_49_26" x="2100.73" y="647.73" width="49.8843" height="47.5405" filterUnits="userSpaceOnUse" color-interpolation-filters="sRGB">
<feFlood flood-opacity="0" result="BackgroundImageFix"/>
<feBlend mode="normal" in="SourceGraphic" in2="BackgroundImageFix" result="shape"/>
<feGaussianBlur stdDeviation="2" result="effect1_foregroundBlur_49_26"/>
</filter>
<filter id="filter1_f_49_26" x="3064.4" y="207.754" width="55.5557" height="66.0017" filterUnits="userSpaceOnUse" color-interpolation-filters="sRGB">
<feFlood flood-opacity="0" result="BackgroundImageFix"/>
<feBlend mode="normal" in="SourceGraphic" in2="BackgroundImageFix" result="shape"/>
<feGaussianBlur stdDeviation="2" result="effect1_foregroundBlur_49_26"/>
</filter>
<filter id="filter2_f_49_26" x="2739.41" y="394.872" width="56.426" height="62.6487" filterUnits="userSpaceOnUse" color-interpolation-filters="sRGB">
<feFlood flood-opacity="0" result="BackgroundImageFix"/>
<feBlend mode="normal" in="SourceGraphic" in2="BackgroundImageFix" result="shape"/>
<feGaussianBlur stdDeviation="2" result="effect1_foregroundBlur_49_26"/>
</filter>
<filter id="filter3_f_49_26" x="2404.21" y="548" width="54.75" height="50" filterUnits="userSpaceOnUse" color-interpolation-filters="sRGB">
<feFlood flood-opacity="0" result="BackgroundImageFix"/>
<feBlend mode="normal" in="SourceGraphic" in2="BackgroundImageFix" result="shape"/>
<feGaussianBlur stdDeviation="2" result="effect1_foregroundBlur_49_26"/>
</filter>
<linearGradient id="paint0_linear_49_26" x1="2502" y1="350.963" x2="2502" y2="1522.36" gradientUnits="userSpaceOnUse">
<stop stop-color="#310C79" stop-opacity="0.78"/>
<stop offset="1" stop-color="#602C72"/>
</linearGradient>
<linearGradient id="paint1_linear_49_26" x1="2053.44" y1="593.311" x2="2124" y2="593.311" gradientUnits="userSpaceOnUse">
<stop stop-color="#4075FF"/>
<stop offset="1" stop-color="#EC77FF"/>
</linearGradient>
<linearGradient id="paint2_linear_49_26" x1="3009.32" y1="122.193" x2="3078" y2="122.193" gradientUnits="userSpaceOnUse">
<stop stop-color="#4075FF"/>
<stop offset="1" stop-color="#EC77FF"/>
</linearGradient>
<linearGradient id="paint3_linear_49_26" x1="2683.26" y1="314.488" x2="2753.19" y2="314.488" gradientUnits="userSpaceOnUse">
<stop stop-color="#4075FF"/>
<stop offset="1" stop-color="#EC77FF"/>
</linearGradient>
<linearGradient id="paint4_linear_49_26" x1="2265.45" y1="0" x2="2265.45" y2="765" gradientUnits="userSpaceOnUse">
<stop stop-color="white" stop-opacity="0"/>
<stop offset="0.34375" stop-color="white"/>
<stop offset="0.619792" stop-color="white" stop-opacity="0"/>
</linearGradient>
<linearGradient id="paint5_linear_49_26" x1="755.285" y1="0" x2="755.285" y2="765" gradientUnits="userSpaceOnUse">
<stop stop-color="white" stop-opacity="0"/>
<stop offset="0.34375" stop-color="white"/>
<stop offset="0.619792" stop-color="white" stop-opacity="0"/>
</linearGradient>
<linearGradient id="paint6_linear_49_26" x1="251.898" y1="0" x2="251.898" y2="765" gradientUnits="userSpaceOnUse">
<stop stop-color="white" stop-opacity="0"/>
<stop offset="0.34375" stop-color="white"/>
<stop offset="0.619792" stop-color="white" stop-opacity="0"/>
</linearGradient>
<linearGradient id="paint7_linear_49_26" x1="1258.67" y1="0" x2="1258.67" y2="765" gradientUnits="userSpaceOnUse">
<stop stop-color="white" stop-opacity="0"/>
<stop offset="0.34375" stop-color="white"/>
<stop offset="0.619792" stop-color="white" stop-opacity="0"/>
</linearGradient>
<linearGradient id="paint8_linear_49_26" x1="1762.06" y1="0" x2="1762.06" y2="765" gradientUnits="userSpaceOnUse">
<stop stop-color="white" stop-opacity="0"/>
<stop offset="0.34375" stop-color="white"/>
<stop offset="0.619792" stop-color="white" stop-opacity="0"/>
</linearGradient>
<linearGradient id="paint9_linear_49_26" x1="4782.79" y1="0" x2="4782.79" y2="765" gradientUnits="userSpaceOnUse">
<stop stop-color="white" stop-opacity="0"/>
<stop offset="0.34375" stop-color="white"/>
<stop offset="0.619792" stop-color="white" stop-opacity="0"/>
</linearGradient>
<linearGradient id="paint10_linear_49_26" x1="3272.63" y1="0" x2="3272.63" y2="765" gradientUnits="userSpaceOnUse">
<stop stop-color="white" stop-opacity="0"/>
<stop offset="0.34375" stop-color="white"/>
<stop offset="0.619792" stop-color="white" stop-opacity="0"/>
</linearGradient>
<linearGradient id="paint11_linear_49_26" x1="2769.24" y1="0" x2="2769.24" y2="765" gradientUnits="userSpaceOnUse">
<stop stop-color="white" stop-opacity="0"/>
<stop offset="0.34375" stop-color="white"/>
<stop offset="0.619792" stop-color="white" stop-opacity="0"/>
</linearGradient>
<linearGradient id="paint12_linear_49_26" x1="3776.02" y1="0" x2="3776.02" y2="765" gradientUnits="userSpaceOnUse">
<stop stop-color="white" stop-opacity="0"/>
<stop offset="0.34375" stop-color="white"/>
<stop offset="0.619792" stop-color="white" stop-opacity="0"/>
</linearGradient>
<linearGradient id="paint13_linear_49_26" x1="4279.4" y1="0" x2="4279.4" y2="765" gradientUnits="userSpaceOnUse">
<stop stop-color="white" stop-opacity="0"/>
<stop offset="0.34375" stop-color="white"/>
<stop offset="0.619792" stop-color="white" stop-opacity="0"/>
</linearGradient>
<linearGradient id="paint14_linear_49_26" x1="2352.76" y1="493.571" x2="2420.31" y2="493.571" gradientUnits="userSpaceOnUse">
<stop stop-color="#4075FF"/>
<stop offset="1" stop-color="#EC77FF"/>
</linearGradient>
<clipPath id="clip0_49_26">
<rect width="5040" height="998" fill="white"/>
</clipPath>
</defs>
</svg>
