<svg width="5040" height="998" viewBox="0 0 5040 998" fill="none" xmlns="http://www.w3.org/2000/svg">
<g clip-path="url(#clip0_110_215)">
<path d="M5102 3.91357H0V987.563H5102V3.91357Z" fill="#1D242A"/>
<path d="M1723 690.089H1653H1583C1436 690.089 1373 676.632 1233 659.811C1093 642.989 953 598.133 813 553.276C673 508.418 541 464.843 393 441.134C253 418.705 113 418.705 43 418.705H-27V1186H43H393H813H1233H1583H1653H1723H2073H2493H2913H3263H3333H3403H3753H4173H4593H4943H5013L5035.5 -43L4772.5 37C4609 50.5 4695.5 37 4555.5 60.5C4392.5 133.5 4445.5 76.9999 4359 133.5C4183 177 4191 179.158 4015.5 223.5C4119.5 181 3892.89 254.478 4015.5 223.5L3779 280.5L3602.5 333.5C3522.5 368.679 3076 463.5 2939 493.5C2802 523.5 2633 565.644 2493 610.5C2353 655.357 2213 673.267 2073 690.089C1933 706.91 1870 690.089 1723 690.089Z" fill="url(#paint0_linear_110_215)"/>
<g filter="url(#filter0_f_110_215)">
<path d="M2131.11 685.5C2131.11 693.693 2124 700.77 2114.67 700.77C2105.34 700.77 2098.23 693.693 2098.23 685.5C2098.23 677.307 2105.34 670.229 2114.67 670.229C2124 670.229 2131.11 677.307 2131.11 685.5Z" stroke="#605DEC" stroke-width="9"/>
</g>
<path d="M2132.61 685.5C2132.61 694.601 2124.74 702.27 2114.67 702.27C2104.6 702.27 2096.73 694.601 2096.73 685.5C2096.73 676.398 2104.6 668.729 2114.67 668.729C2124.74 668.729 2132.61 676.398 2132.61 685.5Z" stroke="white" stroke-width="6"/>
<path d="M2028.22 746.672L2012.98 740.88V736.72L2028.22 730.928V734.928L2014.49 739.92V737.68L2028.22 742.672V746.672ZM2050.07 750.384C2048.23 750.384 2046.59 749.936 2045.14 749.04C2043.69 748.123 2042.55 746.8 2041.71 745.072C2040.88 743.344 2040.47 741.253 2040.47 738.8C2040.47 736.347 2040.88 734.256 2041.71 732.528C2042.55 730.8 2043.69 729.488 2045.14 728.592C2046.59 727.675 2048.23 727.216 2050.07 727.216C2051.92 727.216 2053.57 727.675 2054.99 728.592C2056.45 729.488 2057.59 730.8 2058.42 732.528C2059.25 734.256 2059.67 736.347 2059.67 738.8C2059.67 741.253 2059.25 743.344 2058.42 745.072C2057.59 746.8 2056.45 748.123 2054.99 749.04C2053.57 749.936 2051.92 750.384 2050.07 750.384ZM2050.07 746C2050.94 746 2051.7 745.755 2052.34 745.264C2053 744.773 2053.51 743.995 2053.87 742.928C2054.26 741.861 2054.45 740.485 2054.45 738.8C2054.45 737.115 2054.26 735.739 2053.87 734.672C2053.51 733.605 2053 732.827 2052.34 732.336C2051.7 731.845 2050.94 731.6 2050.07 731.6C2049.21 731.6 2048.46 731.845 2047.79 732.336C2047.15 732.827 2046.64 733.605 2046.26 734.672C2045.9 735.739 2045.71 737.115 2045.71 738.8C2045.71 740.485 2045.9 741.861 2046.26 742.928C2046.64 743.995 2047.15 744.773 2047.79 745.264C2048.46 745.755 2049.21 746 2050.07 746ZM2064.72 750.256C2063.87 750.256 2063.13 749.968 2062.52 749.392C2061.92 748.795 2061.62 748.037 2061.62 747.12C2061.62 746.203 2061.92 745.467 2062.52 744.912C2063.13 744.336 2063.87 744.048 2064.72 744.048C2065.6 744.048 2066.33 744.336 2066.93 744.912C2067.53 745.467 2067.83 746.203 2067.83 747.12C2067.83 748.037 2067.53 748.795 2066.93 749.392C2066.33 749.968 2065.6 750.256 2064.72 750.256ZM2073.08 750V729.52L2075.32 731.76H2068.6V727.6H2078.26V750H2073.08ZM2081.96 750V746.64L2090.6 738.48C2091.28 737.861 2091.79 737.307 2092.11 736.816C2092.43 736.325 2092.64 735.877 2092.75 735.472C2092.87 735.067 2092.94 734.693 2092.94 734.352C2092.94 733.456 2092.63 732.773 2092.01 732.304C2091.41 731.813 2090.53 731.568 2089.35 731.568C2088.42 731.568 2087.54 731.749 2086.73 732.112C2085.94 732.475 2085.27 733.04 2084.71 733.808L2080.94 731.376C2081.79 730.096 2082.99 729.083 2084.52 728.336C2086.06 727.589 2087.83 727.216 2089.83 727.216C2091.5 727.216 2092.95 727.493 2094.19 728.048C2095.44 728.581 2096.42 729.339 2097.1 730.32C2097.8 731.301 2098.15 732.475 2098.15 733.84C2098.15 734.565 2098.06 735.291 2097.87 736.016C2097.7 736.72 2097.33 737.467 2096.78 738.256C2096.24 739.045 2095.46 739.931 2094.41 740.912L2087.24 747.664L2086.25 745.776H2098.89V750H2081.96ZM2111.5 750V727.6H2122.44C2125.26 727.6 2127.37 728.133 2128.78 729.2C2130.21 730.267 2130.92 731.675 2130.92 733.424C2130.92 734.597 2130.64 735.621 2130.06 736.496C2129.48 737.349 2128.69 738.011 2127.69 738.48C2126.69 738.949 2125.54 739.184 2124.24 739.184L2124.84 737.872C2126.25 737.872 2127.5 738.107 2128.59 738.576C2129.68 739.024 2130.52 739.696 2131.12 740.592C2131.73 741.488 2132.04 742.587 2132.04 743.888C2132.04 745.808 2131.29 747.312 2129.77 748.4C2128.26 749.467 2126.03 750 2123.08 750H2111.5ZM2116.65 746.096H2122.7C2124.04 746.096 2125.06 745.883 2125.74 745.456C2126.44 745.008 2126.8 744.304 2126.8 743.344C2126.8 742.405 2126.44 741.712 2125.74 741.264C2125.06 740.795 2124.04 740.56 2122.7 740.56H2116.27V736.784H2121.8C2123.06 736.784 2124.02 736.571 2124.68 736.144C2125.37 735.696 2125.71 735.024 2125.71 734.128C2125.71 733.253 2125.37 732.603 2124.68 732.176C2124.02 731.728 2123.06 731.504 2121.8 731.504H2116.65V746.096ZM2140.3 750V731.824H2133.13V727.6H2152.65V731.824H2145.48V750H2140.3ZM2165.84 750.384C2164.12 750.384 2162.51 750.107 2161.01 749.552C2159.54 748.976 2158.26 748.165 2157.17 747.12C2156.08 746.075 2155.23 744.848 2154.61 743.44C2154.02 742.032 2153.72 740.485 2153.72 738.8C2153.72 737.115 2154.02 735.568 2154.61 734.16C2155.23 732.752 2156.08 731.525 2157.17 730.48C2158.28 729.435 2159.57 728.635 2161.04 728.08C2162.52 727.504 2164.13 727.216 2165.88 727.216C2167.82 727.216 2169.57 727.557 2171.12 728.24C2172.7 728.901 2174.03 729.883 2175.09 731.184L2171.76 734.256C2171 733.381 2170.14 732.731 2169.2 732.304C2168.27 731.856 2167.24 731.632 2166.13 731.632C2165.09 731.632 2164.13 731.803 2163.25 732.144C2162.38 732.485 2161.62 732.976 2160.98 733.616C2160.34 734.256 2159.84 735.013 2159.48 735.888C2159.14 736.763 2158.96 737.733 2158.96 738.8C2158.96 739.867 2159.14 740.837 2159.48 741.712C2159.84 742.587 2160.34 743.344 2160.98 743.984C2161.62 744.624 2162.38 745.115 2163.25 745.456C2164.13 745.797 2165.09 745.968 2166.13 745.968C2167.24 745.968 2168.27 745.755 2169.2 745.328C2170.14 744.88 2171 744.208 2171.76 743.312L2175.09 746.384C2174.03 747.685 2172.7 748.677 2171.12 749.36C2169.57 750.043 2167.81 750.384 2165.84 750.384Z" fill="white"/>
<rect x="1995" y="581" width="146.595" height="57.8986" rx="10" fill="white"/>
<path d="M2039.06 622.703V619.343L2047.7 611.183C2048.38 610.564 2048.88 610.009 2049.2 609.519C2049.52 609.028 2049.73 608.58 2049.84 608.175C2049.97 607.769 2050.03 607.396 2050.03 607.055C2050.03 606.159 2049.72 605.476 2049.1 605.007C2048.51 604.516 2047.62 604.271 2046.45 604.271C2045.51 604.271 2044.63 604.452 2043.82 604.815C2043.03 605.177 2042.36 605.743 2041.81 606.511L2038.03 604.079C2038.89 602.799 2040.08 601.785 2041.62 601.039C2043.15 600.292 2044.92 599.919 2046.93 599.919C2048.59 599.919 2050.04 600.196 2051.28 600.751C2052.54 601.284 2053.51 602.041 2054.19 603.023C2054.9 604.004 2055.25 605.177 2055.25 606.543C2055.25 607.268 2055.15 607.993 2054.96 608.719C2054.79 609.423 2054.43 610.169 2053.87 610.959C2053.34 611.748 2052.55 612.633 2051.5 613.615L2044.34 620.367L2043.34 618.479H2055.98V622.703H2039.06ZM2065.74 623.087C2064.18 623.087 2062.64 622.884 2061.1 622.479C2059.58 622.052 2058.28 621.455 2057.2 620.687L2059.24 616.719C2060.1 617.337 2061.08 617.828 2062.19 618.191C2063.32 618.553 2064.46 618.735 2065.61 618.735C2066.91 618.735 2067.94 618.479 2068.68 617.967C2069.43 617.455 2069.8 616.74 2069.8 615.823C2069.8 615.247 2069.65 614.735 2069.36 614.287C2069.06 613.839 2068.52 613.497 2067.76 613.263C2067.01 613.028 2065.95 612.911 2064.59 612.911H2058.86L2060.01 600.303H2073.68V604.463H2061.87L2064.56 602.095L2063.76 611.087L2061.07 608.719H2065.8C2068.02 608.719 2069.8 609.028 2071.15 609.647C2072.51 610.244 2073.5 611.065 2074.12 612.111C2074.74 613.156 2075.05 614.34 2075.05 615.663C2075.05 616.985 2074.72 618.212 2074.06 619.343C2073.4 620.452 2072.37 621.359 2070.99 622.063C2069.62 622.745 2067.87 623.087 2065.74 623.087ZM2080.07 622.703L2095.37 600.303H2099.18L2083.88 622.703H2080.07ZM2082.03 612.399C2080.94 612.399 2079.98 612.153 2079.15 611.663C2078.31 611.151 2077.65 610.436 2077.16 609.519C2076.69 608.58 2076.46 607.481 2076.46 606.223C2076.46 604.964 2076.69 603.876 2077.16 602.959C2077.65 602.041 2078.31 601.327 2079.15 600.815C2079.98 600.303 2080.94 600.047 2082.03 600.047C2083.11 600.047 2084.07 600.303 2084.91 600.815C2085.74 601.327 2086.39 602.041 2086.86 602.959C2087.33 603.876 2087.56 604.964 2087.56 606.223C2087.56 607.481 2087.33 608.58 2086.86 609.519C2086.39 610.436 2085.74 611.151 2084.91 611.663C2084.07 612.153 2083.11 612.399 2082.03 612.399ZM2082.03 609.775C2082.73 609.775 2083.3 609.487 2083.72 608.911C2084.15 608.313 2084.36 607.417 2084.36 606.223C2084.36 605.028 2084.15 604.143 2083.72 603.567C2083.3 602.969 2082.73 602.671 2082.03 602.671C2081.34 602.671 2080.78 602.969 2080.33 603.567C2079.9 604.143 2079.69 605.028 2079.69 606.223C2079.69 607.396 2079.9 608.281 2080.33 608.879C2080.78 609.476 2081.34 609.775 2082.03 609.775ZM2097.23 622.959C2096.16 622.959 2095.2 622.713 2094.35 622.223C2093.51 621.711 2092.86 620.996 2092.39 620.079C2091.92 619.14 2091.69 618.041 2091.69 616.783C2091.69 615.524 2091.92 614.436 2092.39 613.519C2092.86 612.601 2093.51 611.887 2094.35 611.375C2095.2 610.863 2096.16 610.607 2097.23 610.607C2098.34 610.607 2099.31 610.863 2100.14 611.375C2100.97 611.887 2101.62 612.601 2102.09 613.519C2102.56 614.436 2102.79 615.524 2102.79 616.783C2102.79 618.041 2102.56 619.14 2102.09 620.079C2101.62 620.996 2100.97 621.711 2100.14 622.223C2099.31 622.713 2098.34 622.959 2097.23 622.959ZM2097.23 620.335C2097.93 620.335 2098.5 620.047 2098.92 619.471C2099.35 618.873 2099.56 617.977 2099.56 616.783C2099.56 615.609 2099.35 614.724 2098.92 614.127C2098.5 613.529 2097.93 613.231 2097.23 613.231C2096.54 613.231 2095.98 613.529 2095.53 614.127C2095.1 614.703 2094.89 615.588 2094.89 616.783C2094.89 617.977 2095.1 618.873 2095.53 619.471C2095.98 620.047 2096.54 620.335 2097.23 620.335Z" fill="url(#paint1_linear_110_215)"/>
<path d="M2113.92 651.608L2105.5 642.076H2122.34L2113.92 651.608Z" fill="white"/>
<g filter="url(#filter1_f_110_215)">
<path d="M3117.04 461.517C3117.04 471.433 3108.33 479.992 3096.92 479.992C3085.51 479.992 3076.8 471.433 3076.8 461.517C3076.8 451.602 3085.51 443.042 3096.92 443.042C3108.33 443.042 3117.04 451.602 3117.04 461.517Z" stroke="#605DEC" stroke-width="9"/>
</g>
<path d="M3118.54 461.517C3118.54 472.357 3109.06 481.492 3096.92 481.492C3084.78 481.492 3075.3 472.357 3075.3 461.517C3075.3 450.677 3084.78 441.542 3096.92 441.542C3109.06 441.542 3118.54 450.677 3118.54 461.517Z" stroke="white" stroke-width="6"/>
<path d="M2992.66 532.643C2990.83 532.643 2989.18 532.195 2987.73 531.299C2986.28 530.382 2985.14 529.059 2984.31 527.331C2983.48 525.603 2983.06 523.513 2983.06 521.059C2983.06 518.606 2983.48 516.515 2984.31 514.787C2985.14 513.059 2986.28 511.747 2987.73 510.851C2989.18 509.934 2990.83 509.475 2992.66 509.475C2994.52 509.475 2996.16 509.934 2997.59 510.851C2999.04 511.747 3000.18 513.059 3001.01 514.787C3001.85 516.515 3002.26 518.606 3002.26 521.059C3002.26 523.513 3001.85 525.603 3001.01 527.331C3000.18 529.059 2999.04 530.382 2997.59 531.299C2996.16 532.195 2994.52 532.643 2992.66 532.643ZM2992.66 528.259C2993.54 528.259 2994.29 528.014 2994.93 527.523C2995.59 527.033 2996.11 526.254 2996.47 525.187C2996.85 524.121 2997.05 522.745 2997.05 521.059C2997.05 519.374 2996.85 517.998 2996.47 516.931C2996.11 515.865 2995.59 515.086 2994.93 514.595C2994.29 514.105 2993.54 513.859 2992.66 513.859C2991.81 513.859 2991.05 514.105 2990.39 514.595C2989.75 515.086 2989.24 515.865 2988.85 516.931C2988.49 517.998 2988.31 519.374 2988.31 521.059C2988.31 522.745 2988.49 524.121 2988.85 525.187C2989.24 526.254 2989.75 527.033 2990.39 527.523C2991.05 528.014 2991.81 528.259 2992.66 528.259ZM3007.32 532.515C3006.46 532.515 3005.73 532.227 3005.11 531.651C3004.51 531.054 3004.21 530.297 3004.21 529.379C3004.21 528.462 3004.51 527.726 3005.11 527.171C3005.73 526.595 3006.46 526.307 3007.32 526.307C3008.19 526.307 3008.93 526.595 3009.53 527.171C3010.12 527.726 3010.42 528.462 3010.42 529.379C3010.42 530.297 3010.12 531.054 3009.53 531.651C3008.93 532.227 3008.19 532.515 3007.32 532.515ZM3020.36 532.643C3018.81 532.643 3017.26 532.441 3015.72 532.035C3014.21 531.609 3012.91 531.011 3011.82 530.243L3013.87 526.275C3014.72 526.894 3015.7 527.385 3016.81 527.747C3017.94 528.11 3019.08 528.291 3020.24 528.291C3021.54 528.291 3022.56 528.035 3023.31 527.523C3024.06 527.011 3024.43 526.297 3024.43 525.379C3024.43 524.803 3024.28 524.291 3023.98 523.843C3023.68 523.395 3023.15 523.054 3022.38 522.819C3021.63 522.585 3020.58 522.467 3019.21 522.467H3013.48L3014.64 509.859H3028.3V514.019H3016.49L3019.18 511.651L3018.38 520.643L3015.69 518.275H3020.43C3022.65 518.275 3024.43 518.585 3025.77 519.203C3027.14 519.801 3028.13 520.622 3028.75 521.667C3029.37 522.713 3029.68 523.897 3029.68 525.219C3029.68 526.542 3029.35 527.769 3028.68 528.899C3028.02 530.009 3027 530.915 3025.61 531.619C3024.25 532.302 3022.5 532.643 3020.36 532.643ZM3042.25 532.259V509.859H3053.19C3056.01 509.859 3058.12 510.393 3059.53 511.459C3060.96 512.526 3061.67 513.934 3061.67 515.683C3061.67 516.857 3061.39 517.881 3060.81 518.755C3060.23 519.609 3059.45 520.27 3058.44 520.739C3057.44 521.209 3056.29 521.443 3054.99 521.443L3055.59 520.131C3057 520.131 3058.25 520.366 3059.34 520.835C3060.43 521.283 3061.27 521.955 3061.87 522.851C3062.49 523.747 3062.79 524.846 3062.79 526.147C3062.79 528.067 3062.04 529.571 3060.52 530.659C3059.01 531.726 3056.78 532.259 3053.83 532.259H3042.25ZM3047.4 528.355H3053.45C3054.79 528.355 3055.81 528.142 3056.49 527.715C3057.19 527.267 3057.55 526.563 3057.55 525.603C3057.55 524.665 3057.19 523.971 3056.49 523.523C3055.81 523.054 3054.79 522.819 3053.45 522.819H3047.02V519.043H3052.55C3053.81 519.043 3054.77 518.83 3055.43 518.403C3056.12 517.955 3056.46 517.283 3056.46 516.387C3056.46 515.513 3056.12 514.862 3055.43 514.435C3054.77 513.987 3053.81 513.763 3052.55 513.763H3047.4V528.355ZM3071.05 532.259V514.083H3063.88V509.859H3083.4V514.083H3076.23V532.259H3071.05ZM3096.6 532.643C3094.87 532.643 3093.26 532.366 3091.76 531.811C3090.29 531.235 3089.01 530.425 3087.92 529.379C3086.84 528.334 3085.98 527.107 3085.36 525.699C3084.77 524.291 3084.47 522.745 3084.47 521.059C3084.47 519.374 3084.77 517.827 3085.36 516.419C3085.98 515.011 3086.84 513.785 3087.92 512.739C3089.03 511.694 3090.32 510.894 3091.8 510.339C3093.27 509.763 3094.88 509.475 3096.63 509.475C3098.57 509.475 3100.32 509.817 3101.88 510.499C3103.45 511.161 3104.78 512.142 3105.84 513.443L3102.52 516.515C3101.75 515.641 3100.89 514.99 3099.96 514.563C3099.02 514.115 3097.99 513.891 3096.88 513.891C3095.84 513.891 3094.88 514.062 3094 514.403C3093.13 514.745 3092.37 515.235 3091.73 515.875C3091.09 516.515 3090.59 517.273 3090.23 518.147C3089.89 519.022 3089.72 519.993 3089.72 521.059C3089.72 522.126 3089.89 523.097 3090.23 523.971C3090.59 524.846 3091.09 525.603 3091.73 526.243C3092.37 526.883 3093.13 527.374 3094 527.715C3094.88 528.057 3095.84 528.227 3096.88 528.227C3097.99 528.227 3099.02 528.014 3099.96 527.587C3100.89 527.139 3101.75 526.467 3102.52 525.571L3105.84 528.643C3104.78 529.945 3103.45 530.937 3101.88 531.619C3100.32 532.302 3098.56 532.643 3096.6 532.643ZM3114.08 528.451V513.667H3118.21V528.451H3114.08ZM3108.55 523.011V519.107H3123.78V523.011H3108.55Z" fill="white"/>
<path d="M2958 349C2958 343.477 2962.48 339 2968 339H3045.25H3119.87C3125.39 339 3129.87 343.477 3129.87 349V396.972C3129.87 402.495 3125.39 406.972 3119.87 406.972H2968C2962.48 406.972 2958 402.495 2958 396.972V349Z" fill="white"/>
<path d="M3007.65 376.085V372.597L3018.21 358.389H3023.65L3013.32 372.597L3010.79 371.861H3028.42V376.085H3007.65ZM3019.72 380.789V376.085L3019.88 371.861V367.669H3024.77V380.789H3019.72ZM3039.57 381.173C3037.74 381.173 3036.09 380.725 3034.64 379.829C3033.19 378.912 3032.05 377.589 3031.22 375.861C3030.39 374.133 3029.97 372.042 3029.97 369.589C3029.97 367.136 3030.39 365.045 3031.22 363.317C3032.05 361.589 3033.19 360.277 3034.64 359.381C3036.09 358.464 3037.74 358.005 3039.57 358.005C3041.43 358.005 3043.07 358.464 3044.5 359.381C3045.95 360.277 3047.09 361.589 3047.92 363.317C3048.76 365.045 3049.17 367.136 3049.17 369.589C3049.17 372.042 3048.76 374.133 3047.92 375.861C3047.09 377.589 3045.95 378.912 3044.5 379.829C3043.07 380.725 3041.43 381.173 3039.57 381.173ZM3039.57 376.789C3040.45 376.789 3041.2 376.544 3041.84 376.053C3042.51 375.562 3043.02 374.784 3043.38 373.717C3043.76 372.65 3043.96 371.274 3043.96 369.589C3043.96 367.904 3043.76 366.528 3043.38 365.461C3043.02 364.394 3042.51 363.616 3041.84 363.125C3041.2 362.634 3040.45 362.389 3039.57 362.389C3038.72 362.389 3037.96 362.634 3037.3 363.125C3036.66 363.616 3036.15 364.394 3035.76 365.461C3035.4 366.528 3035.22 367.904 3035.22 369.589C3035.22 371.274 3035.4 372.65 3035.76 373.717C3036.15 374.784 3036.66 375.562 3037.3 376.053C3037.96 376.544 3038.72 376.789 3039.57 376.789ZM3054.92 380.789L3070.22 358.389H3074.03L3058.73 380.789H3054.92ZM3056.87 370.485C3055.79 370.485 3054.83 370.24 3053.99 369.749C3053.16 369.237 3052.5 368.522 3052.01 367.605C3051.54 366.666 3051.31 365.568 3051.31 364.309C3051.31 363.05 3051.54 361.962 3052.01 361.045C3052.5 360.128 3053.16 359.413 3053.99 358.901C3054.83 358.389 3055.79 358.133 3056.87 358.133C3057.96 358.133 3058.92 358.389 3059.75 358.901C3060.59 359.413 3061.24 360.128 3061.71 361.045C3062.18 361.962 3062.41 363.05 3062.41 364.309C3062.41 365.568 3062.18 366.666 3061.71 367.605C3061.24 368.522 3060.59 369.237 3059.75 369.749C3058.92 370.24 3057.96 370.485 3056.87 370.485ZM3056.87 367.861C3057.58 367.861 3058.14 367.573 3058.57 366.997C3059 366.4 3059.21 365.504 3059.21 364.309C3059.21 363.114 3059 362.229 3058.57 361.653C3058.14 361.056 3057.58 360.757 3056.87 360.757C3056.19 360.757 3055.63 361.056 3055.18 361.653C3054.75 362.229 3054.54 363.114 3054.54 364.309C3054.54 365.482 3054.75 366.368 3055.18 366.965C3055.63 367.562 3056.19 367.861 3056.87 367.861ZM3072.07 381.045C3071.01 381.045 3070.05 380.8 3069.19 380.309C3068.36 379.797 3067.71 379.082 3067.24 378.165C3066.77 377.226 3066.54 376.128 3066.54 374.869C3066.54 373.61 3066.77 372.522 3067.24 371.605C3067.71 370.688 3068.36 369.973 3069.19 369.461C3070.05 368.949 3071.01 368.693 3072.07 368.693C3073.18 368.693 3074.15 368.949 3074.99 369.461C3075.82 369.973 3076.47 370.688 3076.94 371.605C3077.41 372.522 3077.64 373.61 3077.64 374.869C3077.64 376.128 3077.41 377.226 3076.94 378.165C3076.47 379.082 3075.82 379.797 3074.99 380.309C3074.15 380.8 3073.18 381.045 3072.07 381.045ZM3072.07 378.421C3072.78 378.421 3073.34 378.133 3073.77 377.557C3074.2 376.96 3074.41 376.064 3074.41 374.869C3074.41 373.696 3074.2 372.81 3073.77 372.213C3073.34 371.616 3072.78 371.317 3072.07 371.317C3071.39 371.317 3070.83 371.616 3070.38 372.213C3069.95 372.789 3069.74 373.674 3069.74 374.869C3069.74 376.064 3069.95 376.96 3070.38 377.557C3070.83 378.133 3071.39 378.421 3072.07 378.421Z" fill="url(#paint2_linear_110_215)"/>
<path d="M3097.8 422.132L3087.9 411.055H3107.7L3097.8 422.132Z" fill="white"/>
<g filter="url(#filter2_f_110_215)">
<path d="M2800.34 529.951C2800.34 539.582 2791.83 547.944 2780.62 547.944C2769.42 547.944 2760.91 539.582 2760.91 529.951C2760.91 520.319 2769.42 511.957 2780.62 511.957C2791.83 511.957 2800.34 520.319 2800.34 529.951Z" stroke="#605DEC" stroke-width="9"/>
</g>
<path d="M2801.84 529.951C2801.84 540.512 2792.55 549.444 2780.62 549.444C2768.7 549.444 2759.41 540.512 2759.41 529.951C2759.41 519.389 2768.7 510.457 2780.62 510.457C2792.55 510.457 2801.84 519.389 2801.84 529.951Z" stroke="white" stroke-width="6"/>
<path d="M2631.85 600.384C2630.01 600.384 2628.37 599.936 2626.92 599.04C2625.47 598.123 2624.33 596.8 2623.5 595.072C2622.66 593.344 2622.25 591.253 2622.25 588.8C2622.25 586.347 2622.66 584.256 2623.5 582.528C2624.33 580.8 2625.47 579.488 2626.92 578.592C2628.37 577.675 2630.01 577.216 2631.85 577.216C2633.7 577.216 2635.35 577.675 2636.78 578.592C2638.23 579.488 2639.37 580.8 2640.2 582.528C2641.03 584.256 2641.45 586.347 2641.45 588.8C2641.45 591.253 2641.03 593.344 2640.2 595.072C2639.37 596.8 2638.23 598.123 2636.78 599.04C2635.35 599.936 2633.7 600.384 2631.85 600.384ZM2631.85 596C2632.72 596 2633.48 595.755 2634.12 595.264C2634.78 594.773 2635.29 593.995 2635.66 592.928C2636.04 591.861 2636.23 590.485 2636.23 588.8C2636.23 587.115 2636.04 585.739 2635.66 584.672C2635.29 583.605 2634.78 582.827 2634.12 582.336C2633.48 581.845 2632.72 581.6 2631.85 581.6C2630.99 581.6 2630.24 581.845 2629.58 582.336C2628.94 582.827 2628.42 583.605 2628.04 584.672C2627.68 585.739 2627.5 587.115 2627.5 588.8C2627.5 590.485 2627.68 591.861 2628.04 592.928C2628.42 593.995 2628.94 594.773 2629.58 595.264C2630.24 595.755 2630.99 596 2631.85 596ZM2646.5 600.256C2645.65 600.256 2644.92 599.968 2644.3 599.392C2643.7 598.795 2643.4 598.037 2643.4 597.12C2643.4 596.203 2643.7 595.467 2644.3 594.912C2644.92 594.336 2645.65 594.048 2646.5 594.048C2647.38 594.048 2648.12 594.336 2648.71 594.912C2649.31 595.467 2649.61 596.203 2649.61 597.12C2649.61 598.037 2649.31 598.795 2648.71 599.392C2648.12 599.968 2647.38 600.256 2646.5 600.256ZM2652.06 600V596.64L2660.7 588.48C2661.38 587.861 2661.88 587.307 2662.2 586.816C2662.52 586.325 2662.73 585.877 2662.84 585.472C2662.97 585.067 2663.03 584.693 2663.03 584.352C2663.03 583.456 2662.72 582.773 2662.1 582.304C2661.51 581.813 2660.62 581.568 2659.45 581.568C2658.51 581.568 2657.63 581.749 2656.82 582.112C2656.03 582.475 2655.36 583.04 2654.81 583.808L2651.03 581.376C2651.89 580.096 2653.08 579.083 2654.62 578.336C2656.15 577.589 2657.92 577.216 2659.93 577.216C2661.59 577.216 2663.04 577.493 2664.28 578.048C2665.54 578.581 2666.51 579.339 2667.19 580.32C2667.9 581.301 2668.25 582.475 2668.25 583.84C2668.25 584.565 2668.15 585.291 2667.96 586.016C2667.79 586.72 2667.43 587.467 2666.87 588.256C2666.34 589.045 2665.55 589.931 2664.5 590.912L2657.34 597.664L2656.34 595.776H2668.98V600H2652.06ZM2678.74 600.384C2677.18 600.384 2675.64 600.181 2674.1 599.776C2672.58 599.349 2671.28 598.752 2670.2 597.984L2672.24 594.016C2673.1 594.635 2674.08 595.125 2675.19 595.488C2676.32 595.851 2677.46 596.032 2678.61 596.032C2679.91 596.032 2680.94 595.776 2681.68 595.264C2682.43 594.752 2682.8 594.037 2682.8 593.12C2682.8 592.544 2682.65 592.032 2682.36 591.584C2682.06 591.136 2681.52 590.795 2680.76 590.56C2680.01 590.325 2678.95 590.208 2677.59 590.208H2671.86L2673.01 577.6H2686.68V581.76H2674.87L2677.56 579.392L2676.76 588.384L2674.07 586.016H2678.8C2681.02 586.016 2682.8 586.325 2684.15 586.944C2685.51 587.541 2686.5 588.363 2687.12 589.408C2687.74 590.453 2688.05 591.637 2688.05 592.96C2688.05 594.283 2687.72 595.509 2687.06 596.64C2686.4 597.749 2685.37 598.656 2683.99 599.36C2682.62 600.043 2680.87 600.384 2678.74 600.384ZM2707.31 600.256C2705.29 600.256 2703.71 599.744 2702.58 598.72C2701.45 597.675 2700.88 596.128 2700.88 594.08V578.976H2705.87V594.016C2705.87 594.741 2706.06 595.307 2706.45 595.712C2706.83 596.096 2707.36 596.288 2708.02 596.288C2708.81 596.288 2709.48 596.075 2710.03 595.648L2711.38 599.168C2710.86 599.531 2710.25 599.808 2709.52 600C2708.82 600.171 2708.08 600.256 2707.31 600.256ZM2698.22 587.008V583.168H2710.16V587.008H2698.22ZM2721.84 600.256C2720.01 600.256 2718.37 599.872 2716.94 599.104C2715.54 598.336 2714.42 597.291 2713.58 595.968C2712.77 594.624 2712.37 593.099 2712.37 591.392C2712.37 589.664 2712.77 588.139 2713.58 586.816C2714.42 585.472 2715.54 584.427 2716.94 583.68C2718.37 582.912 2720.01 582.528 2721.84 582.528C2723.65 582.528 2725.27 582.912 2726.7 583.68C2728.13 584.427 2729.25 585.461 2730.06 586.784C2730.87 588.107 2731.28 589.643 2731.28 591.392C2731.28 593.099 2730.87 594.624 2730.06 595.968C2729.25 597.291 2728.13 598.336 2726.7 599.104C2725.27 599.872 2723.65 600.256 2721.84 600.256ZM2721.84 596.16C2722.67 596.16 2723.42 595.968 2724.08 595.584C2724.74 595.2 2725.26 594.656 2725.65 593.952C2726.03 593.227 2726.22 592.373 2726.22 591.392C2726.22 590.389 2726.03 589.536 2725.65 588.832C2725.26 588.128 2724.74 587.584 2724.08 587.2C2723.42 586.816 2722.67 586.624 2721.84 586.624C2721.01 586.624 2720.26 586.816 2719.6 587.2C2718.94 587.584 2718.41 588.128 2718 588.832C2717.62 589.536 2717.42 590.389 2717.42 591.392C2717.42 592.373 2717.62 593.227 2718 593.952C2718.41 594.656 2718.94 595.2 2719.6 595.584C2720.26 595.968 2721.01 596.16 2721.84 596.16ZM2752.22 600.384C2750.39 600.384 2748.75 599.936 2747.3 599.04C2745.84 598.123 2744.7 596.8 2743.87 595.072C2743.04 593.344 2742.62 591.253 2742.62 588.8C2742.62 586.347 2743.04 584.256 2743.87 582.528C2744.7 580.8 2745.84 579.488 2747.3 578.592C2748.75 577.675 2750.39 577.216 2752.22 577.216C2754.08 577.216 2755.72 577.675 2757.15 578.592C2758.6 579.488 2759.74 580.8 2760.58 582.528C2761.41 584.256 2761.82 586.347 2761.82 588.8C2761.82 591.253 2761.41 593.344 2760.58 595.072C2759.74 596.8 2758.6 598.123 2757.15 599.04C2755.72 599.936 2754.08 600.384 2752.22 600.384ZM2752.22 596C2753.1 596 2753.86 595.755 2754.5 595.264C2755.16 594.773 2755.67 593.995 2756.03 592.928C2756.42 591.861 2756.61 590.485 2756.61 588.8C2756.61 587.115 2756.42 585.739 2756.03 584.672C2755.67 583.605 2755.16 582.827 2754.5 582.336C2753.86 581.845 2753.1 581.6 2752.22 581.6C2751.37 581.6 2750.61 581.845 2749.95 582.336C2749.31 582.827 2748.8 583.605 2748.42 584.672C2748.05 585.739 2747.87 587.115 2747.87 588.8C2747.87 590.485 2748.05 591.861 2748.42 592.928C2748.8 593.995 2749.31 594.773 2749.95 595.264C2750.61 595.755 2751.37 596 2752.22 596ZM2766.88 600.256C2766.03 600.256 2765.29 599.968 2764.67 599.392C2764.07 598.795 2763.78 598.037 2763.78 597.12C2763.78 596.203 2764.07 595.467 2764.67 594.912C2765.29 594.336 2766.03 594.048 2766.88 594.048C2767.75 594.048 2768.49 594.336 2769.09 594.912C2769.68 595.467 2769.98 596.203 2769.98 597.12C2769.98 598.037 2769.68 598.795 2769.09 599.392C2768.49 599.968 2767.75 600.256 2766.88 600.256ZM2779.93 600.384C2778.37 600.384 2776.82 600.181 2775.29 599.776C2773.77 599.349 2772.47 598.752 2771.38 597.984L2773.43 594.016C2774.28 594.635 2775.27 595.125 2776.37 595.488C2777.51 595.851 2778.65 596.032 2779.8 596.032C2781.1 596.032 2782.12 595.776 2782.87 595.264C2783.62 594.752 2783.99 594.037 2783.99 593.12C2783.99 592.544 2783.84 592.032 2783.54 591.584C2783.24 591.136 2782.71 590.795 2781.94 590.56C2781.2 590.325 2780.14 590.208 2778.77 590.208H2773.05L2774.2 577.6H2787.86V581.76H2776.05L2778.74 579.392L2777.94 588.384L2775.25 586.016H2779.99C2782.21 586.016 2783.99 586.325 2785.33 586.944C2786.7 587.541 2787.69 588.363 2788.31 589.408C2788.93 590.453 2789.24 591.637 2789.24 592.96C2789.24 594.283 2788.91 595.509 2788.25 596.64C2787.59 597.749 2786.56 598.656 2785.17 599.36C2783.81 600.043 2782.06 600.384 2779.93 600.384ZM2801.81 600V577.6H2812.76C2815.57 577.6 2817.68 578.133 2819.09 579.2C2820.52 580.267 2821.24 581.675 2821.24 583.424C2821.24 584.597 2820.95 585.621 2820.37 586.496C2819.8 587.349 2819.01 588.011 2818 588.48C2817 588.949 2815.85 589.184 2814.55 589.184L2815.16 587.872C2816.56 587.872 2817.81 588.107 2818.9 588.576C2819.99 589.024 2820.83 589.696 2821.43 590.592C2822.05 591.488 2822.36 592.587 2822.36 593.888C2822.36 595.808 2821.6 597.312 2820.08 598.4C2818.57 599.467 2816.34 600 2813.4 600H2801.81ZM2806.96 596.096H2813.01C2814.36 596.096 2815.37 595.883 2816.05 595.456C2816.76 595.008 2817.11 594.304 2817.11 593.344C2817.11 592.405 2816.76 591.712 2816.05 591.264C2815.37 590.795 2814.36 590.56 2813.01 590.56H2806.58V586.784H2812.12C2813.37 586.784 2814.33 586.571 2815 586.144C2815.68 585.696 2816.02 585.024 2816.02 584.128C2816.02 583.253 2815.68 582.603 2815 582.176C2814.33 581.728 2813.37 581.504 2812.12 581.504H2806.96V596.096ZM2830.61 600V581.824H2823.44V577.6H2842.96V581.824H2835.79V600H2830.61ZM2856.16 600.384C2854.43 600.384 2852.82 600.107 2851.33 599.552C2849.85 598.976 2848.57 598.165 2847.49 597.12C2846.4 596.075 2845.54 594.848 2844.93 593.44C2844.33 592.032 2844.03 590.485 2844.03 588.8C2844.03 587.115 2844.33 585.568 2844.93 584.16C2845.54 582.752 2846.4 581.525 2847.49 580.48C2848.59 579.435 2849.89 578.635 2851.36 578.08C2852.83 577.504 2854.44 577.216 2856.19 577.216C2858.13 577.216 2859.88 577.557 2861.44 578.24C2863.02 578.901 2864.34 579.883 2865.41 581.184L2862.08 584.256C2861.31 583.381 2860.46 582.731 2859.52 582.304C2858.58 581.856 2857.55 581.632 2856.45 581.632C2855.4 581.632 2854.44 581.803 2853.57 582.144C2852.69 582.485 2851.93 582.976 2851.29 583.616C2850.65 584.256 2850.15 585.013 2849.79 585.888C2849.45 586.763 2849.28 587.733 2849.28 588.8C2849.28 589.867 2849.45 590.837 2849.79 591.712C2850.15 592.587 2850.65 593.344 2851.29 593.984C2851.93 594.624 2852.69 595.115 2853.57 595.456C2854.44 595.797 2855.4 595.968 2856.45 595.968C2857.55 595.968 2858.58 595.755 2859.52 595.328C2860.46 594.88 2861.31 594.208 2862.08 593.312L2865.41 596.384C2864.34 597.685 2863.02 598.677 2861.44 599.36C2859.88 600.043 2858.12 600.384 2856.16 600.384Z" fill="white"/>
<path d="M2643.99 420C2643.99 414.477 2648.47 410 2653.99 410H2729.81H2803.03C2808.56 410 2813.03 414.477 2813.03 420V466.548C2813.03 472.071 2808.56 476.548 2803.03 476.548H2653.99C2648.47 476.548 2643.99 472.071 2643.99 466.548V420Z" fill="white"/>
<path d="M2700.37 451.947C2698.81 451.947 2697.26 451.744 2695.73 451.339C2694.19 450.912 2692.89 450.315 2691.82 449.547L2693.84 445.579C2694.69 446.198 2695.68 446.688 2696.81 447.051C2697.95 447.414 2699.09 447.595 2700.24 447.595C2701.54 447.595 2702.56 447.339 2703.31 446.827C2704.06 446.315 2704.43 445.611 2704.43 444.715C2704.43 443.862 2704.1 443.19 2703.44 442.699C2702.78 442.208 2701.71 441.963 2700.24 441.963H2697.87V438.539L2704.11 431.467L2704.69 433.323H2692.94V429.163H2708.62V432.523L2702.41 439.595L2699.79 438.091H2701.29C2704.05 438.091 2706.13 438.71 2707.53 439.947C2708.94 441.184 2709.65 442.774 2709.65 444.715C2709.65 445.974 2709.32 447.158 2708.65 448.267C2707.99 449.355 2706.98 450.24 2705.61 450.923C2704.25 451.606 2702.5 451.947 2700.37 451.947ZM2719.34 451.947C2717.79 451.947 2716.24 451.744 2714.7 451.339C2713.19 450.912 2711.89 450.315 2710.8 449.547L2712.85 445.579C2713.7 446.198 2714.68 446.688 2715.79 447.051C2716.92 447.414 2718.06 447.595 2719.22 447.595C2720.52 447.595 2721.54 447.339 2722.29 446.827C2723.03 446.315 2723.41 445.6 2723.41 444.683C2723.41 444.107 2723.26 443.595 2722.96 443.147C2722.66 442.699 2722.13 442.358 2721.36 442.123C2720.61 441.888 2719.56 441.771 2718.19 441.771H2712.46L2713.62 429.163H2727.28V433.323H2715.47L2718.16 430.955L2717.36 439.947L2714.67 437.579H2719.41C2721.63 437.579 2723.41 437.888 2724.75 438.507C2726.12 439.104 2727.11 439.926 2727.73 440.971C2728.35 442.016 2728.66 443.2 2728.66 444.523C2728.66 445.846 2728.33 447.072 2727.66 448.203C2727 449.312 2725.98 450.219 2724.59 450.923C2723.23 451.606 2721.48 451.947 2719.34 451.947ZM2733.68 451.563L2748.97 429.163H2752.78L2737.49 451.563H2733.68ZM2735.63 441.259C2734.54 441.259 2733.58 441.014 2732.75 440.523C2731.92 440.011 2731.26 439.296 2730.77 438.379C2730.3 437.44 2730.06 436.342 2730.06 435.083C2730.06 433.824 2730.3 432.736 2730.77 431.819C2731.26 430.902 2731.92 430.187 2732.75 429.675C2733.58 429.163 2734.54 428.907 2735.63 428.907C2736.72 428.907 2737.68 429.163 2738.51 429.675C2739.34 430.187 2739.99 430.902 2740.46 431.819C2740.93 432.736 2741.17 433.824 2741.17 435.083C2741.17 436.342 2740.93 437.44 2740.46 438.379C2739.99 439.296 2739.34 440.011 2738.51 440.523C2737.68 441.014 2736.72 441.259 2735.63 441.259ZM2735.63 438.635C2736.33 438.635 2736.9 438.347 2737.33 437.771C2737.75 437.174 2737.97 436.278 2737.97 435.083C2737.97 433.888 2737.75 433.003 2737.33 432.427C2736.9 431.83 2736.33 431.531 2735.63 431.531C2734.95 431.531 2734.38 431.83 2733.93 432.427C2733.51 433.003 2733.29 433.888 2733.29 435.083C2733.29 436.256 2733.51 437.142 2733.93 437.739C2734.38 438.336 2734.95 438.635 2735.63 438.635ZM2750.83 451.819C2749.76 451.819 2748.8 451.574 2747.95 451.083C2747.12 450.571 2746.47 449.856 2746 448.939C2745.53 448 2745.29 446.902 2745.29 445.643C2745.29 444.384 2745.53 443.296 2746 442.379C2746.47 441.462 2747.12 440.747 2747.95 440.235C2748.8 439.723 2749.76 439.467 2750.83 439.467C2751.94 439.467 2752.91 439.723 2753.74 440.235C2754.57 440.747 2755.23 441.462 2755.69 442.379C2756.16 443.296 2756.4 444.384 2756.4 445.643C2756.4 446.902 2756.16 448 2755.69 448.939C2755.23 449.856 2754.57 450.571 2753.74 451.083C2752.91 451.574 2751.94 451.819 2750.83 451.819ZM2750.83 449.195C2751.53 449.195 2752.1 448.907 2752.53 448.331C2752.95 447.734 2753.17 446.838 2753.17 445.643C2753.17 444.47 2752.95 443.584 2752.53 442.987C2752.1 442.39 2751.53 442.091 2750.83 442.091C2750.15 442.091 2749.58 442.39 2749.13 442.987C2748.71 443.563 2748.49 444.448 2748.49 445.643C2748.49 446.838 2748.71 447.734 2749.13 448.331C2749.58 448.907 2750.15 449.195 2750.83 449.195Z" fill="url(#paint3_linear_110_215)"/>
<path d="M2781.49 491.39L2771.75 480.545H2791.23L2781.49 491.39Z" fill="white"/>
<path d="M2013.96 0.620438L2013.96 765M2036.84 0.620438L2036.84 765M2059.72 0.620438L2059.72 765M2082.6 0.620438L2082.6 765M2105.48 0.620438L2105.48 765M2128.36 0.620438L2128.36 765M2151.24 0.620438L2151.24 765M2174.13 0.620438L2174.13 765M2197.01 0.620438L2197.01 765M2219.89 0.620438L2219.89 765M2242.77 0.620438V765M2265.65 0.620438V765M2288.53 0.620438V765M2311.41 0.620438V765M2334.29 0.620438V765M2357.18 0.620438V765M2380.06 0.620438V765M2402.94 0.620438V765M2425.82 0.620438V765M2448.7 0.620438L2448.7 765M2471.58 0.620438L2471.58 765M2494.46 0.620438L2494.46 765M2517.34 0.620438L2517.34 765M2013.55 764.38L2516.94 764.38M2013.55 729.635L2516.94 729.635M2013.55 694.891L2516.94 694.891M2013.55 660.146L2516.94 660.146M2013.55 625.401L2516.94 625.402M2013.55 590.657L2516.94 590.657M2013.55 555.912L2516.94 555.912M2013.55 521.168L2516.94 521.168M2013.55 486.423L2516.94 486.423M2013.55 451.679L2516.94 451.679M2013.55 416.934L2516.94 416.934M2013.55 382.19L2516.94 382.19M2013.55 347.445H2516.94M2013.55 312.701L2516.94 312.701M2013.55 277.956L2516.94 277.956M2013.55 243.212L2516.94 243.212M2013.55 208.467L2516.94 208.467M2013.55 173.723L2516.94 173.723M2013.55 138.978L2516.94 138.978M2013.55 104.234L2516.94 104.234M2013.55 69.4891L2516.94 69.4891M2013.55 34.7445L2516.94 34.7446M2013.55 0L2516.94 5.14551e-05" stroke="url(#paint4_linear_110_215)" stroke-opacity="0.1"/>
<path d="M503.796 0.620438L503.796 765M526.677 0.620438L526.677 765M549.558 0.620438L549.558 765M572.44 0.620438L572.439 765M595.321 0.620438L595.321 765M618.202 0.620438L618.202 765M641.083 0.620438L641.083 765M663.964 0.620438L663.964 765M686.846 0.620438L686.846 765M709.727 0.620438L709.727 765M732.608 0.620438V765M755.489 0.620438V765M778.371 0.620438V765M801.252 0.620438V765M824.133 0.620438V765M847.014 0.620438V765M869.896 0.620438V765M892.777 0.620438V765M915.658 0.620438V765M938.539 0.620438L938.539 765M961.42 0.620438L961.42 765M984.302 0.620438L984.302 765M1007.18 0.620438L1007.18 765M503.387 764.38L1006.77 764.38M503.387 729.635L1006.77 729.635M503.387 694.891L1006.77 694.891M503.387 660.146L1006.77 660.146M503.387 625.401L1006.77 625.402M503.387 590.657L1006.77 590.657M503.387 555.912L1006.77 555.913M503.387 521.168L1006.77 521.168M503.387 486.423L1006.77 486.423M503.387 451.679L1006.77 451.679M503.387 416.934L1006.77 416.934M503.387 382.19L1006.77 382.19M503.387 347.445L1006.77 347.445M503.387 312.701L1006.77 312.701M503.387 277.956L1006.77 277.956M503.387 243.212L1006.77 243.212M503.387 208.467L1006.77 208.467M503.387 173.723L1006.77 173.723M503.387 138.978L1006.77 138.978M503.387 104.234L1006.77 104.234M503.387 69.4891L1006.77 69.4891M503.387 34.7445L1006.77 34.7446M503.387 0L1006.77 5.14551e-05" stroke="url(#paint5_linear_110_215)" stroke-opacity="0.1"/>
<path d="M0.408615 0.620438L0.408593 765M23.2898 0.620438L23.2898 765M46.1711 0.620438L46.1711 765M69.0523 0.620438L69.0523 765M91.9335 0.620438L91.9335 765M114.815 0.620438L114.815 765M137.696 0.620438L137.696 765M160.577 0.620438L160.577 765M183.458 0.620438L183.458 765M206.34 0.620438L206.34 765M229.221 0.620438V765M252.102 0.620438V765M274.983 0.620438V765M297.865 0.620438V765M320.746 0.620438V765M343.627 0.620438V765M366.508 0.620438V765M389.39 0.620438V765M412.271 0.620438V765M435.152 0.620438L435.152 765M458.033 0.620438L458.033 765M480.915 0.620438L480.914 765M503.796 0.620438L503.796 765M0 764.38L503.387 764.38M0 729.635L503.387 729.635M0 694.891L503.387 694.891M0 660.146L503.387 660.146M0 625.401L503.387 625.402M0 590.657L503.387 590.657M0 555.912L503.387 555.913M0 521.168L503.387 521.168M0 486.423L503.387 486.423M0 451.679L503.387 451.679M0 416.934L503.387 416.934M0 382.19L503.387 382.19M0 347.445L503.387 347.445M0 312.701L503.387 312.701M0 277.956L503.387 277.956M0 243.212L503.387 243.212M0 208.467L503.387 208.467M0 173.723L503.387 173.723M0 138.978L503.387 138.978M0 104.234L503.387 104.234M0 69.4891L503.387 69.4891M0 34.7445L503.387 34.7446M0 0L503.387 5.14551e-05" stroke="url(#paint6_linear_110_215)" stroke-opacity="0.1"/>
<path d="M1007.18 0.620438L1007.18 765M1030.06 0.620438L1030.06 765M1052.95 0.620438L1052.95 765M1075.83 0.620438L1075.83 765M1098.71 0.620438L1098.71 765M1121.59 0.620438L1121.59 765M1144.47 0.620438L1144.47 765M1167.35 0.620438L1167.35 765M1190.23 0.620438L1190.23 765M1213.11 0.620438L1213.11 765M1236 0.620438V765M1258.88 0.620438V765M1281.76 0.620438V765M1304.64 0.620438V765M1327.52 0.620438V765M1350.4 0.620438V765M1373.28 0.620438V765M1396.16 0.620438V765M1419.05 0.620438V765M1441.93 0.620438L1441.93 765M1464.81 0.620438L1464.81 765M1487.69 0.620438L1487.69 765M1510.57 0.620438L1510.57 765M1006.77 764.38L1510.16 764.38M1006.77 729.635L1510.16 729.635M1006.77 694.891L1510.16 694.891M1006.77 660.146L1510.16 660.146M1006.77 625.401L1510.16 625.402M1006.77 590.657L1510.16 590.657M1006.77 555.912L1510.16 555.913M1006.77 521.168L1510.16 521.168M1006.77 486.423L1510.16 486.423M1006.77 451.679L1510.16 451.679M1006.77 416.934L1510.16 416.934M1006.77 382.19L1510.16 382.19M1006.77 347.445L1510.16 347.445M1006.77 312.701L1510.16 312.701M1006.77 277.956L1510.16 277.956M1006.77 243.212L1510.16 243.212M1006.77 208.467L1510.16 208.467M1006.77 173.723L1510.16 173.723M1006.77 138.978L1510.16 138.978M1006.77 104.234L1510.16 104.234M1006.77 69.4891L1510.16 69.4891M1006.77 34.7445L1510.16 34.7446M1006.77 0L1510.16 5.14551e-05" stroke="url(#paint7_linear_110_215)" stroke-opacity="0.1"/>
<path d="M1510.57 0.620438L1510.57 765M1533.45 0.620438L1533.45 765M1556.33 0.620438L1556.33 765M1579.21 0.620438L1579.21 765M1602.09 0.620438L1602.09 765M1624.98 0.620438L1624.98 765M1647.86 0.620438L1647.86 765M1670.74 0.620438L1670.74 765M1693.62 0.620438L1693.62 765M1716.5 0.620438L1716.5 765M1739.38 0.620438V765M1762.26 0.620438V765M1785.14 0.620438V765M1808.03 0.620438V765M1830.91 0.620438V765M1853.79 0.620438V765M1876.67 0.620438V765M1899.55 0.620438V765M1922.43 0.620438V765M1945.31 0.620438L1945.31 765M1968.19 0.620438L1968.19 765M1991.08 0.620438L1991.08 765M2013.96 0.620438L2013.96 765M1510.16 764.38L2013.55 764.38M1510.16 729.635L2013.55 729.635M1510.16 694.891L2013.55 694.891M1510.16 660.146L2013.55 660.146M1510.16 625.401L2013.55 625.402M1510.16 590.657L2013.55 590.657M1510.16 555.912L2013.55 555.913M1510.16 521.168L2013.55 521.168M1510.16 486.423L2013.55 486.423M1510.16 451.679L2013.55 451.679M1510.16 416.934L2013.55 416.934M1510.16 382.19L2013.55 382.19M1510.16 347.445L2013.55 347.445M1510.16 312.701L2013.55 312.701M1510.16 277.956L2013.55 277.956M1510.16 243.212L2013.55 243.212M1510.16 208.467L2013.55 208.467M1510.16 173.723L2013.55 173.723M1510.16 138.978L2013.55 138.978M1510.16 104.234L2013.55 104.234M1510.16 69.4891L2013.55 69.4891M1510.16 34.7445L2013.55 34.7446M1510.16 0L2013.55 5.14551e-05" stroke="url(#paint8_linear_110_215)" stroke-opacity="0.1"/>
<path d="M4531.3 0.620438L4531.3 765M4554.18 0.620438L4554.18 765M4577.06 0.620438L4577.06 765M4599.95 0.620438L4599.95 765M4622.83 0.620438L4622.83 765M4645.71 0.620438L4645.71 765M4668.59 0.620438L4668.59 765M4691.47 0.620438L4691.47 765M4714.35 0.620438L4714.35 765M4737.23 0.620438L4737.23 765M4760.11 0.620438V765M4782.99 0.620438V765M4805.88 0.620438V765M4828.76 0.620438V765M4851.64 0.620438V765M4874.52 0.620438V765M4897.4 0.620438V765M4920.28 0.620438V765M4943.16 0.620438V765M4966.04 0.620438L4966.04 765M4988.93 0.620438L4988.93 765M5011.81 0.620438L5011.81 765M5034.69 0.620438L5034.69 765M4530.89 764.38L5034.28 764.38M4530.89 729.635L5034.28 729.635M4530.89 694.891L5034.28 694.891M4530.89 660.146L5034.28 660.146M4530.89 625.401L5034.28 625.402M4530.89 590.657L5034.28 590.657M4530.89 555.912L5034.28 555.913M4530.89 521.168L5034.28 521.168M4530.89 486.423L5034.28 486.423M4530.89 451.679L5034.28 451.679M4530.89 416.934L5034.28 416.934M4530.89 382.19L5034.28 382.19M4530.89 347.445L5034.28 347.445M4530.89 312.701L5034.28 312.701M4530.89 277.956L5034.28 277.956M4530.89 243.212L5034.28 243.212M4530.89 208.467L5034.28 208.467M4530.89 173.723L5034.28 173.723M4530.89 138.978L5034.28 138.978M4530.89 104.234L5034.28 104.234M4530.89 69.4891L5034.28 69.4891M4530.89 34.7445L5034.28 34.7446M4530.89 0L5034.28 5.14551e-05" stroke="url(#paint9_linear_110_215)" stroke-opacity="0.1"/>
<path d="M3021.14 0.620438L3021.14 765M3044.02 0.620438L3044.02 765M3066.9 0.620438L3066.9 765M3089.78 0.620438L3089.78 765M3112.66 0.620438L3112.66 765M3135.55 0.620438L3135.55 765M3158.43 0.620438L3158.43 765M3181.31 0.620438L3181.31 765M3204.19 0.620438L3204.19 765M3227.07 0.620438L3227.07 765M3249.95 0.620438V765M3272.83 0.620438V765M3295.71 0.620438V765M3318.6 0.620438V765M3341.48 0.620438V765M3364.36 0.620438V765M3387.24 0.620438V765M3410.12 0.620438V765M3433 0.620438V765M3455.88 0.620438L3455.88 765M3478.76 0.620438L3478.76 765M3501.65 0.620438L3501.65 765M3524.53 0.620438L3524.53 765M3020.73 764.38L3524.12 764.38M3020.73 729.635L3524.12 729.635M3020.73 694.891L3524.12 694.891M3020.73 660.146L3524.12 660.146M3020.73 625.401L3524.12 625.402M3020.73 590.657L3524.12 590.657M3020.73 555.912L3524.12 555.912M3020.73 521.168L3524.12 521.168M3020.73 486.423L3524.12 486.423M3020.73 451.679L3524.12 451.679M3020.73 416.934L3524.12 416.934M3020.73 382.19L3524.12 382.19M3020.73 347.445L3524.12 347.445M3020.73 312.701L3524.12 312.701M3020.73 277.956L3524.12 277.956M3020.73 243.212L3524.12 243.212M3020.73 208.467L3524.12 208.467M3020.73 173.723L3524.12 173.723M3020.73 138.978L3524.12 138.978M3020.73 104.234L3524.12 104.234M3020.73 69.4891L3524.12 69.4891M3020.73 34.7445L3524.12 34.7446M3020.73 0L3524.12 5.14551e-05" stroke="url(#paint10_linear_110_215)" stroke-opacity="0.1"/>
<path d="M2517.75 0.620438L2517.75 765M2540.63 0.620438L2540.63 765M2563.52 0.620438L2563.52 765M2586.4 0.620438L2586.4 765M2609.28 0.620438L2609.28 765M2632.16 0.620438L2632.16 765M2655.04 0.620438L2655.04 765M2677.92 0.620438L2677.92 765M2700.8 0.620438L2700.8 765M2723.68 0.620438L2723.68 765M2746.57 0.620438V765M2769.45 0.620438V765M2792.33 0.620438V765M2815.21 0.620438V765M2838.09 0.620438V765M2860.97 0.620438V765M2883.85 0.620438V765M2906.73 0.620438V765M2929.61 0.620438V765M2952.5 0.620438L2952.5 765M2975.38 0.620438L2975.38 765M2998.26 0.620438L2998.26 765M3021.14 0.620438L3021.14 765M2517.34 764.38L3020.73 764.38M2517.34 729.635L3020.73 729.635M2517.34 694.891L3020.73 694.891M2517.34 660.146L3020.73 660.146M2517.34 625.401L3020.73 625.402M2517.34 590.657L3020.73 590.657M2517.34 555.912L3020.73 555.912M2517.34 521.168L3020.73 521.168M2517.34 486.423L3020.73 486.423M2517.34 451.679L3020.73 451.679M2517.34 416.934L3020.73 416.934M2517.34 382.19L3020.73 382.19M2517.34 347.445L3020.73 347.445M2517.34 312.701L3020.73 312.701M2517.34 277.956L3020.73 277.956M2517.34 243.212L3020.73 243.212M2517.34 208.467L3020.73 208.467M2517.34 173.723L3020.73 173.723M2517.34 138.978L3020.73 138.978M2517.34 104.234L3020.73 104.234M2517.34 69.4891L3020.73 69.4891M2517.34 34.7445L3020.73 34.7446M2517.34 0L3020.73 5.14551e-05" stroke="url(#paint11_linear_110_215)" stroke-opacity="0.1"/>
<path d="M3524.53 0.620438L3524.53 765M3547.41 0.620438L3547.41 765M3570.29 0.620438L3570.29 765M3593.17 0.620438L3593.17 765M3616.05 0.620438L3616.05 765M3638.93 0.620438L3638.93 765M3661.81 0.620438L3661.81 765M3684.7 0.620438L3684.7 765M3707.58 0.620438L3707.58 765M3730.46 0.620438L3730.46 765M3753.34 0.620438V765M3776.22 0.620438V765M3799.1 0.620438V765M3821.98 0.620438V765M3844.86 0.620438V765M3867.75 0.620438V765M3890.63 0.620438V765M3913.51 0.620438V765M3936.39 0.620438V765M3959.27 0.620438L3959.27 765M3982.15 0.620438L3982.15 765M4005.03 0.620438L4005.03 765M4027.91 0.620438L4027.91 765M3524.12 764.38L4027.51 764.38M3524.12 729.635L4027.51 729.635M3524.12 694.891L4027.51 694.891M3524.12 660.146L4027.51 660.146M3524.12 625.401L4027.51 625.402M3524.12 590.657L4027.51 590.657M3524.12 555.912L4027.51 555.913M3524.12 521.168L4027.51 521.168M3524.12 486.423L4027.51 486.423M3524.12 451.679L4027.51 451.679M3524.12 416.934L4027.51 416.934M3524.12 382.19L4027.51 382.19M3524.12 347.445L4027.51 347.445M3524.12 312.701L4027.51 312.701M3524.12 277.956L4027.51 277.956M3524.12 243.212L4027.51 243.212M3524.12 208.467L4027.51 208.467M3524.12 173.723L4027.51 173.723M3524.12 138.978L4027.51 138.978M3524.12 104.234L4027.51 104.234M3524.12 69.4891L4027.51 69.4891M3524.12 34.7445L4027.51 34.7446M3524.12 0L4027.51 5.14551e-05" stroke="url(#paint12_linear_110_215)" stroke-opacity="0.1"/>
<path d="M4027.91 0.620438L4027.91 765M4050.8 0.620438L4050.8 765M4073.68 0.620438L4073.68 765M4096.56 0.620438L4096.56 765M4119.44 0.620438L4119.44 765M4142.32 0.620438L4142.32 765M4165.2 0.620438L4165.2 765M4188.08 0.620438L4188.08 765M4210.96 0.620438L4210.96 765M4233.85 0.620438L4233.85 765M4256.73 0.620438V765M4279.61 0.620438V765M4302.49 0.620438V765M4325.37 0.620438V765M4348.25 0.620438V765M4371.13 0.620438V765M4394.01 0.620438V765M4416.9 0.620438V765M4439.78 0.620438V765M4462.66 0.620438L4462.66 765M4485.54 0.620438L4485.54 765M4508.42 0.620438L4508.42 765M4531.3 0.620438L4531.3 765M4027.51 764.38L4530.89 764.38M4027.51 729.635L4530.89 729.635M4027.51 694.891L4530.89 694.891M4027.51 660.146L4530.89 660.146M4027.51 625.401L4530.89 625.402M4027.51 590.657L4530.89 590.657M4027.51 555.912L4530.89 555.913M4027.51 521.168L4530.89 521.168M4027.51 486.423L4530.89 486.423M4027.51 451.679L4530.89 451.679M4027.51 416.934L4530.89 416.934M4027.51 382.19L4530.89 382.19M4027.51 347.445L4530.89 347.445M4027.51 312.701L4530.89 312.701M4027.51 277.956L4530.89 277.956M4027.51 243.212L4530.89 243.212M4027.51 208.467L4530.89 208.467M4027.51 173.723L4530.89 173.723M4027.51 138.978L4530.89 138.978M4027.51 104.234L4530.89 104.234M4027.51 69.4891L4530.89 69.4891M4027.51 34.7445L4530.89 34.7446M4027.51 0L4530.89 5.14551e-05" stroke="url(#paint13_linear_110_215)" stroke-opacity="0.1"/>
<g filter="url(#filter3_f_110_215)">
<path d="M2463.46 624C2463.46 632.671 2455.48 640.5 2444.59 640.5C2433.7 640.5 2425.71 632.671 2425.71 624C2425.71 615.329 2433.7 607.5 2444.59 607.5C2455.48 607.5 2463.46 615.329 2463.46 624Z" stroke="#605DEC" stroke-width="9"/>
</g>
<path d="M2464.96 624C2464.96 633.647 2456.15 642 2444.59 642C2433.03 642 2424.21 633.647 2424.21 624C2424.21 614.353 2433.03 606 2444.59 606C2456.15 606 2464.96 614.353 2464.96 624Z" stroke="white" stroke-width="6"/>
<path d="M2311.85 691.384C2310.01 691.384 2308.37 690.936 2306.92 690.04C2305.47 689.123 2304.33 687.8 2303.5 686.072C2302.66 684.344 2302.25 682.253 2302.25 679.8C2302.25 677.347 2302.66 675.256 2303.5 673.528C2304.33 671.8 2305.47 670.488 2306.92 669.592C2308.37 668.675 2310.01 668.216 2311.85 668.216C2313.7 668.216 2315.35 668.675 2316.78 669.592C2318.23 670.488 2319.37 671.8 2320.2 673.528C2321.03 675.256 2321.45 677.347 2321.45 679.8C2321.45 682.253 2321.03 684.344 2320.2 686.072C2319.37 687.8 2318.23 689.123 2316.78 690.04C2315.35 690.936 2313.7 691.384 2311.85 691.384ZM2311.85 687C2312.72 687 2313.48 686.755 2314.12 686.264C2314.78 685.773 2315.29 684.995 2315.66 683.928C2316.04 682.861 2316.23 681.485 2316.23 679.8C2316.23 678.115 2316.04 676.739 2315.66 675.672C2315.29 674.605 2314.78 673.827 2314.12 673.336C2313.48 672.845 2312.72 672.6 2311.85 672.6C2310.99 672.6 2310.24 672.845 2309.58 673.336C2308.94 673.827 2308.42 674.605 2308.04 675.672C2307.68 676.739 2307.5 678.115 2307.5 679.8C2307.5 681.485 2307.68 682.861 2308.04 683.928C2308.42 684.995 2308.94 685.773 2309.58 686.264C2310.24 686.755 2310.99 687 2311.85 687ZM2326.5 691.256C2325.65 691.256 2324.92 690.968 2324.3 690.392C2323.7 689.795 2323.4 689.037 2323.4 688.12C2323.4 687.203 2323.7 686.467 2324.3 685.912C2324.92 685.336 2325.65 685.048 2326.5 685.048C2327.38 685.048 2328.12 685.336 2328.71 685.912C2329.31 686.467 2329.61 687.203 2329.61 688.12C2329.61 689.037 2329.31 689.795 2328.71 690.392C2328.12 690.968 2327.38 691.256 2326.5 691.256ZM2334.86 691V670.52L2337.1 672.76H2330.38V668.6H2340.04V691H2334.86ZM2343.74 691V687.64L2352.38 679.48C2353.07 678.861 2353.57 678.307 2353.89 677.816C2354.21 677.325 2354.42 676.877 2354.53 676.472C2354.66 676.067 2354.72 675.693 2354.72 675.352C2354.72 674.456 2354.41 673.773 2353.79 673.304C2353.19 672.813 2352.31 672.568 2351.14 672.568C2350.2 672.568 2349.32 672.749 2348.51 673.112C2347.72 673.475 2347.05 674.04 2346.5 674.808L2342.72 672.376C2343.57 671.096 2344.77 670.083 2346.3 669.336C2347.84 668.589 2349.61 668.216 2351.62 668.216C2353.28 668.216 2354.73 668.493 2355.97 669.048C2357.23 669.581 2358.2 670.339 2358.88 671.32C2359.58 672.301 2359.94 673.475 2359.94 674.84C2359.94 675.565 2359.84 676.291 2359.65 677.016C2359.48 677.72 2359.11 678.467 2358.56 679.256C2358.03 680.045 2357.24 680.931 2356.19 681.912L2349.02 688.664L2348.03 686.776H2360.67V691H2343.74ZM2379.97 691.256C2377.94 691.256 2376.36 690.744 2375.23 689.72C2374.1 688.675 2373.54 687.128 2373.54 685.08V669.976H2378.53V685.016C2378.53 685.741 2378.72 686.307 2379.11 686.712C2379.49 687.096 2380.01 687.288 2380.67 687.288C2381.46 687.288 2382.13 687.075 2382.69 686.648L2384.03 690.168C2383.52 690.531 2382.9 690.808 2382.18 691C2381.47 691.171 2380.74 691.256 2379.97 691.256ZM2370.88 678.008V674.168H2382.82V678.008H2370.88ZM2394.5 691.256C2392.66 691.256 2391.03 690.872 2389.6 690.104C2388.19 689.336 2387.07 688.291 2386.24 686.968C2385.43 685.624 2385.02 684.099 2385.02 682.392C2385.02 680.664 2385.43 679.139 2386.24 677.816C2387.07 676.472 2388.19 675.427 2389.6 674.68C2391.03 673.912 2392.66 673.528 2394.5 673.528C2396.31 673.528 2397.93 673.912 2399.36 674.68C2400.79 675.427 2401.91 676.461 2402.72 677.784C2403.53 679.107 2403.94 680.643 2403.94 682.392C2403.94 684.099 2403.53 685.624 2402.72 686.968C2401.91 688.291 2400.79 689.336 2399.36 690.104C2397.93 690.872 2396.31 691.256 2394.5 691.256ZM2394.5 687.16C2395.33 687.16 2396.07 686.968 2396.74 686.584C2397.4 686.2 2397.92 685.656 2398.3 684.952C2398.69 684.227 2398.88 683.373 2398.88 682.392C2398.88 681.389 2398.69 680.536 2398.3 679.832C2397.92 679.128 2397.4 678.584 2396.74 678.2C2396.07 677.816 2395.33 677.624 2394.5 677.624C2393.66 677.624 2392.92 677.816 2392.26 678.2C2391.59 678.584 2391.06 679.128 2390.66 679.832C2390.27 680.536 2390.08 681.389 2390.08 682.392C2390.08 683.373 2390.27 684.227 2390.66 684.952C2391.06 685.656 2391.59 686.2 2392.26 686.584C2392.92 686.968 2393.66 687.16 2394.5 687.16ZM2424.88 691.384C2423.04 691.384 2421.4 690.936 2419.95 690.04C2418.5 689.123 2417.36 687.8 2416.53 686.072C2415.7 684.344 2415.28 682.253 2415.28 679.8C2415.28 677.347 2415.7 675.256 2416.53 673.528C2417.36 671.8 2418.5 670.488 2419.95 669.592C2421.4 668.675 2423.04 668.216 2424.88 668.216C2426.74 668.216 2428.38 668.675 2429.81 669.592C2431.26 670.488 2432.4 671.8 2433.23 673.528C2434.06 675.256 2434.48 677.347 2434.48 679.8C2434.48 682.253 2434.06 684.344 2433.23 686.072C2432.4 687.8 2431.26 689.123 2429.81 690.04C2428.38 690.936 2426.74 691.384 2424.88 691.384ZM2424.88 687C2425.75 687 2426.51 686.755 2427.15 686.264C2427.81 685.773 2428.32 684.995 2428.69 683.928C2429.07 682.861 2429.26 681.485 2429.26 679.8C2429.26 678.115 2429.07 676.739 2428.69 675.672C2428.32 674.605 2427.81 673.827 2427.15 673.336C2426.51 672.845 2425.75 672.6 2424.88 672.6C2424.03 672.6 2423.27 672.845 2422.61 673.336C2421.97 673.827 2421.46 674.605 2421.07 675.672C2420.71 676.739 2420.53 678.115 2420.53 679.8C2420.53 681.485 2420.71 682.861 2421.07 683.928C2421.46 684.995 2421.97 685.773 2422.61 686.264C2423.27 686.755 2424.03 687 2424.88 687ZM2439.54 691.256C2438.68 691.256 2437.95 690.968 2437.33 690.392C2436.73 689.795 2436.43 689.037 2436.43 688.12C2436.43 687.203 2436.73 686.467 2437.33 685.912C2437.95 685.336 2438.68 685.048 2439.54 685.048C2440.41 685.048 2441.15 685.336 2441.74 685.912C2442.34 686.467 2442.64 687.203 2442.64 688.12C2442.64 689.037 2442.34 689.795 2441.74 690.392C2441.15 690.968 2440.41 691.256 2439.54 691.256ZM2445.09 691V687.64L2453.73 679.48C2454.41 678.861 2454.91 678.307 2455.23 677.816C2455.55 677.325 2455.76 676.877 2455.87 676.472C2456 676.067 2456.06 675.693 2456.06 675.352C2456.06 674.456 2455.75 673.773 2455.14 673.304C2454.54 672.813 2453.65 672.568 2452.48 672.568C2451.54 672.568 2450.67 672.749 2449.86 673.112C2449.07 673.475 2448.39 674.04 2447.84 674.808L2444.06 672.376C2444.92 671.096 2446.11 670.083 2447.65 669.336C2449.18 668.589 2450.95 668.216 2452.96 668.216C2454.62 668.216 2456.07 668.493 2457.31 669.048C2458.57 669.581 2459.54 670.339 2460.22 671.32C2460.93 672.301 2461.28 673.475 2461.28 674.84C2461.28 675.565 2461.18 676.291 2460.99 677.016C2460.82 677.72 2460.46 678.467 2459.9 679.256C2459.37 680.045 2458.58 680.931 2457.54 681.912L2450.37 688.664L2449.38 686.776H2462.02V691H2445.09ZM2471.77 691.384C2470.21 691.384 2468.67 691.181 2467.13 690.776C2465.62 690.349 2464.31 689.752 2463.23 688.984L2465.27 685.016C2466.13 685.635 2467.11 686.125 2468.22 686.488C2469.35 686.851 2470.49 687.032 2471.64 687.032C2472.94 687.032 2473.97 686.776 2474.71 686.264C2475.46 685.752 2475.83 685.037 2475.83 684.12C2475.83 683.544 2475.68 683.032 2475.39 682.584C2475.09 682.136 2474.55 681.795 2473.79 681.56C2473.04 681.325 2471.98 681.208 2470.62 681.208H2464.89L2466.04 668.6H2479.71V672.76H2467.9L2470.59 670.392L2469.79 679.384L2467.1 677.016H2471.83C2474.05 677.016 2475.83 677.325 2477.18 677.944C2478.54 678.541 2479.54 679.363 2480.15 680.408C2480.77 681.453 2481.08 682.637 2481.08 683.96C2481.08 685.283 2480.75 686.509 2480.09 687.64C2479.43 688.749 2478.4 689.656 2477.02 690.36C2475.65 691.043 2473.9 691.384 2471.77 691.384ZM2493.66 691V668.6H2504.6C2507.42 668.6 2509.53 669.133 2510.94 670.2C2512.37 671.267 2513.08 672.675 2513.08 674.424C2513.08 675.597 2512.79 676.621 2512.22 677.496C2511.64 678.349 2510.85 679.011 2509.85 679.48C2508.85 679.949 2507.69 680.184 2506.39 680.184L2507 678.872C2508.41 678.872 2509.66 679.107 2510.74 679.576C2511.83 680.024 2512.67 680.696 2513.27 681.592C2513.89 682.488 2514.2 683.587 2514.2 684.888C2514.2 686.808 2513.44 688.312 2511.93 689.4C2510.41 690.467 2508.18 691 2505.24 691H2493.66ZM2498.81 687.096H2504.86C2506.2 687.096 2507.21 686.883 2507.9 686.456C2508.6 686.008 2508.95 685.304 2508.95 684.344C2508.95 683.405 2508.6 682.712 2507.9 682.264C2507.21 681.795 2506.2 681.56 2504.86 681.56H2498.42V677.784H2503.96C2505.22 677.784 2506.18 677.571 2506.84 677.144C2507.52 676.696 2507.86 676.024 2507.86 675.128C2507.86 674.253 2507.52 673.603 2506.84 673.176C2506.18 672.728 2505.22 672.504 2503.96 672.504H2498.81V687.096ZM2522.45 691V672.824H2515.28V668.6H2534.8V672.824H2527.64V691H2522.45ZM2548 691.384C2546.27 691.384 2544.66 691.107 2543.17 690.552C2541.7 689.976 2540.42 689.165 2539.33 688.12C2538.24 687.075 2537.39 685.848 2536.77 684.44C2536.17 683.032 2535.87 681.485 2535.87 679.8C2535.87 678.115 2536.17 676.568 2536.77 675.16C2537.39 673.752 2538.24 672.525 2539.33 671.48C2540.44 670.435 2541.73 669.635 2543.2 669.08C2544.67 668.504 2546.28 668.216 2548.03 668.216C2549.97 668.216 2551.72 668.557 2553.28 669.24C2554.86 669.901 2556.18 670.883 2557.25 672.184L2553.92 675.256C2553.15 674.381 2552.3 673.731 2551.36 673.304C2550.42 672.856 2549.4 672.632 2548.29 672.632C2547.24 672.632 2546.28 672.803 2545.41 673.144C2544.53 673.485 2543.78 673.976 2543.14 674.616C2542.5 675.256 2542 676.013 2541.63 676.888C2541.29 677.763 2541.12 678.733 2541.12 679.8C2541.12 680.867 2541.29 681.837 2541.63 682.712C2542 683.587 2542.5 684.344 2543.14 684.984C2543.78 685.624 2544.53 686.115 2545.41 686.456C2546.28 686.797 2547.24 686.968 2548.29 686.968C2549.4 686.968 2550.42 686.755 2551.36 686.328C2552.3 685.88 2553.15 685.208 2553.92 684.312L2557.25 687.384C2556.18 688.685 2554.86 689.677 2553.28 690.36C2551.72 691.043 2549.96 691.384 2548 691.384Z" fill="white"/>
<rect x="2311.02" y="513" width="163.626" height="61.5" rx="10" fill="white"/>
<path d="M2370.03 559.463C2368.47 559.463 2366.92 559.26 2365.39 558.855C2363.85 558.428 2362.55 557.831 2361.48 557.063L2363.5 553.095C2364.35 553.713 2365.34 554.204 2366.47 554.567C2367.6 554.929 2368.75 555.111 2369.9 555.111C2371.2 555.111 2372.22 554.855 2372.97 554.343C2373.72 553.831 2374.09 553.127 2374.09 552.231C2374.09 551.377 2373.76 550.705 2373.1 550.215C2372.44 549.724 2371.37 549.479 2369.9 549.479H2367.53V546.055L2373.77 538.983L2374.35 540.839H2362.6V536.679H2378.28V540.039L2372.07 547.111L2369.45 545.607H2370.95C2373.71 545.607 2375.79 546.225 2377.19 547.463C2378.6 548.7 2379.31 550.289 2379.31 552.231C2379.31 553.489 2378.97 554.673 2378.31 555.783C2377.65 556.871 2376.64 557.756 2375.27 558.439C2373.91 559.121 2372.16 559.463 2370.03 559.463ZM2391.3 559.463C2389.46 559.463 2387.82 559.015 2386.37 558.119C2384.92 557.201 2383.78 555.879 2382.95 554.151C2382.11 552.423 2381.7 550.332 2381.7 547.879C2381.7 545.425 2382.11 543.335 2382.95 541.607C2383.78 539.879 2384.92 538.567 2386.37 537.671C2387.82 536.753 2389.46 536.295 2391.3 536.295C2393.15 536.295 2394.8 536.753 2396.23 537.671C2397.68 538.567 2398.82 539.879 2399.65 541.607C2400.48 543.335 2400.9 545.425 2400.9 547.879C2400.9 550.332 2400.48 552.423 2399.65 554.151C2398.82 555.879 2397.68 557.201 2396.23 558.119C2394.8 559.015 2393.15 559.463 2391.3 559.463ZM2391.3 555.079C2392.17 555.079 2392.93 554.833 2393.57 554.343C2394.23 553.852 2394.74 553.073 2395.11 552.007C2395.49 550.94 2395.68 549.564 2395.68 547.879C2395.68 546.193 2395.49 544.817 2395.11 543.751C2394.74 542.684 2394.23 541.905 2393.57 541.415C2392.93 540.924 2392.17 540.679 2391.3 540.679C2390.45 540.679 2389.69 540.924 2389.03 541.415C2388.39 541.905 2387.87 542.684 2387.49 543.751C2387.13 544.817 2386.95 546.193 2386.95 547.879C2386.95 549.564 2387.13 550.94 2387.49 552.007C2387.87 553.073 2388.39 553.852 2389.03 554.343C2389.69 554.833 2390.45 555.079 2391.3 555.079ZM2406.65 559.079L2421.95 536.679H2425.75L2410.46 559.079H2406.65ZM2408.6 548.775C2407.51 548.775 2406.55 548.529 2405.72 548.039C2404.89 547.527 2404.23 546.812 2403.74 545.895C2403.27 544.956 2403.03 543.857 2403.03 542.599C2403.03 541.34 2403.27 540.252 2403.74 539.335C2404.23 538.417 2404.89 537.703 2405.72 537.191C2406.55 536.679 2407.51 536.423 2408.6 536.423C2409.69 536.423 2410.65 536.679 2411.48 537.191C2412.31 537.703 2412.96 538.417 2413.43 539.335C2413.9 540.252 2414.14 541.34 2414.14 542.599C2414.14 543.857 2413.9 544.956 2413.43 545.895C2412.96 546.812 2412.31 547.527 2411.48 548.039C2410.65 548.529 2409.69 548.775 2408.6 548.775ZM2408.6 546.151C2409.31 546.151 2409.87 545.863 2410.3 545.287C2410.72 544.689 2410.94 543.793 2410.94 542.599C2410.94 541.404 2410.72 540.519 2410.3 539.943C2409.87 539.345 2409.31 539.047 2408.6 539.047C2407.92 539.047 2407.35 539.345 2406.91 539.943C2406.48 540.519 2406.27 541.404 2406.27 542.599C2406.27 543.772 2406.48 544.657 2406.91 545.255C2407.35 545.852 2407.92 546.151 2408.6 546.151ZM2423.8 559.335C2422.73 559.335 2421.77 559.089 2420.92 558.599C2420.09 558.087 2419.44 557.372 2418.97 556.455C2418.5 555.516 2418.27 554.417 2418.27 553.159C2418.27 551.9 2418.5 550.812 2418.97 549.895C2419.44 548.977 2420.09 548.263 2420.92 547.751C2421.77 547.239 2422.73 546.983 2423.8 546.983C2424.91 546.983 2425.88 547.239 2426.71 547.751C2427.55 548.263 2428.2 548.977 2428.67 549.895C2429.13 550.812 2429.37 551.9 2429.37 553.159C2429.37 554.417 2429.13 555.516 2428.67 556.455C2428.2 557.372 2427.55 558.087 2426.71 558.599C2425.88 559.089 2424.91 559.335 2423.8 559.335ZM2423.8 556.711C2424.51 556.711 2425.07 556.423 2425.5 555.847C2425.92 555.249 2426.14 554.353 2426.14 553.159C2426.14 551.985 2425.92 551.1 2425.5 550.503C2425.07 549.905 2424.51 549.607 2423.8 549.607C2423.12 549.607 2422.55 549.905 2422.11 550.503C2421.68 551.079 2421.47 551.964 2421.47 553.159C2421.47 554.353 2421.68 555.249 2422.11 555.847C2422.55 556.423 2423.12 556.711 2423.8 556.711Z" fill="url(#paint14_linear_110_215)"/>
<path d="M2443.76 588L2434.36 577.875H2453.15L2443.76 588Z" fill="white"/>
</g>
<defs>
<filter id="filter0_f_110_215" x="2089.73" y="661.729" width="49.8843" height="47.5405" filterUnits="userSpaceOnUse" color-interpolation-filters="sRGB">
<feFlood flood-opacity="0" result="BackgroundImageFix"/>
<feBlend mode="normal" in="SourceGraphic" in2="BackgroundImageFix" result="shape"/>
<feGaussianBlur stdDeviation="2" result="effect1_foregroundBlur_110_215"/>
</filter>
<filter id="filter1_f_110_215" x="3068.3" y="434.542" width="57.2368" height="53.9497" filterUnits="userSpaceOnUse" color-interpolation-filters="sRGB">
<feFlood flood-opacity="0" result="BackgroundImageFix"/>
<feBlend mode="normal" in="SourceGraphic" in2="BackgroundImageFix" result="shape"/>
<feGaussianBlur stdDeviation="2" result="effect1_foregroundBlur_110_215"/>
</filter>
<filter id="filter2_f_110_215" x="2752.41" y="503.457" width="56.426" height="52.9868" filterUnits="userSpaceOnUse" color-interpolation-filters="sRGB">
<feFlood flood-opacity="0" result="BackgroundImageFix"/>
<feBlend mode="normal" in="SourceGraphic" in2="BackgroundImageFix" result="shape"/>
<feGaussianBlur stdDeviation="2" result="effect1_foregroundBlur_110_215"/>
</filter>
<filter id="filter3_f_110_215" x="2417.21" y="599" width="54.75" height="50" filterUnits="userSpaceOnUse" color-interpolation-filters="sRGB">
<feFlood flood-opacity="0" result="BackgroundImageFix"/>
<feBlend mode="normal" in="SourceGraphic" in2="BackgroundImageFix" result="shape"/>
<feGaussianBlur stdDeviation="2" result="effect1_foregroundBlur_110_215"/>
</filter>
<linearGradient id="paint0_linear_110_215" x1="2475" y1="413.92" x2="2475" y2="1297.08" gradientUnits="userSpaceOnUse">
<stop stop-color="#310C79" stop-opacity="0.78"/>
<stop offset="1" stop-color="#602C72"/>
</linearGradient>
<linearGradient id="paint1_linear_110_215" x1="2042.44" y1="607.311" x2="2113" y2="607.311" gradientUnits="userSpaceOnUse">
<stop stop-color="#4075FF"/>
<stop offset="1" stop-color="#EC77FF"/>
</linearGradient>
<linearGradient id="paint2_linear_110_215" x1="3011.14" y1="367.591" x2="3082.24" y2="367.591" gradientUnits="userSpaceOnUse">
<stop stop-color="#4075FF"/>
<stop offset="1" stop-color="#EC77FF"/>
</linearGradient>
<linearGradient id="paint3_linear_110_215" x1="2696.26" y1="437.992" x2="2766.19" y2="437.992" gradientUnits="userSpaceOnUse">
<stop stop-color="#4075FF"/>
<stop offset="1" stop-color="#EC77FF"/>
</linearGradient>
<linearGradient id="paint4_linear_110_215" x1="2265.45" y1="0" x2="2265.45" y2="765" gradientUnits="userSpaceOnUse">
<stop stop-color="white" stop-opacity="0"/>
<stop offset="0.34375" stop-color="white"/>
<stop offset="0.619792" stop-color="white" stop-opacity="0"/>
</linearGradient>
<linearGradient id="paint5_linear_110_215" x1="755.285" y1="0" x2="755.285" y2="765" gradientUnits="userSpaceOnUse">
<stop stop-color="white" stop-opacity="0"/>
<stop offset="0.34375" stop-color="white"/>
<stop offset="0.619792" stop-color="white" stop-opacity="0"/>
</linearGradient>
<linearGradient id="paint6_linear_110_215" x1="251.898" y1="0" x2="251.898" y2="765" gradientUnits="userSpaceOnUse">
<stop stop-color="white" stop-opacity="0"/>
<stop offset="0.34375" stop-color="white"/>
<stop offset="0.619792" stop-color="white" stop-opacity="0"/>
</linearGradient>
<linearGradient id="paint7_linear_110_215" x1="1258.67" y1="0" x2="1258.67" y2="765" gradientUnits="userSpaceOnUse">
<stop stop-color="white" stop-opacity="0"/>
<stop offset="0.34375" stop-color="white"/>
<stop offset="0.619792" stop-color="white" stop-opacity="0"/>
</linearGradient>
<linearGradient id="paint8_linear_110_215" x1="1762.06" y1="0" x2="1762.06" y2="765" gradientUnits="userSpaceOnUse">
<stop stop-color="white" stop-opacity="0"/>
<stop offset="0.34375" stop-color="white"/>
<stop offset="0.619792" stop-color="white" stop-opacity="0"/>
</linearGradient>
<linearGradient id="paint9_linear_110_215" x1="4782.79" y1="0" x2="4782.79" y2="765" gradientUnits="userSpaceOnUse">
<stop stop-color="white" stop-opacity="0"/>
<stop offset="0.34375" stop-color="white"/>
<stop offset="0.619792" stop-color="white" stop-opacity="0"/>
</linearGradient>
<linearGradient id="paint10_linear_110_215" x1="3272.63" y1="0" x2="3272.63" y2="765" gradientUnits="userSpaceOnUse">
<stop stop-color="white" stop-opacity="0"/>
<stop offset="0.34375" stop-color="white"/>
<stop offset="0.619792" stop-color="white" stop-opacity="0"/>
</linearGradient>
<linearGradient id="paint11_linear_110_215" x1="2769.24" y1="0" x2="2769.24" y2="765" gradientUnits="userSpaceOnUse">
<stop stop-color="white" stop-opacity="0"/>
<stop offset="0.34375" stop-color="white"/>
<stop offset="0.619792" stop-color="white" stop-opacity="0"/>
</linearGradient>
<linearGradient id="paint12_linear_110_215" x1="3776.02" y1="0" x2="3776.02" y2="765" gradientUnits="userSpaceOnUse">
<stop stop-color="white" stop-opacity="0"/>
<stop offset="0.34375" stop-color="white"/>
<stop offset="0.619792" stop-color="white" stop-opacity="0"/>
</linearGradient>
<linearGradient id="paint13_linear_110_215" x1="4279.4" y1="0" x2="4279.4" y2="765" gradientUnits="userSpaceOnUse">
<stop stop-color="white" stop-opacity="0"/>
<stop offset="0.34375" stop-color="white"/>
<stop offset="0.619792" stop-color="white" stop-opacity="0"/>
</linearGradient>
<linearGradient id="paint14_linear_110_215" x1="2365.76" y1="544.571" x2="2433.31" y2="544.571" gradientUnits="userSpaceOnUse">
<stop stop-color="#4075FF"/>
<stop offset="1" stop-color="#EC77FF"/>
</linearGradient>
<clipPath id="clip0_110_215">
<rect width="5040" height="998" fill="white"/>
</clipPath>
</defs>
</svg>
